<svg width="374" height="51" viewBox="0 0 374 51" fill="none" xmlns="http://www.w3.org/2000/svg">
<g clip-path="url(#clip0_528_5932)">
<path d="M1.17909 16.9141H5.71633V18.4935H6.8595V15.8709H6.08852V10.4263H1.7876L1.30611 14.419C1.24604 14.9335 1.1653 15.3037 1.06585 15.5307C0.966405 15.7576 0.831508 15.8709 0.662149 15.8709H0.0270538V18.4935H1.17909V16.9141ZM2.20509 15.5627C2.32521 15.2963 2.41383 14.9635 2.46799 14.5642L2.85071 11.47H4.87249V15.8709H2.01357C2.08533 15.7793 2.15161 15.68 2.20509 15.5627ZM8.55646 16.7511C8.95524 16.9564 9.41802 17.0598 9.94481 17.0598C10.38 17.0598 10.7778 16.985 11.1382 16.8373C11.4976 16.6891 11.793 16.4853 12.0224 16.2248L11.3873 15.4898C11.0122 15.9132 10.5523 16.1249 10.0078 16.1249C9.71145 16.1249 9.45051 16.0663 9.22306 15.9482C8.99659 15.83 8.81837 15.6577 8.6884 15.4307C8.61474 15.3034 8.56729 15.1572 8.53523 14.9999H12.0864V14.5913C12.0864 14.1197 11.987 13.7051 11.7871 13.3482C11.5872 12.9913 11.3105 12.7116 10.957 12.5088C10.6025 12.3064 10.1988 12.205 9.74492 12.205C9.27919 12.205 8.86071 12.3079 8.48852 12.5132C8.11632 12.719 7.8229 13.0051 7.60824 13.3708C7.39359 13.7371 7.28627 14.1591 7.28627 14.6371C7.28627 15.1147 7.39753 15.5351 7.62203 15.8984C7.84555 16.2613 8.15669 16.5458 8.55646 16.7511ZM8.65197 13.8248C8.75733 13.6037 8.90404 13.4344 9.0921 13.3167C9.27919 13.1985 9.49679 13.1395 9.74492 13.1395C9.98124 13.1395 10.1851 13.1971 10.3574 13.3118C10.5297 13.427 10.6666 13.5875 10.766 13.7928C10.8296 13.9245 10.8656 14.0764 10.8886 14.2378H8.52753C8.55375 14.0885 8.5924 13.9487 8.65197 13.8248ZM14.2439 13.3118H16.1591V16.9141H17.3574V12.3503H13.0466V16.9141H14.2439V13.3118ZM19.3457 14.2467C19.0099 14.3678 18.7519 14.5386 18.5698 14.7592C18.3886 14.9802 18.298 15.2481 18.298 15.5627C18.298 15.859 18.3718 16.119 18.5205 16.343C18.6682 16.567 18.876 16.7423 19.1418 16.8693C19.4077 16.9958 19.7169 17.0598 20.0674 17.0598C20.4544 17.0598 20.7951 16.9791 21.0885 16.8191C21.3047 16.7012 21.4735 16.5377 21.6192 16.3522V16.9141H22.7082V14.1108C22.7082 13.7051 22.6147 13.362 22.4266 13.0804C22.2395 12.7993 21.9757 12.5831 21.6369 12.432C21.2982 12.2808 20.9083 12.205 20.4672 12.205C20.0615 12.205 19.6863 12.273 19.3417 12.4093C18.9971 12.5452 18.7037 12.7343 18.4615 12.9765L19.0877 13.7022C19.257 13.5205 19.455 13.3802 19.6814 13.2803C19.9089 13.1803 20.1521 13.1306 20.412 13.1306C20.7695 13.1306 21.0501 13.2182 21.2559 13.3935C21.4441 13.5542 21.5356 13.7832 21.5518 14.065H20.5125C20.0704 14.065 19.6814 14.1256 19.3457 14.2467ZM21.5651 14.8458V15.4014C21.5352 15.4689 21.5071 15.5371 21.4646 15.5986C21.3435 15.7744 21.1869 15.9117 20.993 16.0117C20.799 16.1116 20.5843 16.1613 20.349 16.1613C20.1009 16.1613 19.9 16.1042 19.7454 15.989C19.5908 15.8743 19.514 15.7168 19.514 15.5169C19.514 15.2993 19.6135 15.1329 19.8134 15.0182C20.0133 14.903 20.2762 14.8458 20.6031 14.8458H21.5651ZM24.9615 16.3023C25.0978 16.501 25.2617 16.6762 25.4795 16.8058C25.763 16.9751 26.1017 17.0598 26.4956 17.0598C26.9249 17.0598 27.3119 16.9564 27.6575 16.7511C28.0021 16.5458 28.2768 16.2613 28.4826 15.8984C28.6884 15.5351 28.7918 15.1147 28.7918 14.6371C28.7918 14.1531 28.6904 13.7293 28.4875 13.3664C28.2847 13.0036 28.011 12.719 27.6663 12.5132C27.3217 12.3079 26.9407 12.205 26.5232 12.205C26.1904 12.205 25.893 12.273 25.6331 12.4093C25.3731 12.5452 25.1634 12.7313 25.0029 12.9671C24.9824 12.9973 24.9713 13.0323 24.9527 13.0634V12.3503H23.7642V18.6746H24.9615V16.3023ZM24.9615 14.6642C24.9615 14.3619 25.0177 14.1029 25.1299 13.8883C25.2422 13.6736 25.3958 13.5057 25.5927 13.3846C25.7896 13.2635 26.0141 13.203 26.2691 13.203C26.5291 13.203 26.7546 13.2635 26.9446 13.3846C27.1356 13.5057 27.2833 13.6736 27.3897 13.8883C27.495 14.1029 27.5482 14.3525 27.5482 14.6371C27.5482 14.9094 27.4921 15.154 27.3798 15.3721C27.2686 15.5897 27.113 15.7591 26.9131 15.8802C26.7132 16.0013 26.4808 16.0614 26.214 16.0614C25.9905 16.0614 25.7827 16.0176 25.5927 15.9299C25.4017 15.8423 25.2461 15.7182 25.125 15.5577C25.052 15.4614 25.0013 15.3538 24.9615 15.2407V14.6642ZM30.8349 16.9141H32.0323V13.3118H33.5752V12.3503H29.292V13.3118H30.8349V16.9141ZM35.2784 14.2467C34.9426 14.3678 34.6846 14.5386 34.5025 14.7592C34.3213 14.9802 34.2307 15.2481 34.2307 15.5627C34.2307 15.859 34.3046 16.119 34.4533 16.343C34.601 16.567 34.8087 16.7423 35.0746 16.8693C35.3404 16.9958 35.6496 17.0598 36.0001 17.0598C36.3871 17.0598 36.7278 16.9791 37.0212 16.8191C37.2375 16.7012 37.4063 16.5377 37.5519 16.3522V16.9141H38.6409V14.1108C38.6409 13.7051 38.5474 13.362 38.3593 13.0804C38.1723 12.7993 37.9084 12.5831 37.5697 12.432C37.2309 12.2808 36.841 12.205 36.3999 12.205C35.9942 12.205 35.6191 12.273 35.2744 12.4093C34.9298 12.5452 34.6364 12.7343 34.3942 12.9765L35.0204 13.7022C35.1898 13.5205 35.3877 13.3802 35.6142 13.2803C35.8416 13.1803 36.0848 13.1306 36.3448 13.1306C36.7022 13.1306 36.9828 13.2182 37.1886 13.3935C37.3768 13.5542 37.4684 13.7832 37.4845 14.065H36.4452C36.0031 14.065 35.6142 14.1256 35.2784 14.2467ZM37.4978 14.8458V15.4014C37.4679 15.4689 37.4398 15.5371 37.3973 15.5986C37.2762 15.7744 37.1197 15.9117 36.9257 16.0117C36.7317 16.1116 36.5171 16.1613 36.2817 16.1613C36.0336 16.1613 35.8327 16.1042 35.6782 15.989C35.5236 15.8743 35.4468 15.7168 35.4468 15.5169C35.4468 15.2993 35.5462 15.1329 35.7461 15.0182C35.946 14.903 36.2089 14.8458 36.5358 14.8458H37.4978ZM40.6941 13.945L42.0007 16.4429H42.7717L44.1059 13.8923V16.9141H45.1762V12.3503H43.906L42.4123 15.2422L40.8841 12.3503H39.6592V16.9141H40.6941V13.945ZM47.2743 16.7511C47.6731 16.9564 48.1359 17.0598 48.6626 17.0598C49.0978 17.0598 49.4956 16.985 49.856 16.8373C50.2154 16.6891 50.5108 16.4853 50.7402 16.2248L50.1051 15.4898C49.73 15.9132 49.2702 16.1249 48.7257 16.1249C48.4293 16.1249 48.1683 16.0663 47.9409 15.9482C47.7144 15.83 47.5362 15.6577 47.4062 15.4307C47.3326 15.3034 47.2851 15.1572 47.2531 14.9999H50.8042V14.5913C50.8042 14.1197 50.7048 13.7051 50.5049 13.3482C50.305 12.9913 50.0283 12.7116 49.6749 12.5088C49.3204 12.3064 48.9167 12.205 48.4628 12.205C47.997 12.205 47.5785 12.3079 47.2063 12.5132C46.8341 12.719 46.5407 13.0051 46.3261 13.3708C46.1114 13.7371 46.0041 14.1591 46.0041 14.6371C46.0041 15.1147 46.1154 15.5351 46.3399 15.8984C46.5634 16.2613 46.8745 16.5458 47.2743 16.7511ZM47.3698 13.8248C47.4752 13.6037 47.6219 13.4344 47.8099 13.3167C47.997 13.1985 48.2146 13.1395 48.4628 13.1395C48.6991 13.1395 48.9029 13.1971 49.0752 13.3118C49.2475 13.427 49.3844 13.5875 49.4838 13.7928C49.5475 13.9245 49.5834 14.0764 49.6065 14.2378H47.2454C47.2716 14.0885 47.3102 13.9487 47.3698 13.8248ZM54.8937 16.9141H56.0911V12.3503H54.8937V14.0379H52.8605V12.3503H51.6631V16.9141H52.8605V14.9999H54.8937V16.9141ZM59.7248 16.9141V13.3118H61.2678V12.3503H56.9846V13.3118H58.5275V16.9141H59.7248ZM0.0270538 23.4403V28.0051H1.22438V25.9251L3.12179 28.0051H4.89844L2.44817 25.6644L4.44614 23.4403H3.0125L1.22438 25.435V23.4403H0.0270538ZM6.64815 28.6629C6.52408 28.7446 6.37146 28.7859 6.19029 28.7859H5.6635V29.7657H6.25331C6.69541 29.7657 7.0489 29.6613 7.31574 29.4526C7.58159 29.2438 7.80215 28.9366 7.97742 28.5319L10.1466 23.4403H8.93942L7.62953 26.8255L6.33503 23.4403H5.09241L7.04299 28.014L6.94354 28.2769C6.87068 28.4531 6.77221 28.5811 6.64815 28.6629ZM14.759 28.0051V23.4403H11.174L10.8835 26.5439C10.8658 26.7192 10.8185 26.8432 10.7427 26.9161C10.6678 26.989 10.5448 27.0254 10.3754 27.0254H10.0672V28.0051H10.593C11.041 28.0051 11.3719 27.9175 11.5875 27.7422C11.8022 27.567 11.9331 27.2489 11.9814 26.7891L12.2203 24.4023H13.5607V28.0051H14.759ZM15.8799 23.4403V28.0051H18.1574C18.5266 28.0051 18.8486 27.9382 19.1243 27.8052C19.399 27.6723 19.6137 27.4852 19.7683 27.243C19.9229 27.0008 19.9997 26.7133 19.9997 26.3805C19.9997 25.9275 19.8333 25.5553 19.5005 25.2649C19.1676 24.9744 18.7206 24.8287 18.1574 24.8287H17.0319V23.4403H15.8799ZM18.0491 25.8005C18.2844 25.8005 18.4646 25.8527 18.5887 25.959C18.7127 26.0644 18.7748 26.217 18.7748 26.4169C18.7748 26.6168 18.7127 26.7714 18.5887 26.8797C18.4646 26.989 18.2844 27.0431 18.0491 27.0431H17.0319V25.8005H18.0491ZM22.7986 28.0051V24.4023H24.3415V23.4403H20.0583V24.4023H21.6013V28.0051H22.7986ZM29.9786 23.4403H28.7714L27.4616 26.8255L26.167 23.4403H24.9244L26.875 28.014L26.7756 28.2769C26.7027 28.4531 26.6042 28.5811 26.4802 28.6629C26.3561 28.7446 26.2035 28.7859 26.0223 28.7859H25.4955V29.7657H26.0853C26.5274 29.7657 26.8809 29.6613 27.1478 29.4526C27.4136 29.2438 27.6342 28.9366 27.8094 28.5319L29.9786 23.4403ZM35.3124 26.989C35.5182 26.6256 35.6216 26.2052 35.6216 25.7276C35.6216 25.2432 35.5202 24.8198 35.3174 24.4575C35.1145 24.0941 34.8408 23.8096 34.4962 23.6038C34.1515 23.398 33.7705 23.2956 33.353 23.2956C33.0202 23.2956 32.7228 23.3635 32.4629 23.4994C32.2029 23.6353 31.9932 23.8214 31.8327 24.0577C31.8122 24.0879 31.8011 24.1229 31.7825 24.154V23.4403H30.594V29.7657H31.7913V27.3929C31.9277 27.5912 32.0915 27.7662 32.3093 27.8958C32.5928 28.0652 32.9316 28.1499 33.3254 28.1499C33.7547 28.1499 34.1417 28.0475 34.4873 27.8417C34.8319 27.6359 35.1066 27.3513 35.3124 26.989ZM34.2096 26.4622C34.0984 26.6798 33.9428 26.8501 33.7429 26.9703C33.543 27.0914 33.3106 27.1524 33.0438 27.1524C32.8203 27.1524 32.6125 27.1081 32.4225 27.0205C32.2315 26.9328 32.0759 26.8088 31.9548 26.6483C31.8818 26.5516 31.8311 26.4442 31.7913 26.3314V25.7542C31.7913 25.4519 31.8475 25.194 31.9597 24.9783C32.072 24.7637 32.2256 24.5963 32.4225 24.4752C32.6194 24.3541 32.8439 24.294 33.0989 24.294C33.3589 24.294 33.5844 24.3541 33.7744 24.4752C33.9654 24.5963 34.1131 24.7637 34.2195 24.9783C34.3248 25.194 34.378 25.4431 34.378 25.7276C34.378 25.9994 34.3219 26.2446 34.2096 26.4622ZM41.1711 28.0051H42.3684V23.4403H41.1711V28.0051ZM37.7406 23.4403H36.5885V28.0051H38.8384C39.2018 28.0051 39.5228 27.9382 39.8004 27.8052C40.0791 27.6723 40.2937 27.4852 40.4454 27.243C40.596 27.0008 40.6718 26.7133 40.6718 26.3805C40.6718 25.9275 40.5054 25.5553 40.1726 25.2649C39.8398 24.9744 39.3957 24.8287 38.8384 24.8287H37.7406V23.4403ZM38.7213 25.8005C38.9566 25.8005 39.1388 25.8527 39.2658 25.959C39.3928 26.0644 39.4558 26.217 39.4558 26.4169C39.4558 26.6168 39.3928 26.7714 39.2658 26.8797C39.1388 26.989 38.9566 27.0431 38.7213 27.0431H37.7406V25.8005H38.7213ZM0.0270538 39.0962H1.22438V35.4933H3.38469V34.5314H0.0270538V39.0962ZM7.57413 34.6997C7.19308 34.491 6.75392 34.3866 6.25865 34.3866C5.76239 34.3866 5.32324 34.491 4.94218 34.6997C4.56112 34.9085 4.26474 35.194 4.05305 35.5573C3.84135 35.9197 3.73599 36.3411 3.73599 36.8187C3.73599 37.2903 3.84135 37.7078 4.05305 38.0711C4.26474 38.4335 4.56112 38.72 4.94218 38.9288C5.32324 39.1365 5.76239 39.2409 6.25865 39.2409C6.75392 39.2409 7.19308 39.1365 7.57413 38.9288C7.95519 38.72 8.25157 38.4325 8.46327 38.0662C8.67497 37.6999 8.78131 37.2815 8.78131 36.8098C8.78131 36.3372 8.67497 35.9197 8.46327 35.5573C8.25157 35.194 7.95519 34.9085 7.57413 34.6997ZM7.38311 37.5581C7.2748 37.7728 7.12317 37.9412 6.93018 38.0613C6.7362 38.1824 6.51269 38.2435 6.25865 38.2435C6.00461 38.2435 5.78011 38.1824 5.58712 38.0613C5.39315 37.9412 5.24151 37.7728 5.1332 37.5581C5.0239 37.3435 4.96975 37.0963 4.96975 36.8187C4.96975 36.5341 5.0239 36.285 5.1332 36.0694C5.24151 35.8547 5.39315 35.6873 5.58712 35.5662C5.78011 35.4451 6.00461 35.385 6.25865 35.385C6.51269 35.385 6.7362 35.4451 6.93018 35.5662C7.12317 35.6873 7.2748 35.8547 7.38311 36.0694C7.49241 36.285 7.54656 36.5312 7.54656 36.8098C7.54656 37.0934 7.49241 37.3435 7.38311 37.5581ZM13.3372 34.6948C12.9926 34.489 12.6115 34.3866 12.194 34.3866C11.8612 34.3866 11.5639 34.4545 11.3039 34.5904C11.044 34.7263 10.8343 34.9124 10.6738 35.1487C10.6533 35.1789 10.6421 35.2139 10.6235 35.245V34.5314H9.43507V40.8567H10.6324V38.4839C10.7687 38.6822 10.9326 38.8573 11.1503 38.9869C11.4339 39.1562 11.7726 39.2409 12.1665 39.2409C12.5958 39.2409 12.9827 39.1385 13.3284 38.9327C13.673 38.7269 13.9477 38.4424 14.1535 38.08C14.3593 37.7167 14.4627 37.2962 14.4627 36.8187C14.4627 36.3342 14.3613 35.9108 14.1584 35.5485C13.9556 35.1852 13.6818 34.9006 13.3372 34.6948ZM13.0507 37.5532C12.9394 37.7708 12.7838 37.9412 12.584 38.0613C12.3841 38.1824 12.1517 38.2435 11.8849 38.2435C11.6614 38.2435 11.4536 38.1992 11.2636 38.1115C11.0725 38.0239 10.917 37.8998 10.7959 37.7393C10.7229 37.6426 10.6722 37.5353 10.6324 37.4224V36.8453C10.6324 36.543 10.6885 36.285 10.8008 36.0694C10.913 35.8547 11.0666 35.6873 11.2636 35.5662C11.4605 35.4451 11.685 35.385 11.94 35.385C12.2 35.385 12.4254 35.4451 12.6155 35.5662C12.8065 35.6873 12.9542 35.8547 13.0605 36.0694C13.1659 36.285 13.2191 36.5341 13.2191 36.8187C13.2191 37.0904 13.1629 37.3356 13.0507 37.5532ZM18.9425 34.6997C18.5615 34.491 18.1223 34.3866 17.627 34.3866C17.1308 34.3866 16.6916 34.491 16.3106 34.6997C15.9295 34.9085 15.6331 35.194 15.4214 35.5573C15.2097 35.9197 15.1044 36.3411 15.1044 36.8187C15.1044 37.2903 15.2097 37.7078 15.4214 38.0711C15.6331 38.4335 15.9295 38.72 16.3106 38.9288C16.6916 39.1365 17.1308 39.2409 17.627 39.2409C18.1223 39.2409 18.5615 39.1365 18.9425 38.9288C19.3236 38.72 19.62 38.4325 19.8317 38.0662C20.0434 37.6999 20.1497 37.2815 20.1497 36.8098C20.1497 36.3372 20.0434 35.9197 19.8317 35.5573C19.62 35.194 19.3236 34.9085 18.9425 34.6997ZM18.7515 37.5581C18.6432 37.7728 18.4916 37.9412 18.2986 38.0613C18.1046 38.1824 17.8811 38.2435 17.627 38.2435C17.373 38.2435 17.1485 38.1824 16.9555 38.0613C16.7615 37.9412 16.6099 37.7728 16.5016 37.5581C16.3923 37.3435 16.3381 37.0963 16.3381 36.8187C16.3381 36.5341 16.3923 36.285 16.5016 36.0694C16.6099 35.8547 16.7615 35.6873 16.9555 35.5662C17.1485 35.4451 17.373 35.385 17.627 35.385C17.8811 35.385 18.1046 35.4451 18.2986 35.5662C18.4916 35.6873 18.6432 35.8547 18.7515 36.0694C18.8608 36.285 18.915 36.5312 18.915 36.8098C18.915 37.0934 18.8608 37.3435 18.7515 37.5581ZM25.3547 34.5314H21.8158L21.5254 37.245C21.5008 37.4873 21.4673 37.6714 21.4249 37.7984C21.3826 37.9254 21.3235 38.0131 21.2487 38.0613C21.1729 38.1105 21.0715 38.1342 20.9444 38.1342H20.5722V40.3398H21.6977V39.0962H24.9736V40.3398H26.0991V38.1342H25.3547V34.5314ZM24.1839 38.1342H22.3914C22.4114 38.1057 22.4378 38.0843 22.4549 38.0524C22.5484 37.8772 22.6144 37.6409 22.6498 37.3445L22.8535 35.4933H24.1839V38.1342ZM29.9458 34.6131C29.6071 34.4624 29.2172 34.3866 28.776 34.3866C28.3704 34.3866 27.9952 34.4545 27.6506 34.5904C27.306 34.7263 27.0125 34.9163 26.7703 35.1576L27.3966 35.8843C27.5659 35.7021 27.7638 35.5613 27.9903 35.4618C28.2177 35.3624 28.461 35.3122 28.7209 35.3122C29.0783 35.3122 29.3589 35.3998 29.5647 35.5751C29.753 35.7354 29.8445 35.9644 29.8607 36.2466H28.8213C28.3792 36.2466 27.9903 36.3076 27.6545 36.4278C27.3188 36.5489 27.0608 36.7202 26.8786 36.9408C26.6975 37.1623 26.6069 37.4292 26.6069 37.7442C26.6069 38.0406 26.6807 38.3006 26.8294 38.5241C26.9771 38.7486 27.1849 38.9238 27.4507 39.0509C27.7166 39.1779 28.0257 39.2409 28.3763 39.2409C28.7632 39.2409 29.1039 39.1611 29.3974 39.0007C29.6136 38.8831 29.7824 38.7197 29.9281 38.534V39.0962H31.0171V36.2919C31.0171 35.8872 30.9235 35.5436 30.7355 35.262C30.5484 34.9813 30.2845 34.7647 29.9458 34.6131ZM29.8739 37.5833C29.8441 37.6508 29.816 37.7192 29.7735 37.7807C29.6524 37.9559 29.4958 38.0938 29.3018 38.1932C29.1079 38.2927 28.8932 38.3429 28.6579 38.3429C28.4098 38.3429 28.2089 38.2858 28.0543 38.1706C27.8997 38.0554 27.8229 37.8978 27.8229 37.6989C27.8229 37.4813 27.9224 37.3149 28.1222 37.1997C28.3221 37.0845 28.585 37.0274 28.9119 37.0274H29.8739V37.5833ZM39.0558 37.0568L36.9364 32.6083H35.5215V39.0962H36.7011V34.4338L38.5975 38.3971H39.5044L41.3742 34.4909V39.0962H42.5715V32.6083H41.1743L39.0558 37.0568ZM47.1872 34.6997C46.8061 34.491 46.367 34.3866 45.8717 34.3866C45.3755 34.3866 44.9363 34.491 44.5553 34.6997C44.1742 34.9085 43.8778 35.194 43.6661 35.5573C43.4544 35.9197 43.3491 36.3411 43.3491 36.8187C43.3491 37.2903 43.4544 37.7078 43.6661 38.0711C43.8778 38.4335 44.1742 38.72 44.5553 38.9288C44.9363 39.1365 45.3755 39.2409 45.8717 39.2409C46.367 39.2409 46.8061 39.1365 47.1872 38.9288C47.5683 38.72 47.8646 38.4325 48.0763 38.0662C48.288 37.6999 48.3944 37.2815 48.3944 36.8098C48.3944 36.3372 48.288 35.9197 48.0763 35.5573C47.8646 35.194 47.5683 34.9085 47.1872 34.6997ZM46.9962 37.5581C46.8879 37.7728 46.7362 37.9412 46.5432 38.0613C46.3493 38.1824 46.1258 38.2435 45.8717 38.2435C45.6177 38.2435 45.3932 38.1824 45.2002 38.0613C45.0062 37.9412 44.8546 37.7728 44.7463 37.5581C44.637 37.3435 44.5828 37.0963 44.5828 36.8187C44.5828 36.5341 44.637 36.285 44.7463 36.0694C44.8546 35.8547 45.0062 35.6873 45.2002 35.5662C45.3932 35.4451 45.6177 35.385 45.8717 35.385C46.1258 35.385 46.3493 35.4451 46.5432 35.5662C46.7362 35.6873 46.8879 35.8547 46.9962 36.0694C47.1055 36.285 47.1596 36.5312 47.1596 36.8098C47.1596 37.0934 47.1055 37.3435 46.9962 37.5581ZM50.8474 35.5662C51.0473 35.4451 51.2777 35.385 51.5377 35.385C51.7976 35.385 52.0261 35.4451 52.223 35.5662C52.4189 35.6873 52.5814 35.8449 52.7084 36.0379L53.4518 35.3033C53.2165 35.0128 52.9319 34.7874 52.5991 34.6269C52.2663 34.4664 51.8912 34.3866 51.4737 34.3866C50.9961 34.3866 50.5678 34.491 50.1897 34.6997C49.8116 34.9085 49.5142 35.196 49.2956 35.5613C49.078 35.9276 48.9697 36.347 48.9697 36.8187C48.9697 37.2844 49.077 37.6999 49.2917 38.0662C49.5063 38.4325 49.8008 38.72 50.1759 38.9288C50.5511 39.1365 50.9745 39.2409 51.4471 39.2409C51.8764 39.2409 52.2584 39.1611 52.5942 39.0007C52.93 38.8411 53.2165 38.6127 53.4518 38.3153L52.7084 37.5897C52.5814 37.7836 52.4209 37.9412 52.2269 38.0613C52.0329 38.1824 51.8035 38.2435 51.5377 38.2435C51.2777 38.2435 51.0473 38.1824 50.8474 38.0613C50.6485 37.9412 50.491 37.7708 50.3758 37.5532C50.2606 37.3356 50.2035 37.0904 50.2035 36.8187C50.2035 36.54 50.2606 36.2919 50.3758 36.0743C50.491 35.8567 50.6485 35.6873 50.8474 35.5662ZM58.6131 34.5314H57.1794L55.3913 36.5261V34.5314H54.194V39.0962H55.3913V37.0162L57.2887 39.0962H58.7943L56.6151 36.7555L58.6131 34.5314ZM62.7842 36.7109C62.9771 36.6233 63.1402 36.5117 63.259 36.3648C63.3948 36.1954 63.4628 35.9926 63.4628 35.7572C63.4628 35.3821 63.3161 35.0837 63.0226 34.8632C62.7292 34.6426 62.3285 34.5314 61.8204 34.5314H59.4701V39.0962H61.911C62.2497 39.0962 62.552 39.043 62.8188 38.9376C63.0847 38.8313 63.2944 38.6787 63.449 38.4788C63.6036 38.2799 63.6804 38.0524 63.6804 37.7984C63.6804 37.5207 63.5878 37.2824 63.4037 37.0865C63.2411 36.9126 63.0294 36.7926 62.7842 36.7109ZM60.5502 35.3939H61.6294C61.8716 35.3939 62.0429 35.4313 62.1424 35.5071C62.2418 35.5829 62.292 35.7021 62.292 35.8655C62.292 36.029 62.2418 36.1531 62.1424 36.2377C62.0429 36.3224 61.8716 36.3648 61.6294 36.3648H60.5502V35.3939ZM62.3147 38.0977C62.1847 38.1883 61.9898 38.2336 61.7298 38.2336H60.5502V37.1456H61.7298C61.9898 37.1456 62.1847 37.1909 62.3147 37.2815C62.4447 37.372 62.5096 37.5079 62.5096 37.6901C62.5096 37.8713 62.4447 38.0071 62.3147 38.0977ZM66.7865 35.9197H65.6886V34.5314H64.5366V39.0962H66.7865C67.1499 39.0962 67.4708 39.0292 67.7485 38.8963C68.0272 38.7634 68.2418 38.5763 68.3935 38.334C68.5441 38.0918 68.6199 37.8043 68.6199 37.4715C68.6199 37.0186 68.4535 36.6464 68.1207 36.3559C67.7879 36.0654 67.3438 35.9197 66.7865 35.9197ZM67.2139 37.9707C67.0868 38.08 66.9047 38.1342 66.6693 38.1342H65.6886V36.8915H66.6693C66.9047 36.8915 67.0868 36.9437 67.2139 37.0501C67.3409 37.1554 67.4039 37.308 67.4039 37.5079C67.4039 37.7078 67.3409 37.8624 67.2139 37.9707ZM69.1191 34.5314V39.0962H70.3165V34.5314H69.1191Z" fill="white"/>
</g>
<path d="M94.6022 26.4428L95.545 25.5L100.73 30.6854L99.7877 31.6283L94.6022 26.4428Z" fill="white"/>
<path d="M88.474 20.3146L89.4168 19.3717L94.6022 24.5572L93.6594 25.5L88.474 20.3146Z" fill="white"/>
<path d="M93.6594 25.5L94.6022 26.4428L89.4167 31.6282L88.4739 30.6854L93.6594 25.5Z" fill="white"/>
<path d="M99.7876 19.3717L100.73 20.3145L95.545 25.5L94.6022 24.5572L99.7876 19.3717Z" fill="white"/>
<path fill-rule="evenodd" clip-rule="evenodd" d="M127.653 25.2434C128.739 25.7362 129.672 26.9268 129.672 28.6502C129.672 30.8665 128.526 32.2817 127.069 32.7127C126.176 33 125.245 33 124.391 33H119.204V18.0006H124.701C125.38 18.0006 126.138 18.0205 126.895 18.2262C128.197 18.5951 129.4 19.7446 129.4 21.8584C129.4 23.8074 128.351 24.7512 127.653 25.1413V25.2434ZM124.797 24.505C125.303 24.505 125.768 24.4431 126.157 24.1975C126.72 23.869 127.109 23.1714 127.109 22.125C127.109 21.0988 126.642 20.4215 125.962 20.1759C125.634 20.032 125.226 19.9902 124.701 19.9902H121.458V24.505H124.797ZM127.322 28.6502C127.322 27.5624 126.818 26.9468 126.215 26.6802C125.827 26.5157 125.38 26.4748 124.992 26.4748H121.458V31.0301H124.954C125.38 31.0301 125.789 30.9893 126.119 30.8665C126.876 30.558 127.322 29.8398 127.322 28.6502Z" fill="white"/>
<path fill-rule="evenodd" clip-rule="evenodd" d="M147.651 30.8042L146.136 32.9994H131.882L139.611 18.0001H144.35V30.866L147.651 30.8042ZM142.136 30.9678V19.8261H140.661L135.048 30.9678H142.136Z" fill="white"/>
<path fill-rule="evenodd" clip-rule="evenodd" d="M162.59 18.0001V32.9999H160.337V26.0435H153.133V32.9999H150.899V18.0001H153.133V23.9917H160.337V18.0001H162.59Z" fill="white"/>
<path fill-rule="evenodd" clip-rule="evenodd" d="M172.447 26.8844L168.544 32.9994H166.291L171.379 25.2638L166.525 18H169.224L172.758 23.2941L176.116 18H178.292L173.806 24.8944L179.204 32.9994H176.524L172.447 26.8844Z" fill="white"/>
<path d="M203.807 26.4428L204.75 25.5L209.935 30.6854L208.992 31.6283L203.807 26.4428Z" fill="white"/>
<path d="M197.678 20.3146L198.621 19.3717L203.807 24.5572L202.864 25.5L197.678 20.3146Z" fill="white"/>
<path d="M202.864 25.5L203.807 26.4428L198.621 31.6282L197.678 30.6854L202.864 25.5Z" fill="white"/>
<path d="M208.992 19.3717L209.935 20.3145L204.75 25.5L203.807 24.5572L208.992 19.3717Z" fill="white"/>
<path fill-rule="evenodd" clip-rule="evenodd" d="M243.859 47.8685C243.982 47.8196 244.115 47.8465 244.244 47.8465C244.422 47.8514 244.602 47.8281 244.778 47.8538C244.699 47.9162 244.514 47.9052 244.515 48.0434C244.475 48.436 244.508 48.8335 244.497 49.2285C244.508 49.6053 244.466 49.9869 244.537 50.3599C244.598 50.4639 244.737 50.4345 244.838 50.4639V50.5103C244.541 50.5103 244.243 50.5103 243.947 50.5103C243.947 50.4993 243.949 50.4773 243.95 50.4663C244.207 50.47 244.174 50.1801 244.185 50.0028C244.18 49.3276 244.199 48.6525 244.172 47.9786C244.07 47.9358 243.963 47.9027 243.859 47.8673V47.8685ZM267.985 47.7939C268.027 47.7364 268.053 47.822 268.08 47.8465C268.174 47.8404 268.277 47.8293 268.366 47.8685C268.294 47.9186 268.147 47.8991 268.12 47.9994C268 48.6623 268.207 49.3643 267.974 50.0089C267.652 50.7904 266.291 50.755 266.064 49.9159C265.926 49.3007 266.03 48.6647 265.983 48.0422C265.958 47.8929 265.774 47.9235 265.667 47.8722C265.797 47.811 265.941 47.8489 266.078 47.8465C266.253 47.8514 266.427 47.8281 266.6 47.8563C266.515 47.8868 266.433 47.9247 266.355 47.97C266.283 48.3247 266.335 48.6916 266.319 49.0512C266.325 49.423 266.278 49.845 266.522 50.1581C266.792 50.5079 267.378 50.4993 267.653 50.1581C267.815 49.9465 267.848 49.6676 267.848 49.4083C267.847 49.0108 267.848 48.6133 267.848 48.2171C267.839 48.1266 267.86 48.0177 267.787 47.9492C267.699 47.9199 267.61 47.8942 267.521 47.8709C267.667 47.7914 267.858 47.904 267.985 47.7939ZM243.325 43.1156C243.571 43.0838 243.82 43.1266 244.066 43.1107C244.197 43.1107 244.337 43.0765 244.457 43.1474C244.349 43.1988 244.149 43.1719 244.132 43.3321C244.086 43.7663 244.122 44.2066 244.114 44.642C244.535 44.1821 245 43.765 245.394 43.2819C245.35 43.2208 245.308 43.1621 245.264 43.1034C245.572 43.1266 245.883 43.0985 246.192 43.1119C246.061 43.2085 245.889 43.211 245.757 43.3027C245.524 43.4642 245.342 43.6868 245.137 43.8788C244.896 44.1038 244.658 44.3338 244.437 44.5784C244.937 45.0872 245.409 45.6217 245.947 46.0926C246.13 46.2675 246.37 46.3629 246.619 46.3886V46.446C246.35 46.4424 246.075 46.4766 245.813 46.4057C245.589 46.3127 245.415 46.1354 245.243 45.9703C244.858 45.5691 244.478 45.1618 244.114 44.7435C244.126 45.2279 244.081 45.7159 244.143 46.1978C244.171 46.391 244.414 46.3531 244.55 46.4081C244.358 46.4803 244.15 46.4363 243.95 46.4375C243.765 46.4314 243.575 46.4766 243.394 46.4155C243.485 46.3519 243.667 46.3812 243.693 46.243C243.738 46.0522 243.736 45.8528 243.742 45.6584C243.742 44.9649 243.742 44.2714 243.742 43.5779C243.73 43.4691 243.748 43.3419 243.677 43.2514C243.566 43.1914 243.436 43.178 243.326 43.1144L243.325 43.1156ZM246.888 36.7666C246.452 37.0711 246.098 37.5518 246.086 38.101C246.036 38.951 246.66 39.7998 247.509 39.9417C248.331 40.0322 249.163 39.8414 249.915 39.5136C250.864 39.0892 251.691 38.4349 252.424 37.7047C251.514 36.9928 250.454 36.4217 249.298 36.2676C248.474 36.1538 247.581 36.2786 246.889 36.7654L246.888 36.7666ZM248.578 26.0365C249.235 26.0377 249.889 26.0304 250.546 26.0402C251.063 26.9367 251.588 27.8307 252.113 28.7236C253.187 30.5815 254.321 32.4038 255.405 34.2556C255.83 33.6636 256.241 33.0619 256.628 32.4442C256.138 31.6137 255.657 30.7771 255.164 29.9467C254.558 28.9413 253.913 27.9616 253.232 27.0052C252.628 26.171 252.007 25.3467 251.309 24.5896C250.95 24.2178 250.586 23.8349 250.125 23.5891C249.591 24.3914 249.074 25.2072 248.578 26.0353V26.0365ZM244.324 9.97498C242.116 10.9877 240.088 12.4762 238.635 14.4417C237.481 15.9987 236.704 17.881 236.641 19.8355C236.625 20.7014 236.787 21.5918 237.237 22.3416C237.705 23.1427 238.497 23.7395 239.389 23.9842C240.487 24.2936 241.717 24.1236 242.675 23.4974C243.448 23.0032 244.011 22.2021 244.239 21.3142C244.269 21.2078 244.286 21.0952 244.354 21.006C244.398 20.9644 244.403 20.9069 244.353 20.8702C244.358 20.743 244.37 20.617 244.378 20.491C243.97 21.6224 243.299 22.7342 242.226 23.3396C241.464 23.7799 240.522 23.9022 239.678 23.6454C238.655 23.353 237.805 22.5532 237.41 21.5661C237.071 20.7564 237.046 19.8489 237.198 18.994C237.515 17.0737 238.481 15.3003 239.793 13.8803C241.109 12.4529 242.76 11.3595 244.536 10.5951C246.544 9.72914 248.714 9.27416 250.892 9.14696C252.498 9.05645 254.119 9.12005 255.704 9.4087C257.561 9.75483 259.413 10.4336 260.86 11.6861C261.637 12.3575 262.28 13.2002 262.659 14.1604C263.144 15.3504 263.194 16.708 262.81 17.9323C262.633 18.5231 262.337 19.0649 262.048 19.6055C261.615 20.3895 261.128 21.1515 260.524 21.8144C259.846 22.5715 259.007 23.1855 258.069 23.5769C256.877 24.082 255.564 24.2361 254.278 24.2043C252.88 24.1603 251.496 23.9095 250.141 23.5695C251.397 21.6921 252.754 19.8306 254.539 18.4216C255.561 17.6156 256.736 17.0053 257.982 16.6334C258.667 16.4182 259.378 16.302 260.082 16.1687C259.175 16.1332 258.26 16.1613 257.364 16.3191C255.472 16.6261 253.694 17.4627 252.164 18.6075C251.355 19.2141 250.574 19.8673 249.914 20.6378C249.003 21.6884 248.221 22.8442 247.459 24.0062C246.272 25.8457 245.114 27.7035 244.004 29.5908C242.742 31.7091 241.51 33.8556 240.016 35.8224C239.261 36.7996 238.437 37.7365 237.453 38.4874C236.614 39.132 235.637 39.6261 234.586 39.7888C233.736 39.9185 232.861 39.8549 232.027 39.653C231.127 39.4256 230.242 38.9388 229.746 38.1279C229.271 37.3549 229.16 36.3165 229.616 35.5105C230.1 34.6482 231.159 34.0844 232.141 34.3204C232.876 34.4916 233.471 35.1448 233.555 35.9006C233.609 36.2541 233.497 36.5978 233.387 36.928C233.615 36.5525 233.735 36.1 233.664 35.6609C233.581 35.0799 233.193 34.5711 232.689 34.2849C232.222 34.0146 231.652 33.951 231.128 34.0697C230.127 34.2764 229.246 35.0653 229.015 36.078C228.852 36.8546 228.985 37.6912 229.378 38.3798C229.837 39.1883 230.639 39.7423 231.497 40.0567C232.496 40.4175 233.576 40.5055 234.631 40.4334C235.894 40.3502 237.132 39.9637 238.233 39.3399C239.187 38.8055 240.042 38.1095 240.825 37.35C242.487 35.7111 243.852 33.8018 245.15 31.8669C246.372 29.9821 247.392 27.9738 248.564 26.0573C249.016 26.867 249.467 27.6754 249.928 28.479C248.716 30.5533 247.453 32.6008 246.033 34.5418C244.878 36.0951 243.659 37.6484 242.067 38.7785C241.12 39.4684 240.053 39.9772 238.941 40.3368C241.039 40.0616 242.978 38.9779 244.486 37.5139C245.222 36.7617 245.936 35.9838 246.603 35.1668C248.069 33.3737 249.281 31.3924 250.467 29.4085C251.186 30.5643 251.866 31.7422 252.574 32.9053C253.139 33.8385 253.667 34.7999 254.333 35.6683C253.792 36.3348 253.21 36.9708 252.585 37.5591C251.466 36.7115 250.136 35.9973 248.698 36.0217C247.778 36.0376 246.783 36.3177 246.186 37.0626C245.499 37.904 245.696 39.3032 246.592 39.9185C247.065 40.2707 247.676 40.3135 248.244 40.3172C248.872 40.2438 249.502 40.1386 250.094 39.9099C251.158 39.5185 252.092 38.8507 252.965 38.1389C253.685 38.7345 254.296 39.4488 254.857 40.1936C255.526 41.0963 256.12 42.0613 256.546 43.1046C256.285 42.0576 255.724 41.1159 255.121 40.2316C254.543 39.417 253.891 38.644 253.111 38.0153C253.737 37.5029 254.327 36.9464 254.866 36.3434C256.004 37.7145 257.387 38.9168 259.02 39.6543C260.26 40.2157 261.644 40.4786 263.003 40.3551C262.136 40.3527 261.266 40.1667 260.486 39.7839C259.449 39.2873 258.569 38.5144 257.813 37.6558C257.105 36.8595 256.493 35.9838 255.914 35.091C256.353 34.5283 256.76 33.9413 257.158 33.3481C257.459 33.8446 257.743 34.351 258.063 34.8366C259.189 36.4938 260.635 37.9505 262.348 38.995C263.965 39.9747 265.878 40.5276 267.774 40.3514C267.18 40.3465 266.586 40.2487 266.026 40.0457C265.078 39.7056 264.239 39.1149 263.51 38.4275C261.887 36.8767 260.717 34.9332 259.593 33.008C259.25 32.4075 258.875 31.8253 258.539 31.2199C258.905 30.6328 259.265 30.0433 259.617 29.4477C260.564 31.0572 261.508 32.6693 262.491 34.2568C263.074 35.1986 263.717 36.1061 264.469 36.9207C265.748 38.3174 267.338 39.4769 269.165 40.0212C270.255 40.3612 271.414 40.4468 272.547 40.3343C273.474 40.2291 274.404 39.9613 275.177 39.4231C275.816 38.9816 276.316 38.3236 276.514 37.5665C276.667 36.9635 276.71 36.303 276.48 35.7135C276.189 34.9466 275.515 34.351 274.733 34.1259C274.199 33.9743 273.605 33.9462 273.088 34.1724C272.558 34.3962 272.117 34.8573 271.965 35.4187C271.853 35.9067 271.924 36.451 272.213 36.8669C272.135 36.6394 272.043 36.4119 272.025 36.1709C271.93 35.0983 272.964 34.0819 274.032 34.2091C274.854 34.2739 275.655 34.7607 276.014 35.519C276.527 36.5953 276.185 37.9897 275.27 38.7419C274.576 39.3338 273.675 39.6213 272.783 39.7313C271.548 39.8818 270.258 39.7044 269.146 39.1308C268.278 38.7052 267.561 38.0361 266.899 37.3426C265.961 36.3189 265.113 35.2059 264.43 33.9939C264.009 33.282 263.587 32.5739 263.16 31.8657C261.988 29.9357 260.859 27.98 259.716 26.0328C259.015 26.0328 258.314 26.0291 257.614 26.0353C258.098 26.8547 258.586 27.673 259.058 28.501C258.696 29.0893 258.338 29.6813 257.983 30.2745C257.637 29.6862 257.343 29.0685 256.959 28.5034C255.758 26.6541 254.094 25.0519 252.054 24.1774C252.425 24.2263 252.782 24.3462 253.15 24.4122C254.571 24.7082 256.033 24.8574 257.482 24.7192C258.73 24.5994 259.965 24.2349 261.041 23.583C262.617 22.6461 263.783 21.1442 264.587 19.515C265.176 18.3127 265.45 16.938 265.253 15.6048C265.108 14.5982 264.702 13.6369 264.117 12.8076C263.461 11.8708 262.594 11.0965 261.639 10.4764C259.519 9.10904 257.009 8.46081 254.514 8.26511C251.05 8.02417 247.497 8.52441 244.325 9.97254L244.324 9.97498ZM251.552 3.10738C251.925 2.70743 252.485 2.46771 253.033 2.54843C253.437 2.60225 253.804 2.81873 254.091 3.10493C253.309 3.79353 252.936 4.8356 252.819 5.85075C252.703 4.83682 252.327 3.80209 251.552 3.10738ZM269.509 48.2501C269.535 48.085 269.515 47.9027 269.614 47.7584C269.997 48.5094 270.337 49.2811 270.732 50.0248C271.027 49.4047 271.314 48.7809 271.604 48.1596C271.672 48.0201 271.715 47.8587 271.842 47.7572C271.943 48.5461 272.013 49.3399 272.108 50.1287C272.121 50.2229 272.15 50.3208 272.224 50.3868C272.331 50.4418 272.455 50.4467 272.571 50.4785C272.311 50.5434 272.043 50.4969 271.781 50.4859C271.827 50.2841 271.785 50.0786 271.769 49.8768C271.722 49.4145 271.687 48.9509 271.637 48.4898C271.316 49.176 271.019 49.8756 270.658 50.5409C270.3 49.8866 270.011 49.1968 269.671 48.5338C269.626 49.1442 269.544 49.7533 269.527 50.366C269.607 50.4321 269.714 50.4529 269.807 50.4993C269.532 50.5152 269.258 50.5152 268.985 50.4993C269.087 50.4443 269.263 50.4467 269.275 50.3012C269.37 49.6199 269.428 48.9326 269.51 48.2489L269.509 48.2501ZM261.409 47.9309C261.692 47.7229 262.066 47.789 262.387 47.8477C262.387 48.0214 262.38 48.195 262.359 48.3675C262.317 48.2733 262.288 48.173 262.241 48.0825C262.002 47.7951 261.388 47.9125 261.408 48.3394C261.45 48.7014 261.826 48.8702 262.066 49.0952C262.4 49.3362 262.57 49.8217 262.357 50.1948C262.11 50.6094 261.516 50.6547 261.117 50.4602C261.032 50.2963 261.11 50.0823 261.104 49.9H261.159C261.169 50.0761 261.222 50.2828 261.404 50.3562C261.697 50.5238 262.152 50.3709 262.182 50.004C262.222 49.6909 261.96 49.4768 261.744 49.3007C261.511 49.1075 261.239 48.8995 261.181 48.5828C261.137 48.3467 261.196 48.0666 261.409 47.9296V47.9309ZM254.165 47.756C254.296 47.8893 254.361 48.0678 254.439 48.2342C254.732 48.8372 255.027 49.4389 255.316 50.0443C255.675 49.2909 256.008 48.5253 256.383 47.7816C256.397 47.7914 256.422 47.811 256.435 47.822C256.557 48.6231 256.591 49.4389 256.724 50.2376C256.754 50.4308 256.969 50.4406 257.122 50.4651C257.122 50.4761 257.12 50.4993 257.119 50.5103C256.869 50.5128 256.62 50.5067 256.371 50.4859C256.414 50.2877 256.377 50.0872 256.359 49.889C256.314 49.4291 256.276 48.9693 256.228 48.5094C256 48.9766 255.785 49.4512 255.561 49.922C255.459 50.13 255.383 50.3538 255.238 50.5373C254.888 49.8915 254.617 49.2041 254.259 48.5632C254.209 49.0806 254.167 49.6004 254.124 50.1177C254.124 50.2058 254.099 50.3 254.135 50.3868C254.213 50.4321 254.3 50.4614 254.382 50.5006C254.116 50.5116 253.848 50.5152 253.582 50.4969C253.669 50.4602 253.755 50.4272 253.843 50.3941C253.993 49.5209 254.031 48.6305 254.165 47.7547V47.756ZM246.616 48.3296C246.499 48.6623 246.397 48.9998 246.287 49.335C246.515 49.335 246.743 49.335 246.971 49.335C246.853 48.9998 246.738 48.6635 246.616 48.3296ZM246.641 47.8061C246.658 47.8061 246.692 47.8073 246.709 47.8086C247.037 48.5913 247.304 49.3998 247.639 50.1801C247.707 50.3672 247.885 50.4565 248.075 50.4736C248.064 50.4822 248.043 50.5018 248.032 50.5116C247.804 50.5116 247.576 50.5103 247.349 50.514C247.343 50.1483 247.128 49.8279 247.027 49.483C246.761 49.483 246.496 49.483 246.23 49.4854C246.148 49.7581 246.035 50.0211 245.971 50.3C245.924 50.4492 246.12 50.4406 246.207 50.4908C245.931 50.525 245.653 50.5042 245.375 50.5116C245.375 50.5006 245.375 50.4785 245.374 50.4675C245.483 50.437 245.63 50.4418 245.689 50.3244C245.822 50.0994 245.885 49.8401 245.98 49.5979C246.204 49.0011 246.408 48.3969 246.641 47.8049V47.8061ZM241.917 47.9076C242.202 47.7242 242.557 47.7902 242.867 47.8477C242.865 48.0189 242.855 48.1902 242.836 48.3614C242.796 48.2684 242.766 48.1706 242.72 48.0813C242.481 47.7927 241.865 47.9113 241.886 48.3369C241.927 48.7149 242.331 48.8824 242.575 49.1221C242.905 49.3704 243.046 49.8731 242.81 50.2315C242.535 50.6241 241.952 50.6461 241.554 50.4418C241.563 50.2425 241.547 50.0382 241.617 49.8474C241.655 50.0064 241.657 50.2021 241.803 50.3098C242.008 50.4577 242.324 50.4663 242.515 50.2914C242.699 50.1214 242.704 49.8132 242.553 49.6212C242.308 49.3105 241.919 49.1344 241.724 48.7797C241.576 48.4972 241.621 48.0776 241.916 47.9076H241.917ZM235.682 47.8697C235.841 47.8134 236.01 47.8514 236.174 47.8465C236.322 47.8465 236.475 47.8232 236.62 47.8624C236.535 47.9199 236.364 47.9015 236.357 48.036C236.315 48.4115 236.35 48.7907 236.338 49.1674C236.338 49.5172 236.316 49.922 236.576 50.1948C236.877 50.5409 237.511 50.4724 237.731 50.0688C237.909 49.7398 237.861 49.3545 237.866 48.9962C237.859 48.6782 237.883 48.3577 237.855 48.0409C237.824 47.8954 237.646 47.9199 237.538 47.8746C237.792 47.7902 238.067 47.8856 238.328 47.8281C238.338 47.8697 238.348 47.9125 238.358 47.9565C238.277 47.9247 238.186 47.8819 238.137 47.9871C238.041 48.5852 238.171 49.2004 238.059 49.7973C237.998 50.1324 237.746 50.4186 237.419 50.5152C236.993 50.6412 236.452 50.5556 236.192 50.1618C235.997 49.8499 236.013 49.4646 236.01 49.1111C236.003 48.7564 236.025 48.4005 236 48.0458C235.974 47.8954 235.787 47.9211 235.68 47.8709L235.682 47.8697ZM262.863 43.1144C263.275 43.1046 263.691 43.1009 264.103 43.118C264.011 43.1608 263.914 43.1853 263.821 43.2208C263.761 43.337 263.854 43.4642 263.889 43.5767C264.22 44.2726 264.538 44.9747 264.878 45.6669C264.937 45.5936 264.966 45.503 265.002 45.4187C265.25 44.7655 265.508 44.1148 265.739 43.4544C265.757 43.381 265.8 43.3039 265.776 43.2281C265.683 43.1878 265.586 43.1572 265.498 43.1107C265.841 43.1083 266.185 43.1021 266.527 43.1193C266.394 43.1878 266.216 43.1902 266.125 43.3247C266.013 43.485 265.949 43.6733 265.875 43.8531C265.541 44.6726 265.207 45.4908 264.872 46.3103C264.783 46.5133 264.669 46.7273 264.471 46.8423C264.299 46.9377 264.093 46.8815 263.93 46.7971C263.88 46.5549 263.88 46.2834 263.976 46.051C264.013 46.2626 264.027 46.5891 264.303 46.6197C264.554 46.583 264.633 46.3017 264.719 46.0999C264.254 45.2071 263.81 44.3044 263.348 43.4104C263.27 43.2049 263.032 43.2012 262.864 43.1144H262.863ZM231.215 43.1462C231.358 43.0789 231.517 43.1034 231.669 43.107C231.915 43.1242 232.163 43.0985 232.41 43.0972L232.415 43.1596C232.327 43.1804 232.23 43.1804 232.153 43.2342C232.153 43.3712 232.211 43.4984 232.265 43.6219C232.589 44.3142 232.919 45.004 233.238 45.6987C233.504 45.0432 233.754 44.3815 233.999 43.7173C234.052 43.5608 234.121 43.4067 234.142 43.2416C234.086 43.1621 233.964 43.1926 233.883 43.1633V43.1009C234.214 43.1156 234.546 43.1046 234.876 43.1131C234.739 43.1878 234.553 43.1988 234.464 43.3419C234.413 43.4152 234.375 43.4984 234.338 43.5828C233.972 44.4818 233.605 45.3795 233.237 46.2785C233.132 46.5182 232.999 46.7934 232.731 46.8802C232.577 46.9084 232.398 46.8802 232.275 46.7787C232.263 46.5476 232.203 46.2711 232.339 46.0681C232.364 46.2675 232.38 46.5524 232.616 46.6136C232.878 46.6332 232.982 46.325 233.058 46.1268C233.014 45.9617 232.917 45.8174 232.847 45.6645C232.455 44.905 232.081 44.1356 231.682 43.3798C231.602 43.1963 231.38 43.1939 231.215 43.1474V43.1462ZM267.26 43.1083C267.66 43.1058 268.091 42.9395 268.466 43.1498C268.832 43.3382 268.863 43.8629 268.637 44.1723C268.539 44.3154 268.399 44.4194 268.257 44.5124C268.56 44.6249 268.835 44.856 268.942 45.1691C269.059 45.5777 268.86 46.0388 268.504 46.2577C268.048 46.5463 267.465 46.5304 266.97 46.358C266.946 46.1109 266.969 45.8626 266.996 45.6168C267.013 45.6168 267.048 45.6168 267.065 45.618C267.081 45.7477 267.081 45.8908 267.161 46.0008C267.475 46.4485 268.267 46.3776 268.51 45.8932C268.685 45.4994 268.522 44.9881 268.139 44.7863C267.942 44.6603 267.702 44.6995 267.481 44.6787C267.504 44.4463 267.771 44.5894 267.92 44.5283C268.267 44.4059 268.467 43.995 268.417 43.6403C268.357 43.2452 267.8 43.0789 267.515 43.337C267.33 43.4703 267.282 43.6978 267.178 43.8861C267.152 43.6219 267.22 43.3639 267.261 43.107L267.26 43.1083ZM261.371 43.4507C261.446 43.2978 261.496 43.1229 261.63 43.008C261.753 43.7846 261.808 44.5735 261.903 45.3551C261.947 45.6376 261.928 45.936 262.042 46.2026C262.142 46.391 262.388 46.3457 262.561 46.4057C262.225 46.495 261.866 46.4387 261.522 46.4363C261.544 46.4094 261.586 46.3555 261.608 46.3286C261.546 45.5226 261.466 44.7178 261.387 43.913C260.998 44.7655 260.596 45.6119 260.194 46.4583C260.137 46.4142 260.08 46.3665 260.05 46.298C259.649 45.53 259.277 44.7472 258.925 43.9546C258.858 44.7264 258.783 45.4969 258.732 46.2699C258.839 46.3482 258.971 46.3751 259.096 46.4155C258.917 46.4717 258.731 46.435 258.548 46.4375C258.391 46.4375 258.228 46.4681 258.077 46.4142C258.2 46.3555 258.425 46.3775 258.435 46.1904C258.543 45.3612 258.624 44.5282 258.716 43.6966C258.749 43.4617 258.736 43.2159 258.837 42.997C259.338 43.9338 259.771 44.9074 260.246 45.859C260.626 45.0578 260.997 44.2518 261.372 43.4483L261.371 43.4507ZM254.638 43.1633C254.685 43.0997 254.747 43.0508 254.811 43.0092C254.816 44.0977 254.775 45.1899 254.852 46.276C254.98 46.3617 255.135 46.3702 255.28 46.4057C255.113 46.4815 254.927 46.4412 254.752 46.4399C254.527 46.4216 254.299 46.4791 254.077 46.4204C254.185 46.3604 254.386 46.3678 254.393 46.2014C254.467 45.4138 254.428 44.62 254.433 43.8299C253.67 44.6652 252.981 45.5654 252.291 46.4595C252.249 46.5035 252.202 46.5414 252.149 46.572C252.16 45.5116 252.15 44.4524 252.132 43.3945C252.139 43.1804 251.88 43.189 251.738 43.1449C251.861 43.0728 252.007 43.1034 252.141 43.1058C252.387 43.1266 252.636 43.0862 252.882 43.1131C252.761 43.1951 252.53 43.1963 252.543 43.3932C252.527 44.1772 252.515 44.9637 252.526 45.7477C253.26 44.9111 253.959 44.0451 254.638 43.1621V43.1633ZM235.854 43.436C236.207 43.1462 236.672 43.0361 237.121 43.0398C237.509 43.0349 237.888 43.1229 238.27 43.1719C238.25 43.4397 238.25 43.7112 238.224 43.9791C238.209 43.9925 238.181 44.0195 238.166 44.0317C238.164 43.765 238.059 43.4862 237.804 43.3688C237.386 43.1743 236.887 43.1804 236.454 43.3235C236.082 43.4446 235.824 43.7883 235.747 44.165C235.663 44.5845 235.667 45.0468 235.876 45.4309C236.117 45.925 236.638 46.2724 237.189 46.2883C237.463 46.2944 237.77 46.2944 237.993 46.1097C238.138 45.98 238.165 45.7733 238.239 45.6033C238.326 45.8455 238.22 46.1121 238.161 46.3531C237.998 46.4693 237.786 46.4766 237.594 46.4986C237.053 46.5402 236.472 46.4925 236.005 46.1892C235.099 45.6095 235.033 44.1197 235.855 43.4373L235.854 43.436ZM253.753 6.65432C253.874 5.7896 254.117 4.91265 254.648 4.20448C255 3.72871 255.513 3.37034 256.094 3.24559C255.894 3.06824 255.678 2.91047 255.447 2.7796C254.308 3.70302 253.754 5.21353 253.753 6.65554V6.65432ZM249.544 3.24437C250.038 3.35322 250.489 3.62597 250.825 4.0039C251.467 4.72919 251.739 5.69542 251.886 6.63475C251.874 5.19885 251.324 3.70058 250.192 2.77715C249.958 2.9068 249.744 3.06824 249.544 3.24437ZM250.665 7.62544C251.585 7.51904 252.509 7.38694 253.436 7.46277C253.946 7.48601 254.448 7.58141 254.955 7.62055C253.611 7.0188 252.01 7.02858 250.666 7.62544H250.665ZM250.575 2.72945C251.281 3.05112 251.796 3.6859 252.109 4.38305C252.421 5.0851 252.593 5.84953 252.617 6.61762C252.748 6.61885 252.878 6.62007 253.009 6.62252C253.067 5.62448 253.31 4.61055 253.869 3.77029C254.166 3.32754 254.574 2.94716 255.065 2.73067C253.93 3.6859 253.449 5.20863 253.372 6.65187C253.875 6.7277 254.35 6.94908 254.864 6.94786C255.381 6.96253 255.92 6.74116 256.22 6.30696C256.848 5.42023 256.658 4.02714 255.753 3.39847C256.217 3.58071 256.566 3.98922 256.722 4.45766C256.972 5.19763 256.878 6.0599 256.438 6.71058C256.189 7.08362 255.817 7.36126 255.399 7.51414C255.339 7.69638 255.281 7.87984 255.221 8.06331C253.626 7.86394 252.005 7.86639 250.41 8.06331C250.354 7.87984 250.297 7.69638 250.236 7.51414C249.792 7.3527 249.4 7.0457 249.152 6.64086C248.744 5.98651 248.667 5.14137 248.927 4.41852C249.088 3.96721 249.431 3.58438 249.875 3.39847C249.009 4.00635 248.81 5.31137 249.342 6.20178C249.621 6.67756 250.17 6.94908 250.713 6.94786C251.247 6.96498 251.741 6.73137 252.261 6.65309C252.193 5.20741 251.699 3.69201 250.574 2.72823L250.575 2.72945ZM252.408 0.432502C252.681 0.432502 252.953 0.430056 253.225 0.432502C253.15 0.667334 253.07 0.899719 253.005 1.137C253.185 1.05383 253.349 0.94375 253.5 0.81655C253.503 1.16513 253.5 1.51371 253.502 1.86228C253.35 1.74609 253.189 1.64458 253.017 1.56508C253.071 1.84149 253.167 2.1069 253.267 2.36864C252.971 2.28669 252.663 2.28914 252.367 2.37109C252.47 2.1069 252.565 1.83905 252.62 1.56018C252.448 1.64213 252.285 1.73998 252.135 1.85862C252.136 1.51126 252.135 1.16513 252.137 0.817773C252.287 0.94375 252.45 1.05016 252.626 1.13455C252.565 0.894827 252.492 0.659995 252.405 0.428833L252.408 0.432502ZM239.521 47.9382C239.808 47.7205 240.192 47.7841 240.519 47.8501C240.508 48.0226 240.508 48.195 240.494 48.3675C240.432 48.2599 240.413 48.1278 240.33 48.036C240.15 47.9064 239.885 47.8819 239.697 48.0055C239.513 48.1253 239.491 48.4066 239.614 48.5791C239.85 48.8983 240.254 49.0512 240.46 49.3973C240.652 49.7104 240.609 50.1777 240.299 50.4003C239.983 50.6265 239.558 50.5984 239.213 50.4602C239.205 50.2608 239.191 50.0541 239.26 49.8633C239.303 50.0419 239.325 50.2633 239.515 50.3501C239.83 50.5421 240.319 50.3452 240.313 49.9477C240.281 49.4793 239.776 49.3019 239.513 48.9815C239.236 48.7112 239.188 48.1853 239.52 47.9394L239.521 47.9382ZM233.522 47.9847C233.522 48.3932 233.516 48.8029 233.526 49.2127C233.747 49.2555 234.017 49.3264 234.207 49.1637C234.448 48.8775 234.43 48.4091 234.192 48.1253C234.017 47.948 233.75 47.9504 233.522 47.9847ZM232.889 47.8722C233.028 47.8147 233.178 47.8465 233.325 47.8465C233.646 47.8538 233.978 47.7951 234.288 47.9076C234.553 48.0042 234.728 48.2978 234.681 48.5779C234.66 48.8665 234.465 49.1001 234.27 49.297C234.535 49.6261 234.775 49.9771 235.08 50.2706C235.222 50.4198 235.435 50.4272 235.619 50.4944C235.319 50.5054 234.947 50.5886 234.719 50.3367C234.45 50.0456 234.238 49.708 233.997 49.3961C233.839 49.3851 233.683 49.379 233.526 49.3778C233.526 49.6774 233.505 49.9795 233.543 50.2792C233.55 50.4614 233.769 50.4345 233.893 50.4981C233.576 50.5189 233.257 50.5189 232.939 50.4981C233.011 50.4626 233.089 50.4382 233.166 50.4174C233.243 50.1459 233.225 49.8621 233.226 49.5832C233.225 49.1295 233.226 48.6745 233.226 48.2207C233.216 48.1339 233.231 48.0299 233.172 47.959C233.087 47.9076 232.983 47.9027 232.891 47.8709L232.889 47.8722ZM270.099 43.1266C270.732 43.0654 271.376 43.1767 272.008 43.0679C271.967 43.277 271.974 43.496 271.907 43.7002C271.849 43.5804 271.857 43.3932 271.702 43.3504C271.448 43.277 271.177 43.3052 270.916 43.2942C270.916 43.7186 270.916 44.1442 270.916 44.5698C271.25 44.5393 271.643 44.6726 271.928 44.439C271.9 44.6738 271.908 44.9147 271.842 45.1447C271.783 45.0334 271.815 44.8426 271.67 44.801C271.464 44.7411 271.244 44.7655 271.032 44.7472C271.037 44.757 271.047 44.7765 271.052 44.7875C271.019 44.7741 270.953 44.7484 270.92 44.7362C270.921 45.1814 270.903 45.629 270.928 46.0742C270.961 46.2516 271.163 46.2614 271.305 46.2699C271.487 46.2711 271.68 46.2858 271.85 46.2137C272.01 46.1403 271.987 45.925 272.099 45.8113C272.071 46.0155 272.143 46.3139 271.964 46.4558C271.465 46.495 270.966 46.4118 270.467 46.4448C270.366 46.4522 270.265 46.4436 270.169 46.413C270.26 46.3837 270.353 46.358 270.447 46.3335C270.535 46.0999 270.513 45.8467 270.527 45.6033C270.536 45.0872 270.527 44.5698 270.531 44.0537C270.528 43.7809 270.544 43.5033 270.474 43.2367C270.347 43.2049 270.22 43.1719 270.098 43.1266H270.099ZM276.125 43.1853C276.172 43.1156 276.236 43.0593 276.313 43.0226C276.327 43.9412 276.313 44.8597 276.321 45.777C276.333 45.947 276.32 46.128 276.386 46.2883C276.494 46.3861 276.663 46.3555 276.796 46.4069C276.574 46.4864 276.336 46.4301 276.108 46.4363C275.932 46.4363 275.752 46.4729 275.582 46.4142C275.682 46.358 275.871 46.3763 275.893 46.2283C275.937 46.0424 275.932 45.8492 275.935 45.6596C275.931 45.0481 275.937 44.4377 275.931 43.8262C275.455 44.3607 275.003 44.9172 274.558 45.4774C274.25 45.8382 274.002 46.2491 273.667 46.5843C273.625 45.8602 273.66 45.1337 273.649 44.4084C273.637 44.0549 273.675 43.6978 273.63 43.3468C273.602 43.1645 273.365 43.1988 273.237 43.1437C273.376 43.0728 273.536 43.107 273.685 43.1083C273.916 43.1242 274.148 43.0875 274.38 43.1107C274.285 43.167 274.172 43.1939 274.087 43.2648C274.025 43.3993 274.041 43.5522 274.033 43.6978C274.038 44.3827 274.027 45.0689 274.039 45.7538C274.752 44.9111 275.459 44.0635 276.126 43.1841L276.125 43.1853ZM239.798 43.4654C240.153 43.1535 240.638 43.0349 241.1 43.041C241.489 43.0349 241.87 43.1205 242.253 43.1743C242.232 43.4091 242.225 43.6464 242.211 43.8825C242.222 43.9461 242.178 43.9974 242.15 44.05C242.121 43.8286 242.094 43.5742 241.891 43.4397C241.505 43.1804 240.999 43.1841 240.561 43.2844C240.189 43.3688 239.874 43.6525 239.764 44.0207C239.604 44.5429 239.633 45.1508 239.955 45.6082C240.239 46.0412 240.754 46.3078 241.271 46.2919C241.521 46.2895 241.803 46.2724 241.992 46.0877C242.132 45.9568 242.121 45.7379 242.253 45.6033C242.254 45.8577 242.217 46.1146 242.135 46.3555C242.025 46.4546 241.864 46.4558 241.726 46.4852C241.124 46.55 240.461 46.5194 239.944 46.166C239.083 45.574 239.024 44.1552 239.797 43.4678L239.798 43.4654ZM252.92 42.4943C252.996 42.4025 253.074 42.312 253.152 42.224C253.244 42.4062 253.388 42.6153 253.622 42.5848C253.908 42.6166 254.11 42.3891 254.358 42.2974C254.249 42.5383 254.016 42.6936 253.783 42.7964C253.476 42.9236 253.036 42.8477 252.92 42.4955V42.4943ZM249.989 43.1498C250.03 43.0875 250.089 43.0483 250.161 43.0361C250.137 43.8898 250.152 44.7447 250.153 45.5997C250.167 45.8149 250.15 46.0351 250.202 46.2455C250.272 46.4069 250.496 46.3445 250.631 46.4081C250.428 46.4791 250.211 46.435 250.002 46.435C249.808 46.4265 249.607 46.4791 249.419 46.413C249.51 46.358 249.666 46.3788 249.715 46.2626C249.76 46.1256 249.758 45.9776 249.763 45.8357C249.761 45.1655 249.763 44.494 249.763 43.8238C249.069 44.6175 248.407 45.4394 247.769 46.2797C247.687 46.3886 247.602 46.4937 247.5 46.583C247.469 46.3555 247.481 46.1256 247.478 45.8969C247.478 45.1031 247.478 44.3093 247.478 43.5168C247.475 43.414 247.476 43.2893 247.386 43.2232C247.298 43.189 247.203 43.1804 247.111 43.1621V43.0985C247.478 43.1156 247.847 43.1034 248.215 43.1083C248.119 43.167 248.005 43.1951 247.916 43.2648C247.88 43.3419 247.882 43.4299 247.878 43.5143C247.852 44.2592 247.867 45.004 247.865 45.7489C248.605 44.9086 249.304 44.0341 249.989 43.1486V43.1498ZM274.447 42.5102C274.464 42.3854 274.591 42.3145 274.67 42.2289C274.742 42.3646 274.815 42.5273 274.978 42.5701C275.183 42.6092 275.408 42.5725 275.58 42.4502C275.672 42.394 275.753 42.29 275.874 42.312C275.653 42.6386 275.267 42.9064 274.858 42.8404C274.675 42.8172 274.486 42.6997 274.446 42.5089L274.447 42.5102ZM228.409 43.1144C228.702 43.0826 228.997 43.1339 229.289 43.107C229.666 43.0899 230.099 43.0838 230.396 43.3553C230.716 43.6794 230.654 44.2286 230.386 44.5662C230.138 44.8658 229.71 45.0028 229.335 44.9147C229.526 44.8096 229.774 44.8609 229.95 44.7142C230.438 44.3864 230.308 43.5571 229.8 43.3186C229.614 43.2306 229.403 43.2403 229.204 43.2734C229.202 44.1307 229.204 44.9869 229.204 45.8431C229.21 45.9935 229.204 46.1537 229.269 46.2919C229.377 46.3824 229.537 46.3604 229.666 46.4057C229.453 46.4901 229.221 46.4277 228.999 46.4363C228.825 46.4338 228.643 46.4791 228.475 46.4118C228.577 46.3616 228.757 46.3751 228.778 46.2283C228.857 45.7856 228.804 45.333 228.82 44.8854C228.805 44.3423 228.853 43.7956 228.788 43.2562C228.661 43.2122 228.532 43.1719 228.41 43.1131L228.409 43.1144ZM259.511 47.767C259.732 47.9321 260.02 47.7878 260.267 47.8636C260.17 47.915 259.992 47.9088 259.996 48.0593C259.953 48.6256 260.035 49.1992 259.939 49.763C259.886 50.1006 259.649 50.4052 259.319 50.5067C258.953 50.618 258.515 50.5837 258.214 50.3305C258.021 50.1605 257.928 49.9074 257.905 49.6566C257.861 49.1185 257.926 48.5754 257.872 48.0385C257.854 47.8905 257.658 47.9223 257.559 47.8709C257.681 47.8134 257.817 47.8465 257.947 47.8452C258.131 47.8526 258.316 47.8257 258.499 47.8575C258.424 47.8881 258.347 47.9137 258.274 47.948C258.202 48.0177 258.225 48.129 258.217 48.2195C258.221 48.6562 258.217 49.0928 258.219 49.5282C258.228 49.7802 258.291 50.0578 258.486 50.2339C258.783 50.5165 259.322 50.4651 259.561 50.1312C259.709 49.9233 259.733 49.6579 259.744 49.4108C259.748 49.0524 259.743 48.6941 259.747 48.3357C259.743 48.2097 259.75 48.0764 259.698 47.959C259.622 47.9076 259.525 47.9125 259.441 47.8917C259.463 47.8489 259.486 47.8073 259.509 47.7657L259.511 47.767ZM248.791 47.8061C248.805 47.8037 248.833 47.7963 248.848 47.7927C249.538 48.5265 250.221 49.2689 250.902 50.015C250.883 49.456 250.88 48.8971 250.863 48.3369C250.859 48.2073 250.869 48.0703 250.805 47.9517C250.703 47.9137 250.593 47.9003 250.488 47.8746C250.617 47.8171 250.758 47.8452 250.894 47.844C251.052 47.8501 251.213 47.8208 251.366 47.8648C251.269 47.9174 251.085 47.9088 251.092 48.0581C251.058 48.8934 251.117 49.7325 251.06 50.5666C250.302 49.8976 249.647 49.1172 248.961 48.3748C248.975 48.9962 248.978 49.6187 249.017 50.2388C249.005 50.4259 249.247 50.5152 249.386 50.4125C249.372 50.4553 249.358 50.5262 249.293 50.5067C249.036 50.5177 248.777 50.5067 248.52 50.5103C248.52 50.4993 248.519 50.4785 248.517 50.4675C248.609 50.4296 248.764 50.4418 248.758 50.3036C248.794 49.4719 248.777 48.6378 248.791 47.8049V47.8061ZM263.38 47.8697C263.542 47.8061 263.717 47.855 263.887 47.8477C264.224 47.844 264.564 47.8673 264.899 47.8134C264.876 47.9835 264.857 48.1559 264.82 48.3259C264.765 48.2342 264.777 48.0801 264.657 48.0434C264.452 47.981 264.235 48.0018 264.024 47.9969C264.02 48.3381 264.021 48.6806 264.024 49.0231C264.297 49.0096 264.6 49.0744 264.843 48.913C264.817 49.1038 264.799 49.2958 264.774 49.4878C264.716 49.3912 264.737 49.2053 264.592 49.1894C264.403 49.1625 264.213 49.165 264.022 49.1564C264.037 49.5233 263.986 49.8988 264.05 50.2621C264.198 50.4308 264.47 50.3697 264.67 50.3562C264.859 50.3452 264.897 50.1349 264.954 49.9954C264.965 50.1667 264.994 50.3721 264.887 50.5177C264.404 50.547 263.921 50.503 263.438 50.5079C263.55 50.4516 263.704 50.4064 263.693 50.251C263.728 49.5355 263.709 48.8151 263.705 48.0996C263.719 47.9162 263.503 47.9162 263.382 47.8734L263.38 47.8697Z" fill="white"/>
<path d="M301.398 26.4428L302.341 25.5L307.526 30.6854L306.583 31.6283L301.398 26.4428Z" fill="white"/>
<path d="M295.269 20.3146L296.212 19.3717L301.398 24.5572L300.455 25.5L295.269 20.3146Z" fill="white"/>
<path d="M300.455 25.5L301.398 26.4428L296.212 31.6282L295.269 30.6854L300.455 25.5Z" fill="white"/>
<path d="M306.583 19.3717L307.526 20.3145L302.341 25.5L301.398 24.5572L306.583 19.3717Z" fill="white"/>
<path d="M326.149 24.8817H330.324C330.406 24.8817 330.473 24.8153 330.473 24.7326V18.0328C330.473 17.9509 330.539 17.8837 330.622 17.8837H334.787C334.869 17.8837 334.936 17.8173 334.936 17.7346V15.1517C334.936 15.0698 334.87 15.0026 334.787 15.0026H326.149C326.067 15.0026 326 15.069 326 15.1517V24.7326C326 24.8144 326.066 24.8817 326.149 24.8817Z" fill="white"/>
<path d="M351.223 24.8817H355.397C355.479 24.8817 355.546 24.8153 355.546 24.7326V18.0328C355.546 17.9509 355.613 17.8837 355.695 17.8837H359.861C359.942 17.8837 360.01 17.8173 360.01 17.7346V15.1517C360.01 15.0698 359.943 15.0026 359.861 15.0026H351.223C351.141 15.0026 351.074 15.069 351.074 15.1517V24.7326C351.074 24.8144 351.14 24.8817 351.223 24.8817Z" fill="white"/>
<path d="M335.902 24.8817H340.161C340.203 24.8817 340.242 24.8636 340.271 24.8325L345.26 19.3126C345.352 19.2117 345.52 19.2764 345.52 19.4125V24.7326C345.52 24.8144 345.586 24.8817 345.669 24.8817H349.843C349.925 24.8817 349.992 24.8153 349.992 24.7326V15.1517C349.992 15.0698 349.926 15.0026 349.843 15.0026H345.586C345.544 15.0026 345.503 15.0207 345.476 15.0517L340.486 20.5837C340.395 20.6846 340.227 20.6208 340.227 20.4838V15.1517C340.227 15.0698 340.161 15.0026 340.078 15.0026H335.903C335.821 15.0026 335.754 15.069 335.754 15.1517V24.7326C335.754 24.8144 335.821 24.8817 335.903 24.8817H335.902Z" fill="white"/>
<path d="M358.724 25.9193C358.642 25.9193 358.575 25.9856 358.575 26.0684V28.8641C358.575 28.946 358.642 29.0132 358.724 29.0132H363.103C363.185 29.0132 363.252 29.0796 363.252 29.1623V35.6492C363.252 35.7311 363.318 35.7983 363.401 35.7983H367.59C367.671 35.7983 367.739 35.732 367.739 35.6492V29.1623C367.739 29.0804 367.805 29.0132 367.888 29.0132H372.266C372.347 29.0132 372.415 28.9469 372.415 28.8641V26.0684C372.415 25.9865 372.348 25.9193 372.266 25.9193H358.724Z" fill="white"/>
<path d="M368.111 23.5139H362.712C362.665 23.5139 362.622 23.5407 362.603 23.5812L362.022 24.8144C362.003 24.8549 361.96 24.8816 361.913 24.8816H357.411C357.323 24.8816 357.265 24.7946 357.303 24.7188L362.197 15.0646C362.217 15.025 362.259 15 362.305 15H368.674C368.719 15 368.76 15.0241 368.78 15.0621L373.987 24.7162C374.027 24.792 373.97 24.8816 373.881 24.8816H368.921C368.875 24.8816 368.832 24.8558 368.813 24.8153L368.219 23.5803C368.2 23.5398 368.157 23.5139 368.111 23.5139ZM366.781 20.6294L365.486 17.9733C365.443 17.8854 365.311 17.8854 365.269 17.9733L363.998 20.6294C363.962 20.7044 364.02 20.7897 364.107 20.7897H366.671C366.758 20.7897 366.816 20.7035 366.78 20.6286L366.781 20.6294Z" fill="white"/>
<path d="M340.193 26.0537V35.613C340.193 35.7147 340.111 35.7966 340.01 35.7966H335.945C335.843 35.7966 335.761 35.7139 335.761 35.613V32.6975C335.761 32.5872 335.666 32.5019 335.557 32.5148C334.681 32.6225 333.229 32.6828 332.092 32.6828C327.483 32.6828 326 31.4194 326 28.0747V26.0528C326 25.9511 326.083 25.8693 326.183 25.8693H330.291C330.393 25.8693 330.474 25.952 330.474 26.0528V27.7368C330.474 29.3028 331.158 29.6406 332.974 29.6406C333.538 29.6406 334.988 29.5975 335.596 29.5363C335.69 29.5268 335.76 29.4476 335.76 29.3528V26.052C335.76 25.9503 335.843 25.8684 335.944 25.8684H340.009C340.111 25.8684 340.193 25.9511 340.193 26.052L340.193 26.0537Z" fill="white"/>
<path d="M345.142 36C342.37 36 340.453 34.5608 341.126 32.7122C341.797 30.8644 343.277 29.9224 346.861 29.6915L352.205 29.5312C352.74 29.4777 352.959 29.3916 353.105 28.9624C353.258 28.4479 352.286 28.1454 350.847 28.1454H350.046C348.679 28.1454 347.571 28.6737 347.27 28.9675C347.202 29.0348 347.11 29.0692 347.014 29.0692L342.913 29.052C342.812 29.052 342.746 28.9469 342.789 28.8564C343.418 27.524 345.742 25.6219 350.801 25.6219H351.838C357.256 25.6219 358.126 27.5231 357.563 29.0692L356.646 31.6607C356.364 32.4622 356.886 32.6415 357.259 32.6415H358.274C358.374 32.6415 358.443 32.7415 358.41 32.8354L357.396 35.6225C357.36 35.7208 357.267 35.7863 357.162 35.7863H353.252C351.649 35.7863 351.197 35.0934 351.22 34.5427C350.764 34.9158 348.756 36 346.323 36H345.142ZM352.089 31.7348L352.233 31.4901C352.29 31.3936 352.213 31.2738 352.101 31.2867C351.46 31.36 350.414 31.4677 349.283 31.5745C346.764 31.8055 346.044 32.0546 345.709 32.6234C345.391 33.2456 345.904 33.5119 347.397 33.5119C350.011 33.5119 351.585 32.5906 352.089 31.7348Z" fill="white"/>
<defs>
<clipPath id="clip0_528_5932">
<rect width="70" height="51" fill="white"/>
</clipPath>
</defs>
</svg>
