<svg width="234" height="34" viewBox="0 0 234 34" fill="none" xmlns="http://www.w3.org/2000/svg">
<g clip-path="url(#clip0_526_4984)">
<path d="M76.1441 11.6758L79.698 9.05188H67.8V24.812H79.698V22.1881H71.1958V18.1536H78.449V15.5297H71.1958V11.6758H76.1441Z" fill="white"/>
<path d="M58.8192 15.1946H54.6867V11.6757H61.2823L64.8376 9.05188H51.291V24.812H58.3808C62.3576 24.812 64.6378 23.0065 64.6378 19.8604C64.6378 16.8521 62.5716 15.1946 58.8192 15.1946ZM58.2277 22.1868H54.6867V17.8185H58.2277C60.3822 17.8185 61.3861 18.5498 61.3861 20.0033C61.3861 21.488 60.3238 22.1868 58.2277 22.1868Z" fill="white"/>
<path d="M89.3378 9.05188H82.8602V24.8107H86.2547V20.3475H89.3378C93.4715 20.3475 96.0397 18.1705 96.0397 14.6919C96.0397 11.2133 93.4715 9.05188 89.3378 9.05188ZM89.2626 17.7236H86.2547V11.6757H89.2626C91.439 11.6757 92.6349 12.75 92.6349 14.6997C92.6349 16.6494 91.4377 17.7236 89.2626 17.7236Z" fill="white"/>
<path d="M45.4623 21.3991C44.5625 21.8873 43.5543 22.1402 42.531 22.1343C39.4699 22.1343 37.248 19.9456 37.248 16.9308C37.248 13.9159 39.4699 11.7337 42.531 11.7337C43.6374 11.7176 44.7198 12.0572 45.6193 12.7027L48.0552 10.905L47.8943 10.7634C46.4676 9.51248 44.5725 8.85132 42.4 8.85132C40.0432 8.85132 37.9043 9.64627 36.3777 11.092C34.851 12.5377 33.9962 14.5901 33.9962 16.8502C33.9962 19.1104 34.8393 21.1965 36.3699 22.6955C37.9004 24.1945 40.038 25.0258 42.3779 25.0258C44.8255 25.0258 46.963 24.1711 48.4132 22.6163L46.2146 20.9939L45.4623 21.3991Z" fill="white"/>
<path d="M25.9184 16.8544C25.9187 16.0743 25.8492 15.2957 25.7109 14.528L22.9183 16.5881C22.9183 16.6764 22.9183 16.7661 22.9183 16.8479C22.9213 19.0831 22.1767 21.2549 20.8031 23.0168C19.4295 24.7786 17.5063 26.0289 15.3402 26.5681C13.1741 27.1073 10.8901 26.9044 8.85268 25.9917C6.81525 25.079 5.14182 23.5091 4.09946 21.5326C3.0571 19.5561 2.70589 17.2869 3.10187 15.0871C3.49786 12.8874 4.61821 10.8839 6.28415 9.3963C7.95008 7.90874 10.0656 7.0229 12.293 6.88014C14.5204 6.73738 16.7314 7.34594 18.5731 8.60869L21.0959 6.746C18.8067 4.89598 15.9575 3.88018 13.0159 3.86528C10.0743 3.85038 7.21503 4.83727 4.90724 6.66401C2.59945 8.49074 0.980248 11.0488 0.315327 13.9185C-0.349593 16.7881 -0.0207333 19.7989 1.24794 22.4567C2.51662 25.1146 4.64975 27.2616 7.29731 28.5455C9.94487 29.8294 12.9496 30.1739 15.8184 29.5225C18.6872 28.8711 21.2497 27.2625 23.0854 24.9606C24.9212 22.6587 25.921 19.8003 25.921 16.8544H25.9184Z" fill="white"/>
<path d="M23.2114 8.91284C23.828 9.71054 24.3503 10.5771 24.7679 11.4951L12.9477 20.2189L8.00974 17.1183V13.389L12.9477 16.4883L23.2114 8.91284Z" fill="white"/>
</g>
<path d="M125.18 0L104 34H108.82L130 0H125.18Z" fill="white"/>
<path d="M145.151 8.75H143.041V7.86H148.251V8.75H146.141V15H145.151V8.75ZM151.602 15.11C150.735 15.11 150.099 14.8833 149.692 14.43C149.285 13.9767 149.082 13.2567 149.082 12.27C149.082 11.33 149.289 10.6333 149.702 10.18C150.122 9.72667 150.702 9.5 151.442 9.5C152.222 9.5 152.792 9.71 153.152 10.13C153.512 10.55 153.692 11.2133 153.692 12.12V12.55H150.022C150.035 13.15 150.172 13.59 150.432 13.87C150.699 14.1433 151.115 14.28 151.682 14.28C152.022 14.28 152.339 14.2267 152.632 14.12C152.932 14.0067 153.172 13.87 153.352 13.71V14.64C153.179 14.7533 152.949 14.86 152.662 14.96C152.375 15.06 152.022 15.11 151.602 15.11ZM151.442 10.31C150.989 10.31 150.642 10.4333 150.402 10.68C150.169 10.9267 150.042 11.33 150.022 11.89H152.752C152.752 11.6367 152.729 11.4133 152.682 11.22C152.642 11.02 152.572 10.8533 152.472 10.72C152.372 10.5867 152.239 10.4867 152.072 10.42C151.905 10.3467 151.695 10.31 151.442 10.31ZM156.769 12.22L155.099 9.62H156.169L157.379 11.52L158.599 9.62H159.649L157.979 12.2L159.779 15H158.699L157.359 12.88L156.009 15H154.969L156.769 12.22ZM161.437 9.62H162.377V11.83H164.797V9.62H165.737V15H164.797V12.69H162.377V15H161.437V9.62ZM169.955 15.11C169.168 15.11 168.568 14.89 168.155 14.45C167.748 14.01 167.545 13.2967 167.545 12.31C167.545 11.3567 167.758 10.65 168.185 10.19C168.612 9.73 169.202 9.5 169.955 9.5C170.355 9.5 170.705 9.55333 171.005 9.66C171.305 9.76 171.555 9.92333 171.755 10.15C171.955 10.3767 172.105 10.67 172.205 11.03C172.305 11.3833 172.355 11.81 172.355 12.31C172.355 13.2967 172.148 14.01 171.735 14.45C171.328 14.89 170.735 15.11 169.955 15.11ZM169.955 14.25C170.195 14.25 170.402 14.2167 170.575 14.15C170.755 14.0833 170.905 13.9767 171.025 13.83C171.145 13.6767 171.235 13.4767 171.295 13.23C171.355 12.9833 171.385 12.6767 171.385 12.31C171.385 11.95 171.355 11.6467 171.295 11.4C171.235 11.1533 171.145 10.9567 171.025 10.81C170.912 10.6567 170.765 10.5467 170.585 10.48C170.405 10.4133 170.195 10.38 169.955 10.38C169.495 10.38 169.138 10.5267 168.885 10.82C168.638 11.1067 168.515 11.6033 168.515 12.31C168.515 12.6767 168.545 12.9833 168.605 13.23C168.665 13.4767 168.755 13.6767 168.875 13.83C168.995 13.9767 169.145 14.0833 169.325 14.15C169.505 14.2167 169.715 14.25 169.955 14.25ZM173.616 14.07C173.69 14.0967 173.766 14.11 173.846 14.11C173.98 14.11 174.096 14.0633 174.196 13.97C174.303 13.8767 174.39 13.6933 174.456 13.42C174.53 13.14 174.586 12.7533 174.626 12.26C174.666 11.76 174.693 11.1067 174.706 10.3L174.716 9.62H178.376V15H177.426V10.5H175.596L175.586 10.83C175.56 11.6633 175.51 12.3567 175.436 12.91C175.37 13.4567 175.273 13.8933 175.146 14.22C175.02 14.5467 174.863 14.7767 174.676 14.91C174.49 15.0433 174.27 15.11 174.016 15.11C173.943 15.11 173.873 15.1067 173.806 15.1C173.74 15.0933 173.676 15.08 173.616 15.06V14.07ZM182.586 15.11C181.799 15.11 181.199 14.89 180.786 14.45C180.379 14.01 180.176 13.2967 180.176 12.31C180.176 11.3567 180.389 10.65 180.816 10.19C181.242 9.73 181.832 9.5 182.586 9.5C182.986 9.5 183.336 9.55333 183.636 9.66C183.936 9.76 184.186 9.92333 184.386 10.15C184.586 10.3767 184.736 10.67 184.836 11.03C184.936 11.3833 184.986 11.81 184.986 12.31C184.986 13.2967 184.779 14.01 184.366 14.45C183.959 14.89 183.366 15.11 182.586 15.11ZM182.586 14.25C182.826 14.25 183.032 14.2167 183.206 14.15C183.386 14.0833 183.536 13.9767 183.656 13.83C183.776 13.6767 183.866 13.4767 183.926 13.23C183.986 12.9833 184.016 12.6767 184.016 12.31C184.016 11.95 183.986 11.6467 183.926 11.4C183.866 11.1533 183.776 10.9567 183.656 10.81C183.542 10.6567 183.396 10.5467 183.216 10.48C183.036 10.4133 182.826 10.38 182.586 10.38C182.126 10.38 181.769 10.5267 181.516 10.82C181.269 11.1067 181.146 11.6033 181.146 12.31C181.146 12.6767 181.176 12.9833 181.236 13.23C181.296 13.4767 181.386 13.6767 181.506 13.83C181.626 13.9767 181.776 14.0833 181.956 14.15C182.136 14.2167 182.346 14.25 182.586 14.25ZM186.796 9.62H190.116V10.48H187.736V15H186.796V9.62ZM191.74 9.62H192.68V12.9C192.68 13 192.676 13.1 192.67 13.2C192.67 13.2933 192.666 13.3767 192.66 13.45C192.653 13.5367 192.65 13.62 192.65 13.7H192.68C192.72 13.62 192.763 13.5367 192.81 13.45C192.85 13.3767 192.896 13.2933 192.95 13.2C193.01 13.1 193.073 12.9967 193.14 12.89L195.21 9.62H196.14V15H195.2V11.74C195.2 11.6333 195.2 11.5333 195.2 11.44C195.2 11.34 195.203 11.25 195.21 11.17C195.216 11.0833 195.223 10.9967 195.23 10.91H195.2C195.153 10.9967 195.106 11.0833 195.06 11.17C194.973 11.33 194.866 11.5167 194.74 11.73L192.67 15H191.74V9.62ZM201.105 12.93C200.992 12.9833 200.865 13.0267 200.725 13.06C200.605 13.0933 200.465 13.1233 200.305 13.15C200.145 13.17 199.972 13.18 199.785 13.18C199.159 13.18 198.695 13.0367 198.395 12.75C198.102 12.4633 197.955 12.0467 197.955 11.5V9.62H198.895V11.35C198.895 11.69 198.975 11.9367 199.135 12.09C199.295 12.2433 199.565 12.32 199.945 12.32C200.132 12.32 200.295 12.31 200.435 12.29C200.582 12.27 200.705 12.2467 200.805 12.22C200.925 12.1933 201.025 12.1567 201.105 12.11V9.62H202.045V15H201.105V12.93ZM206.375 15.11C205.509 15.11 204.872 14.8833 204.465 14.43C204.059 13.9767 203.855 13.2567 203.855 12.27C203.855 11.33 204.062 10.6333 204.475 10.18C204.895 9.72667 205.475 9.5 206.215 9.5C206.995 9.5 207.565 9.71 207.925 10.13C208.285 10.55 208.465 11.2133 208.465 12.12V12.55H204.795C204.809 13.15 204.945 13.59 205.205 13.87C205.472 14.1433 205.889 14.28 206.455 14.28C206.795 14.28 207.112 14.2267 207.405 14.12C207.705 14.0067 207.945 13.87 208.125 13.71V14.64C207.952 14.7533 207.722 14.86 207.435 14.96C207.149 15.06 206.795 15.11 206.375 15.11ZM206.215 10.31C205.762 10.31 205.415 10.4333 205.175 10.68C204.942 10.9267 204.815 11.33 204.795 11.89H207.525C207.525 11.6367 207.502 11.4133 207.455 11.22C207.415 11.02 207.345 10.8533 207.245 10.72C207.145 10.5867 207.012 10.4867 206.845 10.42C206.679 10.3467 206.469 10.31 206.215 10.31ZM212.521 15.11C211.654 15.11 211.011 14.89 210.591 14.45C210.171 14.0033 209.961 13.2733 209.961 12.26C209.961 11.3133 210.171 10.6167 210.591 10.17C211.018 9.72333 211.638 9.5 212.451 9.5C212.824 9.5 213.131 9.53667 213.371 9.61C213.618 9.67667 213.784 9.73 213.871 9.77V10.78C213.718 10.6667 213.528 10.5733 213.301 10.5C213.074 10.42 212.814 10.38 212.521 10.38C212.001 10.38 211.604 10.5267 211.331 10.82C211.064 11.1133 210.931 11.5933 210.931 12.26C210.931 12.9733 211.071 13.4833 211.351 13.79C211.631 14.0967 212.054 14.25 212.621 14.25C212.874 14.25 213.124 14.2067 213.371 14.12C213.618 14.0333 213.811 13.9333 213.951 13.82V14.79C213.858 14.8433 213.691 14.91 213.451 14.99C213.211 15.07 212.901 15.11 212.521 15.11ZM215.615 9.62H216.555V11.79H217.185L218.815 9.62H219.915L217.955 12.19L220.115 15H218.985L217.195 12.63H216.555V15H215.615V9.62ZM221.779 9.62H222.719V12.9C222.719 13 222.715 13.1 222.709 13.2C222.709 13.2933 222.705 13.3767 222.699 13.45C222.692 13.5367 222.689 13.62 222.689 13.7H222.719C222.759 13.62 222.802 13.5367 222.849 13.45C222.889 13.3767 222.935 13.2933 222.989 13.2C223.049 13.1 223.112 12.9967 223.179 12.89L225.249 9.62H226.179V15H225.239V11.74C225.239 11.6333 225.239 11.5333 225.239 11.44C225.239 11.34 225.242 11.25 225.249 11.17C225.255 11.0833 225.262 10.9967 225.269 10.91H225.239C225.192 10.9967 225.145 11.0833 225.099 11.17C225.012 11.33 224.905 11.5167 224.779 11.73L222.709 15H221.779V9.62ZM228.294 9.62H229.234V12.9C229.234 13 229.231 13.1 229.224 13.2C229.224 13.2933 229.221 13.3767 229.214 13.45C229.208 13.5367 229.204 13.62 229.204 13.7H229.234C229.274 13.62 229.318 13.5367 229.364 13.45C229.404 13.3767 229.451 13.2933 229.504 13.2C229.564 13.1 229.628 12.9967 229.694 12.89L231.764 9.62H232.694V15H231.754V11.74C231.754 11.6333 231.754 11.5333 231.754 11.44C231.754 11.34 231.758 11.25 231.764 11.17C231.771 11.0833 231.778 10.9967 231.784 10.91H231.754C231.708 10.9967 231.661 11.0833 231.614 11.17C231.528 11.33 231.421 11.5167 231.294 11.73L229.224 15H228.294V9.62ZM230.574 8.71C230.094 8.71 229.711 8.60333 229.424 8.39C229.144 8.17667 228.991 7.80333 228.964 7.27H229.774C229.801 7.57667 229.878 7.79333 230.004 7.92C230.131 8.04 230.321 8.1 230.574 8.1C230.828 8.1 231.021 8.04 231.154 7.92C231.294 7.79333 231.381 7.57667 231.414 7.27H232.184C232.151 7.80333 231.991 8.17667 231.704 8.39C231.424 8.60333 231.048 8.71 230.574 8.71ZM139.732 20.62H143.932V26H142.982V21.48H140.672V26H139.732V20.62ZM147.412 26.11C146.859 26.11 146.439 25.9733 146.152 25.7C145.872 25.42 145.732 25.02 145.732 24.5C145.732 24.2333 145.769 23.9967 145.842 23.79C145.916 23.5833 146.036 23.4133 146.202 23.28C146.376 23.1467 146.596 23.0467 146.862 22.98C147.136 22.9067 147.472 22.87 147.872 22.87H148.992V22.41C148.992 22.0367 148.902 21.7733 148.722 21.62C148.549 21.46 148.229 21.38 147.762 21.38C147.442 21.38 147.142 21.4233 146.862 21.51C146.582 21.5967 146.349 21.7033 146.162 21.83V20.85C146.356 20.7567 146.606 20.6767 146.912 20.61C147.226 20.5367 147.552 20.5 147.892 20.5C148.266 20.5 148.582 20.5367 148.842 20.61C149.102 20.6767 149.312 20.7867 149.472 20.94C149.632 21.0933 149.749 21.2933 149.822 21.54C149.896 21.78 149.932 22.0733 149.932 22.42V26H149.082L149.032 25.08C148.906 25.3667 148.709 25.61 148.442 25.81C148.182 26.01 147.839 26.11 147.412 26.11ZM147.672 25.28C148.079 25.28 148.399 25.16 148.632 24.92C148.872 24.68 148.992 24.3333 148.992 23.88V23.52H147.942C147.469 23.52 147.142 23.5967 146.962 23.75C146.789 23.9033 146.702 24.1367 146.702 24.45C146.702 24.7233 146.779 24.93 146.932 25.07C147.086 25.21 147.332 25.28 147.672 25.28ZM152.001 20.62H152.881L152.941 21.48C153.021 21.3467 153.111 21.2233 153.211 21.11C153.311 20.99 153.431 20.8867 153.571 20.8C153.711 20.7067 153.871 20.6333 154.051 20.58C154.238 20.5267 154.455 20.5 154.701 20.5C155.035 20.5 155.325 20.55 155.571 20.65C155.825 20.75 156.035 20.91 156.201 21.13C156.375 21.35 156.501 21.6367 156.581 21.99C156.668 22.3367 156.711 22.76 156.711 23.26C156.711 23.78 156.665 24.22 156.571 24.58C156.485 24.94 156.351 25.2333 156.171 25.46C155.998 25.6867 155.778 25.8533 155.511 25.96C155.245 26.06 154.935 26.11 154.581 26.11C154.341 26.11 154.131 26.0833 153.951 26.03C153.778 25.9767 153.625 25.9033 153.491 25.81C153.365 25.7167 153.255 25.6133 153.161 25.5C153.075 25.38 153.001 25.2533 152.941 25.12V27.84H152.001V20.62ZM155.731 23.26C155.731 22.9067 155.701 22.61 155.641 22.37C155.588 22.13 155.505 21.9367 155.391 21.79C155.278 21.6433 155.135 21.54 154.961 21.48C154.795 21.4133 154.598 21.38 154.371 21.38C153.911 21.38 153.558 21.51 153.311 21.77C153.065 22.03 152.941 22.4333 152.941 22.98V23.65C152.941 24.1767 153.068 24.5767 153.321 24.85C153.575 25.1167 153.918 25.25 154.351 25.25C154.578 25.25 154.778 25.22 154.951 25.16C155.125 25.0933 155.268 24.9833 155.381 24.83C155.501 24.6767 155.588 24.4733 155.641 24.22C155.701 23.96 155.731 23.64 155.731 23.26ZM159.677 21.48H158.007V20.62H162.297V21.48H160.627V26H159.677V21.48ZM163.919 20.62H164.859V22.83H167.279V20.62H168.219V26H167.279V23.69H164.859V26H163.919V20.62ZM172.547 26.11C171.681 26.11 171.044 25.8833 170.637 25.43C170.231 24.9767 170.027 24.2567 170.027 23.27C170.027 22.33 170.234 21.6333 170.647 21.18C171.067 20.7267 171.647 20.5 172.387 20.5C173.167 20.5 173.737 20.71 174.097 21.13C174.457 21.55 174.637 22.2133 174.637 23.12V23.55H170.967C170.981 24.15 171.117 24.59 171.377 24.87C171.644 25.1433 172.061 25.28 172.627 25.28C172.967 25.28 173.284 25.2267 173.577 25.12C173.877 25.0067 174.117 24.87 174.297 24.71V25.64C174.124 25.7533 173.894 25.86 173.607 25.96C173.321 26.06 172.967 26.11 172.547 26.11ZM172.387 21.31C171.934 21.31 171.587 21.4333 171.347 21.68C171.114 21.9267 170.987 22.33 170.967 22.89H173.697C173.697 22.6367 173.674 22.4133 173.627 22.22C173.587 22.02 173.517 21.8533 173.417 21.72C173.317 21.5867 173.184 21.4867 173.017 21.42C172.851 21.3467 172.641 21.31 172.387 21.31ZM176.443 20.62H177.323L177.383 21.48C177.463 21.3467 177.553 21.2233 177.653 21.11C177.753 20.99 177.873 20.8867 178.013 20.8C178.153 20.7067 178.313 20.6333 178.493 20.58C178.679 20.5267 178.896 20.5 179.143 20.5C179.476 20.5 179.766 20.55 180.013 20.65C180.266 20.75 180.476 20.91 180.643 21.13C180.816 21.35 180.943 21.6367 181.023 21.99C181.109 22.3367 181.153 22.76 181.153 23.26C181.153 23.78 181.106 24.22 181.013 24.58C180.926 24.94 180.793 25.2333 180.613 25.46C180.439 25.6867 180.219 25.8533 179.953 25.96C179.686 26.06 179.376 26.11 179.023 26.11C178.783 26.11 178.573 26.0833 178.393 26.03C178.219 25.9767 178.066 25.9033 177.933 25.81C177.806 25.7167 177.696 25.6133 177.603 25.5C177.516 25.38 177.443 25.2533 177.383 25.12V27.84H176.443V20.62ZM180.173 23.26C180.173 22.9067 180.143 22.61 180.083 22.37C180.029 22.13 179.946 21.9367 179.833 21.79C179.719 21.6433 179.576 21.54 179.403 21.48C179.236 21.4133 179.039 21.38 178.813 21.38C178.353 21.38 177.999 21.51 177.753 21.77C177.506 22.03 177.383 22.4333 177.383 22.98V23.65C177.383 24.1767 177.509 24.5767 177.763 24.85C178.016 25.1167 178.359 25.25 178.793 25.25C179.019 25.25 179.219 25.22 179.393 25.16C179.566 25.0933 179.709 24.9833 179.823 24.83C179.943 24.6767 180.029 24.4733 180.083 24.22C180.143 23.96 180.173 23.64 180.173 23.26ZM187.947 26.06C187.681 26.06 187.427 26.0567 187.187 26.05C186.954 26.05 186.751 26.0433 186.577 26.03C186.371 26.0233 186.181 26.0133 186.007 26V20.61C186.174 20.6033 186.357 20.5967 186.557 20.59C186.731 20.5833 186.931 20.58 187.157 20.58C187.384 20.5733 187.627 20.57 187.887 20.57C188.294 20.57 188.631 20.6033 188.897 20.67C189.171 20.73 189.387 20.8233 189.547 20.95C189.714 21.0767 189.831 21.23 189.897 21.41C189.964 21.59 189.997 21.7933 189.997 22.02C189.997 22.3 189.921 22.5367 189.767 22.73C189.621 22.9233 189.387 23.0667 189.067 23.16C189.447 23.2067 189.731 23.3433 189.917 23.57C190.111 23.79 190.207 24.09 190.207 24.47C190.207 24.7233 190.167 24.95 190.087 25.15C190.014 25.35 189.887 25.5167 189.707 25.65C189.527 25.7833 189.294 25.8867 189.007 25.96C188.721 26.0267 188.367 26.06 187.947 26.06ZM189.227 24.4C189.227 24.12 189.144 23.9133 188.977 23.78C188.811 23.64 188.497 23.57 188.037 23.57H186.937V25.21C187.031 25.2167 187.134 25.2233 187.247 25.23C187.341 25.2367 187.451 25.24 187.577 25.24C187.704 25.24 187.834 25.24 187.967 25.24C188.227 25.24 188.437 25.2267 188.597 25.2C188.764 25.1667 188.894 25.1167 188.987 25.05C189.081 24.9833 189.144 24.8967 189.177 24.79C189.211 24.6833 189.227 24.5533 189.227 24.4ZM189.057 22.13C189.057 22.0033 189.041 21.8933 189.007 21.8C188.974 21.7 188.914 21.62 188.827 21.56C188.741 21.5 188.621 21.4567 188.467 21.43C188.314 21.3967 188.121 21.38 187.887 21.38C187.747 21.38 187.621 21.3833 187.507 21.39C187.394 21.39 187.294 21.3933 187.207 21.4C187.107 21.4067 187.017 21.41 186.937 21.41V22.88H188.037C188.417 22.88 188.681 22.8167 188.827 22.69C188.981 22.5567 189.057 22.37 189.057 22.13ZM193.745 26.06C193.538 26.06 193.332 26.0567 193.125 26.05C192.925 26.0433 192.742 26.0333 192.575 26.02C192.382 26.0067 192.195 25.99 192.015 25.97V20.62H192.955V22.38C193.042 22.3733 193.135 22.3667 193.235 22.36C193.322 22.3533 193.422 22.3467 193.535 22.34C193.648 22.3333 193.768 22.33 193.895 22.33C194.675 22.33 195.225 22.48 195.545 22.78C195.865 23.0733 196.025 23.5333 196.025 24.16C196.025 24.4733 195.982 24.75 195.895 24.99C195.815 25.2233 195.685 25.42 195.505 25.58C195.325 25.74 195.088 25.86 194.795 25.94C194.508 26.02 194.158 26.06 193.745 26.06ZM195.055 24.16C195.055 23.9867 195.035 23.84 194.995 23.72C194.962 23.5933 194.898 23.4933 194.805 23.42C194.712 23.34 194.585 23.2833 194.425 23.25C194.265 23.2167 194.062 23.2 193.815 23.2C193.702 23.2 193.592 23.2033 193.485 23.21C193.385 23.21 193.295 23.2133 193.215 23.22C193.122 23.2267 193.035 23.2333 192.955 23.24V25.15C193.035 25.1567 193.122 25.1633 193.215 25.17C193.295 25.1767 193.385 25.1833 193.485 25.19C193.592 25.19 193.702 25.19 193.815 25.19C194.055 25.19 194.255 25.1733 194.415 25.14C194.575 25.1 194.702 25.04 194.795 24.96C194.895 24.8733 194.962 24.7667 194.995 24.64C195.035 24.5067 195.055 24.3467 195.055 24.16ZM196.905 20.62H197.845V26H196.905V20.62ZM202.216 26.11C201.35 26.11 200.706 25.89 200.286 25.45C199.866 25.0033 199.656 24.2733 199.656 23.26C199.656 22.3133 199.866 21.6167 200.286 21.17C200.713 20.7233 201.333 20.5 202.146 20.5C202.52 20.5 202.826 20.5367 203.066 20.61C203.313 20.6767 203.48 20.73 203.566 20.77V21.78C203.413 21.6667 203.223 21.5733 202.996 21.5C202.77 21.42 202.51 21.38 202.216 21.38C201.696 21.38 201.3 21.5267 201.026 21.82C200.76 22.1133 200.626 22.5933 200.626 23.26C200.626 23.9733 200.766 24.4833 201.046 24.79C201.326 25.0967 201.75 25.25 202.316 25.25C202.57 25.25 202.82 25.2067 203.066 25.12C203.313 25.0333 203.506 24.9333 203.646 24.82V25.79C203.553 25.8433 203.386 25.91 203.146 25.99C202.906 26.07 202.596 26.11 202.216 26.11ZM206.529 21.48H204.859V20.62H209.149V21.48H207.479V26H206.529V21.48ZM212.034 26.11C211.48 26.11 211.06 25.9733 210.774 25.7C210.494 25.42 210.354 25.02 210.354 24.5C210.354 24.2333 210.39 23.9967 210.464 23.79C210.537 23.5833 210.657 23.4133 210.824 23.28C210.997 23.1467 211.217 23.0467 211.484 22.98C211.757 22.9067 212.094 22.87 212.494 22.87H213.614V22.41C213.614 22.0367 213.524 21.7733 213.344 21.62C213.17 21.46 212.85 21.38 212.384 21.38C212.064 21.38 211.764 21.4233 211.484 21.51C211.204 21.5967 210.97 21.7033 210.784 21.83V20.85C210.977 20.7567 211.227 20.6767 211.534 20.61C211.847 20.5367 212.174 20.5 212.514 20.5C212.887 20.5 213.204 20.5367 213.464 20.61C213.724 20.6767 213.934 20.7867 214.094 20.94C214.254 21.0933 214.37 21.2933 214.444 21.54C214.517 21.78 214.554 22.0733 214.554 22.42V26H213.704L213.654 25.08C213.527 25.3667 213.33 25.61 213.064 25.81C212.804 26.01 212.46 26.11 212.034 26.11ZM212.294 25.28C212.7 25.28 213.02 25.16 213.254 24.92C213.494 24.68 213.614 24.3333 213.614 23.88V23.52H212.564C212.09 23.52 211.764 23.5967 211.584 23.75C211.41 23.9033 211.324 24.1367 211.324 24.45C211.324 24.7233 211.4 24.93 211.554 25.07C211.707 25.21 211.954 25.28 212.294 25.28ZM218.563 26.06C218.296 26.06 218.043 26.0567 217.803 26.05C217.569 26.05 217.366 26.0433 217.193 26.03C216.986 26.0233 216.796 26.0133 216.623 26V20.61C216.789 20.6033 216.973 20.5967 217.173 20.59C217.346 20.5833 217.546 20.58 217.773 20.58C217.999 20.5733 218.243 20.57 218.503 20.57C218.909 20.57 219.246 20.6033 219.513 20.67C219.786 20.73 220.003 20.8233 220.163 20.95C220.329 21.0767 220.446 21.23 220.513 21.41C220.579 21.59 220.613 21.7933 220.613 22.02C220.613 22.3 220.536 22.5367 220.383 22.73C220.236 22.9233 220.003 23.0667 219.683 23.16C220.063 23.2067 220.346 23.3433 220.533 23.57C220.726 23.79 220.823 24.09 220.823 24.47C220.823 24.7233 220.783 24.95 220.703 25.15C220.629 25.35 220.503 25.5167 220.323 25.65C220.143 25.7833 219.909 25.8867 219.623 25.96C219.336 26.0267 218.983 26.06 218.563 26.06ZM219.843 24.4C219.843 24.12 219.759 23.9133 219.593 23.78C219.426 23.64 219.113 23.57 218.653 23.57H217.553V25.21C217.646 25.2167 217.749 25.2233 217.863 25.23C217.956 25.2367 218.066 25.24 218.193 25.24C218.319 25.24 218.449 25.24 218.583 25.24C218.843 25.24 219.053 25.2267 219.213 25.2C219.379 25.1667 219.509 25.1167 219.603 25.05C219.696 24.9833 219.759 24.8967 219.793 24.79C219.826 24.6833 219.843 24.5533 219.843 24.4ZM219.673 22.13C219.673 22.0033 219.656 21.8933 219.623 21.8C219.589 21.7 219.529 21.62 219.443 21.56C219.356 21.5 219.236 21.4567 219.083 21.43C218.929 21.3967 218.736 21.38 218.503 21.38C218.363 21.38 218.236 21.3833 218.123 21.39C218.009 21.39 217.909 21.3933 217.823 21.4C217.723 21.4067 217.633 21.41 217.553 21.41V22.88H218.653C219.033 22.88 219.296 22.8167 219.443 22.69C219.596 22.5567 219.673 22.37 219.673 22.13ZM222.63 20.62H223.57V22.79H224.2L225.83 20.62H226.93L224.97 23.19L227.13 26H226L224.21 23.63H223.57V26H222.63V20.62ZM228.794 20.62H229.734V23.9C229.734 24 229.731 24.1 229.724 24.2C229.724 24.2933 229.721 24.3767 229.714 24.45C229.708 24.5367 229.704 24.62 229.704 24.7H229.734C229.774 24.62 229.818 24.5367 229.864 24.45C229.904 24.3767 229.951 24.2933 230.004 24.2C230.064 24.1 230.128 23.9967 230.194 23.89L232.264 20.62H233.194V26H232.254V22.74C232.254 22.6333 232.254 22.5333 232.254 22.44C232.254 22.34 232.258 22.25 232.264 22.17C232.271 22.0833 232.278 21.9967 232.284 21.91H232.254C232.208 21.9967 232.161 22.0833 232.114 22.17C232.028 22.33 231.921 22.5167 231.794 22.73L229.724 26H228.794V20.62Z" fill="white"/>
<defs>
<clipPath id="clip0_526_4984">
<rect width="96" height="26" fill="white" transform="translate(0 4)"/>
</clipPath>
</defs>
</svg>
