<svg width="239" height="200" viewBox="0 0 239 200" fill="none" xmlns="http://www.w3.org/2000/svg">
<path d="M153.738 50.9673C153.312 51.7042 152.719 52.3311 152.007 52.7975C151.295 53.2639 150.484 53.557 149.638 53.6532C148.792 53.7495 147.936 53.6461 147.137 53.3515C146.338 53.057 145.62 52.5793 145.039 51.9569C142.348 49.0857 139.247 46.6279 135.838 44.6633L67.7547 5.35557C58.5733 0.054689 47.6622 -1.38178 37.4217 1.36215C27.1812 4.10608 18.4501 10.8057 13.1493 19.9871C7.84839 29.1684 6.41192 40.0795 9.15585 50.3201C11.8998 60.5606 18.5994 69.2916 27.7807 74.5925C30.9269 76.4089 30.488 81.0985 27.0496 82.2714C17.8914 85.3849 10.1798 91.726 5.35557 100.11C0.0547386 109.291 -1.38175 120.203 1.3621 130.443C4.10595 140.683 10.8054 149.414 19.9866 154.715L88.0696 194.023C97.251 199.324 108.162 200.76 118.403 198.017C128.643 195.273 137.374 188.573 142.675 179.392C145.3 174.845 147.003 169.827 147.689 164.622C148.374 159.418 148.027 154.129 146.668 149.059C145.31 143.988 142.966 139.235 139.77 135.07C136.574 130.906 132.59 127.411 128.043 124.786C124.897 122.97 125.336 118.28 128.775 117.107C137.933 113.994 145.645 107.653 150.469 99.2687C152.44 95.8623 153.896 92.1834 154.791 88.3513C154.982 87.5218 155.366 86.7489 155.91 86.0944C156.454 85.44 157.145 84.9222 157.925 84.5826C158.706 84.243 159.555 84.0911 160.405 84.1391C161.255 84.187 162.082 84.4335 162.819 84.8587L176.885 92.9795C181.554 95.675 186.708 97.4246 192.052 98.1283C197.397 98.832 202.829 98.476 208.036 97.0808C213.243 95.6855 218.125 93.2782 222.402 89.9964C226.679 86.7146 230.267 82.6225 232.963 77.9537C238.407 68.5248 239.882 57.3195 237.064 46.8028C234.246 36.2862 227.366 27.3197 217.937 21.8758C213.268 19.1803 208.114 17.4307 202.77 16.727C197.425 16.0233 191.994 16.3793 186.786 17.7746C181.579 19.1698 176.697 21.5771 172.42 24.859C168.143 28.1408 164.555 32.2329 161.859 36.9017L153.738 50.9673Z" fill="url(#paint0_linear_539_5408)"/>
<defs>
<linearGradient id="paint0_linear_539_5408" x1="158.509" y1="-12.4352" x2="51.4998" y2="172.91" gradientUnits="userSpaceOnUse">
<stop stop-color="#02ADEE"/>
<stop offset="0.399999" stop-color="#42E3B4"/>
<stop offset="0.674999" stop-color="#9FE71F"/>
<stop offset="1" stop-color="#FAED03"/>
</linearGradient>
</defs>
</svg>
