<svg width="369" height="326" viewBox="0 0 369 326" fill="none" xmlns="http://www.w3.org/2000/svg">
<path d="M368.163 45.3443C368.163 20.3014 292.879 0 200.011 0C107.144 0 31.86 20.3014 31.86 45.3443C31.86 56.4786 46.7412 66.675 71.4331 74.567C76.4769 76.179 76.0143 83.461 70.8148 84.4576C27.9581 92.6758 0 106.176 0 121.436C0 144.501 63.8587 163.543 146.499 166.407C151.339 166.574 153.266 172.747 149.372 175.625C141.813 181.209 134.196 187.061 126.521 193.181C45.6414 257.739 14.6066 297.106 30.229 316.678C45.8515 336.251 99.9338 320.454 190.975 278.965C241.999 255.713 336.304 195.009 336.304 140.427C336.304 120.111 320.569 102.791 294.613 92.4438C289.842 90.5413 290.518 83.6017 295.568 82.6595C339.429 74.4752 368.163 60.8155 368.163 45.3443Z" fill="url(#paint0_linear_539_5405)"/>
<defs>
<linearGradient id="paint0_linear_539_5405" x1="368.163" y1="162.509" x2="0" y2="162.509" gradientUnits="userSpaceOnUse">
<stop stop-color="#02ADEE"/>
<stop offset="0.399999" stop-color="#42E3B4"/>
<stop offset="0.674999" stop-color="#9FE71F"/>
<stop offset="1" stop-color="#FAED03"/>
</linearGradient>
</defs>
</svg>
