<svg width="277" height="264" viewBox="0 0 277 264" fill="none" xmlns="http://www.w3.org/2000/svg">
  <defs>
    <linearGradient id="body-gradient" x1="34" y1="52" x2="240" y2="220" gradientUnits="userSpaceOnUse">
      <stop stop-color="#0E1815" />
      <stop offset="1" stop-color="#0D1412" />
    </linearGradient>
    <radialGradient id="glow" cx="0" cy="0" r="1" gradientUnits="userSpaceOnUse" gradientTransform="translate(138.5 118) rotate(90) scale(156 146)">
      <stop stop-color="#1FE39F" stop-opacity="0.55" />
      <stop offset="1" stop-color="#02110C" stop-opacity="0" />
    </radialGradient>
    <linearGradient id="accent" x1="190" y1="54" x2="228" y2="112" gradientUnits="userSpaceOnUse">
      <stop stop-color="#1EE7A0" />
      <stop offset="1" stop-color="#118E67" />
    </linearGradient>
    <linearGradient id="lens" x1="126" y1="110" x2="166" y2="170" gradientUnits="userSpaceOnUse">
      <stop stop-color="#0A0F0D" />
      <stop offset="1" stop-color="#1D2C27" />
    </linearGradient>
  </defs>
  <rect width="277" height="264" rx="32" fill="#0B0C0B" />
  <rect width="277" height="264" rx="32" fill="url(#glow)" />
  <g filter="url(#shadow)">
    <rect x="34" y="58" width="209" height="148" rx="26" fill="url(#body-gradient)" />
    <rect x="34.5" y="58.5" width="208" height="147" rx="25.5" stroke="#111917" stroke-opacity="0.8" />
  </g>
  <rect x="194" y="62" width="34" height="46" rx="10" fill="url(#accent)" />
  <rect x="52" y="76" width="70" height="14" rx="7" fill="#101716" />
  <circle cx="215" cy="90" r="6" fill="#0B0F0E" />
  <circle cx="214.5" cy="88.5" r="2.5" fill="#3CE9AE" />
  <rect x="54" y="122" width="46" height="36" rx="10" fill="#121917" />
  <rect x="60" y="130" width="34" height="20" rx="6" fill="#0A0F0D" />
  <circle cx="139" cy="142" r="64" fill="#0B0F0E" />
  <circle cx="139" cy="142" r="52" fill="url(#lens)" />
  <circle cx="139" cy="142" r="28" fill="#070A09" />
  <circle cx="139" cy="142" r="20" fill="#0E1614" />
  <circle cx="139" cy="142" r="10" fill="#10201A" />
  <circle cx="139" cy="142" r="4" fill="#1EE7A0" />
  <circle cx="170" cy="118" r="10" fill="#121A17" />
  <circle cx="170" cy="118" r="5" fill="#0E1512" />
  <circle cx="170" cy="118" r="2" fill="#1FE3A1" />
  <path d="M94 84H116C118.209 84 120 85.7909 120 88V92C120 94.2091 118.209 96 116 96H94C91.7909 96 90 94.2091 90 92V88C90 85.7909 91.7909 84 94 84Z" fill="#101614" />
  <path d="M180 108C180 105.239 182.239 103 185 103H202C204.761 103 207 105.239 207 108V118H180V108Z" fill="#0D1412" />
  <defs>
    <filter id="shadow" x="14" y="42" width="249" height="188" filterUnits="userSpaceOnUse" color-interpolation-filters="sRGB">
      <feFlood flood-opacity="0" result="BackgroundImageFix" />
      <feColorMatrix in="SourceAlpha" type="matrix" values="0 0 0 0 0 0 0 0 0 0 0 0 0 0 0 0 0 0 127 0" result="hardAlpha" />
      <feOffset dy="8" />
      <feGaussianBlur stdDeviation="10" />
      <feComposite in2="hardAlpha" operator="out" />
      <feColorMatrix type="matrix" values="0 0 0 0 0 0 0 0 0 0 0 0 0 0 0 0 0 0 0.25 0" />
      <feBlend mode="normal" in2="BackgroundImageFix" result="effect1_dropShadow" />
      <feBlend mode="normal" in="SourceGraphic" in2="effect1_dropShadow" result="shape" />
    </filter>
  </defs>
</svg>
