<svg width="257" height="643" viewBox="0 0 257 643" fill="none" xmlns="http://www.w3.org/2000/svg" xmlns:xlink="http://www.w3.org/1999/xlink">
    <g filter="url(#filter0_d_795_6688)">
        <path d="M172.95 582.683L172.95 422.161L130.373 422.161L130.373 582.683L172.95 582.683Z" fill="#252627"/>
        <path d="M96.9531 346.829L96.9531 582.683L130.373 582.683L130.373 422.161L172.95 422.161L211.391 422.161L211.391 388.705L139.715 388.705L139.715 199.997L211.391 199.997L211.391 184.754L172.95 184.754L172.95 59.6826L100.166 59.6826L100.166 84.6384L100.166 184.754L129.523 184.754L129.523 227.073L111.687 227.073L111.687 308.83L129.523 308.83L129.523 346.829L96.9531 346.829Z" fill="#1B1C1D"/>
        <path d="M139.715 388.705L211.391 388.705L211.391 199.997L139.715 199.997L139.715 388.705Z" fill="#252627"/>
        <path d="M96.9531 582.683L96.9531 346.829L129.523 346.829L129.523 308.83L111.687 308.83L111.687 227.073L129.523 227.073L129.523 184.754L100.166 184.754L100.166 84.6384M96.9531 582.683L172.95 582.683M96.9531 582.683L130.373 582.683M172.95 422.161L211.391 422.161L211.391 388.705M172.95 422.161L172.95 582.683M172.95 422.161L130.373 422.161L130.373 582.683M172.95 582.683L130.373 582.683M211.391 388.705L139.715 388.705L139.715 199.997L211.391 199.997M211.391 388.705L211.391 199.997M211.391 199.997L211.391 184.754L172.95 184.754L172.95 59.6826L100.166 59.6826L100.166 84.6384M100.166 84.6384L143.721 84.6384L143.721 184.754" stroke="#656565" stroke-width="1.78157"/>
    </g>
    <rect x="140.609" y="200.875" width="69.8503" height="186.922" fill="url(#pattern0_795_6688)"/>
    <rect x="100.977" y="85.5981" width="41.8353" height="98.2166" transform="rotate(-0.0777904 100.977 85.5981)" fill="url(#pattern1_795_6688)"/>
    <rect x="131.43" y="422.885" width="40.6178" height="158.999" fill="url(#pattern2_795_6688)"/>
    <g opacity="0.2">
<!--        <path d="M109.147 539.817L0 539.817" stroke="#E2E2E2"/>-->
<!--        <path d="M110.148 539.817C110.148 537.056 112.387 534.817 115.148 534.817C117.91 534.817 120.148 537.056 120.148 539.817C120.148 542.579 117.91 544.817 115.148 544.817C112.387 544.817 110.148 542.579 110.148 539.817Z" fill="#E2E2E2" stroke="#656565" stroke-width="2"/>-->
    </g>
    <g opacity="0.2">
<!--        <path d="M104.693 471.227L0 471.227" stroke="#E2E2E2"/>-->
<!--        <path d="M105.695 471.227C105.695 468.465 107.934 466.227 110.695 466.227C113.457 466.227 115.695 468.465 115.695 471.227C115.695 473.988 113.457 476.227 110.695 476.227C107.934 476.227 105.695 473.988 105.695 471.227Z" fill="#E2E2E2" stroke="#656565" stroke-width="2"/>-->
    </g>
    <rect opacity="0.5" x="116.695" y="232.496" width="11.5802" height="3.56315" fill="#656565"/>
    <rect opacity="0.5" x="116.695" y="235.168" width="11.5802" height="3.56315" fill="#656565"/>
    <rect opacity="0.5" x="116.695" y="237.84" width="11.5802" height="3.56315" fill="#656565"/>
    <rect opacity="0.5" x="116.695" y="240.513" width="11.5802" height="3.56315" fill="#656565"/>
    <rect opacity="0.5" x="116.695" y="243.185" width="11.5802" height="3.56315" fill="#656565"/>
    <rect opacity="0.5" x="116.695" y="245.857" width="11.5802" height="3.56315" fill="#656565"/>
    <rect opacity="0.5" x="116.695" y="248.53" width="11.5802" height="3.56315" fill="#656565"/>
    <rect opacity="0.5" x="123.82" y="232.496" width="11.5802" height="3.56315" fill="#656565"/>
    <rect opacity="0.5" x="123.82" y="235.168" width="11.5802" height="3.56315" fill="#656565"/>
    <rect opacity="0.5" x="123.82" y="237.84" width="11.5802" height="3.56315" fill="#656565"/>
    <rect opacity="0.5" x="123.82" y="240.513" width="11.5802" height="3.56315" fill="#656565"/>
    <rect opacity="0.5" x="123.82" y="243.185" width="11.5802" height="3.56315" fill="#656565"/>
    <rect opacity="0.5" x="123.82" y="245.857" width="11.5802" height="3.56315" fill="#656565"/>
    <rect opacity="0.5" x="123.82" y="248.53" width="11.5802" height="3.56315" fill="#656565"/>
    <rect opacity="0.5" x="106.039" y="400.623" width="11.5802" height="3.56315" fill="#656565"/>
    <rect opacity="0.5" x="106.039" y="403.295" width="11.5802" height="3.56315" fill="#656565"/>
    <rect opacity="0.5" x="106.039" y="405.967" width="11.5802" height="3.56315" fill="#656565"/>
    <rect opacity="0.5" x="106.039" y="408.64" width="11.5802" height="3.56315" fill="#656565"/>
    <rect opacity="0.5" x="106.039" y="411.312" width="11.5802" height="3.56315" fill="#656565"/>
    <rect opacity="0.5" x="106.039" y="413.984" width="11.5802" height="3.56315" fill="#656565"/>
    <rect opacity="0.5" x="106.039" y="416.657" width="11.5802" height="3.56315" fill="#656565"/>
    <rect opacity="0.5" x="106.039" y="370.623" width="11.5802" height="3.56315" fill="#656565"/>
    <rect opacity="0.5" x="106.039" y="373.295" width="11.5802" height="3.56315" fill="#656565"/>
    <rect opacity="0.5" x="106.039" y="375.967" width="11.5802" height="3.56315" fill="#656565"/>
    <rect opacity="0.5" x="106.039" y="378.64" width="11.5802" height="3.56315" fill="#656565"/>
    <rect opacity="0.5" x="106.039" y="381.312" width="11.5802" height="3.56315" fill="#656565"/>
    <rect opacity="0.5" x="106.039" y="383.984" width="11.5802" height="3.56315" fill="#656565"/>
    <rect opacity="0.5" x="106.039" y="386.657" width="11.5802" height="3.56315" fill="#656565"/>
    <rect opacity="0.5" x="113.164" y="400.623" width="11.5802" height="3.56315" fill="#656565"/>
    <rect opacity="0.5" x="113.164" y="403.295" width="11.5802" height="3.56315" fill="#656565"/>
    <rect opacity="0.5" x="113.164" y="405.967" width="11.5802" height="3.56315" fill="#656565"/>
    <rect opacity="0.5" x="113.164" y="408.64" width="11.5802" height="3.56315" fill="#656565"/>
    <rect opacity="0.5" x="113.164" y="411.312" width="11.5802" height="3.56315" fill="#656565"/>
    <rect opacity="0.5" x="113.164" y="413.984" width="11.5802" height="3.56315" fill="#656565"/>
    <rect opacity="0.5" x="113.164" y="416.657" width="11.5802" height="3.56315" fill="#656565"/>
    <rect opacity="0.5" x="113.164" y="370.623" width="11.5802" height="3.56315" fill="#656565"/>
    <rect opacity="0.5" x="113.164" y="373.295" width="11.5802" height="3.56315" fill="#656565"/>
    <rect opacity="0.5" x="113.164" y="375.967" width="11.5802" height="3.56315" fill="#656565"/>
    <rect opacity="0.5" x="113.164" y="378.64" width="11.5802" height="3.56315" fill="#656565"/>
    <rect opacity="0.5" x="113.164" y="381.312" width="11.5802" height="3.56315" fill="#656565"/>
    <rect opacity="0.5" x="113.164" y="383.984" width="11.5802" height="3.56315" fill="#656565"/>
    <rect opacity="0.5" x="113.164" y="386.657" width="11.5802" height="3.56315" fill="#656565"/>
    <defs>
        <filter id="filter0_d_795_6688" x="37.2705" y="1.71661e-05" width="233.803" height="642.365" filterUnits="userSpaceOnUse" color-interpolation-filters="sRGB">
            <feFlood flood-opacity="0" result="BackgroundImageFix"/>
            <feColorMatrix in="SourceAlpha" type="matrix" values="0 0 0 0 0 0 0 0 0 0 0 0 0 0 0 0 0 0 127 0" result="hardAlpha"/>
            <feMorphology radius="14.2526" operator="dilate" in="SourceAlpha" result="effect1_dropShadow_795_6688"/>
            <feOffset/>
            <feGaussianBlur stdDeviation="22.2697"/>
            <feComposite in2="hardAlpha" operator="out"/>
            <feColorMatrix type="matrix" values="0 0 0 0 0.486275 0 0 0 0 0.737255 0 0 0 0 0.643137 0 0 0 0.4 0"/>
            <feBlend mode="normal" in2="BackgroundImageFix" result="effect1_dropShadow_795_6688"/>
            <feBlend mode="normal" in="SourceGraphic" in2="effect1_dropShadow_795_6688" result="shape"/>
        </filter>
        <pattern id="pattern0_795_6688" patternUnits="userSpaceOnUse" patternTransform="matrix(7.57865 0 0 7.57822 140.294 200.56)" preserveAspectRatio="none" viewBox="-0.353516 -0.353516 8.50781 8.50732" width="1" height="1">
            <use xlink:href="#pattern0_795_6688_inner" transform="translate(-8.50781 -8.50732)"/>
            <use xlink:href="#pattern0_795_6688_inner" transform="translate(0 -8.50732)"/>
            <use xlink:href="#pattern0_795_6688_inner" transform="translate(-8.50781 0)"/>
            <g id="pattern0_795_6688_inner">
                <path d="M8.50781 0L0 8.50732" stroke="#2E2F2E"/>
            </g>
        </pattern><pattern id="pattern1_795_6688" patternUnits="userSpaceOnUse" patternTransform="matrix(7.57865 0 0 7.57822 100.662 85.2832)" preserveAspectRatio="none" viewBox="-0.353516 -0.353516 8.50781 8.50732" width="1" height="1">
        <use xlink:href="#pattern1_795_6688_inner" transform="translate(-8.50781 -8.50732)"/>
        <use xlink:href="#pattern1_795_6688_inner" transform="translate(0 -8.50732)"/>
        <use xlink:href="#pattern1_795_6688_inner" transform="translate(-8.50781 0)"/>
        <g id="pattern1_795_6688_inner">
            <path d="M8.50781 0L0 8.50732" stroke="#2E2F2E"/>
        </g>
    </pattern><pattern id="pattern2_795_6688" patternUnits="userSpaceOnUse" patternTransform="matrix(7.57865 0 0 7.57822 131.115 422.57)" preserveAspectRatio="none" viewBox="-0.353516 -0.353516 8.50781 8.50732" width="1" height="1">
        <use xlink:href="#pattern2_795_6688_inner" transform="translate(-8.50781 -8.50732)"/>
        <use xlink:href="#pattern2_795_6688_inner" transform="translate(0 -8.50732)"/>
        <use xlink:href="#pattern2_795_6688_inner" transform="translate(-8.50781 0)"/>
        <g id="pattern2_795_6688_inner">
            <path d="M8.50781 0L0 8.50732" stroke="#2E2F2E"/>
        </g>
    </pattern></defs>
</svg>
