<svg width="231" height="652" viewBox="0 0 231 652" fill="none" xmlns="http://www.w3.org/2000/svg" xmlns:xlink="http://www.w3.org/1999/xlink">
    <g filter="url(#filter0_d_1768_10485)">
        <path d="M198.953 177.26L157.135 177.26L120.98 177.26L120.98 248.956L120.98 399.129L198.953 399.129L198.953 177.26Z" fill="#161716"/>
        <path fill-rule="evenodd" clip-rule="evenodd" d="M64.4609 586.892L64.4609 353.574L109.892 353.574L109.892 312.237L90.4895 312.237L90.4895 223.296L109.892 223.296L109.892 177.26L77.9559 177.26L77.9559 64.4571L157.135 64.4571L157.135 177.26L120.98 177.26L120.98 248.956L120.98 399.129L198.953 399.129L198.953 435.524L157.135 435.524L118.57 435.524L118.57 550.978L157.135 550.978L157.135 586.892L64.4609 586.892Z" fill="#1B1C1D"/>
        <path d="M157.135 550.978L157.135 435.524L118.57 435.524L118.57 550.978L157.135 550.978Z" fill="#161716"/>
        <path d="M157.135 177.26L198.953 177.26L198.953 399.129M157.135 177.26L157.135 64.4571L77.9559 64.4571L77.9559 177.26L109.892 177.26L109.892 223.296L90.4895 223.296L90.4895 312.237L109.892 312.237L109.892 353.574L64.4609 353.574L64.4609 586.892L157.135 586.892L157.135 550.978M157.135 177.26L120.98 177.26L120.98 248.956L120.98 399.129L198.953 399.129M157.135 435.524L198.953 435.524L198.953 399.129M157.135 435.524L157.135 550.978M157.135 435.524L118.57 435.524L118.57 550.978L157.135 550.978" stroke="#656565"/>
    </g>
    <path d="M94.4844 586.743L106.113 593.457" stroke="#656565"/>
    <path d="M121.617 586.743L109.989 593.457" stroke="#656565"/>
    <path d="M90.9858 506.477L90.9858 505.301C90.9858 504.847 91.0833 504.443 91.2784 504.091C91.4735 503.739 91.7481 503.462 92.1023 503.261C92.4545 503.061 92.8674 502.96 93.3409 502.96C93.803 502.96 94.2074 503.061 94.554 503.261C94.9006 503.462 95.1705 503.739 95.3636 504.091C95.5549 504.443 95.6506 504.847 95.6506 505.301L95.6506 506.477C95.6506 506.934 95.5559 507.339 95.3665 507.693C95.1752 508.045 94.9062 508.322 94.5597 508.523C94.2131 508.723 93.8078 508.824 93.3437 508.824C92.8703 508.824 92.4574 508.723 92.1051 508.52C91.7509 508.317 91.4763 508.04 91.2812 507.687C91.0843 507.333 90.9858 506.93 90.9858 506.477ZM91.8778 506.477C91.8778 506.754 91.9347 506.993 92.0483 507.196C92.16 507.397 92.3248 507.552 92.5426 507.662C92.7604 507.772 93.0275 507.827 93.3437 507.827C93.6468 507.827 93.9034 507.772 94.1136 507.662C94.3239 507.55 94.4839 507.393 94.5937 507.19C94.7036 506.988 94.7585 506.75 94.7585 506.477L94.7585 505.298C94.7585 505.024 94.7036 504.787 94.5937 504.588C94.482 504.387 94.321 504.233 94.1108 504.125C93.8987 504.015 93.642 503.96 93.3409 503.96C93.0284 503.96 92.7633 504.015 92.5455 504.125C92.3277 504.233 92.1619 504.387 92.0483 504.588C91.9347 504.787 91.8778 505.024 91.8778 505.298L91.8778 506.477ZM90.2358 505.381L96.3949 505.381L96.3949 506.395L90.2358 506.395L90.2358 505.381ZM96.2415 500.099C96.2415 500.526 96.1477 500.895 95.9602 501.207C95.7727 501.52 95.5104 501.762 95.1733 501.935C94.8362 502.105 94.4422 502.19 93.9915 502.19C93.5407 502.19 93.1458 502.105 92.8068 501.935C92.4678 501.762 92.2045 501.52 92.017 501.207C91.8295 500.895 91.7358 500.526 91.7358 500.099C91.7358 499.673 91.8295 499.304 92.017 498.991C92.2045 498.679 92.4678 498.437 92.8068 498.267C93.1458 498.095 93.5407 498.009 93.9915 498.009C94.4422 498.009 94.8362 498.095 95.1733 498.267C95.5104 498.437 95.7727 498.679 95.9602 498.991C96.1477 499.304 96.2415 499.673 96.2415 500.099ZM95.4176 500.094C95.4176 499.863 95.3542 499.67 95.2273 499.514C95.0985 499.359 94.9261 499.243 94.7102 499.168C94.4943 499.09 94.2538 499.051 93.9886 499.051C93.7216 499.051 93.4801 499.09 93.2642 499.168C93.0464 499.243 92.8731 499.359 92.7443 499.514C92.6155 499.67 92.5511 499.863 92.5511 500.094C92.5511 500.33 92.6155 500.527 92.7443 500.685C92.8731 500.84 93.0464 500.956 93.2642 501.034C93.4801 501.11 93.7216 501.148 93.9886 501.148C94.2538 501.148 94.4943 501.11 94.7102 501.034C94.9261 500.956 95.0985 500.84 95.2273 500.685C95.3542 500.527 95.4176 500.33 95.4176 500.094ZM94.7642 496.144L91.7926 494.397L91.7926 493.34L96.1562 493.34L96.1562 494.335L93.1818 494.335L96.1562 496.076L96.1562 497.136L91.7926 497.136L91.7926 496.144L94.7642 496.144ZM90.2926 494.678L90.2926 493.908C90.6241 493.908 90.893 494.029 91.0994 494.269C91.304 494.508 91.4062 494.832 91.4062 495.241C91.4062 495.646 91.304 495.969 91.0994 496.21C90.893 496.448 90.6241 496.567 90.2926 496.565L90.2926 495.8C90.429 495.8 90.5511 495.759 90.6591 495.675C90.7652 495.59 90.8182 495.445 90.8182 495.241C90.8182 495.04 90.7652 494.897 90.6591 494.812C90.553 494.725 90.4309 494.68 90.2926 494.678ZM96.2415 490.352C96.2415 490.79 96.1506 491.168 95.9687 491.486C95.785 491.802 95.5256 492.045 95.1903 492.216C94.8532 492.386 94.4564 492.472 94 492.472C93.5511 492.472 93.1572 492.386 92.8182 492.216C92.4773 492.044 92.2121 491.803 92.0227 491.494C91.8314 491.186 91.7358 490.823 91.7358 490.406C91.7358 490.137 91.7794 489.884 91.8665 489.645C91.9517 489.404 92.0843 489.192 92.2642 489.009C92.4441 488.823 92.6733 488.677 92.9517 488.571C93.2282 488.465 93.5578 488.412 93.9403 488.412L94.2557 488.412L94.2557 491.989L93.5625 491.989L93.5625 489.398C93.3655 489.4 93.1903 489.442 93.0369 489.526C92.8816 489.609 92.7595 489.725 92.6705 489.875C92.5814 490.023 92.5369 490.195 92.5369 490.392C92.5369 490.602 92.5881 490.787 92.6903 490.946C92.7907 491.105 92.9233 491.229 93.0881 491.318C93.2509 491.405 93.4299 491.45 93.625 491.452L94.2301 491.452C94.4839 491.452 94.7017 491.405 94.8835 491.312C95.0634 491.22 95.2017 491.09 95.2983 490.923C95.393 490.757 95.4403 490.562 95.4403 490.338C95.4403 490.188 95.4195 490.053 95.3778 489.932C95.3343 489.811 95.2708 489.705 95.1875 489.616C95.1042 489.527 95.0009 489.46 94.8778 489.415L94.9858 488.455C95.2396 488.515 95.4612 488.631 95.6506 488.801C95.8381 488.97 95.9839 489.186 96.0881 489.449C96.1903 489.712 96.2415 490.013 96.2415 490.352Z" fill="#797979"/>
    <rect x="119.586" y="436.96" width="36.5589" height="113.024" fill="url(#pattern0_1768_10485)"/>
    <path d="M134.018 513.656L134.901 513.656L134.901 516.344L139.836 516.344L139.836 517.398L134.018 517.398L134.018 513.656ZM139.924 512.149C139.924 512.425 139.875 512.674 139.776 512.896C139.676 513.115 139.528 513.29 139.333 513.418C139.138 513.545 138.897 513.609 138.612 513.609C138.365 513.609 138.162 513.563 138.001 513.472C137.84 513.381 137.711 513.257 137.614 513.1C137.518 512.943 137.445 512.766 137.396 512.569C137.344 512.37 137.308 512.165 137.285 511.953C137.258 511.697 137.235 511.489 137.214 511.33C137.191 511.171 137.157 511.056 137.112 510.984C137.064 510.91 136.991 510.873 136.893 510.873L136.876 510.873C136.662 510.873 136.496 510.936 136.379 511.063C136.261 511.19 136.202 511.373 136.202 511.612C136.202 511.863 136.257 512.063 136.367 512.211C136.477 512.357 136.607 512.455 136.756 512.506L136.62 513.467C136.355 513.391 136.133 513.266 135.955 513.092C135.775 512.917 135.641 512.704 135.552 512.453C135.461 512.201 135.415 511.922 135.415 511.617C135.415 511.407 135.44 511.198 135.489 510.989C135.539 510.781 135.62 510.591 135.734 510.418C135.845 510.246 135.998 510.108 136.191 510.004C136.384 509.898 136.626 509.845 136.915 509.845L139.836 509.845L139.836 510.833L139.237 510.833L139.237 510.867C139.358 510.93 139.471 511.018 139.577 511.131C139.682 511.243 139.766 511.384 139.83 511.555C139.893 511.723 139.924 511.921 139.924 512.149ZM139.168 511.881C139.168 511.675 139.128 511.496 139.046 511.345C138.963 511.193 138.853 511.077 138.717 510.995C138.58 510.912 138.432 510.87 138.271 510.87L137.756 510.87C137.783 510.902 137.808 510.957 137.83 511.035C137.853 511.111 137.873 511.196 137.89 511.291C137.907 511.385 137.922 511.479 137.935 511.572C137.949 511.665 137.96 511.745 137.969 511.813C137.99 511.967 138.024 512.104 138.072 512.225C138.119 512.346 138.185 512.442 138.271 512.512C138.354 512.582 138.462 512.617 138.594 512.617C138.784 512.617 138.927 512.548 139.023 512.41C139.12 512.272 139.168 512.095 139.168 511.881ZM141.472 508.81L135.472 508.81L135.472 507.799L136.194 507.799L136.194 507.739C136.088 507.686 135.975 507.612 135.856 507.515C135.735 507.418 135.631 507.288 135.546 507.123C135.459 506.958 135.415 506.748 135.415 506.492C135.415 506.155 135.502 505.851 135.674 505.58C135.844 505.308 136.097 505.092 136.433 504.933C136.766 504.772 137.175 504.691 137.66 504.691C138.139 504.691 138.546 504.77 138.881 504.927C139.217 505.084 139.472 505.298 139.648 505.569C139.825 505.84 139.913 506.147 139.913 506.489C139.913 506.739 139.871 506.947 139.788 507.112C139.704 507.276 139.604 507.409 139.487 507.509C139.367 507.608 139.254 507.685 139.148 507.739L139.148 507.782L141.472 507.782L141.472 508.81ZM137.654 507.802C137.936 507.802 138.183 507.762 138.396 507.683C138.608 507.601 138.773 507.485 138.893 507.333C139.01 507.18 139.069 506.994 139.069 506.776C139.069 506.549 139.008 506.359 138.887 506.205C138.764 506.052 138.596 505.936 138.384 505.859C138.17 505.779 137.927 505.739 137.654 505.739C137.383 505.739 137.143 505.778 136.933 505.856C136.722 505.934 136.558 506.049 136.438 506.203C136.319 506.356 136.259 506.547 136.259 506.776C136.259 506.996 136.317 507.183 136.433 507.336C136.548 507.489 136.71 507.606 136.918 507.685C137.127 507.763 137.372 507.802 137.654 507.802ZM141.103 504.197L138.989 504.197L138.989 503.85C138.917 503.757 138.82 503.68 138.697 503.617C138.572 503.555 138.425 503.504 138.256 503.464C138.086 503.422 137.896 503.388 137.685 503.362C137.473 503.335 137.245 503.311 137.001 503.291L135.472 503.166L135.472 500.012L138.989 500.012L138.989 499.336L141.103 499.336L141.103 500.33L139.836 500.33L139.836 503.185L141.103 503.185L141.103 504.197ZM138.989 502.793L138.989 500.995L136.302 500.995L136.302 502.274L137.001 502.342C137.463 502.38 137.859 502.43 138.188 502.492C138.518 502.555 138.785 502.655 138.989 502.793ZM139.921 496.636C139.921 497.074 139.83 497.452 139.648 497.77C139.465 498.086 139.205 498.33 138.87 498.5C138.533 498.671 138.136 498.756 137.68 498.756C137.231 498.756 136.837 498.671 136.498 498.5C136.157 498.328 135.892 498.087 135.702 497.778C135.511 497.47 135.415 497.107 135.415 496.69C135.415 496.421 135.459 496.168 135.546 495.929C135.631 495.689 135.764 495.476 135.944 495.293C136.124 495.107 136.353 494.961 136.631 494.855C136.908 494.749 137.237 494.696 137.62 494.696L137.935 494.696L137.935 498.273L137.242 498.273L137.242 495.682C137.045 495.684 136.87 495.726 136.717 495.81C136.561 495.893 136.439 496.01 136.35 496.159C136.261 496.307 136.217 496.479 136.217 496.676C136.217 496.886 136.268 497.071 136.37 497.23C136.47 497.389 136.603 497.513 136.768 497.602C136.931 497.689 137.11 497.734 137.305 497.736L137.91 497.736C138.164 497.736 138.381 497.689 138.563 497.597C138.743 497.504 138.881 497.374 138.978 497.207C139.073 497.041 139.12 496.846 139.12 496.622C139.12 496.473 139.099 496.337 139.058 496.216C139.014 496.095 138.951 495.99 138.867 495.901C138.784 495.812 138.681 495.744 138.558 495.699L138.665 494.739C138.919 494.799 139.141 494.915 139.33 495.085C139.518 495.254 139.664 495.47 139.768 495.733C139.87 495.996 139.921 496.297 139.921 496.636ZM141.472 493.826L135.472 493.826L135.472 492.815L136.194 492.815L136.194 492.755C136.088 492.702 135.975 492.627 135.856 492.531C135.735 492.434 135.631 492.303 135.546 492.139C135.459 491.974 135.415 491.764 135.415 491.508C135.415 491.171 135.502 490.867 135.674 490.596C135.844 490.323 136.097 490.107 136.433 489.948C136.766 489.787 137.175 489.707 137.66 489.707C138.139 489.707 138.546 489.785 138.881 489.943C139.217 490.1 139.472 490.314 139.648 490.585C139.825 490.855 139.913 491.162 139.913 491.505C139.913 491.755 139.871 491.962 139.788 492.127C139.704 492.292 139.604 492.425 139.487 492.525C139.367 492.623 139.254 492.7 139.148 492.755L139.148 492.798L141.472 492.798L141.472 493.826ZM137.654 492.818C137.936 492.818 138.183 492.778 138.396 492.698C138.608 492.617 138.773 492.5 138.893 492.349C139.01 492.195 139.069 492.01 139.069 491.792C139.069 491.565 139.008 491.374 138.887 491.221C138.764 491.068 138.596 490.952 138.384 490.874C138.17 490.795 137.927 490.755 137.654 490.755C137.383 490.755 137.143 490.794 136.933 490.872C136.722 490.949 136.558 491.065 136.438 491.218C136.319 491.372 136.259 491.563 136.259 491.792C136.259 492.012 136.317 492.198 136.433 492.352C136.548 492.505 136.71 492.622 136.918 492.701C137.127 492.779 137.372 492.818 137.654 492.818ZM139.921 486.923C139.921 487.349 139.827 487.718 139.64 488.031C139.452 488.343 139.19 488.586 138.853 488.758C138.516 488.928 138.122 489.014 137.671 489.014C137.22 489.014 136.826 488.928 136.487 488.758C136.147 488.586 135.884 488.343 135.697 488.031C135.509 487.718 135.415 487.349 135.415 486.923C135.415 486.497 135.509 486.127 135.697 485.815C135.884 485.502 136.147 485.261 136.487 485.09C136.826 484.918 137.22 484.832 137.671 484.832C138.122 484.832 138.516 484.918 138.853 485.09C139.19 485.261 139.452 485.502 139.64 485.815C139.827 486.127 139.921 486.497 139.921 486.923ZM139.097 486.917C139.097 486.686 139.034 486.493 138.907 486.337C138.778 486.182 138.606 486.067 138.39 485.991C138.174 485.913 137.933 485.874 137.668 485.874C137.401 485.874 137.16 485.913 136.944 485.991C136.726 486.067 136.553 486.182 136.424 486.337C136.295 486.493 136.231 486.686 136.231 486.917C136.231 487.154 136.295 487.351 136.424 487.508C136.553 487.663 136.726 487.78 136.944 487.857C137.16 487.933 137.401 487.971 137.668 487.971C137.933 487.971 138.174 487.933 138.39 487.857C138.606 487.78 138.778 487.663 138.907 487.508C139.034 487.351 139.097 487.154 139.097 486.917ZM133.859 480.462L134.523 480.104C134.633 480.231 134.713 480.373 134.762 480.53C134.811 480.687 134.844 480.872 134.859 481.084C134.872 481.294 134.881 481.544 134.887 481.834C134.895 482.16 134.956 482.426 135.072 482.632C135.187 482.839 135.362 482.997 135.597 483.107C135.83 483.216 136.128 483.288 136.489 483.323L136.489 483.274C136.222 483.138 136.019 482.947 135.879 482.7C135.738 482.454 135.668 482.165 135.668 481.834C135.668 481.472 135.75 481.153 135.913 480.877C136.074 480.598 136.308 480.381 136.614 480.226C136.921 480.069 137.292 479.99 137.728 479.99C138.177 479.99 138.566 480.074 138.896 480.243C139.223 480.412 139.476 480.651 139.654 480.962C139.832 481.27 139.921 481.637 139.921 482.061C139.921 482.484 139.829 482.851 139.646 483.163C139.46 483.474 139.186 483.715 138.825 483.885C138.461 484.054 138.013 484.138 137.481 484.138L137.089 484.138C136.062 484.138 135.296 483.947 134.79 483.564C134.285 483.181 134.027 482.614 134.018 481.862C134.014 481.639 134.013 481.439 134.015 481.263C134.017 481.085 134.008 480.93 133.989 480.797C133.97 480.664 133.927 480.553 133.859 480.462ZM139.097 482.055C139.097 481.845 139.043 481.663 138.935 481.51C138.826 481.357 138.67 481.239 138.469 481.158C138.269 481.074 138.031 481.033 137.756 481.033C137.486 481.033 137.255 481.074 137.066 481.158C136.875 481.241 136.729 481.359 136.629 481.513C136.528 481.666 136.478 481.849 136.478 482.061C136.478 482.22 136.506 482.363 136.563 482.49C136.62 482.617 136.703 482.725 136.813 482.814C136.923 482.903 137.057 482.971 137.214 483.019C137.371 483.066 137.552 483.091 137.756 483.095C138.167 483.095 138.494 483.002 138.737 482.817C138.977 482.631 139.097 482.377 139.097 482.055Z" fill="#797979"/>
    <rect x="122.461" y="178.456" width="75" height="85" fill="url(#pattern1_1768_10485)"/>
    <rect x="122.461" y="296.456" width="75" height="101" fill="url(#pattern2_1768_10485)"/>
    <path d="M127.212 283.194V282.319L127.376 282.31C127.6 282.297 127.777 282.217 127.908 282.069C128.04 281.921 128.138 281.683 128.2 281.356C128.265 281.028 128.307 280.589 128.328 280.038L128.425 277.376H132.237V283.194H131.206V278.242H129.408L129.317 280.364C129.29 281.001 129.22 281.528 129.107 281.947C128.995 282.365 128.811 282.678 128.555 282.884C128.302 283.091 127.948 283.194 127.496 283.194H127.212ZM135.273 283.279C134.835 283.279 134.457 283.188 134.139 283.006C133.823 282.823 133.58 282.563 133.409 282.228C133.239 281.891 133.153 281.494 133.153 281.038C133.153 280.589 133.239 280.195 133.409 279.856C133.581 279.515 133.822 279.25 134.131 279.06C134.439 278.869 134.802 278.773 135.219 278.773C135.488 278.773 135.741 278.817 135.98 278.904C136.221 278.989 136.433 279.122 136.616 279.302C136.802 279.482 136.948 279.711 137.054 279.989C137.16 280.266 137.213 280.595 137.213 280.978V281.293H133.636V280.6H136.227C136.225 280.403 136.183 280.228 136.099 280.075C136.016 279.919 135.9 279.797 135.75 279.708C135.602 279.619 135.43 279.575 135.233 279.575C135.023 279.575 134.838 279.626 134.679 279.728C134.52 279.828 134.396 279.961 134.307 280.126C134.22 280.289 134.175 280.468 134.173 280.663V281.268C134.173 281.521 134.22 281.739 134.312 281.921C134.405 282.101 134.535 282.239 134.702 282.336C134.868 282.431 135.063 282.478 135.287 282.478C135.437 282.478 135.572 282.457 135.693 282.415C135.814 282.372 135.92 282.308 136.009 282.225C136.098 282.142 136.165 282.039 136.21 281.915L137.17 282.023C137.11 282.277 136.994 282.499 136.824 282.688C136.655 282.876 136.439 283.021 136.176 283.126C135.913 283.228 135.612 283.279 135.273 283.279ZM138.083 283.194V278.83H139.112V280.592H139.487L140.799 278.83H142.038L140.421 280.972L142.055 283.194H140.81L139.614 281.549H139.112V283.194H138.083ZM146.322 278.83V282.427H146.99V284.597H145.984V283.194H142.638V278.83H143.629V282.35H145.339V278.83H146.322ZM148.825 281.802L150.572 278.83H151.629V283.194H150.634V280.219L148.893 283.194H147.833V278.83H148.825V281.802ZM154.588 283.279C154.162 283.279 153.793 283.185 153.48 282.998C153.168 282.81 152.925 282.548 152.753 282.211C152.582 281.874 152.497 281.48 152.497 281.029C152.497 280.578 152.582 280.183 152.753 279.844C152.925 279.505 153.168 279.242 153.48 279.055C153.793 278.867 154.162 278.773 154.588 278.773C155.014 278.773 155.384 278.867 155.696 279.055C156.009 279.242 156.25 279.505 156.42 279.844C156.593 280.183 156.679 280.578 156.679 281.029C156.679 281.48 156.593 281.874 156.42 282.211C156.25 282.548 156.009 282.81 155.696 282.998C155.384 283.185 155.014 283.279 154.588 283.279ZM154.594 282.455C154.825 282.455 155.018 282.392 155.173 282.265C155.329 282.136 155.444 281.964 155.52 281.748C155.598 281.532 155.636 281.291 155.636 281.026C155.636 280.759 155.598 280.518 155.52 280.302C155.444 280.084 155.329 279.911 155.173 279.782C155.018 279.653 154.825 279.589 154.594 279.589C154.357 279.589 154.16 279.653 154.003 279.782C153.848 279.911 153.731 280.084 153.653 280.302C153.578 280.518 153.54 280.759 153.54 281.026C153.54 281.291 153.578 281.532 153.653 281.748C153.731 281.964 153.848 282.136 154.003 282.265C154.16 282.392 154.357 282.455 154.594 282.455ZM160.549 280.586V281.43H158.225V280.586H160.549ZM158.543 278.83V283.194H157.552V278.83H158.543ZM161.222 278.83V283.194H160.234V278.83H161.222ZM165.26 280.586V281.43H162.936V280.586H165.26ZM163.254 278.83V283.194H162.263V278.83H163.254ZM165.933 278.83V283.194H164.945V278.83H165.933ZM167.67 280.251H168.957C169.513 280.251 169.944 280.386 170.249 280.657C170.554 280.928 170.708 281.283 170.71 281.722C170.708 282.008 170.638 282.262 170.499 282.484C170.363 282.705 170.164 282.879 169.903 283.006C169.643 283.131 169.328 283.194 168.957 283.194H166.974V278.83H167.965V282.35H168.957C169.18 282.35 169.364 282.293 169.508 282.18C169.652 282.064 169.724 281.916 169.724 281.736C169.724 281.547 169.652 281.393 169.508 281.273C169.364 281.154 169.18 281.094 168.957 281.094H167.67V280.251ZM171.252 283.194V278.83H172.281V283.194H171.252ZM174.332 281.802L176.08 278.83H177.136V283.194H176.142V280.219L174.401 283.194H173.341V278.83H174.332V281.802ZM175.798 277.33H176.568C176.568 277.662 176.448 277.931 176.207 278.137C175.969 278.342 175.645 278.444 175.236 278.444C174.83 278.444 174.508 278.342 174.267 278.137C174.028 277.931 173.91 277.662 173.912 277.33H174.676C174.676 277.467 174.718 277.589 174.801 277.697C174.886 277.803 175.031 277.856 175.236 277.856C175.437 277.856 175.58 277.803 175.665 277.697C175.752 277.591 175.796 277.468 175.798 277.33ZM179.935 281.998H180.955C180.965 282.161 181.038 282.287 181.174 282.376C181.31 282.465 181.487 282.509 181.705 282.509C181.927 282.509 182.113 282.461 182.265 282.364C182.418 282.266 182.495 282.117 182.495 281.918C182.495 281.801 182.466 281.698 182.407 281.609C182.348 281.518 182.266 281.448 182.16 281.398C182.054 281.349 181.929 281.325 181.785 281.325H181.117V280.594H181.785C181.999 280.594 182.161 280.545 182.271 280.447C182.382 280.348 182.438 280.224 182.438 280.075C182.438 279.914 182.379 279.783 182.262 279.682C182.147 279.582 181.987 279.532 181.782 279.532C181.577 279.532 181.407 279.578 181.271 279.671C181.136 279.764 181.066 279.883 181.06 280.029H180.046C180.05 279.775 180.126 279.555 180.273 279.367C180.423 279.18 180.624 279.034 180.876 278.93C181.129 278.825 181.415 278.773 181.734 278.773C182.075 278.773 182.369 278.825 182.617 278.927C182.865 279.029 183.057 279.172 183.191 279.356C183.326 279.538 183.393 279.752 183.393 279.998C183.393 280.235 183.319 280.431 183.171 280.586C183.023 280.739 182.825 280.849 182.575 280.915V280.961C182.747 280.97 182.902 281.02 183.04 281.109C183.179 281.196 183.289 281.314 183.37 281.464C183.451 281.613 183.492 281.787 183.492 281.984C183.492 282.251 183.415 282.482 183.262 282.677C183.109 282.87 182.897 283.019 182.629 283.123C182.362 283.227 182.056 283.279 181.711 283.279C181.376 283.279 181.076 283.229 180.81 283.129C180.547 283.026 180.338 282.879 180.183 282.688C180.027 282.497 179.945 282.267 179.935 281.998ZM185.558 283.282C185.281 283.282 185.032 283.233 184.81 283.134C184.591 283.034 184.416 282.886 184.288 282.691C184.161 282.496 184.097 282.255 184.097 281.969C184.097 281.723 184.143 281.52 184.234 281.359C184.325 281.198 184.449 281.069 184.606 280.972C184.763 280.876 184.94 280.803 185.137 280.754C185.336 280.702 185.541 280.665 185.754 280.643C186.009 280.616 186.217 280.593 186.376 280.572C186.535 280.549 186.65 280.515 186.722 280.469C186.796 280.422 186.833 280.349 186.833 280.251V280.234C186.833 280.02 186.77 279.854 186.643 279.736C186.516 279.619 186.333 279.56 186.094 279.56C185.843 279.56 185.643 279.615 185.495 279.725C185.349 279.835 185.251 279.965 185.2 280.114L184.239 279.978C184.315 279.713 184.44 279.491 184.614 279.313C184.789 279.133 185.002 278.999 185.254 278.91C185.505 278.819 185.784 278.773 186.089 278.773C186.299 278.773 186.508 278.798 186.717 278.847C186.925 278.896 187.115 278.978 187.288 279.092C187.46 279.203 187.598 279.356 187.702 279.549C187.808 279.742 187.862 279.984 187.862 280.273V283.194H186.873V282.594H186.839C186.776 282.716 186.688 282.829 186.575 282.935C186.463 283.039 186.322 283.124 186.151 283.188C185.983 283.251 185.785 283.282 185.558 283.282ZM185.825 282.526C186.031 282.526 186.21 282.486 186.362 282.404C186.513 282.321 186.629 282.211 186.711 282.075C186.794 281.938 186.836 281.789 186.836 281.629V281.114C186.804 281.141 186.749 281.165 186.671 281.188C186.595 281.211 186.51 281.231 186.415 281.248C186.321 281.265 186.227 281.28 186.134 281.293C186.041 281.307 185.961 281.318 185.893 281.327C185.739 281.348 185.602 281.382 185.481 281.43C185.36 281.477 185.264 281.543 185.194 281.629C185.124 281.712 185.089 281.82 185.089 281.952C185.089 282.142 185.158 282.285 185.296 282.381C185.434 282.478 185.611 282.526 185.825 282.526ZM188.594 283.194L188.589 282.347H188.739C188.853 282.347 188.949 282.322 189.026 282.271C189.104 282.219 189.168 282.134 189.219 282.015C189.271 281.894 189.31 281.731 189.339 281.526C189.367 281.322 189.387 281.067 189.398 280.762L189.475 278.83H192.657V283.194H191.663V279.674H190.41L190.342 281.08C190.325 281.444 190.284 281.759 190.219 282.026C190.157 282.291 190.068 282.51 189.952 282.682C189.839 282.855 189.696 282.984 189.523 283.069C189.351 283.152 189.147 283.194 188.913 283.194H188.594Z" fill="#797979"/>
    <g filter="url(#filter1_d_1768_10485)">
        <path d="M120.961 263.456H198.961" stroke="#656565"/>
    </g>
    <g filter="url(#filter2_d_1768_10485)">
        <path d="M120.961 296.456H198.961" stroke="#656565"/>
    </g>
    <defs>
        <filter id="filter0_d_1768_10485" x="0.00371933" y="-0.00018692" width="263.407" height="651.349" filterUnits="userSpaceOnUse" color-interpolation-filters="sRGB">
            <feFlood flood-opacity="0" result="BackgroundImageFix"/>
            <feColorMatrix in="SourceAlpha" type="matrix" values="0 0 0 0 0 0 0 0 0 0 0 0 0 0 0 0 0 0 127 0" result="hardAlpha"/>
            <feMorphology radius="15.5048" operator="dilate" in="SourceAlpha" result="effect1_dropShadow_1768_10485"/>
            <feOffset/>
            <feGaussianBlur stdDeviation="24.2262"/>
            <feComposite in2="hardAlpha" operator="out"/>
            <feColorMatrix type="matrix" values="0 0 0 0 0.486275 0 0 0 0 0.737255 0 0 0 0 0.643137 0 0 0 0.4 0"/>
            <feBlend mode="normal" in2="BackgroundImageFix" result="effect1_dropShadow_1768_10485"/>
            <feBlend mode="normal" in="SourceGraphic" in2="effect1_dropShadow_1768_10485" result="shape"/>
        </filter>
        <filter id="filter1_d_1768_10485" x="57.0037" y="198.999" width="205.914" height="128.914" filterUnits="userSpaceOnUse" color-interpolation-filters="sRGB">
            <feFlood flood-opacity="0" result="BackgroundImageFix"/>
            <feColorMatrix in="SourceAlpha" type="matrix" values="0 0 0 0 0 0 0 0 0 0 0 0 0 0 0 0 0 0 127 0" result="hardAlpha"/>
            <feMorphology radius="15.5048" operator="dilate" in="SourceAlpha" result="effect1_dropShadow_1768_10485"/>
            <feOffset/>
            <feGaussianBlur stdDeviation="24.2262"/>
            <feComposite in2="hardAlpha" operator="out"/>
            <feColorMatrix type="matrix" values="0 0 0 0 0.486275 0 0 0 0 0.737255 0 0 0 0 0.643137 0 0 0 0.4 0"/>
            <feBlend mode="normal" in2="BackgroundImageFix" result="effect1_dropShadow_1768_10485"/>
            <feBlend mode="normal" in="SourceGraphic" in2="effect1_dropShadow_1768_10485" result="shape"/>
        </filter>
        <filter id="filter2_d_1768_10485" x="57.0037" y="231.999" width="205.914" height="128.914" filterUnits="userSpaceOnUse" color-interpolation-filters="sRGB">
            <feFlood flood-opacity="0" result="BackgroundImageFix"/>
            <feColorMatrix in="SourceAlpha" type="matrix" values="0 0 0 0 0 0 0 0 0 0 0 0 0 0 0 0 0 0 127 0" result="hardAlpha"/>
            <feMorphology radius="15.5048" operator="dilate" in="SourceAlpha" result="effect1_dropShadow_1768_10485"/>
            <feOffset/>
            <feGaussianBlur stdDeviation="24.2262"/>
            <feComposite in2="hardAlpha" operator="out"/>
            <feColorMatrix type="matrix" values="0 0 0 0 0.486275 0 0 0 0 0.737255 0 0 0 0 0.643137 0 0 0 0.4 0"/>
            <feBlend mode="normal" in2="BackgroundImageFix" result="effect1_dropShadow_1768_10485"/>
            <feBlend mode="normal" in="SourceGraphic" in2="effect1_dropShadow_1768_10485" result="shape"/>
        </filter>
        <pattern id="pattern0_1768_10485" patternUnits="userSpaceOnUse" patternTransform="matrix(8.24448 0 0 8.24401 119.243 436.618)" preserveAspectRatio="none" viewBox="-0.353516 -0.353516 8.50781 8.50732" width="1" height="1">
            <use xlink:href="#pattern0_1768_10485_inner" transform="translate(-8.50781 -8.50732)"/>
            <use xlink:href="#pattern0_1768_10485_inner" transform="translate(0 -8.50732)"/>
            <use xlink:href="#pattern0_1768_10485_inner" transform="translate(-8.50781 0)"/>
            <g id="pattern0_1768_10485_inner">
                <path d="M8.50781 0L0 8.50732" stroke="#2E2F2E"/>
            </g>
        </pattern><pattern id="pattern1_1768_10485" patternUnits="userSpaceOnUse" patternTransform="matrix(8.24448 0 0 8.24401 122.118 178.113)" preserveAspectRatio="none" viewBox="-0.353516 -0.353516 8.50781 8.50732" width="1" height="1">
        <use xlink:href="#pattern1_1768_10485_inner" transform="translate(-8.50781 -8.50732)"/>
        <use xlink:href="#pattern1_1768_10485_inner" transform="translate(0 -8.50732)"/>
        <use xlink:href="#pattern1_1768_10485_inner" transform="translate(-8.50781 0)"/>
        <g id="pattern1_1768_10485_inner">
            <path d="M8.50781 0L0 8.50732" stroke="#2E2F2E"/>
        </g>
    </pattern><pattern id="pattern2_1768_10485" patternUnits="userSpaceOnUse" patternTransform="matrix(8.24448 0 0 8.24401 122.118 296.113)" preserveAspectRatio="none" viewBox="-0.353516 -0.353516 8.50781 8.50732" width="1" height="1">
        <use xlink:href="#pattern2_1768_10485_inner" transform="translate(-8.50781 -8.50732)"/>
        <use xlink:href="#pattern2_1768_10485_inner" transform="translate(0 -8.50732)"/>
        <use xlink:href="#pattern2_1768_10485_inner" transform="translate(-8.50781 0)"/>
        <g id="pattern2_1768_10485_inner">
            <path d="M8.50781 0L0 8.50732" stroke="#2E2F2E"/>
        </g>
    </pattern></defs>
</svg>
