<svg width="254" height="643" viewBox="0 0 254 643" fill="none" xmlns="http://www.w3.org/2000/svg"
     xmlns:xlink="http://www.w3.org/1999/xlink">
    <g filter="url(#filter0_d_795_6580)">
        <path d="M172.294 582.683L172.294 422.161L129.717 422.161L129.717 582.683L172.294 582.683Z" fill="#252627"/>
        <path d="M96.2969 346.829L96.2969 582.683L129.717 582.683L129.717 422.161L172.294 422.161L210.735 422.161L210.735 388.705L139.059 388.705L139.059 199.997L210.735 199.997L210.735 184.754L172.294 184.754L172.294 59.6826L99.5095 59.6826L99.5095 84.6384L99.5096 184.754L128.867 184.754L128.867 227.073L111.031 227.073L111.031 308.83L128.867 308.83L128.867 346.829L96.2969 346.829Z"
              fill="#1B1C1D"/>
        <path d="M139.059 388.705L210.735 388.705L210.735 199.997L139.059 199.997L139.059 388.705Z" fill="#252627"/>
        <path d="M96.2969 582.683L96.2969 346.829L128.867 346.829L128.867 308.83L111.031 308.83L111.031 227.073L128.867 227.073L128.867 184.754L99.5096 184.754L99.5095 84.6384M96.2969 582.683L172.294 582.683M96.2969 582.683L129.717 582.683M172.294 422.161L210.735 422.161L210.735 388.705M172.294 422.161L172.294 582.683M172.294 422.161L129.717 422.161L129.717 582.683M172.294 582.683L129.717 582.683M210.735 388.705L139.059 388.705L139.059 199.997L210.735 199.997M210.735 388.705L210.735 199.997M210.735 199.997L210.735 184.754L172.294 184.754L172.294 59.6826L99.5095 59.6826L99.5095 84.6384M99.5095 84.6384L143.065 84.6384L143.065 184.754"
              stroke="#656565" stroke-width="1.78157"/>
    </g>
    <rect x="139.945" y="200.875" width="69.8503" height="186.922" fill="url(#pattern0_795_6580)"/>
    <rect x="100.531" y="85.5322" width="41.6269" height="98.1915" fill="url(#pattern1_795_6580)"/>
    <rect x="130.766" y="422.884" width="40.6178" height="158.999" fill="url(#pattern2_795_6580)"/>
<!--    <path d="M101 517.967L0 517.967" stroke="#E2E2E2"/>-->
<!--    <g filter="url(#filter1_d_795_6580)">-->
<!--        <ellipse cx="107" cy="517.967" rx="6" ry="6" transform="rotate(-90 107 517.967)" fill="#E2E2E2"/>-->
<!--    </g>-->
    <rect opacity="0.5" x="116.039" y="232.495" width="11.5802" height="3.56315" fill="#656565"/>
    <rect opacity="0.5" x="116.039" y="235.167" width="11.5802" height="3.56315" fill="#656565"/>
    <rect opacity="0.5" x="116.039" y="237.84" width="11.5802" height="3.56315" fill="#656565"/>
    <rect opacity="0.5" x="116.039" y="240.512" width="11.5802" height="3.56315" fill="#656565"/>
    <rect opacity="0.5" x="116.039" y="243.185" width="11.5802" height="3.56315" fill="#656565"/>
    <rect opacity="0.5" x="116.039" y="245.857" width="11.5802" height="3.56315" fill="#656565"/>
    <rect opacity="0.5" x="116.039" y="248.529" width="11.5802" height="3.56315" fill="#656565"/>
    <rect opacity="0.5" x="123.164" y="232.495" width="11.5802" height="3.56315" fill="#656565"/>
    <rect opacity="0.5" x="123.164" y="235.167" width="11.5802" height="3.56315" fill="#656565"/>
    <rect opacity="0.5" x="123.164" y="237.84" width="11.5802" height="3.56315" fill="#656565"/>
    <rect opacity="0.5" x="123.164" y="240.512" width="11.5802" height="3.56315" fill="#656565"/>
    <rect opacity="0.5" x="123.164" y="243.185" width="11.5802" height="3.56315" fill="#656565"/>
    <rect opacity="0.5" x="123.164" y="245.857" width="11.5802" height="3.56315" fill="#656565"/>
    <rect opacity="0.5" x="123.164" y="248.529" width="11.5802" height="3.56315" fill="#656565"/>
    <rect opacity="0.5" x="106.312" y="400.622" width="11.5802" height="3.56315" fill="#656565"/>
    <rect opacity="0.5" x="106.312" y="403.294" width="11.5802" height="3.56315" fill="#656565"/>
    <rect opacity="0.5" x="106.312" y="405.967" width="11.5802" height="3.56315" fill="#656565"/>
    <rect opacity="0.5" x="106.312" y="408.639" width="11.5802" height="3.56315" fill="#656565"/>
    <rect opacity="0.5" x="106.312" y="411.312" width="11.5802" height="3.56315" fill="#656565"/>
    <rect opacity="0.5" x="106.312" y="413.984" width="11.5802" height="3.56315" fill="#656565"/>
    <rect opacity="0.5" x="106.312" y="416.656" width="11.5802" height="3.56315" fill="#656565"/>
    <rect opacity="0.5" x="106.312" y="370.622" width="11.5802" height="3.56315" fill="#656565"/>
    <rect opacity="0.5" x="106.312" y="373.294" width="11.5802" height="3.56315" fill="#656565"/>
    <rect opacity="0.5" x="106.312" y="375.967" width="11.5802" height="3.56315" fill="#656565"/>
    <rect opacity="0.5" x="106.312" y="378.639" width="11.5802" height="3.56315" fill="#656565"/>
    <rect opacity="0.5" x="106.312" y="381.312" width="11.5802" height="3.56315" fill="#656565"/>
    <rect opacity="0.5" x="106.312" y="383.984" width="11.5802" height="3.56315" fill="#656565"/>
    <rect opacity="0.5" x="106.312" y="386.656" width="11.5802" height="3.56315" fill="#656565"/>
    <rect opacity="0.5" x="113.438" y="400.622" width="11.5802" height="3.56315" fill="#656565"/>
    <rect opacity="0.5" x="113.438" y="403.294" width="11.5802" height="3.56315" fill="#656565"/>
    <rect opacity="0.5" x="113.438" y="405.967" width="11.5802" height="3.56315" fill="#656565"/>
    <rect opacity="0.5" x="113.438" y="408.639" width="11.5802" height="3.56315" fill="#656565"/>
    <rect opacity="0.5" x="113.438" y="411.312" width="11.5802" height="3.56315" fill="#656565"/>
    <rect opacity="0.5" x="113.438" y="413.984" width="11.5802" height="3.56315" fill="#656565"/>
    <rect opacity="0.5" x="113.438" y="416.656" width="11.5802" height="3.56315" fill="#656565"/>
    <rect opacity="0.5" x="113.438" y="370.622" width="11.5802" height="3.56315" fill="#656565"/>
    <rect opacity="0.5" x="113.438" y="373.294" width="11.5802" height="3.56315" fill="#656565"/>
    <rect opacity="0.5" x="113.438" y="375.967" width="11.5802" height="3.56315" fill="#656565"/>
    <rect opacity="0.5" x="113.438" y="378.639" width="11.5802" height="3.56315" fill="#656565"/>
    <rect opacity="0.5" x="113.438" y="381.312" width="11.5802" height="3.56315" fill="#656565"/>
    <rect opacity="0.5" x="113.438" y="383.984" width="11.5802" height="3.56315" fill="#656565"/>
    <rect opacity="0.5" x="113.438" y="386.656" width="11.5802" height="3.56315" fill="#656565"/>
    <defs>
        <filter id="filter0_d_795_6580" x="36.6143" y="1.71661e-05" width="233.803" height="642.365"
                filterUnits="userSpaceOnUse" color-interpolation-filters="sRGB">
            <feFlood flood-opacity="0" result="BackgroundImageFix"/>
            <feColorMatrix in="SourceAlpha" type="matrix" values="0 0 0 0 0 0 0 0 0 0 0 0 0 0 0 0 0 0 127 0"
                           result="hardAlpha"/>
            <feMorphology radius="14.2526" operator="dilate" in="SourceAlpha" result="effect1_dropShadow_795_6580"/>
            <feOffset/>
            <feGaussianBlur stdDeviation="22.2697"/>
            <feComposite in2="hardAlpha" operator="out"/>
            <feColorMatrix type="matrix" values="0 0 0 0 0.486275 0 0 0 0 0.737255 0 0 0 0 0.643137 0 0 0 0.4 0"/>
            <feBlend mode="normal" in2="BackgroundImageFix" result="effect1_dropShadow_795_6580"/>
            <feBlend mode="normal" in="SourceGraphic" in2="effect1_dropShadow_795_6580" result="shape"/>
        </filter>
        <filter id="filter1_d_795_6580" x="86.7474" y="497.714" width="40.5052" height="40.5052"
                filterUnits="userSpaceOnUse" color-interpolation-filters="sRGB">
            <feFlood flood-opacity="0" result="BackgroundImageFix"/>
            <feColorMatrix in="SourceAlpha" type="matrix" values="0 0 0 0 0 0 0 0 0 0 0 0 0 0 0 0 0 0 127 0"
                           result="hardAlpha"/>
            <feMorphology radius="3.56315" operator="dilate" in="SourceAlpha" result="effect1_dropShadow_795_6580"/>
            <feOffset/>
            <feGaussianBlur stdDeviation="5.34472"/>
            <feComposite in2="hardAlpha" operator="out"/>
            <feColorMatrix type="matrix" values="0 0 0 0 0.623529 0 0 0 0 0.988235 0 0 0 0 0.788235 0 0 0 1 0"/>
            <feBlend mode="normal" in2="BackgroundImageFix" result="effect1_dropShadow_795_6580"/>
            <feBlend mode="normal" in="SourceGraphic" in2="effect1_dropShadow_795_6580" result="shape"/>
        </filter>
        <pattern id="pattern0_795_6580" patternUnits="userSpaceOnUse"
                 patternTransform="matrix(7.57865 0 0 7.57822 139.63 200.56)" preserveAspectRatio="none"
                 viewBox="-0.353516 -0.353516 8.50781 8.50732" width="1" height="1">
            <use xlink:href="#pattern0_795_6580_inner" transform="translate(-8.50781 -8.50732)"/>
            <use xlink:href="#pattern0_795_6580_inner" transform="translate(0 -8.50732)"/>
            <use xlink:href="#pattern0_795_6580_inner" transform="translate(-8.50781 0)"/>
            <g id="pattern0_795_6580_inner">
                <path d="M8.50781 0L0 8.50732" stroke="#2E2F2E"/>
            </g>
        </pattern>
        <pattern id="pattern1_795_6580" patternUnits="userSpaceOnUse"
                 patternTransform="matrix(7.57865 0 0 7.57822 100.216 85.2173)" preserveAspectRatio="none"
                 viewBox="-0.353516 -0.353516 8.50781 8.50732" width="1" height="1">
            <use xlink:href="#pattern1_795_6580_inner" transform="translate(-8.50781 -8.50732)"/>
            <use xlink:href="#pattern1_795_6580_inner" transform="translate(0 -8.50732)"/>
            <use xlink:href="#pattern1_795_6580_inner" transform="translate(-8.50781 0)"/>
            <g id="pattern1_795_6580_inner">
                <path d="M8.50781 0L0 8.50732" stroke="#2E2F2E"/>
            </g>
        </pattern>
        <pattern id="pattern2_795_6580" patternUnits="userSpaceOnUse"
                 patternTransform="matrix(7.57865 0 0 7.57822 130.451 422.569)" preserveAspectRatio="none"
                 viewBox="-0.353516 -0.353516 8.50781 8.50732" width="1" height="1">
            <use xlink:href="#pattern2_795_6580_inner" transform="translate(-8.50781 -8.50732)"/>
            <use xlink:href="#pattern2_795_6580_inner" transform="translate(0 -8.50732)"/>
            <use xlink:href="#pattern2_795_6580_inner" transform="translate(-8.50781 0)"/>
            <g id="pattern2_795_6580_inner">
                <path d="M8.50781 0L0 8.50732" stroke="#2E2F2E"/>
            </g>
        </pattern>
    </defs>
</svg>
