<svg width="360" height="220" viewBox="0 0 360 220" fill="none" xmlns="http://www.w3.org/2000/svg">
  <defs>
    <linearGradient id="bgQr" x1="40" y1="14" x2="320" y2="210" gradientUnits="userSpaceOnUse">
      <stop stop-color="#0f172a" />
      <stop offset="1" stop-color="#020617" />
    </linearGradient>
    <linearGradient id="qrGlow" x1="120" y1="60" x2="260" y2="170" gradientUnits="userSpaceOnUse">
      <stop stop-color="#22d3ee" />
      <stop offset="1" stop-color="#22c55e" />
    </linearGradient>
  </defs>
  <rect width="360" height="220" rx="18" fill="url(#bgQr)" />
  <rect x="40" y="24" width="280" height="172" rx="18" fill="#020617" stroke="#0ea5e9" stroke-opacity="0.6" stroke-width="2" />
  <rect x="78" y="52" width="204" height="132" rx="14" fill="#0b1221" stroke="url(#qrGlow)" stroke-width="4" />
  <rect x="120" y="76" width="124" height="84" rx="12" fill="#020617" stroke="#111827" stroke-width="3" />
  <path d="M136 92h16v14h-16zM156 92h12v12h-12zM174 92h18v14h-18zM136 108h14v18h-14zM154 110h10v10h-10zM168 108h16v18h-16zM188 108h14v18h-14zM206 108h16v18h-16zM136 128h16v14h-16zM154 130h12v12h-12zM172 126h20v18h-20zM196 126h12v12h-12zM212 126h16v16h-16z" fill="#e5e7eb" />
  <rect x="102" y="70" width="20" height="20" rx="4" fill="#22d3ee" />
  <rect x="238" y="70" width="20" height="20" rx="4" fill="#22c55e" />
  <rect x="102" y="152" width="20" height="20" rx="4" fill="#22c55e" />
  <rect x="238" y="152" width="20" height="20" rx="4" fill="#22d3ee" />
  <rect x="60" y="194" width="240" height="8" rx="4" fill="#0ea5e9" opacity="0.45" />
</svg>
