<svg width="335" height="147" viewBox="0 0 335 147" fill="none" xmlns="http://www.w3.org/2000/svg">
<g opacity="0.2">
<path d="M1.04013 69.1715H30.1756C30.7468 69.1715 31.2158 68.707 31.2158 68.1278V21.2292C31.2158 20.6561 31.6787 20.1856 32.2559 20.1856H61.3253C61.8964 20.1856 62.3654 19.721 62.3654 19.1419V1.06173C62.3654 0.488621 61.9025 0.0180664 61.3253 0.0180664H1.04013C0.468958 0.0180664 0 0.482588 0 1.06173V68.1278C0 68.7009 0.462946 69.1715 1.04013 69.1715Z" fill="#E2E2E2"/>
<path d="M176.032 69.1715H205.168C205.739 69.1715 206.208 68.707 206.208 68.1278V21.2292C206.208 20.6561 206.671 20.1856 207.248 20.1856H236.317C236.889 20.1856 237.358 19.721 237.358 19.1419V1.06173C237.358 0.488621 236.895 0.0180664 236.317 0.0180664H176.032C175.461 0.0180664 174.992 0.482588 174.992 1.06173V68.1278C174.992 68.7009 175.455 69.1715 176.032 69.1715Z" fill="#E2E2E2"/>
<path d="M69.1122 69.1715H98.831C99.1256 69.1715 99.4021 69.0448 99.6005 68.8276L134.424 30.1879C135.061 29.482 136.233 29.9345 136.233 30.8877V68.1278C136.233 68.7009 136.696 69.1715 137.273 69.1715H166.409C166.98 69.1715 167.449 68.707 167.449 68.1278V1.06173C167.449 0.488621 166.986 0.0180664 166.409 0.0180664H136.696C136.402 0.0180664 136.119 0.144754 135.927 0.361933L101.104 39.0862C100.466 39.792 99.2939 39.3456 99.2939 38.3864V1.06173C99.2939 0.488621 98.8309 0.0180664 98.2538 0.0180664H69.1183C68.5471 0.0180664 68.0781 0.482588 68.0781 1.06173V68.1278C68.0781 68.7009 68.5411 69.1715 69.1183 69.1715H69.1122Z" fill="#E2E2E2"/>
<path d="M322.889 76.4351H228.388C227.817 76.4351 227.348 76.8996 227.348 77.4787V97.049C227.348 97.6221 227.811 98.0926 228.388 98.0926H258.948C259.519 98.0926 259.988 98.5572 259.988 99.1363V144.545C259.988 145.118 260.451 145.588 261.028 145.588H290.26C290.831 145.588 291.3 145.124 291.3 144.545V99.1363C291.3 98.5632 291.763 98.0926 292.34 98.0926H322.895C323.466 98.0926 323.935 97.6281 323.935 97.049V77.4787C323.935 76.9056 323.472 76.4351 322.895 76.4351H322.889Z" fill="#E2E2E2"/>
<path d="M293.899 59.5975H256.22C255.89 59.5975 255.595 59.7846 255.457 60.0681L251.405 68.701C251.272 68.9845 250.972 69.1715 250.641 69.1715H219.221C218.608 69.1715 218.205 68.5622 218.469 68.0313L252.625 0.452456C252.763 0.17495 253.058 0 253.377 0H297.831C298.144 0 298.433 0.168917 298.571 0.434358L334.909 68.0132C335.192 68.5441 334.789 69.1715 334.17 69.1715H299.557C299.232 69.1715 298.932 68.9905 298.799 68.707L294.657 60.0621C294.519 59.7785 294.224 59.5975 293.899 59.5975ZM284.616 39.4059L275.58 20.813C275.279 20.1977 274.36 20.1977 274.065 20.813L265.197 39.4059C264.944 39.9308 265.347 40.528 265.954 40.528H283.853C284.46 40.528 284.863 39.9247 284.61 39.3999L284.616 39.4059Z" fill="#E2E2E2"/>
<path d="M99.0584 77.3761V144.291C99.0584 145.003 98.4812 145.576 97.7777 145.576H69.4058C68.6963 145.576 68.1252 144.997 68.1252 144.291V123.883C68.1252 123.11 67.4638 122.513 66.7003 122.604C60.5858 123.358 50.4491 123.78 42.5189 123.78C10.3532 123.78 0 114.936 0 91.5229V77.3701C0 76.6582 0.577179 76.0851 1.28062 76.0851H29.9472C30.6566 76.0851 31.2278 76.6643 31.2278 77.3701V89.1581C31.2278 100.12 35.9955 102.484 48.6694 102.484C52.6075 102.484 62.7261 102.183 66.9708 101.754C67.6262 101.688 68.1192 101.133 68.1192 100.47V77.3641C68.1192 76.6522 68.6963 76.0791 69.3998 76.0791H97.7717C98.4812 76.0791 99.0524 76.6582 99.0524 77.3641L99.0584 77.3761Z" fill="#E2E2E2"/>
<path d="M141.818 147H133.593C114.252 147 100.869 136.925 105.564 123.985C110.254 111.051 120.583 104.457 145.594 102.84L182.888 101.718C186.622 101.344 188.155 100.741 189.171 97.7365C190.241 94.1349 183.453 92.0174 173.413 92.0174H167.821C158.28 92.0174 150.548 95.7155 148.45 97.7727C147.975 98.2432 147.332 98.4845 146.664 98.4845L118.04 98.3639C117.336 98.3639 116.873 97.6279 117.174 96.9944C121.563 87.6678 137.784 74.3535 173.088 74.3535H180.327C218.138 74.3535 224.211 87.6618 220.285 98.4845L213.888 116.625C211.915 122.235 215.559 123.49 218.162 123.49H225.245C225.942 123.49 226.429 124.19 226.195 124.848L219.118 144.358C218.866 145.045 218.216 145.504 217.483 145.504H190.199C179.01 145.504 175.854 140.653 176.016 136.799C172.836 139.411 158.821 147 141.836 147H141.818ZM182.083 117.144L183.087 115.431C183.483 114.755 182.942 113.916 182.167 114.007C177.688 114.52 170.389 115.274 162.495 116.022C144.915 117.639 139.888 119.382 137.55 123.364C135.331 127.719 138.914 129.583 149.334 129.583C167.575 129.583 178.565 123.134 182.083 117.144Z" fill="#E2E2E2"/>
</g>
</svg>
