<svg width="156" height="156" viewBox="0 0 156 156" fill="none" xmlns="http://www.w3.org/2000/svg">
<rect x="4.37288" y="4.37288" width="147.254" height="147.254" rx="19.4237" fill="white" stroke="url(#paint0_linear_662_10675)" stroke-width="8.74576"/>
<path d="M50.9642 12.9756C52.2108 12.9756 53.2213 13.9855 53.2213 15.2312C53.2213 16.4771 52.2108 17.4869 50.9642 17.4869C49.7176 17.4869 48.707 16.4771 48.707 15.2312C48.707 13.9855 49.7176 12.9756 50.9642 12.9756Z" fill="black"/>
<path d="M55.4759 12.9756C56.7225 12.9756 57.733 13.9855 57.733 15.2312C57.733 16.4771 56.7225 17.4869 55.4759 17.4869C54.2293 17.4869 53.2188 16.4771 53.2188 15.2312C53.2188 13.9855 54.2293 12.9756 55.4759 12.9756Z" fill="black"/>
<path d="M59.9954 12.9756C61.242 12.9756 62.2525 13.9855 62.2525 15.2312C62.2525 16.4771 61.242 17.4869 59.9954 17.4869C58.7488 17.4869 57.7383 16.4771 57.7383 15.2312C57.7383 13.9855 58.7488 12.9756 59.9954 12.9756Z" fill="black"/>
<path d="M69.0188 12.9756C70.2655 12.9756 71.276 13.9855 71.276 15.2312C71.276 16.4771 70.2655 17.4869 69.0188 17.4869C67.7723 17.4869 66.7617 16.4771 66.7617 15.2312C66.7617 13.9855 67.7723 12.9756 69.0188 12.9756Z" fill="black"/>
<path d="M78.0501 12.9756C79.2967 12.9756 80.3072 13.9855 80.3072 15.2312C80.3072 16.4771 79.2967 17.4869 78.0501 17.4869C76.8035 17.4869 75.793 16.4771 75.793 15.2312C75.793 13.9855 76.8035 12.9756 78.0501 12.9756Z" fill="black"/>
<path d="M50.9642 17.4863C52.2108 17.4863 53.2213 18.4962 53.2213 19.742C53.2213 20.9878 52.2108 21.9976 50.9642 21.9976C49.7176 21.9976 48.707 20.9878 48.707 19.742C48.707 18.4962 49.7176 17.4863 50.9642 17.4863Z" fill="black"/>
<path d="M55.4759 17.4863C56.7225 17.4863 57.733 18.4962 57.733 19.742C57.733 20.9878 56.7225 21.9976 55.4759 21.9976C54.2293 21.9976 53.2188 20.9878 53.2188 19.742C53.2188 18.4962 54.2293 17.4863 55.4759 17.4863Z" fill="black"/>
<path d="M64.5071 17.4863C65.7538 17.4863 66.7643 18.4962 66.7643 19.742C66.7643 20.9878 65.7538 21.9976 64.5071 21.9976C63.2606 21.9976 62.25 20.9878 62.25 19.742C62.25 18.4962 63.2606 17.4863 64.5071 17.4863Z" fill="black"/>
<path d="M73.5384 17.4863C74.785 17.4863 75.7955 18.4962 75.7955 19.742C75.7955 20.9878 74.785 21.9976 73.5384 21.9976C72.2918 21.9976 71.2812 20.9878 71.2812 19.742C71.2812 18.4962 72.2918 17.4863 73.5384 17.4863Z" fill="black"/>
<path d="M78.0501 17.4863C79.2967 17.4863 80.3072 18.4962 80.3072 19.742C80.3072 20.9878 79.2967 21.9976 78.0501 21.9976C76.8035 21.9976 75.793 20.9878 75.793 19.742C75.793 18.4962 76.8035 17.4863 78.0501 17.4863Z" fill="black"/>
<path d="M105.136 17.4863C106.383 17.4863 107.393 18.4962 107.393 19.742C107.393 20.9878 106.383 21.9976 105.136 21.9976C103.889 21.9976 102.879 20.9878 102.879 19.742C102.879 18.4962 103.889 17.4863 105.136 17.4863Z" fill="black"/>
<path d="M50.9642 21.998C52.2108 21.998 53.2213 23.0079 53.2213 24.2537C53.2213 25.4995 52.2108 26.5094 50.9642 26.5094C49.7176 26.5094 48.707 25.4995 48.707 24.2537C48.707 23.0079 49.7176 21.998 50.9642 21.998Z" fill="black"/>
<path d="M59.9954 21.998C61.242 21.998 62.2525 23.0079 62.2525 24.2537C62.2525 25.4995 61.242 26.5094 59.9954 26.5094C58.7488 26.5094 57.7383 25.4995 57.7383 24.2537C57.7383 23.0079 58.7488 21.998 59.9954 21.998Z" fill="black"/>
<path d="M64.5071 21.998C65.7538 21.998 66.7643 23.0079 66.7643 24.2537C66.7643 25.4995 65.7538 26.5094 64.5071 26.5094C63.2606 26.5094 62.25 25.4995 62.25 24.2537C62.25 23.0079 63.2606 21.998 64.5071 21.998Z" fill="black"/>
<path d="M69.0188 21.998C70.2655 21.998 71.276 23.0079 71.276 24.2537C71.276 25.4995 70.2655 26.5094 69.0188 26.5094C67.7723 26.5094 66.7617 25.4995 66.7617 24.2537C66.7617 23.0079 67.7723 21.998 69.0188 21.998Z" fill="black"/>
<path d="M73.5384 21.998C74.785 21.998 75.7955 23.0079 75.7955 24.2537C75.7955 25.4995 74.785 26.5094 73.5384 26.5094C72.2918 26.5094 71.2812 25.4995 71.2812 24.2537C71.2812 23.0079 72.2918 21.998 73.5384 21.998Z" fill="black"/>
<path d="M82.5657 21.998C83.8124 21.998 84.8228 23.0079 84.8228 24.2537C84.8228 25.4995 83.8124 26.5094 82.5657 26.5094C81.3192 26.5094 80.3086 25.4995 80.3086 24.2537C80.3086 23.0079 81.3192 21.998 82.5657 21.998Z" fill="black"/>
<path d="M96.1087 21.998C97.3553 21.998 98.3658 23.0079 98.3658 24.2537C98.3658 25.4995 97.3553 26.5094 96.1087 26.5094C94.8621 26.5094 93.8516 25.4995 93.8516 24.2537C93.8516 23.0079 94.8621 21.998 96.1087 21.998Z" fill="black"/>
<path d="M55.4759 26.5088C56.7225 26.5088 57.733 27.5187 57.733 28.7644C57.733 30.0103 56.7225 31.0201 55.4759 31.0201C54.2293 31.0201 53.2188 30.0103 53.2188 28.7644C53.2188 27.5187 54.2293 26.5088 55.4759 26.5088Z" fill="black"/>
<path d="M59.9954 26.5088C61.242 26.5088 62.2525 27.5187 62.2525 28.7644C62.2525 30.0103 61.242 31.0201 59.9954 31.0201C58.7488 31.0201 57.7383 30.0103 57.7383 28.7644C57.7383 27.5187 58.7488 26.5088 59.9954 26.5088Z" fill="black"/>
<path d="M64.5071 26.5088C65.7538 26.5088 66.7643 27.5187 66.7643 28.7644C66.7643 30.0103 65.7538 31.0201 64.5071 31.0201C63.2606 31.0201 62.25 30.0103 62.25 28.7644C62.25 27.5187 63.2606 26.5088 64.5071 26.5088Z" fill="black"/>
<path d="M73.5384 26.5088C74.785 26.5088 75.7955 27.5187 75.7955 28.7644C75.7955 30.0103 74.785 31.0201 73.5384 31.0201C72.2918 31.0201 71.2812 30.0103 71.2812 28.7644C71.2812 27.5187 72.2918 26.5088 73.5384 26.5088Z" fill="black"/>
<path d="M82.5657 26.5088C83.8124 26.5088 84.8228 27.5187 84.8228 28.7644C84.8228 30.0103 83.8124 31.0201 82.5657 31.0201C81.3192 31.0201 80.3086 30.0103 80.3086 28.7644C80.3086 27.5187 81.3192 26.5088 82.5657 26.5088Z" fill="black"/>
<path d="M87.0813 26.5088C88.328 26.5088 89.3385 27.5187 89.3385 28.7644C89.3385 30.0103 88.328 31.0201 87.0813 31.0201C85.8348 31.0201 84.8242 30.0103 84.8242 28.7644C84.8242 27.5187 85.8348 26.5088 87.0813 26.5088Z" fill="black"/>
<path d="M91.5931 26.5088C92.8397 26.5088 93.8502 27.5187 93.8502 28.7644C93.8502 30.0103 92.8397 31.0201 91.5931 31.0201C90.3465 31.0201 89.3359 30.0103 89.3359 28.7644C89.3359 27.5187 90.3465 26.5088 91.5931 26.5088Z" fill="black"/>
<path d="M59.9954 31.0205C61.242 31.0205 62.2525 32.0304 62.2525 33.2762C62.2525 34.522 61.242 35.5318 59.9954 35.5318C58.7488 35.5318 57.7383 34.522 57.7383 33.2762C57.7383 32.0304 58.7488 31.0205 59.9954 31.0205Z" fill="black"/>
<path d="M64.5071 31.0205C65.7538 31.0205 66.7643 32.0304 66.7643 33.2762C66.7643 34.522 65.7538 35.5318 64.5071 35.5318C63.2606 35.5318 62.25 34.522 62.25 33.2762C62.25 32.0304 63.2606 31.0205 64.5071 31.0205Z" fill="black"/>
<path d="M69.0188 31.0205C70.2655 31.0205 71.276 32.0304 71.276 33.2762C71.276 34.522 70.2655 35.5318 69.0188 35.5318C67.7723 35.5318 66.7617 34.522 66.7617 33.2762C66.7617 32.0304 67.7723 31.0205 69.0188 31.0205Z" fill="black"/>
<path d="M87.0813 31.0205C88.328 31.0205 89.3385 32.0304 89.3385 33.2762C89.3385 34.522 88.328 35.5318 87.0813 35.5318C85.8348 35.5318 84.8242 34.522 84.8242 33.2762C84.8242 32.0304 85.8348 31.0205 87.0813 31.0205Z" fill="black"/>
<path d="M91.5931 31.0205C92.8397 31.0205 93.8502 32.0304 93.8502 33.2762C93.8502 34.522 92.8397 35.5318 91.5931 35.5318C90.3465 35.5318 89.3359 34.522 89.3359 33.2762C89.3359 32.0304 90.3465 31.0205 91.5931 31.0205Z" fill="black"/>
<path d="M96.1087 31.0205C97.3553 31.0205 98.3658 32.0304 98.3658 33.2762C98.3658 34.522 97.3553 35.5318 96.1087 35.5318C94.8621 35.5318 93.8516 34.522 93.8516 33.2762C93.8516 32.0304 94.8621 31.0205 96.1087 31.0205Z" fill="black"/>
<path d="M100.624 31.0205C101.871 31.0205 102.881 32.0304 102.881 33.2762C102.881 34.522 101.871 35.5318 100.624 35.5318C99.3777 35.5318 98.3672 34.522 98.3672 33.2762C98.3672 32.0304 99.3777 31.0205 100.624 31.0205Z" fill="black"/>
<path d="M105.136 31.0205C106.383 31.0205 107.393 32.0304 107.393 33.2762C107.393 34.522 106.383 35.5318 105.136 35.5318C103.889 35.5318 102.879 34.522 102.879 33.2762C102.879 32.0304 103.889 31.0205 105.136 31.0205Z" fill="black"/>
<path d="M50.9642 35.5312C52.2108 35.5312 53.2213 36.5412 53.2213 37.7869C53.2213 39.0327 52.2108 40.0426 50.9642 40.0426C49.7176 40.0426 48.707 39.0327 48.707 37.7869C48.707 36.5412 49.7176 35.5312 50.9642 35.5312Z" fill="black"/>
<path d="M73.5384 35.5312C74.785 35.5312 75.7955 36.5412 75.7955 37.7869C75.7955 39.0327 74.785 40.0426 73.5384 40.0426C72.2918 40.0426 71.2812 39.0327 71.2812 37.7869C71.2812 36.5412 72.2918 35.5312 73.5384 35.5312Z" fill="black"/>
<path d="M91.5931 35.5312C92.8397 35.5312 93.8502 36.5412 93.8502 37.7869C93.8502 39.0327 92.8397 40.0426 91.5931 40.0426C90.3465 40.0426 89.3359 39.0327 89.3359 37.7869C89.3359 36.5412 90.3465 35.5312 91.5931 35.5312Z" fill="black"/>
<path d="M50.9642 40.043C52.2108 40.043 53.2213 41.0529 53.2213 42.2986C53.2213 43.5444 52.2108 44.5543 50.9642 44.5543C49.7176 44.5543 48.707 43.5444 48.707 42.2986C48.707 41.0529 49.7176 40.043 50.9642 40.043Z" fill="black"/>
<path d="M59.9954 40.043C61.242 40.043 62.2525 41.0529 62.2525 42.2986C62.2525 43.5444 61.242 44.5543 59.9954 44.5543C58.7488 44.5543 57.7383 43.5444 57.7383 42.2986C57.7383 41.0529 58.7488 40.043 59.9954 40.043Z" fill="black"/>
<path d="M69.0188 40.043C70.2655 40.043 71.276 41.0529 71.276 42.2986C71.276 43.5444 70.2655 44.5543 69.0188 44.5543C67.7723 44.5543 66.7617 43.5444 66.7617 42.2986C66.7617 41.0529 67.7723 40.043 69.0188 40.043Z" fill="black"/>
<path d="M78.0501 40.043C79.2967 40.043 80.3072 41.0529 80.3072 42.2986C80.3072 43.5444 79.2967 44.5543 78.0501 44.5543C76.8035 44.5543 75.793 43.5444 75.793 42.2986C75.793 41.0529 76.8035 40.043 78.0501 40.043Z" fill="black"/>
<path d="M87.0813 40.043C88.328 40.043 89.3385 41.0529 89.3385 42.2986C89.3385 43.5444 88.328 44.5543 87.0813 44.5543C85.8348 44.5543 84.8242 43.5444 84.8242 42.2986C84.8242 41.0529 85.8348 40.043 87.0813 40.043Z" fill="black"/>
<path d="M96.1087 40.043C97.3553 40.043 98.3658 41.0529 98.3658 42.2986C98.3658 43.5444 97.3553 44.5543 96.1087 44.5543C94.8621 44.5543 93.8516 43.5444 93.8516 42.2986C93.8516 41.0529 94.8621 40.043 96.1087 40.043Z" fill="black"/>
<path d="M105.136 40.043C106.383 40.043 107.393 41.0529 107.393 42.2986C107.393 43.5444 106.383 44.5543 105.136 44.5543C103.889 44.5543 102.879 43.5444 102.879 42.2986C102.879 41.0529 103.889 40.043 105.136 40.043Z" fill="black"/>
<path d="M50.9642 44.5547C52.2108 44.5547 53.2213 45.5646 53.2213 46.8103C53.2213 48.0562 52.2108 49.066 50.9642 49.066C49.7176 49.066 48.707 48.0562 48.707 46.8103C48.707 45.5646 49.7176 44.5547 50.9642 44.5547Z" fill="black"/>
<path d="M55.4759 44.5547C56.7225 44.5547 57.733 45.5646 57.733 46.8103C57.733 48.0562 56.7225 49.066 55.4759 49.066C54.2293 49.066 53.2188 48.0562 53.2188 46.8103C53.2188 45.5646 54.2293 44.5547 55.4759 44.5547Z" fill="black"/>
<path d="M69.0188 44.5537C70.2655 44.5537 71.276 45.5636 71.276 46.8094C71.276 48.0552 70.2655 49.065 69.0188 49.065C67.7723 49.065 66.7617 48.0552 66.7617 46.8094C66.7617 45.5636 67.7723 44.5537 69.0188 44.5537Z" fill="black"/>
<path d="M78.0501 44.5547C79.2967 44.5547 80.3072 45.5646 80.3072 46.8103C80.3072 48.0562 79.2967 49.066 78.0501 49.066C76.8035 49.066 75.793 48.0562 75.793 46.8103C75.793 45.5646 76.8035 44.5547 78.0501 44.5547Z" fill="black"/>
<path d="M87.0813 44.5547C88.328 44.5547 89.3385 45.5646 89.3385 46.8103C89.3385 48.0562 88.328 49.066 87.0813 49.066C85.8348 49.066 84.8242 48.0562 84.8242 46.8103C84.8242 45.5646 85.8348 44.5547 87.0813 44.5547Z" fill="black"/>
<path d="M91.5931 44.5547C92.8397 44.5547 93.8502 45.5646 93.8502 46.8103C93.8502 48.0562 92.8397 49.066 91.5931 49.066C90.3465 49.066 89.3359 48.0562 89.3359 46.8103C89.3359 45.5646 90.3465 44.5547 91.5931 44.5547Z" fill="black"/>
<path d="M96.1087 44.5537C97.3553 44.5537 98.3658 45.5636 98.3658 46.8094C98.3658 48.0552 97.3553 49.065 96.1087 49.065C94.8621 49.065 93.8516 48.0552 93.8516 46.8094C93.8516 45.5636 94.8621 44.5537 96.1087 44.5537Z" fill="black"/>
<path d="M105.136 44.5547C106.383 44.5547 107.393 45.5646 107.393 46.8103C107.393 48.0562 106.383 49.066 105.136 49.066C103.889 49.066 102.879 48.0562 102.879 46.8103C102.879 45.5646 103.889 44.5547 105.136 44.5547Z" fill="black"/>
<path d="M23.8782 49.0654C25.1249 49.0654 26.1353 50.0753 26.1353 51.3211C26.1353 52.5669 25.1249 53.5767 23.8782 53.5767C22.6317 53.5767 21.6211 52.5669 21.6211 51.3211C21.6211 50.0753 22.6317 49.0654 23.8782 49.0654Z" fill="black"/>
<path d="M28.3938 49.0659C29.6405 49.0659 30.651 50.0758 30.651 51.3216C30.651 52.5674 29.6405 53.5772 28.3938 53.5772C27.1473 53.5772 26.1367 52.5674 26.1367 51.3216C26.1367 50.0758 27.1473 49.0659 28.3938 49.0659Z" fill="black"/>
<path d="M32.9095 49.0654C34.1561 49.0654 35.1666 50.0753 35.1666 51.3211C35.1666 52.5669 34.1561 53.5767 32.9095 53.5767C31.6629 53.5767 30.6523 52.5669 30.6523 51.3211C30.6523 50.0753 31.6629 49.0654 32.9095 49.0654Z" fill="black"/>
<path d="M41.9407 49.0654C43.1874 49.0654 44.1978 50.0753 44.1978 51.3211C44.1978 52.5669 43.1874 53.5767 41.9407 53.5767C40.6942 53.5767 39.6836 52.5669 39.6836 51.3211C39.6836 50.0753 40.6942 49.0654 41.9407 49.0654Z" fill="black"/>
<path d="M50.9642 49.0654C52.2108 49.0654 53.2213 50.0753 53.2213 51.3211C53.2213 52.5669 52.2108 53.5767 50.9642 53.5767C49.7176 53.5767 48.707 52.5669 48.707 51.3211C48.707 50.0753 49.7176 49.0654 50.9642 49.0654Z" fill="black"/>
<path d="M55.4759 49.0654C56.7225 49.0654 57.733 50.0753 57.733 51.3211C57.733 52.5669 56.7225 53.5767 55.4759 53.5767C54.2293 53.5767 53.2188 52.5669 53.2188 51.3211C53.2188 50.0753 54.2293 49.0654 55.4759 49.0654Z" fill="black"/>
<path d="M59.9954 49.0654C61.242 49.0654 62.2525 50.0753 62.2525 51.3211C62.2525 52.5669 61.242 53.5767 59.9954 53.5767C58.7488 53.5767 57.7383 52.5669 57.7383 51.3211C57.7383 50.0753 58.7488 49.0654 59.9954 49.0654Z" fill="black"/>
<path d="M64.5071 49.0654C65.7538 49.0654 66.7643 50.0753 66.7643 51.3211C66.7643 52.5669 65.7538 53.5767 64.5071 53.5767C63.2606 53.5767 62.25 52.5669 62.25 51.3211C62.25 50.0753 63.2606 49.0654 64.5071 49.0654Z" fill="black"/>
<path d="M87.0813 49.0654C88.328 49.0654 89.3385 50.0753 89.3385 51.3211C89.3385 52.5669 88.328 53.5767 87.0813 53.5767C85.8348 53.5767 84.8242 52.5669 84.8242 51.3211C84.8242 50.0753 85.8348 49.0654 87.0813 49.0654Z" fill="black"/>
<path d="M109.648 49.0654C110.894 49.0654 111.905 50.0753 111.905 51.3211C111.905 52.5669 110.894 53.5767 109.648 53.5767C108.401 53.5767 107.391 52.5669 107.391 51.3211C107.391 50.0753 108.401 49.0654 109.648 49.0654Z" fill="black"/>
<path d="M114.167 49.0654C115.414 49.0654 116.424 50.0753 116.424 51.3211C116.424 52.5669 115.414 53.5767 114.167 53.5767C112.921 53.5767 111.91 52.5669 111.91 51.3211C111.91 50.0753 112.921 49.0654 114.167 49.0654Z" fill="black"/>
<path d="M118.679 49.0654C119.926 49.0654 120.936 50.0753 120.936 51.3211C120.936 52.5669 119.926 53.5767 118.679 53.5767C117.432 53.5767 116.422 52.5669 116.422 51.3211C116.422 50.0753 117.432 49.0654 118.679 49.0654Z" fill="black"/>
<path d="M132.226 49.0654C133.473 49.0654 134.483 50.0753 134.483 51.3211C134.483 52.5669 133.473 53.5767 132.226 53.5767C130.979 53.5767 129.969 52.5669 129.969 51.3211C129.969 50.0753 130.979 49.0654 132.226 49.0654Z" fill="black"/>
<path d="M136.734 49.0654C137.98 49.0654 138.991 50.0753 138.991 51.3211C138.991 52.5669 137.98 53.5767 136.734 53.5767C135.487 53.5767 134.477 52.5669 134.477 51.3211C134.477 50.0753 135.487 49.0654 136.734 49.0654Z" fill="black"/>
<path d="M141.253 49.0654C142.5 49.0654 143.51 50.0753 143.51 51.3211C143.51 52.5669 142.5 53.5767 141.253 53.5767C140.007 53.5767 138.996 52.5669 138.996 51.3211C138.996 50.0753 140.007 49.0654 141.253 49.0654Z" fill="black"/>
<path d="M28.3938 53.5771C29.6405 53.5771 30.651 54.5871 30.651 55.8328C30.651 57.0786 29.6405 58.0885 28.3938 58.0885C27.1473 58.0885 26.1367 57.0786 26.1367 55.8328C26.1367 54.5871 27.1473 53.5771 28.3938 53.5771Z" fill="black"/>
<path d="M32.9095 53.5771C34.1561 53.5771 35.1666 54.5871 35.1666 55.8328C35.1666 57.0786 34.1561 58.0885 32.9095 58.0885C31.6629 58.0885 30.6523 57.0786 30.6523 55.8328C30.6523 54.5871 31.6629 53.5771 32.9095 53.5771Z" fill="black"/>
<path d="M37.4212 53.5771C38.6678 53.5771 39.6783 54.5871 39.6783 55.8328C39.6783 57.0786 38.6678 58.0885 37.4212 58.0885C36.1746 58.0885 35.1641 57.0786 35.1641 55.8328C35.1641 54.5871 36.1746 53.5771 37.4212 53.5771Z" fill="black"/>
<path d="M46.4524 53.5771C47.6991 53.5771 48.7096 54.5871 48.7096 55.8328C48.7096 57.0786 47.6991 58.0885 46.4524 58.0885C45.2059 58.0885 44.1953 57.0786 44.1953 55.8328C44.1953 54.5871 45.2059 53.5771 46.4524 53.5771Z" fill="black"/>
<path d="M59.9954 53.5771C61.242 53.5771 62.2525 54.5871 62.2525 55.8328C62.2525 57.0786 61.242 58.0885 59.9954 58.0885C58.7488 58.0885 57.7383 57.0786 57.7383 55.8328C57.7383 54.5871 58.7488 53.5771 59.9954 53.5771Z" fill="black"/>
<path d="M69.0188 53.5771C70.2655 53.5771 71.276 54.5871 71.276 55.8328C71.276 57.0786 70.2655 58.0885 69.0188 58.0885C67.7723 58.0885 66.7617 57.0786 66.7617 55.8328C66.7617 54.5871 67.7723 53.5771 69.0188 53.5771Z" fill="black"/>
<path d="M82.5657 53.5771C83.8124 53.5771 84.8228 54.5871 84.8228 55.8328C84.8228 57.0786 83.8124 58.0885 82.5657 58.0885C81.3192 58.0885 80.3086 57.0786 80.3086 55.8328C80.3086 54.5871 81.3192 53.5771 82.5657 53.5771Z" fill="black"/>
<path d="M87.0813 53.5771C88.328 53.5771 89.3385 54.5871 89.3385 55.8328C89.3385 57.0786 88.328 58.0885 87.0813 58.0885C85.8348 58.0885 84.8242 57.0786 84.8242 55.8328C84.8242 54.5871 85.8348 53.5771 87.0813 53.5771Z" fill="black"/>
<path d="M96.1087 53.5767C97.3553 53.5767 98.3658 54.5866 98.3658 55.8323C98.3658 57.0781 97.3553 58.088 96.1087 58.088C94.8621 58.088 93.8516 57.0781 93.8516 55.8323C93.8516 54.5866 94.8621 53.5767 96.1087 53.5767Z" fill="black"/>
<path d="M105.136 53.5771C106.383 53.5771 107.393 54.5871 107.393 55.8328C107.393 57.0786 106.383 58.0885 105.136 58.0885C103.889 58.0885 102.879 57.0786 102.879 55.8328C102.879 54.5871 103.889 53.5771 105.136 53.5771Z" fill="black"/>
<path d="M109.648 53.5771C110.894 53.5771 111.905 54.5871 111.905 55.8328C111.905 57.0786 110.894 58.0885 109.648 58.0885C108.401 58.0885 107.391 57.0786 107.391 55.8328C107.391 54.5871 108.401 53.5771 109.648 53.5771Z" fill="black"/>
<path d="M118.679 53.5771C119.926 53.5771 120.936 54.5871 120.936 55.8328C120.936 57.0786 119.926 58.0885 118.679 58.0885C117.432 58.0885 116.422 57.0786 116.422 55.8328C116.422 54.5871 117.432 53.5771 118.679 53.5771Z" fill="black"/>
<path d="M127.71 53.5771C128.957 53.5771 129.967 54.5871 129.967 55.8328C129.967 57.0786 128.957 58.0885 127.71 58.0885C126.464 58.0885 125.453 57.0786 125.453 55.8328C125.453 54.5871 126.464 53.5771 127.71 53.5771Z" fill="black"/>
<path d="M132.226 53.5771C133.473 53.5771 134.483 54.5871 134.483 55.8328C134.483 57.0786 133.473 58.0885 132.226 58.0885C130.979 58.0885 129.969 57.0786 129.969 55.8328C129.969 54.5871 130.979 53.5771 132.226 53.5771Z" fill="black"/>
<path d="M141.253 53.5771C142.5 53.5771 143.51 54.5871 143.51 55.8328C143.51 57.0786 142.5 58.0885 141.253 58.0885C140.007 58.0885 138.996 57.0786 138.996 55.8328C138.996 54.5871 140.007 53.5771 141.253 53.5771Z" fill="black"/>
<path d="M14.8548 58.0889C16.1014 58.0889 17.1119 59.0988 17.1119 60.3445C17.1119 61.5903 16.1014 62.6002 14.8548 62.6002C13.6082 62.6002 12.5977 61.5903 12.5977 60.3445C12.5977 59.0988 13.6082 58.0889 14.8548 58.0889Z" fill="black"/>
<path d="M23.8782 58.0889C25.1249 58.0889 26.1353 59.0988 26.1353 60.3445C26.1353 61.5903 25.1249 62.6002 23.8782 62.6002C22.6317 62.6002 21.6211 61.5903 21.6211 60.3445C21.6211 59.0988 22.6317 58.0889 23.8782 58.0889Z" fill="black"/>
<path d="M28.3938 58.0884C29.6405 58.0884 30.651 59.0983 30.651 60.344C30.651 61.5899 29.6405 62.5997 28.3938 62.5997C27.1473 62.5997 26.1367 61.5899 26.1367 60.344C26.1367 59.0983 27.1473 58.0884 28.3938 58.0884Z" fill="black"/>
<path d="M32.9095 58.0889C34.1561 58.0889 35.1666 59.0988 35.1666 60.3445C35.1666 61.5903 34.1561 62.6002 32.9095 62.6002C31.6629 62.6002 30.6523 61.5903 30.6523 60.3445C30.6523 59.0988 31.6629 58.0889 32.9095 58.0889Z" fill="black"/>
<path d="M41.9407 58.0889C43.1874 58.0889 44.1978 59.0988 44.1978 60.3445C44.1978 61.5903 43.1874 62.6002 41.9407 62.6002C40.6942 62.6002 39.6836 61.5903 39.6836 60.3445C39.6836 59.0988 40.6942 58.0889 41.9407 58.0889Z" fill="black"/>
<path d="M46.4524 58.0889C47.6991 58.0889 48.7096 59.0988 48.7096 60.3445C48.7096 61.5903 47.6991 62.6002 46.4524 62.6002C45.2059 62.6002 44.1953 61.5903 44.1953 60.3445C44.1953 59.0988 45.2059 58.0889 46.4524 58.0889Z" fill="black"/>
<path d="M100.624 58.0889C101.871 58.0889 102.881 59.0988 102.881 60.3445C102.881 61.5903 101.871 62.6002 100.624 62.6002C99.3777 62.6002 98.3672 61.5903 98.3672 60.3445C98.3672 59.0988 99.3777 58.0889 100.624 58.0889Z" fill="black"/>
<path d="M109.648 58.0889C110.894 58.0889 111.905 59.0988 111.905 60.3445C111.905 61.5903 110.894 62.6002 109.648 62.6002C108.401 62.6002 107.391 61.5903 107.391 60.3445C107.391 59.0988 108.401 58.0889 109.648 58.0889Z" fill="black"/>
<path d="M114.167 58.0889C115.414 58.0889 116.424 59.0988 116.424 60.3445C116.424 61.5903 115.414 62.6002 114.167 62.6002C112.921 62.6002 111.91 61.5903 111.91 60.3445C111.91 59.0988 112.921 58.0889 114.167 58.0889Z" fill="black"/>
<path d="M132.226 58.0889C133.473 58.0889 134.483 59.0988 134.483 60.3445C134.483 61.5903 133.473 62.6002 132.226 62.6002C130.979 62.6002 129.969 61.5903 129.969 60.3445C129.969 59.0988 130.979 58.0889 132.226 58.0889Z" fill="black"/>
<path d="M14.8548 62.5996C16.1014 62.5996 17.1119 63.6095 17.1119 64.8553C17.1119 66.1011 16.1014 67.1109 14.8548 67.1109C13.6082 67.1109 12.5977 66.1011 12.5977 64.8553C12.5977 63.6095 13.6082 62.5996 14.8548 62.5996Z" fill="black"/>
<path d="M23.8782 62.5996C25.1249 62.5996 26.1353 63.6095 26.1353 64.8553C26.1353 66.1011 25.1249 67.1109 23.8782 67.1109C22.6317 67.1109 21.6211 66.1011 21.6211 64.8553C21.6211 63.6095 22.6317 62.5996 23.8782 62.5996Z" fill="black"/>
<path d="M46.4524 62.5996C47.6991 62.5996 48.7096 63.6095 48.7096 64.8553C48.7096 66.1011 47.6991 67.1109 46.4524 67.1109C45.2059 67.1109 44.1953 66.1011 44.1953 64.8553C44.1953 63.6095 45.2059 62.5996 46.4524 62.5996Z" fill="black"/>
<path d="M50.9642 62.5996C52.2108 62.5996 53.2213 63.6095 53.2213 64.8553C53.2213 66.1011 52.2108 67.1109 50.9642 67.1109C49.7176 67.1109 48.707 66.1011 48.707 64.8553C48.707 63.6095 49.7176 62.5996 50.9642 62.5996Z" fill="black"/>
<path d="M55.4759 62.5996C56.7225 62.5996 57.733 63.6095 57.733 64.8553C57.733 66.1011 56.7225 67.1109 55.4759 67.1109C54.2293 67.1109 53.2188 66.1011 53.2188 64.8553C53.2188 63.6095 54.2293 62.5996 55.4759 62.5996Z" fill="black"/>
<path d="M100.624 62.5996C101.871 62.5996 102.881 63.6095 102.881 64.8553C102.881 66.1011 101.871 67.1109 100.624 67.1109C99.3777 67.1109 98.3672 66.1011 98.3672 64.8553C98.3672 63.6095 99.3777 62.5996 100.624 62.5996Z" fill="black"/>
<path d="M105.136 62.5996C106.383 62.5996 107.393 63.6095 107.393 64.8553C107.393 66.1011 106.383 67.1109 105.136 67.1109C103.889 67.1109 102.879 66.1011 102.879 64.8553C102.879 63.6095 103.889 62.5996 105.136 62.5996Z" fill="black"/>
<path d="M109.648 62.5996C110.894 62.5996 111.905 63.6095 111.905 64.8553C111.905 66.1011 110.894 67.1109 109.648 67.1109C108.401 67.1109 107.391 66.1011 107.391 64.8553C107.391 63.6095 108.401 62.5996 109.648 62.5996Z" fill="black"/>
<path d="M114.167 62.5996C115.414 62.5996 116.424 63.6095 116.424 64.8553C116.424 66.1011 115.414 67.1109 114.167 67.1109C112.921 67.1109 111.91 66.1011 111.91 64.8553C111.91 63.6095 112.921 62.5996 114.167 62.5996Z" fill="black"/>
<path d="M118.679 62.5996C119.926 62.5996 120.936 63.6095 120.936 64.8553C120.936 66.1011 119.926 67.1109 118.679 67.1109C117.432 67.1109 116.422 66.1011 116.422 64.8553C116.422 63.6095 117.432 62.5996 118.679 62.5996Z" fill="black"/>
<path d="M127.71 62.5996C128.957 62.5996 129.967 63.6095 129.967 64.8553C129.967 66.1011 128.957 67.1109 127.71 67.1109C126.464 67.1109 125.453 66.1011 125.453 64.8553C125.453 63.6095 126.464 62.5996 127.71 62.5996Z" fill="black"/>
<path d="M136.734 62.5996C137.98 62.5996 138.991 63.6095 138.991 64.8553C138.991 66.1011 137.98 67.1109 136.734 67.1109C135.487 67.1109 134.477 66.1011 134.477 64.8553C134.477 63.6095 135.487 62.5996 136.734 62.5996Z" fill="black"/>
<path d="M14.8548 67.1113C16.1014 67.1113 17.1119 68.1212 17.1119 69.367C17.1119 70.6128 16.1014 71.6226 14.8548 71.6226C13.6082 71.6226 12.5977 70.6128 12.5977 69.367C12.5977 68.1212 13.6082 67.1113 14.8548 67.1113Z" fill="black"/>
<path d="M28.3938 67.1113C29.6405 67.1113 30.651 68.1212 30.651 69.367C30.651 70.6128 29.6405 71.6226 28.3938 71.6226C27.1473 71.6226 26.1367 70.6128 26.1367 69.367C26.1367 68.1212 27.1473 67.1113 28.3938 67.1113Z" fill="black"/>
<path d="M32.9095 67.1113C34.1561 67.1113 35.1666 68.1212 35.1666 69.367C35.1666 70.6128 34.1561 71.6226 32.9095 71.6226C31.6629 71.6226 30.6523 70.6128 30.6523 69.367C30.6523 68.1212 31.6629 67.1113 32.9095 67.1113Z" fill="black"/>
<path d="M41.9407 67.1113C43.1874 67.1113 44.1978 68.1212 44.1978 69.367C44.1978 70.6128 43.1874 71.6226 41.9407 71.6226C40.6942 71.6226 39.6836 70.6128 39.6836 69.367C39.6836 68.1212 40.6942 67.1113 41.9407 67.1113Z" fill="black"/>
<path d="M46.4524 67.1113C47.6991 67.1113 48.7096 68.1212 48.7096 69.367C48.7096 70.6128 47.6991 71.6226 46.4524 71.6226C45.2059 71.6226 44.1953 70.6128 44.1953 69.367C44.1953 68.1212 45.2059 67.1113 46.4524 67.1113Z" fill="black"/>
<path d="M100.624 67.1113C101.871 67.1113 102.881 68.1212 102.881 69.367C102.881 70.6128 101.871 71.6226 100.624 71.6226C99.3777 71.6226 98.3672 70.6128 98.3672 69.367C98.3672 68.1212 99.3777 67.1113 100.624 67.1113Z" fill="black"/>
<path d="M109.648 67.1113C110.894 67.1113 111.905 68.1212 111.905 69.367C111.905 70.6128 110.894 71.6226 109.648 71.6226C108.401 71.6226 107.391 70.6128 107.391 69.367C107.391 68.1212 108.401 67.1113 109.648 67.1113Z" fill="black"/>
<path d="M118.679 67.1113C119.926 67.1113 120.936 68.1212 120.936 69.367C120.936 70.6128 119.926 71.6226 118.679 71.6226C117.432 71.6226 116.422 70.6128 116.422 69.367C116.422 68.1212 117.432 67.1113 118.679 67.1113Z" fill="black"/>
<path d="M127.71 67.1113C128.957 67.1113 129.967 68.1212 129.967 69.367C129.967 70.6128 128.957 71.6226 127.71 71.6226C126.464 71.6226 125.453 70.6128 125.453 69.367C125.453 68.1212 126.464 67.1113 127.71 67.1113Z" fill="black"/>
<path d="M132.226 67.1113C133.473 67.1113 134.483 68.1212 134.483 69.367C134.483 70.6128 133.473 71.6226 132.226 71.6226C130.979 71.6226 129.969 70.6128 129.969 69.367C129.969 68.1212 130.979 67.1113 132.226 67.1113Z" fill="black"/>
<path d="M136.734 67.1113C137.98 67.1113 138.991 68.1212 138.991 69.367C138.991 70.6128 137.98 71.6226 136.734 71.6226C135.487 71.6226 134.477 70.6128 134.477 69.367C134.477 68.1212 135.487 67.1113 136.734 67.1113Z" fill="black"/>
<path d="M141.253 67.1113C142.5 67.1113 143.51 68.1212 143.51 69.367C143.51 70.6128 142.5 71.6226 141.253 71.6226C140.007 71.6226 138.996 70.6128 138.996 69.367C138.996 68.1212 140.007 67.1113 141.253 67.1113Z" fill="black"/>
<path d="M23.8782 71.623C25.1249 71.623 26.1353 72.6329 26.1353 73.8787C26.1353 75.1245 25.1249 76.1344 23.8782 76.1344C22.6317 76.1344 21.6211 75.1245 21.6211 73.8787C21.6211 72.6329 22.6317 71.623 23.8782 71.623Z" fill="black"/>
<path d="M32.9095 71.623C34.1561 71.623 35.1666 72.6329 35.1666 73.8787C35.1666 75.1245 34.1561 76.1344 32.9095 76.1344C31.6629 76.1344 30.6523 75.1245 30.6523 73.8787C30.6523 72.6329 31.6629 71.623 32.9095 71.623Z" fill="black"/>
<path d="M37.4212 71.623C38.6678 71.623 39.6783 72.6329 39.6783 73.8787C39.6783 75.1245 38.6678 76.1344 37.4212 76.1344C36.1746 76.1344 35.1641 75.1245 35.1641 73.8787C35.1641 72.6329 36.1746 71.623 37.4212 71.623Z" fill="black"/>
<path d="M46.4524 71.623C47.6991 71.623 48.7096 72.6329 48.7096 73.8787C48.7096 75.1245 47.6991 76.1344 46.4524 76.1344C45.2059 76.1344 44.1953 75.1245 44.1953 73.8787C44.1953 72.6329 45.2059 71.623 46.4524 71.623Z" fill="black"/>
<path d="M100.624 71.623C101.871 71.623 102.881 72.6329 102.881 73.8787C102.881 75.1245 101.871 76.1344 100.624 76.1344C99.3777 76.1344 98.3672 75.1245 98.3672 73.8787C98.3672 72.6329 99.3777 71.623 100.624 71.623Z" fill="black"/>
<path d="M105.136 71.623C106.383 71.623 107.393 72.6329 107.393 73.8787C107.393 75.1245 106.383 76.1344 105.136 76.1344C103.889 76.1344 102.879 75.1245 102.879 73.8787C102.879 72.6329 103.889 71.623 105.136 71.623Z" fill="black"/>
<path d="M109.648 71.623C110.894 71.623 111.905 72.6329 111.905 73.8787C111.905 75.1245 110.894 76.1344 109.648 76.1344C108.401 76.1344 107.391 75.1245 107.391 73.8787C107.391 72.6329 108.401 71.623 109.648 71.623Z" fill="black"/>
<path d="M114.167 71.623C115.414 71.623 116.424 72.6329 116.424 73.8787C116.424 75.1245 115.414 76.1344 114.167 76.1344C112.921 76.1344 111.91 75.1245 111.91 73.8787C111.91 72.6329 112.921 71.623 114.167 71.623Z" fill="black"/>
<path d="M123.191 71.623C124.437 71.623 125.448 72.6329 125.448 73.8787C125.448 75.1245 124.437 76.1344 123.191 76.1344C121.944 76.1344 120.934 75.1245 120.934 73.8787C120.934 72.6329 121.944 71.623 123.191 71.623Z" fill="black"/>
<path d="M127.71 71.623C128.957 71.623 129.967 72.6329 129.967 73.8787C129.967 75.1245 128.957 76.1344 127.71 76.1344C126.464 76.1344 125.453 75.1245 125.453 73.8787C125.453 72.6329 126.464 71.623 127.71 71.623Z" fill="black"/>
<path d="M136.734 71.623C137.98 71.623 138.991 72.6329 138.991 73.8787C138.991 75.1245 137.98 76.1344 136.734 76.1344C135.487 76.1344 134.477 75.1245 134.477 73.8787C134.477 72.6329 135.487 71.623 136.734 71.623Z" fill="black"/>
<path d="M141.253 71.623C142.5 71.623 143.51 72.6329 143.51 73.8787C143.51 75.1245 142.5 76.1344 141.253 76.1344C140.007 76.1344 138.996 75.1245 138.996 73.8787C138.996 72.6329 140.007 71.623 141.253 71.623Z" fill="black"/>
<path d="M14.8548 76.1338C16.1014 76.1338 17.1119 77.1437 17.1119 78.3894C17.1119 79.6353 16.1014 80.6451 14.8548 80.6451C13.6082 80.6451 12.5977 79.6353 12.5977 78.3894C12.5977 77.1437 13.6082 76.1338 14.8548 76.1338Z" fill="black"/>
<path d="M28.3938 76.1338C29.6405 76.1338 30.651 77.1437 30.651 78.3894C30.651 79.6353 29.6405 80.6451 28.3938 80.6451C27.1473 80.6451 26.1367 79.6353 26.1367 78.3894C26.1367 77.1437 27.1473 76.1338 28.3938 76.1338Z" fill="black"/>
<path d="M32.9095 76.1338C34.1561 76.1338 35.1666 77.1437 35.1666 78.3894C35.1666 79.6353 34.1561 80.6451 32.9095 80.6451C31.6629 80.6451 30.6523 79.6353 30.6523 78.3894C30.6523 77.1437 31.6629 76.1338 32.9095 76.1338Z" fill="black"/>
<path d="M41.9407 76.1338C43.1874 76.1338 44.1978 77.1437 44.1978 78.3894C44.1978 79.6353 43.1874 80.6451 41.9407 80.6451C40.6942 80.6451 39.6836 79.6353 39.6836 78.3894C39.6836 77.1437 40.6942 76.1338 41.9407 76.1338Z" fill="black"/>
<path d="M46.4524 76.1338C47.6991 76.1338 48.7096 77.1437 48.7096 78.3894C48.7096 79.6353 47.6991 80.6451 46.4524 80.6451C45.2059 80.6451 44.1953 79.6353 44.1953 78.3894C44.1953 77.1437 45.2059 76.1338 46.4524 76.1338Z" fill="black"/>
<path d="M105.136 76.1338C106.383 76.1338 107.393 77.1437 107.393 78.3894C107.393 79.6353 106.383 80.6451 105.136 80.6451C103.889 80.6451 102.879 79.6353 102.879 78.3894C102.879 77.1437 103.889 76.1338 105.136 76.1338Z" fill="black"/>
<path d="M109.648 76.1338C110.894 76.1338 111.905 77.1437 111.905 78.3894C111.905 79.6353 110.894 80.6451 109.648 80.6451C108.401 80.6451 107.391 79.6353 107.391 78.3894C107.391 77.1437 108.401 76.1338 109.648 76.1338Z" fill="black"/>
<path d="M118.679 76.1338C119.926 76.1338 120.936 77.1437 120.936 78.3894C120.936 79.6353 119.926 80.6451 118.679 80.6451C117.432 80.6451 116.422 79.6353 116.422 78.3894C116.422 77.1437 117.432 76.1338 118.679 76.1338Z" fill="black"/>
<path d="M136.734 76.1338C137.98 76.1338 138.991 77.1437 138.991 78.3894C138.991 79.6353 137.98 80.6451 136.734 80.6451C135.487 80.6451 134.477 79.6353 134.477 78.3894C134.477 77.1437 135.487 76.1338 136.734 76.1338Z" fill="black"/>
<path d="M23.8782 80.6455C25.1249 80.6455 26.1353 81.6554 26.1353 82.9012C26.1353 84.147 25.1249 85.1568 23.8782 85.1568C22.6317 85.1568 21.6211 84.147 21.6211 82.9012C21.6211 81.6554 22.6317 80.6455 23.8782 80.6455Z" fill="black"/>
<path d="M50.9642 80.6455C52.2108 80.6455 53.2213 81.6554 53.2213 82.9012C53.2213 84.147 52.2108 85.1568 50.9642 85.1568C49.7176 85.1568 48.707 84.147 48.707 82.9012C48.707 81.6554 49.7176 80.6455 50.9642 80.6455Z" fill="black"/>
<path d="M100.624 80.6455C101.871 80.6455 102.881 81.6554 102.881 82.9012C102.881 84.147 101.871 85.1568 100.624 85.1568C99.3777 85.1568 98.3672 84.147 98.3672 82.9012C98.3672 81.6554 99.3777 80.6455 100.624 80.6455Z" fill="black"/>
<path d="M123.191 80.6455C124.437 80.6455 125.448 81.6554 125.448 82.9012C125.448 84.147 124.437 85.1568 123.191 85.1568C121.944 85.1568 120.934 84.147 120.934 82.9012C120.934 81.6554 121.944 80.6455 123.191 80.6455Z" fill="black"/>
<path d="M127.71 80.6455C128.957 80.6455 129.967 81.6554 129.967 82.9012C129.967 84.147 128.957 85.1568 127.71 85.1568C126.464 85.1568 125.453 84.147 125.453 82.9012C125.453 81.6554 126.464 80.6455 127.71 80.6455Z" fill="black"/>
<path d="M14.8548 85.1562C16.1014 85.1562 17.1119 86.1662 17.1119 87.4119C17.1119 88.6577 16.1014 89.6676 14.8548 89.6676C13.6082 89.6676 12.5977 88.6577 12.5977 87.4119C12.5977 86.1662 13.6082 85.1562 14.8548 85.1562Z" fill="black"/>
<path d="M19.3665 85.1562C20.6131 85.1562 21.6236 86.1662 21.6236 87.4119C21.6236 88.6577 20.6131 89.6676 19.3665 89.6676C18.1199 89.6676 17.1094 88.6577 17.1094 87.4119C17.1094 86.1662 18.1199 85.1562 19.3665 85.1562Z" fill="black"/>
<path d="M28.3938 85.1562C29.6405 85.1562 30.651 86.1662 30.651 87.4119C30.651 88.6577 29.6405 89.6676 28.3938 89.6676C27.1473 89.6676 26.1367 88.6577 26.1367 87.4119C26.1367 86.1662 27.1473 85.1562 28.3938 85.1562Z" fill="black"/>
<path d="M32.9095 85.1562C34.1561 85.1562 35.1666 86.1662 35.1666 87.4119C35.1666 88.6577 34.1561 89.6676 32.9095 89.6676C31.6629 89.6676 30.6523 88.6577 30.6523 87.4119C30.6523 86.1662 31.6629 85.1562 32.9095 85.1562Z" fill="black"/>
<path d="M41.9407 85.1562C43.1874 85.1562 44.1978 86.1662 44.1978 87.4119C44.1978 88.6577 43.1874 89.6676 41.9407 89.6676C40.6942 89.6676 39.6836 88.6577 39.6836 87.4119C39.6836 86.1662 40.6942 85.1562 41.9407 85.1562Z" fill="black"/>
<path d="M55.4759 85.1562C56.7225 85.1562 57.733 86.1662 57.733 87.4119C57.733 88.6577 56.7225 89.6676 55.4759 89.6676C54.2293 89.6676 53.2188 88.6577 53.2188 87.4119C53.2188 86.1662 54.2293 85.1562 55.4759 85.1562Z" fill="black"/>
<path d="M105.136 85.1562C106.383 85.1562 107.393 86.1662 107.393 87.4119C107.393 88.6577 106.383 89.6676 105.136 89.6676C103.889 89.6676 102.879 88.6577 102.879 87.4119C102.879 86.1662 103.889 85.1562 105.136 85.1562Z" fill="black"/>
<path d="M109.648 85.1562C110.894 85.1562 111.905 86.1662 111.905 87.4119C111.905 88.6577 110.894 89.6676 109.648 89.6676C108.401 89.6676 107.391 88.6577 107.391 87.4119C107.391 86.1662 108.401 85.1562 109.648 85.1562Z" fill="black"/>
<path d="M123.191 85.1562C124.437 85.1562 125.448 86.1662 125.448 87.4119C125.448 88.6577 124.437 89.6676 123.191 89.6676C121.944 89.6676 120.934 88.6577 120.934 87.4119C120.934 86.1662 121.944 85.1562 123.191 85.1562Z" fill="black"/>
<path d="M127.71 85.1562C128.957 85.1562 129.967 86.1662 129.967 87.4119C129.967 88.6577 128.957 89.6676 127.71 89.6676C126.464 89.6676 125.453 88.6577 125.453 87.4119C125.453 86.1662 126.464 85.1562 127.71 85.1562Z" fill="black"/>
<path d="M132.226 85.1562C133.473 85.1562 134.483 86.1662 134.483 87.4119C134.483 88.6577 133.473 89.6676 132.226 89.6676C130.979 89.6676 129.969 88.6577 129.969 87.4119C129.969 86.1662 130.979 85.1562 132.226 85.1562Z" fill="black"/>
<path d="M136.734 85.1562C137.98 85.1562 138.991 86.1662 138.991 87.4119C138.991 88.6577 137.98 89.6676 136.734 89.6676C135.487 89.6676 134.477 88.6577 134.477 87.4119C134.477 86.1662 135.487 85.1562 136.734 85.1562Z" fill="black"/>
<path d="M141.253 85.1562C142.5 85.1562 143.51 86.1662 143.51 87.4119C143.51 88.6577 142.5 89.6676 141.253 89.6676C140.007 89.6676 138.996 88.6577 138.996 87.4119C138.996 86.1662 140.007 85.1562 141.253 85.1562Z" fill="black"/>
<path d="M14.8548 89.668C16.1014 89.668 17.1119 90.6779 17.1119 91.9236C17.1119 93.1694 16.1014 94.1793 14.8548 94.1793C13.6082 94.1793 12.5977 93.1694 12.5977 91.9236C12.5977 90.6779 13.6082 89.668 14.8548 89.668Z" fill="black"/>
<path d="M23.8782 89.668C25.1249 89.668 26.1353 90.6779 26.1353 91.9236C26.1353 93.1694 25.1249 94.1793 23.8782 94.1793C22.6317 94.1793 21.6211 93.1694 21.6211 91.9236C21.6211 90.6779 22.6317 89.668 23.8782 89.668Z" fill="black"/>
<path d="M28.3938 89.668C29.6405 89.668 30.651 90.6779 30.651 91.9236C30.651 93.1694 29.6405 94.1793 28.3938 94.1793C27.1473 94.1793 26.1367 93.1694 26.1367 91.9236C26.1367 90.6779 27.1473 89.668 28.3938 89.668Z" fill="black"/>
<path d="M32.9095 89.668C34.1561 89.668 35.1666 90.6779 35.1666 91.9236C35.1666 93.1694 34.1561 94.1793 32.9095 94.1793C31.6629 94.1793 30.6523 93.1694 30.6523 91.9236C30.6523 90.6779 31.6629 89.668 32.9095 89.668Z" fill="black"/>
<path d="M37.4212 89.668C38.6678 89.668 39.6783 90.6779 39.6783 91.9236C39.6783 93.1694 38.6678 94.1793 37.4212 94.1793C36.1746 94.1793 35.1641 93.1694 35.1641 91.9236C35.1641 90.6779 36.1746 89.668 37.4212 89.668Z" fill="black"/>
<path d="M123.191 89.668C124.437 89.668 125.448 90.6779 125.448 91.9236C125.448 93.1694 124.437 94.1793 123.191 94.1793C121.944 94.1793 120.934 93.1694 120.934 91.9236C120.934 90.6779 121.944 89.668 123.191 89.668Z" fill="black"/>
<path d="M136.734 89.668C137.98 89.668 138.991 90.6779 138.991 91.9236C138.991 93.1694 137.98 94.1793 136.734 94.1793C135.487 94.1793 134.477 93.1694 134.477 91.9236C134.477 90.6779 135.487 89.668 136.734 89.668Z" fill="black"/>
<path d="M141.253 89.668C142.5 89.668 143.51 90.6779 143.51 91.9236C143.51 93.1694 142.5 94.1793 141.253 94.1793C140.007 94.1793 138.996 93.1694 138.996 91.9236C138.996 90.6779 140.007 89.668 141.253 89.668Z" fill="black"/>
<path d="M14.8548 94.1787C16.1014 94.1787 17.1119 95.1886 17.1119 96.4344C17.1119 97.6802 16.1014 98.69 14.8548 98.69C13.6082 98.69 12.5977 97.6802 12.5977 96.4344C12.5977 95.1886 13.6082 94.1787 14.8548 94.1787Z" fill="black"/>
<path d="M41.9407 94.1787C43.1874 94.1787 44.1978 95.1886 44.1978 96.4344C44.1978 97.6802 43.1874 98.69 41.9407 98.69C40.6942 98.69 39.6836 97.6802 39.6836 96.4344C39.6836 95.1886 40.6942 94.1787 41.9407 94.1787Z" fill="black"/>
<path d="M46.4524 94.1787C47.6991 94.1787 48.7096 95.1886 48.7096 96.4344C48.7096 97.6802 47.6991 98.69 46.4524 98.69C45.2059 98.69 44.1953 97.6802 44.1953 96.4344C44.1953 95.1886 45.2059 94.1787 46.4524 94.1787Z" fill="black"/>
<path d="M55.4759 94.1787C56.7225 94.1787 57.733 95.1886 57.733 96.4344C57.733 97.6802 56.7225 98.69 55.4759 98.69C54.2293 98.69 53.2188 97.6802 53.2188 96.4344C53.2188 95.1886 54.2293 94.1787 55.4759 94.1787Z" fill="black"/>
<path d="M105.136 94.1787C106.383 94.1787 107.393 95.1886 107.393 96.4344C107.393 97.6802 106.383 98.69 105.136 98.69C103.889 98.69 102.879 97.6802 102.879 96.4344C102.879 95.1886 103.889 94.1787 105.136 94.1787Z" fill="black"/>
<path d="M114.167 94.1787C115.414 94.1787 116.424 95.1886 116.424 96.4344C116.424 97.6802 115.414 98.69 114.167 98.69C112.921 98.69 111.91 97.6802 111.91 96.4344C111.91 95.1886 112.921 94.1787 114.167 94.1787Z" fill="black"/>
<path d="M118.679 94.1787C119.926 94.1787 120.936 95.1886 120.936 96.4344C120.936 97.6802 119.926 98.69 118.679 98.69C117.432 98.69 116.422 97.6802 116.422 96.4344C116.422 95.1886 117.432 94.1787 118.679 94.1787Z" fill="black"/>
<path d="M132.226 94.1787C133.473 94.1787 134.483 95.1886 134.483 96.4344C134.483 97.6802 133.473 98.69 132.226 98.69C130.979 98.69 129.969 97.6802 129.969 96.4344C129.969 95.1886 130.979 94.1787 132.226 94.1787Z" fill="black"/>
<path d="M14.8548 98.6904C16.1014 98.6904 17.1119 99.7003 17.1119 100.946C17.1119 102.192 16.1014 103.202 14.8548 103.202C13.6082 103.202 12.5977 102.192 12.5977 100.946C12.5977 99.7003 13.6082 98.6904 14.8548 98.6904Z" fill="black"/>
<path d="M28.3938 98.6904C29.6405 98.6904 30.651 99.7003 30.651 100.946C30.651 102.192 29.6405 103.202 28.3938 103.202C27.1473 103.202 26.1367 102.192 26.1367 100.946C26.1367 99.7003 27.1473 98.6904 28.3938 98.6904Z" fill="black"/>
<path d="M32.9095 98.6904C34.1561 98.6904 35.1666 99.7003 35.1666 100.946C35.1666 102.192 34.1561 103.202 32.9095 103.202C31.6629 103.202 30.6523 102.192 30.6523 100.946C30.6523 99.7003 31.6629 98.6904 32.9095 98.6904Z" fill="black"/>
<path d="M46.4524 98.6904C47.6991 98.6904 48.7096 99.7003 48.7096 100.946C48.7096 102.192 47.6991 103.202 46.4524 103.202C45.2059 103.202 44.1953 102.192 44.1953 100.946C44.1953 99.7003 45.2059 98.6904 46.4524 98.6904Z" fill="black"/>
<path d="M55.4759 98.6904C56.7225 98.6904 57.733 99.7003 57.733 100.946C57.733 102.192 56.7225 103.202 55.4759 103.202C54.2293 103.202 53.2188 102.192 53.2188 100.946C53.2188 99.7003 54.2293 98.6904 55.4759 98.6904Z" fill="black"/>
<path d="M69.0188 98.6904C70.2655 98.6904 71.276 99.7003 71.276 100.946C71.276 102.192 70.2655 103.202 69.0188 103.202C67.7723 103.202 66.7617 102.192 66.7617 100.946C66.7617 99.7003 67.7723 98.6904 69.0188 98.6904Z" fill="black"/>
<path d="M73.5384 98.6904C74.785 98.6904 75.7955 99.7003 75.7955 100.946C75.7955 102.192 74.785 103.202 73.5384 103.202C72.2918 103.202 71.2812 102.192 71.2812 100.946C71.2812 99.7003 72.2918 98.6904 73.5384 98.6904Z" fill="black"/>
<path d="M87.0813 98.6904C88.328 98.6904 89.3385 99.7003 89.3385 100.946C89.3385 102.192 88.328 103.202 87.0813 103.202C85.8348 103.202 84.8242 102.192 84.8242 100.946C84.8242 99.7003 85.8348 98.6904 87.0813 98.6904Z" fill="black"/>
<path d="M96.1087 98.6904C97.3553 98.6904 98.3658 99.7003 98.3658 100.946C98.3658 102.192 97.3553 103.202 96.1087 103.202C94.8621 103.202 93.8516 102.192 93.8516 100.946C93.8516 99.7003 94.8621 98.6904 96.1087 98.6904Z" fill="black"/>
<path d="M114.167 98.6904C115.414 98.6904 116.424 99.7003 116.424 100.946C116.424 102.192 115.414 103.202 114.167 103.202C112.921 103.202 111.91 102.192 111.91 100.946C111.91 99.7003 112.921 98.6904 114.167 98.6904Z" fill="black"/>
<path d="M118.679 98.6904C119.926 98.6904 120.936 99.7003 120.936 100.946C120.936 102.192 119.926 103.202 118.679 103.202C117.432 103.202 116.422 102.192 116.422 100.946C116.422 99.7003 117.432 98.6904 118.679 98.6904Z" fill="black"/>
<path d="M127.71 98.6904C128.957 98.6904 129.967 99.7003 129.967 100.946C129.967 102.192 128.957 103.202 127.71 103.202C126.464 103.202 125.453 102.192 125.453 100.946C125.453 99.7003 126.464 98.6904 127.71 98.6904Z" fill="black"/>
<path d="M14.8548 103.202C16.1014 103.202 17.1119 104.212 17.1119 105.458C17.1119 106.704 16.1014 107.713 14.8548 107.713C13.6082 107.713 12.5977 106.704 12.5977 105.458C12.5977 104.212 13.6082 103.202 14.8548 103.202Z" fill="black"/>
<path d="M28.3938 103.202C29.6405 103.202 30.651 104.212 30.651 105.458C30.651 106.704 29.6405 107.713 28.3938 107.713C27.1473 107.713 26.1367 106.704 26.1367 105.458C26.1367 104.212 27.1473 103.202 28.3938 103.202Z" fill="black"/>
<path d="M37.4212 103.202C38.6678 103.202 39.6783 104.212 39.6783 105.458C39.6783 106.704 38.6678 107.713 37.4212 107.713C36.1746 107.713 35.1641 106.704 35.1641 105.458C35.1641 104.212 36.1746 103.202 37.4212 103.202Z" fill="black"/>
<path d="M41.9407 103.202C43.1874 103.202 44.1978 104.212 44.1978 105.458C44.1978 106.704 43.1874 107.713 41.9407 107.713C40.6942 107.713 39.6836 106.704 39.6836 105.458C39.6836 104.212 40.6942 103.202 41.9407 103.202Z" fill="black"/>
<path d="M50.9642 103.202C52.2108 103.202 53.2213 104.212 53.2213 105.458C53.2213 106.704 52.2108 107.713 50.9642 107.713C49.7176 107.713 48.707 106.704 48.707 105.458C48.707 104.212 49.7176 103.202 50.9642 103.202Z" fill="black"/>
<path d="M55.4759 103.202C56.7225 103.202 57.733 104.212 57.733 105.458C57.733 106.704 56.7225 107.713 55.4759 107.713C54.2293 107.713 53.2188 106.704 53.2188 105.458C53.2188 104.212 54.2293 103.202 55.4759 103.202Z" fill="black"/>
<path d="M64.5071 103.202C65.7538 103.202 66.7643 104.212 66.7643 105.458C66.7643 106.704 65.7538 107.713 64.5071 107.713C63.2606 107.713 62.25 106.704 62.25 105.458C62.25 104.212 63.2606 103.202 64.5071 103.202Z" fill="black"/>
<path d="M73.5384 103.202C74.785 103.202 75.7955 104.212 75.7955 105.458C75.7955 106.704 74.785 107.713 73.5384 107.713C72.2918 107.713 71.2812 106.704 71.2812 105.458C71.2812 104.212 72.2918 103.202 73.5384 103.202Z" fill="black"/>
<path d="M78.0501 103.202C79.2967 103.202 80.3072 104.212 80.3072 105.458C80.3072 106.704 79.2967 107.713 78.0501 107.713C76.8035 107.713 75.793 106.704 75.793 105.458C75.793 104.212 76.8035 103.202 78.0501 103.202Z" fill="black"/>
<path d="M82.5657 103.202C83.8124 103.202 84.8228 104.212 84.8228 105.458C84.8228 106.704 83.8124 107.713 82.5657 107.713C81.3192 107.713 80.3086 106.704 80.3086 105.458C80.3086 104.212 81.3192 103.202 82.5657 103.202Z" fill="black"/>
<path d="M87.0813 103.202C88.328 103.202 89.3385 104.212 89.3385 105.458C89.3385 106.704 88.328 107.713 87.0813 107.713C85.8348 107.713 84.8242 106.704 84.8242 105.458C84.8242 104.212 85.8348 103.202 87.0813 103.202Z" fill="black"/>
<path d="M96.1087 103.202C97.3553 103.202 98.3658 104.212 98.3658 105.458C98.3658 106.704 97.3553 107.713 96.1087 107.713C94.8621 107.713 93.8516 106.704 93.8516 105.458C93.8516 104.212 94.8621 103.202 96.1087 103.202Z" fill="black"/>
<path d="M105.136 103.202C106.383 103.202 107.393 104.212 107.393 105.458C107.393 106.704 106.383 107.713 105.136 107.713C103.889 107.713 102.879 106.704 102.879 105.458C102.879 104.212 103.889 103.202 105.136 103.202Z" fill="black"/>
<path d="M109.648 103.202C110.894 103.202 111.905 104.212 111.905 105.458C111.905 106.704 110.894 107.713 109.648 107.713C108.401 107.713 107.391 106.704 107.391 105.458C107.391 104.212 108.401 103.202 109.648 103.202Z" fill="black"/>
<path d="M114.167 103.202C115.414 103.202 116.424 104.212 116.424 105.458C116.424 106.704 115.414 107.713 114.167 107.713C112.921 107.713 111.91 106.704 111.91 105.458C111.91 104.212 112.921 103.202 114.167 103.202Z" fill="black"/>
<path d="M118.679 103.202C119.926 103.202 120.936 104.212 120.936 105.458C120.936 106.704 119.926 107.713 118.679 107.713C117.432 107.713 116.422 106.704 116.422 105.458C116.422 104.212 117.432 103.202 118.679 103.202Z" fill="black"/>
<path d="M123.191 103.202C124.437 103.202 125.448 104.212 125.448 105.458C125.448 106.704 124.437 107.713 123.191 107.713C121.944 107.713 120.934 106.704 120.934 105.458C120.934 104.212 121.944 103.202 123.191 103.202Z" fill="black"/>
<path d="M127.71 103.202C128.957 103.202 129.967 104.212 129.967 105.458C129.967 106.704 128.957 107.713 127.71 107.713C126.464 107.713 125.453 106.704 125.453 105.458C125.453 104.212 126.464 103.202 127.71 103.202Z" fill="black"/>
<path d="M132.226 103.202C133.473 103.202 134.483 104.212 134.483 105.458C134.483 106.704 133.473 107.713 132.226 107.713C130.979 107.713 129.969 106.704 129.969 105.458C129.969 104.212 130.979 103.202 132.226 103.202Z" fill="black"/>
<path d="M136.734 103.202C137.98 103.202 138.991 104.212 138.991 105.458C138.991 106.704 137.98 107.713 136.734 107.713C135.487 107.713 134.477 106.704 134.477 105.458C134.477 104.212 135.487 103.202 136.734 103.202Z" fill="black"/>
<path d="M50.9642 107.713C52.2108 107.713 53.2213 108.723 53.2213 109.969C53.2213 111.214 52.2108 112.224 50.9642 112.224C49.7176 112.224 48.707 111.214 48.707 109.969C48.707 108.723 49.7176 107.713 50.9642 107.713Z" fill="black"/>
<path d="M55.4759 107.713C56.7225 107.713 57.733 108.723 57.733 109.969C57.733 111.214 56.7225 112.224 55.4759 112.224C54.2293 112.224 53.2188 111.214 53.2188 109.969C53.2188 108.723 54.2293 107.713 55.4759 107.713Z" fill="black"/>
<path d="M59.9954 107.713C61.242 107.713 62.2525 108.723 62.2525 109.969C62.2525 111.214 61.242 112.224 59.9954 112.224C58.7488 112.224 57.7383 111.214 57.7383 109.969C57.7383 108.723 58.7488 107.713 59.9954 107.713Z" fill="black"/>
<path d="M69.0188 107.713C70.2655 107.713 71.276 108.723 71.276 109.969C71.276 111.214 70.2655 112.224 69.0188 112.224C67.7723 112.224 66.7617 111.214 66.7617 109.969C66.7617 108.723 67.7723 107.713 69.0188 107.713Z" fill="black"/>
<path d="M73.5384 107.713C74.785 107.713 75.7955 108.723 75.7955 109.969C75.7955 111.214 74.785 112.224 73.5384 112.224C72.2918 112.224 71.2812 111.214 71.2812 109.969C71.2812 108.723 72.2918 107.713 73.5384 107.713Z" fill="black"/>
<path d="M82.5657 107.713C83.8124 107.713 84.8228 108.723 84.8228 109.969C84.8228 111.214 83.8124 112.224 82.5657 112.224C81.3192 112.224 80.3086 111.214 80.3086 109.969C80.3086 108.723 81.3192 107.713 82.5657 107.713Z" fill="black"/>
<path d="M100.624 107.713C101.871 107.713 102.881 108.723 102.881 109.969C102.881 111.214 101.871 112.224 100.624 112.224C99.3777 112.224 98.3672 111.214 98.3672 109.969C98.3672 108.723 99.3777 107.713 100.624 107.713Z" fill="black"/>
<path d="M105.136 107.713C106.383 107.713 107.393 108.723 107.393 109.969C107.393 111.214 106.383 112.224 105.136 112.224C103.889 112.224 102.879 111.214 102.879 109.969C102.879 108.723 103.889 107.713 105.136 107.713Z" fill="black"/>
<path d="M123.191 107.713C124.437 107.713 125.448 108.723 125.448 109.969C125.448 111.214 124.437 112.224 123.191 112.224C121.944 112.224 120.934 111.214 120.934 109.969C120.934 108.723 121.944 107.713 123.191 107.713Z" fill="black"/>
<path d="M127.71 107.713C128.957 107.713 129.967 108.723 129.967 109.969C129.967 111.214 128.957 112.224 127.71 112.224C126.464 112.224 125.453 111.214 125.453 109.969C125.453 108.723 126.464 107.713 127.71 107.713Z" fill="black"/>
<path d="M141.253 107.713C142.5 107.713 143.51 108.723 143.51 109.969C143.51 111.214 142.5 112.224 141.253 112.224C140.007 112.224 138.996 111.214 138.996 109.969C138.996 108.723 140.007 107.713 141.253 107.713Z" fill="black"/>
<path d="M59.9954 112.225C61.242 112.225 62.2525 113.235 62.2525 114.48C62.2525 115.726 61.242 116.736 59.9954 116.736C58.7488 116.736 57.7383 115.726 57.7383 114.48C57.7383 113.235 58.7488 112.225 59.9954 112.225Z" fill="black"/>
<path d="M64.5071 112.225C65.7538 112.225 66.7643 113.235 66.7643 114.48C66.7643 115.726 65.7538 116.736 64.5071 116.736C63.2606 116.736 62.25 115.726 62.25 114.48C62.25 113.235 63.2606 112.225 64.5071 112.225Z" fill="black"/>
<path d="M78.0501 112.225C79.2967 112.225 80.3072 113.235 80.3072 114.48C80.3072 115.726 79.2967 116.736 78.0501 116.736C76.8035 116.736 75.793 115.726 75.793 114.48C75.793 113.235 76.8035 112.225 78.0501 112.225Z" fill="black"/>
<path d="M100.624 112.225C101.871 112.225 102.881 113.235 102.881 114.48C102.881 115.726 101.871 116.736 100.624 116.736C99.3777 116.736 98.3672 115.726 98.3672 114.48C98.3672 113.235 99.3777 112.225 100.624 112.225Z" fill="black"/>
<path d="M105.136 112.225C106.383 112.225 107.393 113.235 107.393 114.48C107.393 115.726 106.383 116.736 105.136 116.736C103.889 116.736 102.879 115.726 102.879 114.48C102.879 113.235 103.889 112.225 105.136 112.225Z" fill="black"/>
<path d="M114.167 112.225C115.414 112.225 116.424 113.235 116.424 114.48C116.424 115.726 115.414 116.736 114.167 116.736C112.921 116.736 111.91 115.726 111.91 114.48C111.91 113.235 112.921 112.225 114.167 112.225Z" fill="black"/>
<path d="M123.191 112.225C124.437 112.225 125.448 113.235 125.448 114.48C125.448 115.726 124.437 116.736 123.191 116.736C121.944 116.736 120.934 115.726 120.934 114.48C120.934 113.235 121.944 112.225 123.191 112.225Z" fill="black"/>
<path d="M59.9954 116.735C61.242 116.735 62.2525 117.745 62.2525 118.991C62.2525 120.237 61.242 121.247 59.9954 121.247C58.7488 121.247 57.7383 120.237 57.7383 118.991C57.7383 117.745 58.7488 116.735 59.9954 116.735Z" fill="black"/>
<path d="M69.0188 116.735C70.2655 116.735 71.276 117.745 71.276 118.991C71.276 120.237 70.2655 121.247 69.0188 121.247C67.7723 121.247 66.7617 120.237 66.7617 118.991C66.7617 117.745 67.7723 116.735 69.0188 116.735Z" fill="black"/>
<path d="M78.0501 116.735C79.2967 116.735 80.3072 117.745 80.3072 118.991C80.3072 120.237 79.2967 121.247 78.0501 121.247C76.8035 121.247 75.793 120.237 75.793 118.991C75.793 117.745 76.8035 116.735 78.0501 116.735Z" fill="black"/>
<path d="M82.5657 116.735C83.8124 116.735 84.8228 117.745 84.8228 118.991C84.8228 120.237 83.8124 121.247 82.5657 121.247C81.3192 121.247 80.3086 120.237 80.3086 118.991C80.3086 117.745 81.3192 116.735 82.5657 116.735Z" fill="black"/>
<path d="M105.136 116.735C106.383 116.735 107.393 117.745 107.393 118.991C107.393 120.237 106.383 121.247 105.136 121.247C103.889 121.247 102.879 120.237 102.879 118.991C102.879 117.745 103.889 116.735 105.136 116.735Z" fill="black"/>
<path d="M123.191 116.735C124.437 116.735 125.448 117.745 125.448 118.991C125.448 120.237 124.437 121.247 123.191 121.247C121.944 121.247 120.934 120.237 120.934 118.991C120.934 117.745 121.944 116.735 123.191 116.735Z" fill="black"/>
<path d="M127.71 116.735C128.957 116.735 129.967 117.745 129.967 118.991C129.967 120.237 128.957 121.247 127.71 121.247C126.464 121.247 125.453 120.237 125.453 118.991C125.453 117.745 126.464 116.735 127.71 116.735Z" fill="black"/>
<path d="M50.9642 121.246C52.2108 121.246 53.2213 122.256 53.2213 123.502C53.2213 124.748 52.2108 125.757 50.9642 125.757C49.7176 125.757 48.707 124.748 48.707 123.502C48.707 122.256 49.7176 121.246 50.9642 121.246Z" fill="black"/>
<path d="M59.9954 121.246C61.242 121.246 62.2525 122.256 62.2525 123.502C62.2525 124.748 61.242 125.757 59.9954 125.757C58.7488 125.757 57.7383 124.748 57.7383 123.502C57.7383 122.256 58.7488 121.246 59.9954 121.246Z" fill="black"/>
<path d="M69.0188 121.246C70.2655 121.246 71.276 122.256 71.276 123.502C71.276 124.748 70.2655 125.757 69.0188 125.757C67.7723 125.757 66.7617 124.748 66.7617 123.502C66.7617 122.256 67.7723 121.246 69.0188 121.246Z" fill="black"/>
<path d="M78.0501 121.246C79.2967 121.246 80.3072 122.256 80.3072 123.502C80.3072 124.748 79.2967 125.757 78.0501 125.757C76.8035 125.757 75.793 124.748 75.793 123.502C75.793 122.256 76.8035 121.246 78.0501 121.246Z" fill="black"/>
<path d="M87.0813 121.246C88.328 121.246 89.3385 122.256 89.3385 123.502C89.3385 124.748 88.328 125.757 87.0813 125.757C85.8348 125.757 84.8242 124.748 84.8242 123.502C84.8242 122.256 85.8348 121.246 87.0813 121.246Z" fill="black"/>
<path d="M91.5931 121.246C92.8397 121.246 93.8502 122.256 93.8502 123.502C93.8502 124.748 92.8397 125.757 91.5931 125.757C90.3465 125.757 89.3359 124.748 89.3359 123.502C89.3359 122.256 90.3465 121.246 91.5931 121.246Z" fill="black"/>
<path d="M105.136 121.246C106.383 121.246 107.393 122.256 107.393 123.502C107.393 124.748 106.383 125.757 105.136 125.757C103.889 125.757 102.879 124.748 102.879 123.502C102.879 122.256 103.889 121.246 105.136 121.246Z" fill="black"/>
<path d="M109.648 121.246C110.894 121.246 111.905 122.256 111.905 123.502C111.905 124.748 110.894 125.757 109.648 125.757C108.401 125.757 107.391 124.748 107.391 123.502C107.391 122.256 108.401 121.246 109.648 121.246Z" fill="black"/>
<path d="M114.167 121.246C115.414 121.246 116.424 122.256 116.424 123.502C116.424 124.748 115.414 125.757 114.167 125.757C112.921 125.757 111.91 124.748 111.91 123.502C111.91 122.256 112.921 121.246 114.167 121.246Z" fill="black"/>
<path d="M118.679 121.246C119.926 121.246 120.936 122.256 120.936 123.502C120.936 124.748 119.926 125.757 118.679 125.757C117.432 125.757 116.422 124.748 116.422 123.502C116.422 122.256 117.432 121.246 118.679 121.246Z" fill="black"/>
<path d="M123.191 121.246C124.437 121.246 125.448 122.256 125.448 123.502C125.448 124.748 124.437 125.757 123.191 125.757C121.944 125.757 120.934 124.748 120.934 123.502C120.934 122.256 121.944 121.246 123.191 121.246Z" fill="black"/>
<path d="M127.71 121.246C128.957 121.246 129.967 122.256 129.967 123.502C129.967 124.748 128.957 125.757 127.71 125.757C126.464 125.757 125.453 124.748 125.453 123.502C125.453 122.256 126.464 121.246 127.71 121.246Z" fill="black"/>
<path d="M132.226 121.246C133.473 121.246 134.483 122.256 134.483 123.502C134.483 124.748 133.473 125.757 132.226 125.757C130.979 125.757 129.969 124.748 129.969 123.502C129.969 122.256 130.979 121.246 132.226 121.246Z" fill="black"/>
<path d="M136.734 121.246C137.98 121.246 138.991 122.256 138.991 123.502C138.991 124.748 137.98 125.757 136.734 125.757C135.487 125.757 134.477 124.748 134.477 123.502C134.477 122.256 135.487 121.246 136.734 121.246Z" fill="black"/>
<path d="M50.9642 125.758C52.2108 125.758 53.2213 126.768 53.2213 128.013C53.2213 129.259 52.2108 130.269 50.9642 130.269C49.7176 130.269 48.707 129.259 48.707 128.013C48.707 126.768 49.7176 125.758 50.9642 125.758Z" fill="black"/>
<path d="M59.9954 125.758C61.242 125.758 62.2525 126.768 62.2525 128.013C62.2525 129.259 61.242 130.269 59.9954 130.269C58.7488 130.269 57.7383 129.259 57.7383 128.013C57.7383 126.768 58.7488 125.758 59.9954 125.758Z" fill="black"/>
<path d="M64.5071 125.758C65.7538 125.758 66.7643 126.768 66.7643 128.013C66.7643 129.259 65.7538 130.269 64.5071 130.269C63.2606 130.269 62.25 129.259 62.25 128.013C62.25 126.768 63.2606 125.758 64.5071 125.758Z" fill="black"/>
<path d="M78.0501 125.758C79.2967 125.758 80.3072 126.768 80.3072 128.013C80.3072 129.259 79.2967 130.269 78.0501 130.269C76.8035 130.269 75.793 129.259 75.793 128.013C75.793 126.768 76.8035 125.758 78.0501 125.758Z" fill="black"/>
<path d="M82.5657 125.758C83.8124 125.758 84.8228 126.768 84.8228 128.013C84.8228 129.259 83.8124 130.269 82.5657 130.269C81.3192 130.269 80.3086 129.259 80.3086 128.013C80.3086 126.768 81.3192 125.758 82.5657 125.758Z" fill="black"/>
<path d="M91.5931 125.758C92.8397 125.758 93.8502 126.768 93.8502 128.013C93.8502 129.259 92.8397 130.269 91.5931 130.269C90.3465 130.269 89.3359 129.259 89.3359 128.013C89.3359 126.768 90.3465 125.758 91.5931 125.758Z" fill="black"/>
<path d="M100.624 125.758C101.871 125.758 102.881 126.768 102.881 128.013C102.881 129.259 101.871 130.269 100.624 130.269C99.3777 130.269 98.3672 129.259 98.3672 128.013C98.3672 126.768 99.3777 125.758 100.624 125.758Z" fill="black"/>
<path d="M105.136 125.758C106.383 125.758 107.393 126.768 107.393 128.013C107.393 129.259 106.383 130.269 105.136 130.269C103.889 130.269 102.879 129.259 102.879 128.013C102.879 126.768 103.889 125.758 105.136 125.758Z" fill="black"/>
<path d="M109.648 125.758C110.894 125.758 111.905 126.768 111.905 128.013C111.905 129.259 110.894 130.269 109.648 130.269C108.401 130.269 107.391 129.259 107.391 128.013C107.391 126.768 108.401 125.758 109.648 125.758Z" fill="black"/>
<path d="M118.679 125.758C119.926 125.758 120.936 126.768 120.936 128.013C120.936 129.259 119.926 130.269 118.679 130.269C117.432 130.269 116.422 129.259 116.422 128.013C116.422 126.768 117.432 125.758 118.679 125.758Z" fill="black"/>
<path d="M127.71 125.758C128.957 125.758 129.967 126.768 129.967 128.013C129.967 129.259 128.957 130.269 127.71 130.269C126.464 130.269 125.453 129.259 125.453 128.013C125.453 126.768 126.464 125.758 127.71 125.758Z" fill="black"/>
<path d="M50.9642 130.27C52.2108 130.27 53.2213 131.279 53.2213 132.525C53.2213 133.771 52.2108 134.781 50.9642 134.781C49.7176 134.781 48.707 133.771 48.707 132.525C48.707 131.279 49.7176 130.27 50.9642 130.27Z" fill="black"/>
<path d="M55.4759 130.27C56.7225 130.27 57.733 131.279 57.733 132.525C57.733 133.771 56.7225 134.781 55.4759 134.781C54.2293 134.781 53.2188 133.771 53.2188 132.525C53.2188 131.279 54.2293 130.27 55.4759 130.27Z" fill="black"/>
<path d="M59.9954 130.27C61.242 130.27 62.2525 131.279 62.2525 132.525C62.2525 133.771 61.242 134.781 59.9954 134.781C58.7488 134.781 57.7383 133.771 57.7383 132.525C57.7383 131.279 58.7488 130.27 59.9954 130.27Z" fill="black"/>
<path d="M73.5384 130.27C74.785 130.27 75.7955 131.279 75.7955 132.525C75.7955 133.771 74.785 134.781 73.5384 134.781C72.2918 134.781 71.2812 133.771 71.2812 132.525C71.2812 131.279 72.2918 130.27 73.5384 130.27Z" fill="black"/>
<path d="M78.0501 130.27C79.2967 130.27 80.3072 131.279 80.3072 132.525C80.3072 133.771 79.2967 134.781 78.0501 134.781C76.8035 134.781 75.793 133.771 75.793 132.525C75.793 131.279 76.8035 130.27 78.0501 130.27Z" fill="black"/>
<path d="M96.1087 130.27C97.3553 130.27 98.3658 131.279 98.3658 132.525C98.3658 133.771 97.3553 134.781 96.1087 134.781C94.8621 134.781 93.8516 133.771 93.8516 132.525C93.8516 131.279 94.8621 130.27 96.1087 130.27Z" fill="black"/>
<path d="M100.624 130.27C101.871 130.27 102.881 131.279 102.881 132.525C102.881 133.771 101.871 134.781 100.624 134.781C99.3777 134.781 98.3672 133.771 98.3672 132.525C98.3672 131.279 99.3777 130.27 100.624 130.27Z" fill="black"/>
<path d="M105.136 130.27C106.383 130.27 107.393 131.279 107.393 132.525C107.393 133.771 106.383 134.781 105.136 134.781C103.889 134.781 102.879 133.771 102.879 132.525C102.879 131.279 103.889 130.27 105.136 130.27Z" fill="black"/>
<path d="M109.648 130.27C110.894 130.27 111.905 131.279 111.905 132.525C111.905 133.771 110.894 134.781 109.648 134.781C108.401 134.781 107.391 133.771 107.391 132.525C107.391 131.279 108.401 130.27 109.648 130.27Z" fill="black"/>
<path d="M114.167 130.27C115.414 130.27 116.424 131.279 116.424 132.525C116.424 133.771 115.414 134.781 114.167 134.781C112.921 134.781 111.91 133.771 111.91 132.525C111.91 131.279 112.921 130.27 114.167 130.27Z" fill="black"/>
<path d="M118.679 130.27C119.926 130.27 120.936 131.279 120.936 132.525C120.936 133.771 119.926 134.781 118.679 134.781C117.432 134.781 116.422 133.771 116.422 132.525C116.422 131.279 117.432 130.27 118.679 130.27Z" fill="black"/>
<path d="M123.191 130.27C124.437 130.27 125.448 131.279 125.448 132.525C125.448 133.771 124.437 134.781 123.191 134.781C121.944 134.781 120.934 133.771 120.934 132.525C120.934 131.279 121.944 130.27 123.191 130.27Z" fill="black"/>
<path d="M127.71 130.27C128.957 130.27 129.967 131.279 129.967 132.525C129.967 133.771 128.957 134.781 127.71 134.781C126.464 134.781 125.453 133.771 125.453 132.525C125.453 131.279 126.464 130.27 127.71 130.27Z" fill="black"/>
<path d="M136.734 130.27C137.98 130.27 138.991 131.279 138.991 132.525C138.991 133.771 137.98 134.781 136.734 134.781C135.487 134.781 134.477 133.771 134.477 132.525C134.477 131.279 135.487 130.27 136.734 130.27Z" fill="black"/>
<path d="M69.0188 134.78C70.2655 134.78 71.276 135.79 71.276 137.036C71.276 138.282 70.2655 139.292 69.0188 139.292C67.7723 139.292 66.7617 138.282 66.7617 137.036C66.7617 135.79 67.7723 134.78 69.0188 134.78Z" fill="black"/>
<path d="M78.0501 134.78C79.2967 134.78 80.3072 135.79 80.3072 137.036C80.3072 138.282 79.2967 139.292 78.0501 139.292C76.8035 139.292 75.793 138.282 75.793 137.036C75.793 135.79 76.8035 134.78 78.0501 134.78Z" fill="black"/>
<path d="M82.5657 134.78C83.8124 134.78 84.8228 135.79 84.8228 137.036C84.8228 138.282 83.8124 139.292 82.5657 139.292C81.3192 139.292 80.3086 138.282 80.3086 137.036C80.3086 135.79 81.3192 134.78 82.5657 134.78Z" fill="black"/>
<path d="M87.0813 134.78C88.328 134.78 89.3385 135.79 89.3385 137.036C89.3385 138.282 88.328 139.292 87.0813 139.292C85.8348 139.292 84.8242 138.282 84.8242 137.036C84.8242 135.79 85.8348 134.78 87.0813 134.78Z" fill="black"/>
<path d="M114.167 134.78C115.414 134.78 116.424 135.79 116.424 137.036C116.424 138.282 115.414 139.292 114.167 139.292C112.921 139.292 111.91 138.282 111.91 137.036C111.91 135.79 112.921 134.78 114.167 134.78Z" fill="black"/>
<path d="M123.191 134.78C124.437 134.78 125.448 135.79 125.448 137.036C125.448 138.282 124.437 139.292 123.191 139.292C121.944 139.292 120.934 138.282 120.934 137.036C120.934 135.79 121.944 134.78 123.191 134.78Z" fill="black"/>
<path d="M136.734 134.78C137.98 134.78 138.991 135.79 138.991 137.036C138.991 138.282 137.98 139.292 136.734 139.292C135.487 139.292 134.477 138.282 134.477 137.036C134.477 135.79 135.487 134.78 136.734 134.78Z" fill="black"/>
<path d="M64.5071 139.292C65.7538 139.292 66.7643 140.302 66.7643 141.548C66.7643 142.793 65.7538 143.803 64.5071 143.803C63.2606 143.803 62.25 142.793 62.25 141.548C62.25 140.302 63.2606 139.292 64.5071 139.292Z" fill="black"/>
<path d="M73.5384 139.292C74.785 139.292 75.7955 140.302 75.7955 141.548C75.7955 142.793 74.785 143.803 73.5384 143.803C72.2918 143.803 71.2812 142.793 71.2812 141.548C71.2812 140.302 72.2918 139.292 73.5384 139.292Z" fill="black"/>
<path d="M87.0813 139.292C88.328 139.292 89.3385 140.302 89.3385 141.548C89.3385 142.793 88.328 143.803 87.0813 143.803C85.8348 143.803 84.8242 142.793 84.8242 141.548C84.8242 140.302 85.8348 139.292 87.0813 139.292Z" fill="black"/>
<path d="M91.5931 139.292C92.8397 139.292 93.8502 140.302 93.8502 141.548C93.8502 142.793 92.8397 143.803 91.5931 143.803C90.3465 143.803 89.3359 142.793 89.3359 141.548C89.3359 140.302 90.3465 139.292 91.5931 139.292Z" fill="black"/>
<path d="M100.624 139.292C101.871 139.292 102.881 140.302 102.881 141.548C102.881 142.793 101.871 143.803 100.624 143.803C99.3777 143.803 98.3672 142.793 98.3672 141.548C98.3672 140.302 99.3777 139.292 100.624 139.292Z" fill="black"/>
<path d="M105.136 139.292C106.383 139.292 107.393 140.302 107.393 141.548C107.393 142.793 106.383 143.803 105.136 143.803C103.889 143.803 102.879 142.793 102.879 141.548C102.879 140.302 103.889 139.292 105.136 139.292Z" fill="black"/>
<path d="M109.648 139.292C110.894 139.292 111.905 140.302 111.905 141.548C111.905 142.793 110.894 143.803 109.648 143.803C108.401 143.803 107.391 142.793 107.391 141.548C107.391 140.302 108.401 139.292 109.648 139.292Z" fill="black"/>
<path d="M114.167 139.292C115.414 139.292 116.424 140.302 116.424 141.548C116.424 142.793 115.414 143.803 114.167 143.803C112.921 143.803 111.91 142.793 111.91 141.548C111.91 140.302 112.921 139.292 114.167 139.292Z" fill="black"/>
<path d="M123.191 139.292C124.437 139.292 125.448 140.302 125.448 141.548C125.448 142.793 124.437 143.803 123.191 143.803C121.944 143.803 120.934 142.793 120.934 141.548C120.934 140.302 121.944 139.292 123.191 139.292Z" fill="black"/>
<path d="M132.226 139.292C133.473 139.292 134.483 140.302 134.483 141.548C134.483 142.793 133.473 143.803 132.226 143.803C130.979 143.803 129.969 142.793 129.969 141.548C129.969 140.302 130.979 139.292 132.226 139.292Z" fill="black"/>
<path d="M33.409 12.9775H23.3861C18.5014 12.9775 14.3631 16.2027 13.0401 20.6109C12.9032 21.0669 12.7964 21.5355 12.7222 22.0146C12.6403 22.5432 12.5977 23.0845 12.5977 23.6355V33.8896C12.5977 39.7693 17.4387 44.5507 23.3861 44.5507L28.3975 44.5517L33.409 44.5504C39.356 44.5504 44.1974 39.769 44.1974 33.8893V23.6355C44.1974 17.7586 39.3564 12.9775 33.409 12.9775ZM39.4575 33.8896C39.4575 37.1561 36.7443 39.8138 33.4077 39.8138L28.3975 39.8148L23.3874 39.8135C20.0508 39.8135 17.3376 37.1558 17.3376 33.8896V23.6355C17.3376 22.6152 17.6024 21.6546 18.0685 20.8152C18.5172 20.0077 19.1521 19.3133 19.9165 18.7875C20.8992 18.1114 22.0959 17.7144 23.3858 17.7144H33.409C36.7443 17.7144 39.4575 20.3705 39.4575 23.6355V33.8896Z" fill="black"/>
<path d="M132.718 12.9775H122.695C117.81 12.9775 113.672 16.2027 112.349 20.6109C112.212 21.0669 112.105 21.5355 112.031 22.0146C111.949 22.5432 111.906 23.0845 111.906 23.6355V33.8896C111.906 39.7693 116.747 44.5507 122.695 44.5507L127.706 44.5517L132.718 44.5504C138.665 44.5504 143.506 39.769 143.506 33.8893V23.6355C143.506 17.7586 138.665 12.9775 132.718 12.9775ZM138.766 33.8896C138.766 37.1561 136.053 39.8138 132.716 39.8138L127.706 39.8148L122.696 39.8135C119.359 39.8135 116.646 37.1558 116.646 33.8896V23.6355C116.646 22.6152 116.911 21.6546 117.377 20.8152C117.826 20.0077 118.461 19.3133 119.225 18.7875C120.208 18.1114 121.405 17.7144 122.694 17.7144H132.718C136.053 17.7144 138.766 20.3705 138.766 23.6355V33.8896Z" fill="black"/>
<path d="M33.409 112.227H23.3861C18.5014 112.227 14.3631 115.452 13.0401 119.86C12.9032 120.316 12.7964 120.785 12.7222 121.264C12.6403 121.792 12.5977 122.333 12.5977 122.885V133.139C12.5977 139.018 17.4387 143.8 23.3861 143.8L28.3975 143.801L33.409 143.799C39.356 143.799 44.1974 139.018 44.1974 133.138V122.885C44.1974 117.008 39.3564 112.227 33.409 112.227ZM39.4575 133.139C39.4575 136.405 36.7443 139.063 33.4077 139.063L28.3975 139.064L23.3874 139.063C20.0508 139.063 17.3376 136.405 17.3376 133.139V122.885C17.3376 121.864 17.6024 120.904 18.0685 120.064C18.5172 119.257 19.1521 118.562 19.9165 118.037C20.8992 117.36 22.0959 116.963 23.3858 116.963H33.409C36.7443 116.963 39.4575 119.62 39.4575 122.885V133.139Z" fill="black"/>
<path d="M25.3271 35.532C23.2835 35.532 21.6211 33.9036 21.6211 31.9038V25.6243C21.6211 24.9996 21.7836 24.4117 22.0681 23.8973C22.3429 23.4022 22.7319 22.9767 23.2003 22.6557C23.802 22.2418 24.5355 21.998 25.325 21.998H31.4636C33.5053 21.998 35.1676 23.6246 35.1676 25.6242V31.9037C35.1676 33.9033 33.5054 35.5318 31.4636 35.5318H28.3944L25.3271 35.532Z" fill="black"/>
<path d="M124.64 35.532C122.596 35.532 120.934 33.9036 120.934 31.9038V25.6243C120.934 24.9996 121.096 24.4117 121.381 23.8973C121.655 23.4022 122.044 22.9767 122.513 22.6557C123.115 22.2418 123.848 21.998 124.638 21.998H130.776C132.818 21.998 134.48 23.6246 134.48 25.6242V31.9037C134.48 33.9033 132.818 35.5318 130.776 35.5318H127.707L124.64 35.532Z" fill="black"/>
<path d="M25.3271 134.78C23.2835 134.78 21.6211 133.152 21.6211 131.152V124.872C21.6211 124.248 21.7836 123.66 22.0681 123.145C22.3429 122.65 22.7319 122.225 23.2003 121.904C23.802 121.49 24.5355 121.246 25.325 121.246H31.4636C33.5053 121.246 35.1676 122.873 35.1676 124.872V131.152C35.1676 133.151 33.5054 134.78 31.4636 134.78H28.3944L25.3271 134.78Z" fill="black"/>
<g clip-path="url(#clip0_662_10675)">
<path d="M57.7383 78.3896C57.7383 67.1778 66.8335 58.0889 78.0526 58.0889C89.2717 58.0889 98.3666 67.1778 98.3666 78.3896C98.3666 89.6018 89.2717 98.6907 78.0526 98.6907C66.8335 98.6907 57.7383 89.6018 57.7383 78.3896Z" fill="#30BF39"/>
<path fill-rule="evenodd" clip-rule="evenodd" d="M78.9996 66.6514C72.8797 66.6514 67.9179 71.6096 67.9179 77.7266C67.9179 79.8191 68.4992 81.7758 69.5084 83.4456L67.5078 89.3871L73.6433 87.4245C75.2315 88.3016 77.0572 88.8018 78.9996 88.8018C85.1214 88.8018 90.0832 83.8429 90.0832 77.7266C90.0832 71.6096 85.1214 66.6514 78.9996 66.6514ZM78.9996 86.9465C77.1269 86.9465 75.3812 86.3849 73.9248 85.4215L70.379 86.5559L71.5316 83.132C70.4272 81.6122 69.7751 79.7447 69.7751 77.7266C69.7751 72.6418 73.9134 68.5062 78.9996 68.5062C84.0874 68.5062 88.226 72.6418 88.226 77.7266C88.226 82.8099 84.0874 86.9465 78.9996 86.9465ZM84.1963 80.2431C83.9188 80.0909 82.554 79.3549 82.2983 79.2512C82.0427 79.1468 81.8553 79.0931 81.6556 79.3689C81.4574 79.644 80.8902 80.2608 80.7194 80.443C80.5467 80.6263 80.3811 80.6433 80.1029 80.4907C79.8262 80.3389 78.9252 80.0061 77.8808 79.0024C77.068 78.2219 76.5352 77.2753 76.3807 76.9861C76.2255 76.6969 76.3795 76.5496 76.5263 76.4141C76.6586 76.2915 76.822 76.0938 76.9698 75.9343C77.1165 75.7751 77.1684 75.6584 77.2699 75.4737C77.371 75.2889 77.3303 75.122 77.2643 74.9779C77.1991 74.8339 76.6856 73.4215 76.4715 72.8465C76.2566 72.2723 76.0177 72.3574 75.8528 72.3508C75.6876 72.3452 75.5001 72.3145 75.3115 72.3071C75.1222 72.3004 74.8133 72.3596 74.5443 72.6325C74.2738 72.9054 73.517 73.5622 73.4655 74.9535C73.4129 76.3441 74.3761 77.7266 74.5106 77.9198C74.6451 78.1142 76.3496 81.1294 79.1819 82.3689C82.0161 83.6092 82.0312 83.2312 82.5507 83.2035C83.0712 83.1757 84.25 82.5815 84.5108 81.9306C84.7717 81.2797 84.7924 80.7136 84.7265 80.5933C84.6598 80.4726 84.4738 80.3949 84.1963 80.2431Z" fill="#F1F2F2"/>
</g>
<ellipse cx="77.6421" cy="78.0509" rx="20.7593" ry="20.6949" fill="#00FF2B"/>
<defs>
<linearGradient id="paint0_linear_662_10675" x1="154.007" y1="158.733" x2="-13.4727" y2="149.237" gradientUnits="userSpaceOnUse">
<stop stop-color="#00EB79"/>
<stop offset="0.624547" stop-color="#42BAFF"/>
<stop offset="1" stop-color="#C683F8"/>
</linearGradient>
<clipPath id="clip0_662_10675">
<rect x="57.7383" y="58.0889" width="40.6283" height="40.6018" rx="20.3009" fill="white"/>
</clipPath>
</defs>
</svg>
