<svg width="640" height="512" viewBox="0 0 640 512" fill="none" xmlns="http://www.w3.org/2000/svg">
  <defs>
    <linearGradient id="bg" x1="80" y1="48" x2="560" y2="464" gradientUnits="userSpaceOnUse">
      <stop stop-color="#CFE7FF" />
      <stop offset="0.5" stop-color="#F6F9FE" />
      <stop offset="1" stop-color="#D7F1E7" />
    </linearGradient>
    <linearGradient id="accent" x1="120" y1="360" x2="520" y2="140" gradientUnits="userSpaceOnUse">
      <stop stop-color="#1FB5AE" stop-opacity="0.24" />
      <stop offset="1" stop-color="#3182CE" stop-opacity="0.18" />
    </linearGradient>
    <linearGradient id="sun" x1="0" y1="0" x2="0" y2="1" gradientUnits="objectBoundingBox">
      <stop stop-color="#FFE8BB" />
      <stop offset="1" stop-color="#FFBD70" />
    </linearGradient>
  </defs>
  <rect width="640" height="512" rx="28" fill="url(#bg)" />
  <rect x="60" y="120" width="520" height="296" rx="28" fill="#FFFFFF" stroke="#E2E8F0" stroke-width="4" />
  <rect x="90" y="150" width="460" height="236" rx="22" fill="url(#accent)" />
  <circle cx="180" cy="222" r="60" fill="#E6F4FF" stroke="#C3DDFD" stroke-width="6" />
  <circle cx="180" cy="222" r="24" fill="#93C5FD" />
  <path d="M230 332C260 292 304 268 352 270C388 272 420 290 448 324" stroke="#0EA5E9" stroke-width="10" stroke-linecap="round" />
  <path d="M404 248C420 214 452 192 488 192" stroke="#0EA5E9" stroke-width="10" stroke-linecap="round" />
  <circle cx="492" cy="188" r="20" fill="url(#sun)" stroke="#F59E0B" stroke-width="6" />
  <rect x="252" y="334" width="138" height="18" rx="9" fill="#0EA5E9" opacity="0.18" />
  <text x="50%" y="420" text-anchor="middle" fill="#0F172A" font-family="'SB Sans Display', 'Inter', sans-serif" font-weight="700" font-size="28" opacity="0.9">Фотография точки</text>
  <text x="50%" y="452" text-anchor="middle" fill="#334155" font-family="'SB Sans Display', 'Inter', sans-serif" font-weight="500" font-size="18" opacity="0.9">Замените на снимок конкретной локации</text>
</svg>
