<svg width="175" height="200" viewBox="0 0 175 200" fill="none" xmlns="http://www.w3.org/2000/svg">
  <defs>
    <linearGradient id="bg" x1="12" y1="8" x2="166" y2="192" gradientUnits="userSpaceOnUse">
      <stop stop-color="#1E293B" />
      <stop offset="1" stop-color="#0B0C0B" />
    </linearGradient>
    <linearGradient id="sun" x1="48" y1="32" x2="140" y2="120" gradientUnits="userSpaceOnUse">
      <stop stop-color="#FFD166" stop-opacity="0.9" />
      <stop offset="1" stop-color="#FF9F1C" stop-opacity="0.25" />
    </linearGradient>
  </defs>
  <rect x="4" y="4" width="167" height="192" rx="20" fill="url(#bg)" stroke="#CBE8D9" stroke-opacity="0.2" stroke-width="8" />
  <circle cx="108" cy="72" r="44" fill="url(#sun)" />
  <path d="M12 152C36 134 68 116 102 118C130 120 146 138 164 152V184H12V152Z" fill="#141816" />
  <path d="M38 140C54 134 74 124 86 122C104 120 116 130 126 140" stroke="#9FBAC3" stroke-width="5" stroke-linecap="round" />
  <rect x="24" y="88" width="22" height="46" rx="6" fill="#E2E8F0" />
  <rect x="54" y="76" width="20" height="58" rx="6" fill="#CBD5E1" />
  <rect x="82" y="104" width="18" height="32" rx="5" fill="#94A3B8" />
  <rect x="116" y="92" width="18" height="44" rx="5" fill="#A7F3D0" />
  <path d="M40 64C46 56 62 48 78 48C96 48 108 56 118 64" stroke="#E2E8F0" stroke-width="6" stroke-linecap="round" />
  <g opacity="0.16">
    <path d="M14 22H160" stroke="#E2E8F0" stroke-width="6" stroke-linecap="round" />
    <path d="M14 36H160" stroke="#E2E8F0" stroke-width="6" stroke-linecap="round" />
  </g>
</svg>
