<svg width="175" height="200" viewBox="0 0 175 200" fill="none" xmlns="http://www.w3.org/2000/svg">
  <defs>
    <linearGradient id="grid" x1="0" y1="0" x2="175" y2="200" gradientUnits="userSpaceOnUse">
      <stop stop-color="#234238" />
      <stop offset="1" stop-color="#0B0C0B" />
    </linearGradient>
    <linearGradient id="light" x1="36" y1="28" x2="140" y2="162" gradientUnits="userSpaceOnUse">
      <stop stop-color="#C7F9CC" stop-opacity="0.95" />
      <stop offset="1" stop-color="#7CBCA4" stop-opacity="0.18" />
    </linearGradient>
  </defs>
  <rect x="8" y="8" width="159" height="184" rx="22" fill="url(#grid)" stroke="#CBE8D9" stroke-opacity="0.2" stroke-width="16" />
  <rect x="22" y="26" width="131" height="148" rx="18" fill="#0D1411" stroke="#E5E7EB" stroke-opacity="0.18" stroke-width="4" />
  <rect x="32" y="36" width="112" height="76" rx="14" fill="url(#light)" />
  <g stroke="#E2E8F0" stroke-width="4" stroke-linecap="round" opacity="0.5">
    <path d="M34 108H142" />
    <path d="M34 126H142" />
    <path d="M34 144H142" />
  </g>
  <rect x="36" y="112" width="14" height="20" rx="4" fill="#9CA3AF" />
  <rect x="58" y="112" width="18" height="20" rx="4" fill="#A7F3D0" />
  <rect x="84" y="112" width="12" height="20" rx="4" fill="#94A3B8" />
  <rect x="104" y="112" width="16" height="20" rx="4" fill="#CBD5E1" />
  <rect x="128" y="112" width="10" height="20" rx="3" fill="#E5E7EB" />
  <circle cx="56" cy="72" r="12" fill="#FDE68A" />
  <path d="M52 80C60 78 70 74 80 74C98 74 112 80 124 88" stroke="#0B0C0B" stroke-opacity="0.35" stroke-width="5" stroke-linecap="round" />
</svg>
