<svg width="175" height="200" viewBox="0 0 175 200" fill="none" xmlns="http://www.w3.org/2000/svg">
  <defs>
    <linearGradient id="mountain" x1="10" y1="30" x2="160" y2="176" gradientUnits="userSpaceOnUse">
      <stop offset="0" stop-color="#2B3D31" />
      <stop offset="1" stop-color="#0F1914" />
    </linearGradient>
    <linearGradient id="sky" x1="88" y1="6" x2="88" y2="122" gradientUnits="userSpaceOnUse">
      <stop stop-color="#D9E4EC" stop-opacity="0.9" />
      <stop offset="1" stop-color="#6BA1B2" stop-opacity="0.24" />
    </linearGradient>
  </defs>
  <rect x="6" y="6" width="163" height="188" rx="18" fill="#0B0C0B" stroke="#CBE8D9" stroke-opacity="0.28" stroke-width="12" />
  <rect x="18" y="18" width="139" height="104" rx="16" fill="url(#sky)" />
  <path d="M22 154L56 118L84 140L108 110L148 156V182H22V154Z" fill="url(#mountain)" />
  <path d="M30 150L56 124L78 144L98 126L124 150" stroke="#CBE8D9" stroke-opacity="0.6" stroke-width="5" stroke-linecap="round" />
  <circle cx="56" cy="58" r="16" fill="#FEEBC8" />
  <path d="M42 84C52 76 72 66 84 68C98 70 108 82 126 86C134 88 144 86 152 82" stroke="#0F172A" stroke-opacity="0.4" stroke-width="6" stroke-linecap="round" />
  <path d="M26 36C28 30 38 20 52 20C72 20 80 40 92 44C110 50 128 30 144 36" stroke="#111827" stroke-opacity="0.28" stroke-width="8" stroke-linecap="round" />
</svg>
