<svg width="55" height="23" viewBox="0 0 55 23" fill="none" xmlns="http://www.w3.org/2000/svg">
    <path d="M0.167949 10.8228H4.87247C4.9647 10.8228 5.04042 10.7501 5.04042 10.6595V3.32159C5.04042 3.23192 5.11517 3.1583 5.20837 3.1583H9.90221C9.99443 3.1583 10.0702 3.08562 10.0702 2.995V0.166134C10.0702 0.0764639 9.99541 0.00283974 9.90221 0.00283974H0.167949C0.0757228 0.00283974 0 0.07552 0 0.166134V10.6595C0 10.7491 0.074752 10.8228 0.167949 10.8228Z" fill="black" style="fill:white;fill-opacity:1;"/>
    <path d="M28.4242 10.8228H33.1287C33.2209 10.8228 33.2966 10.7501 33.2966 10.6595V3.32159C33.2966 3.23192 33.3714 3.1583 33.4646 3.1583H38.1584C38.2507 3.1583 38.3264 3.08562 38.3264 2.995V0.166134C38.3264 0.0764639 38.2516 0.00283974 38.1584 0.00283974H28.4242C28.332 0.00283974 28.2562 0.07552 28.2562 0.166134V10.6595C28.2562 10.7491 28.331 10.8228 28.4242 10.8228Z" fill="white" style="fill:white;fill-opacity:1;"/>
    <path d="M11.1594 10.8228H15.958C16.0056 10.8228 16.0503 10.8029 16.0823 10.769L21.7052 4.72328C21.8081 4.61284 21.9974 4.68364 21.9974 4.83277V10.6595C21.9974 10.7491 22.0722 10.8228 22.1654 10.8228H26.8699C26.9621 10.8228 27.0378 10.7501 27.0378 10.6595V0.166134C27.0378 0.0764639 26.9631 0.00283974 26.8699 0.00283974H22.0722C22.0246 0.00283974 21.979 0.0226616 21.9479 0.056642L16.325 6.11553C16.2221 6.22597 16.0328 6.15612 16.0328 6.00604V0.166134C16.0328 0.0764639 15.958 0.00283974 15.8648 0.00283974H11.1603C11.0681 0.00283974 10.9924 0.07552 10.9924 0.166134V10.6595C10.9924 10.7491 11.0671 10.8228 11.1603 10.8228H11.1594Z" fill="white" style="fill:white;fill-opacity:1;"/>
    <path d="M36.878 11.9592C36.7857 11.9592 36.71 12.0319 36.71 12.1225V15.1845C36.71 15.2742 36.7848 15.3478 36.878 15.3478H41.8126C41.9048 15.3478 41.9805 15.4205 41.9805 15.5111V22.6158C41.9805 22.7055 42.0553 22.7791 42.1484 22.7791H46.8685C46.9607 22.7791 47.0364 22.7065 47.0364 22.6158V15.5111C47.0364 15.4214 47.1112 15.3478 47.2044 15.3478H52.138C52.2303 15.3478 52.306 15.2751 52.306 15.1845V12.1225C52.306 12.0328 52.2312 11.9592 52.138 11.9592H36.878Z" fill="white" style="fill:white;fill-opacity:1;"/>
    <path d="M47.4559 9.32478H41.3718C41.3185 9.32478 41.2709 9.35405 41.2486 9.39841L40.5942 10.7491C40.5729 10.7935 40.5243 10.8228 40.4709 10.8228H35.3975C35.2985 10.8228 35.2335 10.7274 35.2762 10.6444L40.7913 0.0707925C40.8136 0.0273731 40.8612 0 40.9127 0H48.0908C48.1413 0 48.1879 0.0264292 48.2102 0.0679608L54.0777 10.6415C54.1234 10.7246 54.0583 10.8228 53.9583 10.8228H48.3694C48.317 10.8228 48.2684 10.7944 48.2471 10.7501L47.5782 9.39746C47.5559 9.3531 47.5083 9.32478 47.4559 9.32478ZM45.957 6.16555L44.4978 3.25645C44.4493 3.16018 44.3008 3.16018 44.2532 3.25645L42.8213 6.16555C42.7805 6.24767 42.8455 6.34112 42.9436 6.34112H45.8337C45.9317 6.34112 45.9968 6.24673 45.956 6.16461L45.957 6.16555Z" fill="white" style="fill:white;fill-opacity:1;"/>
    <path d="M15.995 12.1064V22.5762C15.995 22.6876 15.9018 22.7772 15.7882 22.7772H11.207C11.0924 22.7772 11.0002 22.6866 11.0002 22.5762V19.383C11.0002 19.2621 10.8934 19.1687 10.7701 19.1829C9.7828 19.3008 8.14602 19.3669 6.86553 19.3669C1.67173 19.3669 0 17.9832 0 14.3199V12.1055C0 11.9941 0.0931973 11.9044 0.206781 11.9044H4.83558C4.95013 11.9044 5.04236 11.9951 5.04236 12.1055V13.9499C5.04236 15.6649 5.81221 16.0349 7.85866 16.0349C8.49454 16.0349 10.1284 15.9878 10.8138 15.9207C10.9196 15.9104 10.9992 15.8235 10.9992 15.7197V12.1045C10.9992 11.9932 11.0924 11.9035 11.206 11.9035H15.7872C15.9018 11.9035 15.994 11.9941 15.994 12.1045L15.995 12.1064Z" fill="white" style="fill:white;fill-opacity:1;"/>
    <path d="M21.5713 23C18.4482 23 16.2872 21.4237 17.0454 19.399C17.8027 17.3753 19.4705 16.3436 23.509 16.0907L29.5309 15.9151C30.1338 15.8566 30.3814 15.7622 30.5454 15.2921C30.7182 14.7286 29.6222 14.3973 28.001 14.3973H27.0981C25.5574 14.3973 24.309 14.9759 23.9702 15.2978C23.8935 15.3714 23.7896 15.4092 23.6818 15.4092L19.0598 15.3903C18.9463 15.3903 18.8715 15.2751 18.92 15.176C19.6287 13.7167 22.248 11.6336 27.9485 11.6336H29.1174C35.2228 11.6336 36.2033 13.7158 35.5694 15.4092L34.5364 18.2475C34.218 19.1253 34.8063 19.3216 35.2267 19.3216H36.3703C36.4829 19.3216 36.5615 19.4311 36.5236 19.534L35.381 22.5866C35.3402 22.6942 35.2354 22.7659 35.117 22.7659H30.7114C28.9048 22.7659 28.3951 22.007 28.4213 21.4039C27.9078 21.8126 25.6448 23 22.9023 23H21.5713ZM29.4009 18.3286L29.563 18.0606C29.6271 17.9549 29.5397 17.8237 29.4144 17.8378C28.6912 17.918 27.5126 18.036 26.238 18.1531C23.3993 18.406 22.5877 18.6788 22.2101 19.3018C21.8519 19.9833 22.4305 20.275 24.1129 20.275C27.0583 20.275 28.8329 19.2659 29.4009 18.3286Z" fill="white" style="fill:white;fill-opacity:1;"/>
</svg>