<svg width="134" height="26" viewBox="0 0 134 26" fill="none" xmlns="http://www.w3.org/2000/svg">
    <path fill-rule="evenodd" clip-rule="evenodd" d="M0.0256173 0.00261215C2.62434 0.0104486 5.22306 0 7.82309 0.0104486C5.22697 2.61345 2.61781 5.2034 0.0321435 7.81685C-0.0135397 5.21254 -0.00570833 2.60692 0.0256173 0.00261215ZM8.67018 0.00391822C11.5587 0.0117547 14.4485 -0.00261215 17.3369 0.0104486C17.3422 8.67102 17.3395 17.3316 17.3382 25.9935C14.4485 26.0026 11.5587 25.9896 8.67018 26C8.66627 17.3342 8.66496 8.66841 8.67018 0.00391822ZM18.2389 0.0104486C20.8154 -0.00783644 23.3932 0.018285 25.9698 0C26.0298 2.603 25.9828 5.20862 25.9776 7.81162C23.3763 5.23213 20.8036 2.62521 18.2389 0.0104486Z" fill="white" style="fill:white;fill-opacity:1;"/>
    <path d="M41 18.1V16.9C41 16.66 41.1424 16.46 41.3864 16.4L42.6678 16.08C42.9119 16.02 43.0949 15.84 43.1559 15.6L43.5017 14.36C43.5627 14.12 43.7661 13.98 44.0102 13.98H45.2102C45.4542 13.98 45.6576 13.84 45.7186 13.6L45.7797 13.38C45.8203 13.3 45.8203 13.14 45.8203 13C45.8203 12.84 45.8203 12.7 45.7797 12.62L45.7186 12.4C45.6576 12.16 45.4542 12.02 45.2102 12.02H44.0102C43.7661 12.02 43.5627 11.88 43.5017 11.64L43.1559 10.4C43.0949 10.16 42.9119 9.98 42.6678 9.92L41.3864 9.6C41.1424 9.54 41 9.34 41 9.1V7.9C41 7.66 41.1627 7.5 41.4068 7.5H42.6068C42.8508 7.5 43.0136 7.66 43.0136 7.9V9.12C43.0136 9.64 43.4407 10.02 43.9898 10.02H45.2102C45.4542 10.02 45.6169 10.18 45.6169 10.42V11.1C45.6169 11.6 46.0441 12 46.5525 12H47.4475C47.9559 12 48.3831 11.6 48.3831 11.1V10.42C48.3831 10.18 48.5458 10.02 48.7898 10.02H50.0102C50.5593 10.02 50.9864 9.64 50.9864 9.12V7.9C50.9864 7.66 51.1492 7.5 51.3932 7.5H52.5932C52.8373 7.5 53 7.66 53 7.9V9.1C53 9.34 52.8576 9.54 52.6136 9.6L51.3322 9.92C51.0881 9.98 50.9051 10.16 50.8441 10.4L50.4983 11.64C50.4373 11.88 50.2339 12.02 49.9898 12.02H48.7898C48.5458 12.02 48.3424 12.16 48.2814 12.4L48.2203 12.62C48.2 12.7 48.1797 12.84 48.1797 13C48.1797 13.14 48.2 13.3 48.2203 13.38L48.2814 13.6C48.3424 13.84 48.5458 13.98 48.7898 13.98H49.9898C50.2339 13.98 50.4373 14.12 50.4983 14.36L50.8441 15.6C50.9051 15.84 51.0881 16.02 51.3322 16.08L52.6136 16.4C52.8576 16.46 53 16.66 53 16.9V18.1C53 18.34 52.8373 18.5 52.5932 18.5H51.3932C51.1492 18.5 50.9864 18.34 50.9864 18.1V16.88C50.9864 16.36 50.5593 15.98 50.0102 15.98H48.7898C48.5458 15.98 48.3831 15.82 48.3831 15.58V14.9C48.3831 14.4 47.9559 14 47.4475 14H46.5525C46.0441 14 45.6169 14.4 45.6169 14.9V15.58C45.6169 15.82 45.4542 15.98 45.2102 15.98H43.9898C43.4407 15.98 43.0136 16.36 43.0136 16.88V18.1C43.0136 18.34 42.8508 18.5 42.6068 18.5H41.4068C41.1627 18.5 41 18.34 41 18.1Z" fill="white" style="fill:white;fill-opacity:1;"/>
    <path d="M112.815 7.15843L116.596 4.23099H103.935V21.7689H116.596V18.839H107.551V14.3628H115.282V11.4353H107.551V7.15843H112.815Z" fill="white" style="fill:white;fill-opacity:1;"/>
    <path d="M94.3689 11.0609H89.9827V7.15843H96.9998L100.783 4.23099H86.3662V21.7689H93.9019C98.1239 21.7689 100.562 19.7581 100.562 16.2568C100.562 12.899 98.3703 11.0609 94.3689 11.0609ZM93.7658 18.839H89.9827V13.9883H93.7658C96.0681 13.9883 97.1359 14.7931 97.1359 16.4295C97.1359 18.0658 95.9859 18.839 93.7658 18.839Z" fill="white" style="fill:white;fill-opacity:1;"/>
    <path d="M126.847 4.23099H119.968V21.7689H123.585V16.8015H126.875C131.259 16.8015 134 14.3919 134 10.5162C134 6.64053 131.259 4.23099 126.847 4.23099ZM126.765 13.874H123.559V7.15843H126.765C129.095 7.15843 130.355 8.36442 130.355 10.5162C130.355 12.6681 129.095 13.874 126.765 13.874Z" fill="white" style="fill:white;fill-opacity:1;"/>
    <path d="M80.1706 17.9783C79.2131 18.5254 78.1429 18.8123 77.0469 18.8123C73.7848 18.8123 71.4286 16.3711 71.4286 13.0133C71.4286 9.65551 73.7848 7.21435 77.0469 7.21435C78.225 7.18761 79.3773 7.58879 80.3349 8.30607L82.9398 6.2977L82.7756 6.12507C81.2689 4.71727 79.2389 4 76.9366 4C74.4443 4 72.1679 4.8899 70.5251 6.49708C68.8799 8.16261 67.9482 10.4871 68.0022 12.899C67.9741 15.3378 68.8799 17.6914 70.5251 19.4128C72.25 21.1076 74.5522 22.0558 76.9108 21.9975C79.5135 21.9975 81.7875 21.0492 83.3224 19.3277L80.9943 17.5188L80.1706 17.9783Z" fill="white" style="fill:white;fill-opacity:1;"/>
</svg>