<svg width="377" height="165" viewBox="0 0 377 165" fill="none" xmlns="http://www.w3.org/2000/svg">
<g clip-path="url(#paint0_diamond_175_6690_clip_path)" data-figma-skip-parse="true"><g transform="matrix(0.376 0.3975 -0.2424 0.229289 92.9653 -49.5)"><rect x="0" y="0" width="647.397" height="653.899" fill="url(#paint0_diamond_175_6690)" opacity="1" shape-rendering="crispEdges"/><rect x="0" y="0" width="647.397" height="653.899" transform="scale(1 -1)" fill="url(#paint0_diamond_175_6690)" opacity="1" shape-rendering="crispEdges"/><rect x="0" y="0" width="647.397" height="653.899" transform="scale(-1 1)" fill="url(#paint0_diamond_175_6690)" opacity="1" shape-rendering="crispEdges"/><rect x="0" y="0" width="647.397" height="653.899" transform="scale(-1)" fill="url(#paint0_diamond_175_6690)" opacity="1" shape-rendering="crispEdges"/></g></g><path d="M1.17042 77.5725H33.9557C34.5984 77.5725 35.1261 77.0515 35.1261 76.4021V23.8076C35.1261 23.1649 35.6471 22.6372 36.2965 22.6372H69.0074C69.6501 22.6372 70.1778 22.1162 70.1778 21.4668V1.19077C70.1778 0.548057 69.6569 0.0203539 69.0074 0.0203539H1.17042C0.527704 0.0203539 0 0.541292 0 1.19077V76.4021C0 77.0448 0.520939 77.5725 1.17042 77.5725Z" data-figma-gradient-fill="{&#34;type&#34;:&#34;GRADIENT_DIAMOND&#34;,&#34;stops&#34;:[{&#34;color&#34;:{&#34;r&#34;:0.21584281325340271,&#34;g&#34;:0.47965064644813538,&#34;b&#34;:0.0,&#34;a&#34;:1.0},&#34;position&#34;:0.0},{&#34;color&#34;:{&#34;r&#34;:0.37829682230949402,&#34;g&#34;:0.47287103533744812,&#34;b&#34;:0.0,&#34;a&#34;:1.0},&#34;position&#34;:0.41243076324462891},{&#34;color&#34;:{&#34;r&#34;:0.0078431377187371254,&#34;g&#34;:0.0,&#34;b&#34;:0.019607843831181526,&#34;a&#34;:1.0},&#34;position&#34;:1.0}],&#34;stopsVar&#34;:[{&#34;color&#34;:{&#34;r&#34;:0.21584281325340271,&#34;g&#34;:0.47965064644813538,&#34;b&#34;:0.0,&#34;a&#34;:1.0},&#34;position&#34;:0.0},{&#34;color&#34;:{&#34;r&#34;:0.37829682230949402,&#34;g&#34;:0.47287103533744812,&#34;b&#34;:0.0,&#34;a&#34;:1.0},&#34;position&#34;:0.41243076324462891},{&#34;color&#34;:{&#34;r&#34;:0.0078431377187371254,&#34;g&#34;:0.0,&#34;b&#34;:0.019607843831181526,&#34;a&#34;:1.0},&#34;position&#34;:1.0}],&#34;transform&#34;:{&#34;m00&#34;:752.0,&#34;m01&#34;:-484.79992675781250,&#34;m02&#34;:-40.634696960449219,&#34;m10&#34;:795.0,&#34;m11&#34;:458.57809448242188,&#34;m12&#34;:-676.28900146484375},&#34;opacity&#34;:1.0,&#34;blendMode&#34;:&#34;NORMAL&#34;,&#34;visible&#34;:true}"/>
<path d="M1.17042 77.5725H33.9557C34.5984 77.5725 35.1261 77.0515 35.1261 76.4021V23.8076C35.1261 23.1649 35.6471 22.6372 36.2965 22.6372H69.0074C69.6501 22.6372 70.1778 22.1162 70.1778 21.4668V1.19077C70.1778 0.548057 69.6569 0.0203539 69.0074 0.0203539H1.17042C0.527704 0.0203539 0 0.541292 0 1.19077V76.4021C0 77.0448 0.520939 77.5725 1.17042 77.5725Z" fill="url(#paint1_linear_175_6690)"/>
<g clip-path="url(#paint2_diamond_175_6690_clip_path)" data-figma-skip-parse="true"><g transform="matrix(0.376 0.3975 -0.2424 0.229289 92.9653 -49.5)"><rect x="0" y="0" width="647.397" height="653.899" fill="url(#paint2_diamond_175_6690)" opacity="1" shape-rendering="crispEdges"/><rect x="0" y="0" width="647.397" height="653.899" transform="scale(1 -1)" fill="url(#paint2_diamond_175_6690)" opacity="1" shape-rendering="crispEdges"/><rect x="0" y="0" width="647.397" height="653.899" transform="scale(-1 1)" fill="url(#paint2_diamond_175_6690)" opacity="1" shape-rendering="crispEdges"/><rect x="0" y="0" width="647.397" height="653.899" transform="scale(-1)" fill="url(#paint2_diamond_175_6690)" opacity="1" shape-rendering="crispEdges"/></g></g><path d="M198.085 77.5725H230.87C231.513 77.5725 232.041 77.0515 232.041 76.4021V23.8076C232.041 23.1649 232.562 22.6372 233.211 22.6372H265.922C266.565 22.6372 267.092 22.1162 267.092 21.4668V1.19077C267.092 0.548057 266.571 0.0203539 265.922 0.0203539H198.085C197.442 0.0203539 196.915 0.541292 196.915 1.19077V76.4021C196.915 77.0448 197.436 77.5725 198.085 77.5725Z" data-figma-gradient-fill="{&#34;type&#34;:&#34;GRADIENT_DIAMOND&#34;,&#34;stops&#34;:[{&#34;color&#34;:{&#34;r&#34;:0.21584281325340271,&#34;g&#34;:0.47965064644813538,&#34;b&#34;:0.0,&#34;a&#34;:1.0},&#34;position&#34;:0.0},{&#34;color&#34;:{&#34;r&#34;:0.37829682230949402,&#34;g&#34;:0.47287103533744812,&#34;b&#34;:0.0,&#34;a&#34;:1.0},&#34;position&#34;:0.41243076324462891},{&#34;color&#34;:{&#34;r&#34;:0.0078431377187371254,&#34;g&#34;:0.0,&#34;b&#34;:0.019607843831181526,&#34;a&#34;:1.0},&#34;position&#34;:1.0}],&#34;stopsVar&#34;:[{&#34;color&#34;:{&#34;r&#34;:0.21584281325340271,&#34;g&#34;:0.47965064644813538,&#34;b&#34;:0.0,&#34;a&#34;:1.0},&#34;position&#34;:0.0},{&#34;color&#34;:{&#34;r&#34;:0.37829682230949402,&#34;g&#34;:0.47287103533744812,&#34;b&#34;:0.0,&#34;a&#34;:1.0},&#34;position&#34;:0.41243076324462891},{&#34;color&#34;:{&#34;r&#34;:0.0078431377187371254,&#34;g&#34;:0.0,&#34;b&#34;:0.019607843831181526,&#34;a&#34;:1.0},&#34;position&#34;:1.0}],&#34;transform&#34;:{&#34;m00&#34;:752.0,&#34;m01&#34;:-484.79992675781250,&#34;m02&#34;:-40.634696960449219,&#34;m10&#34;:795.0,&#34;m11&#34;:458.57809448242188,&#34;m12&#34;:-676.28900146484375},&#34;opacity&#34;:1.0,&#34;blendMode&#34;:&#34;NORMAL&#34;,&#34;visible&#34;:true}"/>
<path d="M198.085 77.5725H230.87C231.513 77.5725 232.041 77.0515 232.041 76.4021V23.8076C232.041 23.1649 232.562 22.6372 233.211 22.6372H265.922C266.565 22.6372 267.092 22.1162 267.092 21.4668V1.19077C267.092 0.548057 266.571 0.0203539 265.922 0.0203539H198.085C197.442 0.0203539 196.915 0.541292 196.915 1.19077V76.4021C196.915 77.0448 197.436 77.5725 198.085 77.5725Z" fill="url(#paint3_linear_175_6690)"/>
<g clip-path="url(#paint4_diamond_175_6690_clip_path)" data-figma-skip-parse="true"><g transform="matrix(0.376 0.3975 -0.2424 0.229289 92.9653 -49.5)"><rect x="0" y="0" width="647.397" height="653.899" fill="url(#paint4_diamond_175_6690)" opacity="1" shape-rendering="crispEdges"/><rect x="0" y="0" width="647.397" height="653.899" transform="scale(1 -1)" fill="url(#paint4_diamond_175_6690)" opacity="1" shape-rendering="crispEdges"/><rect x="0" y="0" width="647.397" height="653.899" transform="scale(-1 1)" fill="url(#paint4_diamond_175_6690)" opacity="1" shape-rendering="crispEdges"/><rect x="0" y="0" width="647.397" height="653.899" transform="scale(-1)" fill="url(#paint4_diamond_175_6690)" opacity="1" shape-rendering="crispEdges"/></g></g><path d="M77.7683 77.5725H111.21C111.541 77.5725 111.853 77.4304 112.076 77.1868L151.261 33.8543C151.978 33.0627 153.298 33.5701 153.298 34.6391V76.4021C153.298 77.0448 153.819 77.5725 154.468 77.5725H187.253C187.896 77.5725 188.424 77.0515 188.424 76.4021V1.19077C188.424 0.548057 187.903 0.0203539 187.253 0.0203539H153.819C153.487 0.0203539 153.169 0.162428 152.953 0.405983L113.767 43.8333C113.05 44.6248 111.731 44.1242 111.731 43.0485V1.19077C111.731 0.548057 111.21 0.0203539 110.56 0.0203539H77.7751C77.1324 0.0203539 76.6046 0.541292 76.6046 1.19077V76.4021C76.6046 77.0448 77.1256 77.5725 77.7751 77.5725H77.7683Z" data-figma-gradient-fill="{&#34;type&#34;:&#34;GRADIENT_DIAMOND&#34;,&#34;stops&#34;:[{&#34;color&#34;:{&#34;r&#34;:0.21584281325340271,&#34;g&#34;:0.47965064644813538,&#34;b&#34;:0.0,&#34;a&#34;:1.0},&#34;position&#34;:0.0},{&#34;color&#34;:{&#34;r&#34;:0.37829682230949402,&#34;g&#34;:0.47287103533744812,&#34;b&#34;:0.0,&#34;a&#34;:1.0},&#34;position&#34;:0.41243076324462891},{&#34;color&#34;:{&#34;r&#34;:0.0078431377187371254,&#34;g&#34;:0.0,&#34;b&#34;:0.019607843831181526,&#34;a&#34;:1.0},&#34;position&#34;:1.0}],&#34;stopsVar&#34;:[{&#34;color&#34;:{&#34;r&#34;:0.21584281325340271,&#34;g&#34;:0.47965064644813538,&#34;b&#34;:0.0,&#34;a&#34;:1.0},&#34;position&#34;:0.0},{&#34;color&#34;:{&#34;r&#34;:0.37829682230949402,&#34;g&#34;:0.47287103533744812,&#34;b&#34;:0.0,&#34;a&#34;:1.0},&#34;position&#34;:0.41243076324462891},{&#34;color&#34;:{&#34;r&#34;:0.0078431377187371254,&#34;g&#34;:0.0,&#34;b&#34;:0.019607843831181526,&#34;a&#34;:1.0},&#34;position&#34;:1.0}],&#34;transform&#34;:{&#34;m00&#34;:752.0,&#34;m01&#34;:-484.79992675781250,&#34;m02&#34;:-40.634696960449219,&#34;m10&#34;:795.0,&#34;m11&#34;:458.57809448242188,&#34;m12&#34;:-676.28900146484375},&#34;opacity&#34;:1.0,&#34;blendMode&#34;:&#34;NORMAL&#34;,&#34;visible&#34;:true}"/>
<path d="M77.7683 77.5725H111.21C111.541 77.5725 111.853 77.4304 112.076 77.1868L151.261 33.8543C151.978 33.0627 153.298 33.5701 153.298 34.6391V76.4021C153.298 77.0448 153.819 77.5725 154.468 77.5725H187.253C187.896 77.5725 188.424 77.0515 188.424 76.4021V1.19077C188.424 0.548057 187.903 0.0203539 187.253 0.0203539H153.819C153.487 0.0203539 153.169 0.162428 152.953 0.405983L113.767 43.8333C113.05 44.6248 111.731 44.1242 111.731 43.0485V1.19077C111.731 0.548057 111.21 0.0203539 110.56 0.0203539H77.7751C77.1324 0.0203539 76.6046 0.541292 76.6046 1.19077V76.4021C76.6046 77.0448 77.1256 77.5725 77.7751 77.5725H77.7683Z" fill="url(#paint5_linear_175_6690)"/>
<g clip-path="url(#paint6_diamond_175_6690_clip_path)" data-figma-skip-parse="true"><g transform="matrix(0.376 0.3975 -0.2424 0.229289 92.9653 -49.5)"><rect x="0" y="0" width="647.397" height="653.899" fill="url(#paint6_diamond_175_6690)" opacity="1" shape-rendering="crispEdges"/><rect x="0" y="0" width="647.397" height="653.899" transform="scale(1 -1)" fill="url(#paint6_diamond_175_6690)" opacity="1" shape-rendering="crispEdges"/><rect x="0" y="0" width="647.397" height="653.899" transform="scale(-1 1)" fill="url(#paint6_diamond_175_6690)" opacity="1" shape-rendering="crispEdges"/><rect x="0" y="0" width="647.397" height="653.899" transform="scale(-1)" fill="url(#paint6_diamond_175_6690)" opacity="1" shape-rendering="crispEdges"/></g></g><path d="M256.998 85.718C256.356 85.718 255.828 86.239 255.828 86.8885V108.836C255.828 109.478 256.349 110.006 256.998 110.006H291.387C292.03 110.006 292.557 110.527 292.557 111.176V162.1C292.557 162.742 293.078 163.27 293.728 163.27H326.621C327.264 163.27 327.792 162.749 327.792 162.1V111.176C327.792 110.534 328.313 110.006 328.962 110.006H363.344C363.987 110.006 364.515 109.485 364.515 108.836V86.8885C364.515 86.2457 363.994 85.718 363.344 85.718H256.998Z" data-figma-gradient-fill="{&#34;type&#34;:&#34;GRADIENT_DIAMOND&#34;,&#34;stops&#34;:[{&#34;color&#34;:{&#34;r&#34;:0.21584281325340271,&#34;g&#34;:0.47965064644813538,&#34;b&#34;:0.0,&#34;a&#34;:1.0},&#34;position&#34;:0.0},{&#34;color&#34;:{&#34;r&#34;:0.37829682230949402,&#34;g&#34;:0.47287103533744812,&#34;b&#34;:0.0,&#34;a&#34;:1.0},&#34;position&#34;:0.41243076324462891},{&#34;color&#34;:{&#34;r&#34;:0.0078431377187371254,&#34;g&#34;:0.0,&#34;b&#34;:0.019607843831181526,&#34;a&#34;:1.0},&#34;position&#34;:1.0}],&#34;stopsVar&#34;:[{&#34;color&#34;:{&#34;r&#34;:0.21584281325340271,&#34;g&#34;:0.47965064644813538,&#34;b&#34;:0.0,&#34;a&#34;:1.0},&#34;position&#34;:0.0},{&#34;color&#34;:{&#34;r&#34;:0.37829682230949402,&#34;g&#34;:0.47287103533744812,&#34;b&#34;:0.0,&#34;a&#34;:1.0},&#34;position&#34;:0.41243076324462891},{&#34;color&#34;:{&#34;r&#34;:0.0078431377187371254,&#34;g&#34;:0.0,&#34;b&#34;:0.019607843831181526,&#34;a&#34;:1.0},&#34;position&#34;:1.0}],&#34;transform&#34;:{&#34;m00&#34;:752.0,&#34;m01&#34;:-484.79992675781250,&#34;m02&#34;:-40.634696960449219,&#34;m10&#34;:795.0,&#34;m11&#34;:458.57809448242188,&#34;m12&#34;:-676.28900146484375},&#34;opacity&#34;:1.0,&#34;blendMode&#34;:&#34;NORMAL&#34;,&#34;visible&#34;:true}"/>
<path d="M256.998 85.718C256.356 85.718 255.828 86.239 255.828 86.8885V108.836C255.828 109.478 256.349 110.006 256.998 110.006H291.387C292.03 110.006 292.557 110.527 292.557 111.176V162.1C292.557 162.742 293.078 163.27 293.728 163.27H326.621C327.264 163.27 327.792 162.749 327.792 162.1V111.176C327.792 110.534 328.313 110.006 328.962 110.006H363.344C363.987 110.006 364.515 109.485 364.515 108.836V86.8885C364.515 86.2457 363.994 85.718 363.344 85.718H256.998Z" fill="url(#paint7_linear_175_6690)"/>
<g clip-path="url(#paint8_diamond_175_6690_clip_path)" data-figma-skip-parse="true"><g transform="matrix(0.376 0.3975 -0.2424 0.229289 92.9653 -49.5)"><rect x="0" y="0" width="647.397" height="653.899" fill="url(#paint8_diamond_175_6690)" opacity="1" shape-rendering="crispEdges"/><rect x="0" y="0" width="647.397" height="653.899" transform="scale(1 -1)" fill="url(#paint8_diamond_175_6690)" opacity="1" shape-rendering="crispEdges"/><rect x="0" y="0" width="647.397" height="653.899" transform="scale(-1 1)" fill="url(#paint8_diamond_175_6690)" opacity="1" shape-rendering="crispEdges"/><rect x="0" y="0" width="647.397" height="653.899" transform="scale(-1)" fill="url(#paint8_diamond_175_6690)" opacity="1" shape-rendering="crispEdges"/></g></g><path d="M330.715 66.8357H288.316C287.944 66.8357 287.612 67.0454 287.457 67.3634L282.897 77.0447C282.748 77.3627 282.41 77.5724 282.038 77.5724H246.681C245.991 77.5724 245.538 76.8891 245.836 76.2938L284.27 0.507407C284.426 0.196197 284.757 0 285.116 0H335.139C335.491 0 335.816 0.189432 335.971 0.487111L376.862 76.2735C377.18 76.8688 376.726 77.5724 376.03 77.5724H337.081C336.716 77.5724 336.377 77.3695 336.229 77.0515L331.567 67.3566C331.412 67.0386 331.08 66.8357 330.715 66.8357ZM320.269 44.1918L310.101 23.3407C309.762 22.6507 308.727 22.6507 308.396 23.3407L298.417 44.1918C298.132 44.7804 298.586 45.4502 299.269 45.4502H319.41C320.093 45.4502 320.546 44.7736 320.262 44.185L320.269 44.1918Z" data-figma-gradient-fill="{&#34;type&#34;:&#34;GRADIENT_DIAMOND&#34;,&#34;stops&#34;:[{&#34;color&#34;:{&#34;r&#34;:0.21584281325340271,&#34;g&#34;:0.47965064644813538,&#34;b&#34;:0.0,&#34;a&#34;:1.0},&#34;position&#34;:0.0},{&#34;color&#34;:{&#34;r&#34;:0.37829682230949402,&#34;g&#34;:0.47287103533744812,&#34;b&#34;:0.0,&#34;a&#34;:1.0},&#34;position&#34;:0.41243076324462891},{&#34;color&#34;:{&#34;r&#34;:0.0078431377187371254,&#34;g&#34;:0.0,&#34;b&#34;:0.019607843831181526,&#34;a&#34;:1.0},&#34;position&#34;:1.0}],&#34;stopsVar&#34;:[{&#34;color&#34;:{&#34;r&#34;:0.21584281325340271,&#34;g&#34;:0.47965064644813538,&#34;b&#34;:0.0,&#34;a&#34;:1.0},&#34;position&#34;:0.0},{&#34;color&#34;:{&#34;r&#34;:0.37829682230949402,&#34;g&#34;:0.47287103533744812,&#34;b&#34;:0.0,&#34;a&#34;:1.0},&#34;position&#34;:0.41243076324462891},{&#34;color&#34;:{&#34;r&#34;:0.0078431377187371254,&#34;g&#34;:0.0,&#34;b&#34;:0.019607843831181526,&#34;a&#34;:1.0},&#34;position&#34;:1.0}],&#34;transform&#34;:{&#34;m00&#34;:752.0,&#34;m01&#34;:-484.79992675781250,&#34;m02&#34;:-40.634696960449219,&#34;m10&#34;:795.0,&#34;m11&#34;:458.57809448242188,&#34;m12&#34;:-676.28900146484375},&#34;opacity&#34;:1.0,&#34;blendMode&#34;:&#34;NORMAL&#34;,&#34;visible&#34;:true}"/>
<path d="M330.715 66.8357H288.316C287.944 66.8357 287.612 67.0454 287.457 67.3634L282.897 77.0447C282.748 77.3627 282.41 77.5724 282.038 77.5724H246.681C245.991 77.5724 245.538 76.8891 245.836 76.2938L284.27 0.507407C284.426 0.196197 284.757 0 285.116 0H335.139C335.491 0 335.816 0.189432 335.971 0.487111L376.862 76.2735C377.18 76.8688 376.726 77.5724 376.03 77.5724H337.081C336.716 77.5724 336.377 77.3695 336.229 77.0515L331.567 67.3566C331.412 67.0386 331.08 66.8357 330.715 66.8357ZM320.269 44.1918L310.101 23.3407C309.762 22.6507 308.727 22.6507 308.396 23.3407L298.417 44.1918C298.132 44.7804 298.586 45.4502 299.269 45.4502H319.41C320.093 45.4502 320.546 44.7736 320.262 44.185L320.269 44.1918Z" fill="url(#paint9_linear_175_6690)"/>
<g clip-path="url(#paint10_diamond_175_6690_clip_path)" data-figma-skip-parse="true"><g transform="matrix(0.376 0.3975 -0.2424 0.229289 92.9653 -49.5)"><rect x="0" y="0" width="647.397" height="653.899" fill="url(#paint10_diamond_175_6690)" opacity="1" shape-rendering="crispEdges"/><rect x="0" y="0" width="647.397" height="653.899" transform="scale(1 -1)" fill="url(#paint10_diamond_175_6690)" opacity="1" shape-rendering="crispEdges"/><rect x="0" y="0" width="647.397" height="653.899" transform="scale(-1 1)" fill="url(#paint10_diamond_175_6690)" opacity="1" shape-rendering="crispEdges"/><rect x="0" y="0" width="647.397" height="653.899" transform="scale(-1)" fill="url(#paint10_diamond_175_6690)" opacity="1" shape-rendering="crispEdges"/></g></g><path d="M111.467 86.7733V161.815C111.467 162.614 110.818 163.256 110.026 163.256H78.1001C77.3018 163.256 76.6591 162.607 76.6591 161.815V138.928C76.6591 138.062 75.9149 137.392 75.0557 137.494C68.1752 138.339 56.7687 138.813 47.8451 138.813C11.6501 138.813 0 128.895 0 102.638V86.7665C0 85.9682 0.649481 85.3255 1.44104 85.3255H33.6986C34.4969 85.3255 35.1396 85.9749 35.1396 86.7665V99.9862C35.1396 112.279 40.5046 114.931 54.7662 114.931C59.1975 114.931 70.5837 114.593 75.3601 114.112C76.0976 114.038 76.6523 113.416 76.6523 112.671V86.7597C76.6523 85.9614 77.3018 85.3187 78.0934 85.3187H110.019C110.818 85.3187 111.46 85.9682 111.46 86.7597L111.467 86.7733Z" data-figma-gradient-fill="{&#34;type&#34;:&#34;GRADIENT_DIAMOND&#34;,&#34;stops&#34;:[{&#34;color&#34;:{&#34;r&#34;:0.21584281325340271,&#34;g&#34;:0.47965064644813538,&#34;b&#34;:0.0,&#34;a&#34;:1.0},&#34;position&#34;:0.0},{&#34;color&#34;:{&#34;r&#34;:0.37829682230949402,&#34;g&#34;:0.47287103533744812,&#34;b&#34;:0.0,&#34;a&#34;:1.0},&#34;position&#34;:0.41243076324462891},{&#34;color&#34;:{&#34;r&#34;:0.0078431377187371254,&#34;g&#34;:0.0,&#34;b&#34;:0.019607843831181526,&#34;a&#34;:1.0},&#34;position&#34;:1.0}],&#34;stopsVar&#34;:[{&#34;color&#34;:{&#34;r&#34;:0.21584281325340271,&#34;g&#34;:0.47965064644813538,&#34;b&#34;:0.0,&#34;a&#34;:1.0},&#34;position&#34;:0.0},{&#34;color&#34;:{&#34;r&#34;:0.37829682230949402,&#34;g&#34;:0.47287103533744812,&#34;b&#34;:0.0,&#34;a&#34;:1.0},&#34;position&#34;:0.41243076324462891},{&#34;color&#34;:{&#34;r&#34;:0.0078431377187371254,&#34;g&#34;:0.0,&#34;b&#34;:0.019607843831181526,&#34;a&#34;:1.0},&#34;position&#34;:1.0}],&#34;transform&#34;:{&#34;m00&#34;:752.0,&#34;m01&#34;:-484.79992675781250,&#34;m02&#34;:-40.634696960449219,&#34;m10&#34;:795.0,&#34;m11&#34;:458.57809448242188,&#34;m12&#34;:-676.28900146484375},&#34;opacity&#34;:1.0,&#34;blendMode&#34;:&#34;NORMAL&#34;,&#34;visible&#34;:true}"/>
<path d="M111.467 86.7733V161.815C111.467 162.614 110.818 163.256 110.026 163.256H78.1001C77.3018 163.256 76.6591 162.607 76.6591 161.815V138.928C76.6591 138.062 75.9149 137.392 75.0557 137.494C68.1752 138.339 56.7687 138.813 47.8451 138.813C11.6501 138.813 0 128.895 0 102.638V86.7665C0 85.9682 0.649481 85.3255 1.44104 85.3255H33.6986C34.4969 85.3255 35.1396 85.9749 35.1396 86.7665V99.9862C35.1396 112.279 40.5046 114.931 54.7662 114.931C59.1975 114.931 70.5837 114.593 75.3601 114.112C76.0976 114.038 76.6523 113.416 76.6523 112.671V86.7597C76.6523 85.9614 77.3018 85.3187 78.0934 85.3187H110.019C110.818 85.3187 111.46 85.9682 111.46 86.7597L111.467 86.7733Z" fill="url(#paint11_linear_175_6690)"/>
<g clip-path="url(#paint12_diamond_175_6690_clip_path)" data-figma-skip-parse="true"><g transform="matrix(0.376 0.3975 -0.2424 0.229289 92.9653 -49.5)"><rect x="0" y="0" width="647.397" height="653.899" fill="url(#paint12_diamond_175_6690)" opacity="1" shape-rendering="crispEdges"/><rect x="0" y="0" width="647.397" height="653.899" transform="scale(1 -1)" fill="url(#paint12_diamond_175_6690)" opacity="1" shape-rendering="crispEdges"/><rect x="0" y="0" width="647.397" height="653.899" transform="scale(-1 1)" fill="url(#paint12_diamond_175_6690)" opacity="1" shape-rendering="crispEdges"/><rect x="0" y="0" width="647.397" height="653.899" transform="scale(-1)" fill="url(#paint12_diamond_175_6690)" opacity="1" shape-rendering="crispEdges"/></g></g><path d="M150.328 164.853C128.564 164.853 113.504 153.555 118.788 139.043C124.065 124.538 135.688 117.143 163.832 115.33L205.798 114.072C209.999 113.652 211.724 112.976 212.868 109.607C214.072 105.568 206.434 103.193 195.136 103.193H188.844C178.107 103.193 169.407 107.34 167.045 109.647C166.511 110.175 165.787 110.446 165.036 110.446L132.826 110.31C132.034 110.31 131.513 109.485 131.852 108.775C136.79 98.3152 155.044 83.3839 194.77 83.3839H202.916C245.464 83.3839 252.297 98.3085 247.879 110.446L240.68 130.789C238.461 137.081 242.561 138.488 245.491 138.488H253.46C254.245 138.488 254.793 139.273 254.529 140.011L246.566 161.89C246.282 162.661 245.552 163.175 244.726 163.175H214.025C201.434 163.175 197.882 157.736 198.065 153.413C194.486 156.342 178.716 164.853 159.604 164.853H150.328ZM204.891 131.371L206.021 129.45C206.468 128.692 205.859 127.752 204.986 127.853C199.946 128.428 191.733 129.274 182.85 130.113C163.067 131.926 157.412 133.881 154.78 138.346C152.283 143.231 156.316 145.321 168.04 145.321C188.566 145.321 200.934 138.089 204.891 131.371Z" data-figma-gradient-fill="{&#34;type&#34;:&#34;GRADIENT_DIAMOND&#34;,&#34;stops&#34;:[{&#34;color&#34;:{&#34;r&#34;:0.21584281325340271,&#34;g&#34;:0.47965064644813538,&#34;b&#34;:0.0,&#34;a&#34;:1.0},&#34;position&#34;:0.0},{&#34;color&#34;:{&#34;r&#34;:0.37829682230949402,&#34;g&#34;:0.47287103533744812,&#34;b&#34;:0.0,&#34;a&#34;:1.0},&#34;position&#34;:0.41243076324462891},{&#34;color&#34;:{&#34;r&#34;:0.0078431377187371254,&#34;g&#34;:0.0,&#34;b&#34;:0.019607843831181526,&#34;a&#34;:1.0},&#34;position&#34;:1.0}],&#34;stopsVar&#34;:[{&#34;color&#34;:{&#34;r&#34;:0.21584281325340271,&#34;g&#34;:0.47965064644813538,&#34;b&#34;:0.0,&#34;a&#34;:1.0},&#34;position&#34;:0.0},{&#34;color&#34;:{&#34;r&#34;:0.37829682230949402,&#34;g&#34;:0.47287103533744812,&#34;b&#34;:0.0,&#34;a&#34;:1.0},&#34;position&#34;:0.41243076324462891},{&#34;color&#34;:{&#34;r&#34;:0.0078431377187371254,&#34;g&#34;:0.0,&#34;b&#34;:0.019607843831181526,&#34;a&#34;:1.0},&#34;position&#34;:1.0}],&#34;transform&#34;:{&#34;m00&#34;:752.0,&#34;m01&#34;:-484.79992675781250,&#34;m02&#34;:-40.634696960449219,&#34;m10&#34;:795.0,&#34;m11&#34;:458.57809448242188,&#34;m12&#34;:-676.28900146484375},&#34;opacity&#34;:1.0,&#34;blendMode&#34;:&#34;NORMAL&#34;,&#34;visible&#34;:true}"/>
<path d="M150.328 164.853C128.564 164.853 113.504 153.555 118.788 139.043C124.065 124.538 135.688 117.143 163.832 115.33L205.798 114.072C209.999 113.652 211.724 112.976 212.868 109.607C214.072 105.568 206.434 103.193 195.136 103.193H188.844C178.107 103.193 169.407 107.34 167.045 109.647C166.511 110.175 165.787 110.446 165.036 110.446L132.826 110.31C132.034 110.31 131.513 109.485 131.852 108.775C136.79 98.3152 155.044 83.3839 194.77 83.3839H202.916C245.464 83.3839 252.297 98.3085 247.879 110.446L240.68 130.789C238.461 137.081 242.561 138.488 245.491 138.488H253.46C254.245 138.488 254.793 139.273 254.529 140.011L246.566 161.89C246.282 162.661 245.552 163.175 244.726 163.175H214.025C201.434 163.175 197.882 157.736 198.065 153.413C194.486 156.342 178.716 164.853 159.604 164.853H150.328ZM204.891 131.371L206.021 129.45C206.468 128.692 205.859 127.752 204.986 127.853C199.946 128.428 191.733 129.274 182.85 130.113C163.067 131.926 157.412 133.881 154.78 138.346C152.283 143.231 156.316 145.321 168.04 145.321C188.566 145.321 200.934 138.089 204.891 131.371Z" fill="url(#paint13_linear_175_6690)"/>
<defs>
<clipPath id="paint0_diamond_175_6690_clip_path"><path d="M1.17042 77.5725H33.9557C34.5984 77.5725 35.1261 77.0515 35.1261 76.4021V23.8076C35.1261 23.1649 35.6471 22.6372 36.2965 22.6372H69.0074C69.6501 22.6372 70.1778 22.1162 70.1778 21.4668V1.19077C70.1778 0.548057 69.6569 0.0203539 69.0074 0.0203539H1.17042C0.527704 0.0203539 0 0.541292 0 1.19077V76.4021C0 77.0448 0.520939 77.5725 1.17042 77.5725Z"/></clipPath><clipPath id="paint2_diamond_175_6690_clip_path"><path d="M198.085 77.5725H230.87C231.513 77.5725 232.041 77.0515 232.041 76.4021V23.8076C232.041 23.1649 232.562 22.6372 233.211 22.6372H265.922C266.565 22.6372 267.092 22.1162 267.092 21.4668V1.19077C267.092 0.548057 266.571 0.0203539 265.922 0.0203539H198.085C197.442 0.0203539 196.915 0.541292 196.915 1.19077V76.4021C196.915 77.0448 197.436 77.5725 198.085 77.5725Z"/></clipPath><clipPath id="paint4_diamond_175_6690_clip_path"><path d="M77.7683 77.5725H111.21C111.541 77.5725 111.853 77.4304 112.076 77.1868L151.261 33.8543C151.978 33.0627 153.298 33.5701 153.298 34.6391V76.4021C153.298 77.0448 153.819 77.5725 154.468 77.5725H187.253C187.896 77.5725 188.424 77.0515 188.424 76.4021V1.19077C188.424 0.548057 187.903 0.0203539 187.253 0.0203539H153.819C153.487 0.0203539 153.169 0.162428 152.953 0.405983L113.767 43.8333C113.05 44.6248 111.731 44.1242 111.731 43.0485V1.19077C111.731 0.548057 111.21 0.0203539 110.56 0.0203539H77.7751C77.1324 0.0203539 76.6046 0.541292 76.6046 1.19077V76.4021C76.6046 77.0448 77.1256 77.5725 77.7751 77.5725H77.7683Z"/></clipPath><clipPath id="paint6_diamond_175_6690_clip_path"><path d="M256.998 85.718C256.356 85.718 255.828 86.239 255.828 86.8885V108.836C255.828 109.478 256.349 110.006 256.998 110.006H291.387C292.03 110.006 292.557 110.527 292.557 111.176V162.1C292.557 162.742 293.078 163.27 293.728 163.27H326.621C327.264 163.27 327.792 162.749 327.792 162.1V111.176C327.792 110.534 328.313 110.006 328.962 110.006H363.344C363.987 110.006 364.515 109.485 364.515 108.836V86.8885C364.515 86.2457 363.994 85.718 363.344 85.718H256.998Z"/></clipPath><clipPath id="paint8_diamond_175_6690_clip_path"><path d="M330.715 66.8357H288.316C287.944 66.8357 287.612 67.0454 287.457 67.3634L282.897 77.0447C282.748 77.3627 282.41 77.5724 282.038 77.5724H246.681C245.991 77.5724 245.538 76.8891 245.836 76.2938L284.27 0.507407C284.426 0.196197 284.757 0 285.116 0H335.139C335.491 0 335.816 0.189432 335.971 0.487111L376.862 76.2735C377.18 76.8688 376.726 77.5724 376.03 77.5724H337.081C336.716 77.5724 336.377 77.3695 336.229 77.0515L331.567 67.3566C331.412 67.0386 331.08 66.8357 330.715 66.8357ZM320.269 44.1918L310.101 23.3407C309.762 22.6507 308.727 22.6507 308.396 23.3407L298.417 44.1918C298.132 44.7804 298.586 45.4502 299.269 45.4502H319.41C320.093 45.4502 320.546 44.7736 320.262 44.185L320.269 44.1918Z"/></clipPath><clipPath id="paint10_diamond_175_6690_clip_path"><path d="M111.467 86.7733V161.815C111.467 162.614 110.818 163.256 110.026 163.256H78.1001C77.3018 163.256 76.6591 162.607 76.6591 161.815V138.928C76.6591 138.062 75.9149 137.392 75.0557 137.494C68.1752 138.339 56.7687 138.813 47.8451 138.813C11.6501 138.813 0 128.895 0 102.638V86.7665C0 85.9682 0.649481 85.3255 1.44104 85.3255H33.6986C34.4969 85.3255 35.1396 85.9749 35.1396 86.7665V99.9862C35.1396 112.279 40.5046 114.931 54.7662 114.931C59.1975 114.931 70.5837 114.593 75.3601 114.112C76.0976 114.038 76.6523 113.416 76.6523 112.671V86.7597C76.6523 85.9614 77.3018 85.3187 78.0934 85.3187H110.019C110.818 85.3187 111.46 85.9682 111.46 86.7597L111.467 86.7733Z"/></clipPath><clipPath id="paint12_diamond_175_6690_clip_path"><path d="M150.328 164.853C128.564 164.853 113.504 153.555 118.788 139.043C124.065 124.538 135.688 117.143 163.832 115.33L205.798 114.072C209.999 113.652 211.724 112.976 212.868 109.607C214.072 105.568 206.434 103.193 195.136 103.193H188.844C178.107 103.193 169.407 107.34 167.045 109.647C166.511 110.175 165.787 110.446 165.036 110.446L132.826 110.31C132.034 110.31 131.513 109.485 131.852 108.775C136.79 98.3152 155.044 83.3839 194.77 83.3839H202.916C245.464 83.3839 252.297 98.3085 247.879 110.446L240.68 130.789C238.461 137.081 242.561 138.488 245.491 138.488H253.46C254.245 138.488 254.793 139.273 254.529 140.011L246.566 161.89C246.282 162.661 245.552 163.175 244.726 163.175H214.025C201.434 163.175 197.882 157.736 198.065 153.413C194.486 156.342 178.716 164.853 159.604 164.853H150.328ZM204.891 131.371L206.021 129.45C206.468 128.692 205.859 127.752 204.986 127.853C199.946 128.428 191.733 129.274 182.85 130.113C163.067 131.926 157.412 133.881 154.78 138.346C152.283 143.231 156.316 145.321 168.04 145.321C188.566 145.321 200.934 138.089 204.891 131.371Z"/></clipPath><linearGradient id="paint0_diamond_175_6690" x1="0" y1="0" x2="500" y2="500" gradientUnits="userSpaceOnUse">
<stop stop-color="#377A00"/>
<stop offset="0.412431" stop-color="#607900"/>
<stop offset="1" stop-color="#020005"/>
</linearGradient>
<linearGradient id="paint1_linear_175_6690" x1="376.965" y1="82.4266" x2="0" y2="82.4266" gradientUnits="userSpaceOnUse">
<stop stop-color="#02ADEE"/>
<stop offset="0.399999" stop-color="#42E3B4"/>
<stop offset="0.674999" stop-color="#9FE71F"/>
<stop offset="1" stop-color="#FAED03"/>
</linearGradient>
<linearGradient id="paint2_diamond_175_6690" x1="0" y1="0" x2="500" y2="500" gradientUnits="userSpaceOnUse">
<stop stop-color="#377A00"/>
<stop offset="0.412431" stop-color="#607900"/>
<stop offset="1" stop-color="#020005"/>
</linearGradient>
<linearGradient id="paint3_linear_175_6690" x1="376.965" y1="82.4266" x2="0" y2="82.4266" gradientUnits="userSpaceOnUse">
<stop stop-color="#02ADEE"/>
<stop offset="0.399999" stop-color="#42E3B4"/>
<stop offset="0.674999" stop-color="#9FE71F"/>
<stop offset="1" stop-color="#FAED03"/>
</linearGradient>
<linearGradient id="paint4_diamond_175_6690" x1="0" y1="0" x2="500" y2="500" gradientUnits="userSpaceOnUse">
<stop stop-color="#377A00"/>
<stop offset="0.412431" stop-color="#607900"/>
<stop offset="1" stop-color="#020005"/>
</linearGradient>
<linearGradient id="paint5_linear_175_6690" x1="376.965" y1="82.4266" x2="0" y2="82.4266" gradientUnits="userSpaceOnUse">
<stop stop-color="#02ADEE"/>
<stop offset="0.399999" stop-color="#42E3B4"/>
<stop offset="0.674999" stop-color="#9FE71F"/>
<stop offset="1" stop-color="#FAED03"/>
</linearGradient>
<linearGradient id="paint6_diamond_175_6690" x1="0" y1="0" x2="500" y2="500" gradientUnits="userSpaceOnUse">
<stop stop-color="#377A00"/>
<stop offset="0.412431" stop-color="#607900"/>
<stop offset="1" stop-color="#020005"/>
</linearGradient>
<linearGradient id="paint7_linear_175_6690" x1="376.965" y1="82.4266" x2="0" y2="82.4266" gradientUnits="userSpaceOnUse">
<stop stop-color="#02ADEE"/>
<stop offset="0.399999" stop-color="#42E3B4"/>
<stop offset="0.674999" stop-color="#9FE71F"/>
<stop offset="1" stop-color="#FAED03"/>
</linearGradient>
<linearGradient id="paint8_diamond_175_6690" x1="0" y1="0" x2="500" y2="500" gradientUnits="userSpaceOnUse">
<stop stop-color="#377A00"/>
<stop offset="0.412431" stop-color="#607900"/>
<stop offset="1" stop-color="#020005"/>
</linearGradient>
<linearGradient id="paint9_linear_175_6690" x1="376.965" y1="82.4266" x2="0" y2="82.4266" gradientUnits="userSpaceOnUse">
<stop stop-color="#02ADEE"/>
<stop offset="0.399999" stop-color="#42E3B4"/>
<stop offset="0.674999" stop-color="#9FE71F"/>
<stop offset="1" stop-color="#FAED03"/>
</linearGradient>
<linearGradient id="paint10_diamond_175_6690" x1="0" y1="0" x2="500" y2="500" gradientUnits="userSpaceOnUse">
<stop stop-color="#377A00"/>
<stop offset="0.412431" stop-color="#607900"/>
<stop offset="1" stop-color="#020005"/>
</linearGradient>
<linearGradient id="paint11_linear_175_6690" x1="376.965" y1="82.4266" x2="0" y2="82.4266" gradientUnits="userSpaceOnUse">
<stop stop-color="#02ADEE"/>
<stop offset="0.399999" stop-color="#42E3B4"/>
<stop offset="0.674999" stop-color="#9FE71F"/>
<stop offset="1" stop-color="#FAED03"/>
</linearGradient>
<linearGradient id="paint12_diamond_175_6690" x1="0" y1="0" x2="500" y2="500" gradientUnits="userSpaceOnUse">
<stop stop-color="#377A00"/>
<stop offset="0.412431" stop-color="#607900"/>
<stop offset="1" stop-color="#020005"/>
</linearGradient>
<linearGradient id="paint13_linear_175_6690" x1="376.965" y1="82.4266" x2="0" y2="82.4266" gradientUnits="userSpaceOnUse">
<stop stop-color="#02ADEE"/>
<stop offset="0.399999" stop-color="#42E3B4"/>
<stop offset="0.674999" stop-color="#9FE71F"/>
<stop offset="1" stop-color="#FAED03"/>
</linearGradient>
</defs>
</svg>
