<svg width="17" height="17" viewBox="0 0 17 17" fill="none" xmlns="http://www.w3.org/2000/svg">
<path d="M14.5088 0.404769C14.7855 0.127822 15.1279 -0.00700777 15.5357 0.000280311C15.9436 0.000280311 16.2896 0.142398 16.5736 0.426633C16.865 0.70358 17.007 1.04976 16.9997 1.46518C16.9997 1.8806 16.865 2.22314 16.5955 2.4928L2.50189 16.5952C2.3198 16.7701 2.1013 16.8868 1.84637 16.9451C1.59873 17.0107 1.34745 17.0107 1.09253 16.9451C0.837605 16.8868 0.615457 16.7665 0.426086 16.5843C0.236714 16.3948 0.109253 16.1725 0.0437011 15.9174C-0.014567 15.6624 -0.014567 15.4109 0.0437011 15.1631C0.109253 14.908 0.233073 14.6894 0.415161 14.5072L14.5088 0.404769ZM16.5955 14.5072C16.865 14.7841 16.9997 15.1267 16.9997 15.5348C16.9997 15.9429 16.8577 16.2891 16.5736 16.5734C16.2896 16.8576 15.94 16.9997 15.5248 16.9997C15.1169 17.007 14.7783 16.8722 14.5088 16.5952L0.415161 2.4928C0.240356 2.31789 0.120178 2.10289 0.0546264 1.84781C-0.00364176 1.59273 -0.00364176 1.34129 0.0546264 1.09349C0.120178 0.838409 0.243998 0.612479 0.426086 0.415701C0.615457 0.226211 0.837605 0.102313 1.09253 0.0440088C1.34745 -0.0142958 1.59873 -0.0106518 1.84637 0.0549409C2.1013 0.113246 2.3198 0.229855 2.50189 0.404769L16.5955 14.5072Z" fill="white" fill-opacity="0.8"/>
<path d="M14.5088 0.404769C14.7855 0.127822 15.1279 -0.00700777 15.5357 0.000280311C15.9436 0.000280311 16.2896 0.142398 16.5736 0.426633C16.865 0.70358 17.007 1.04976 16.9997 1.46518C16.9997 1.8806 16.865 2.22314 16.5955 2.4928L2.50189 16.5952C2.3198 16.7701 2.1013 16.8868 1.84637 16.9451C1.59873 17.0107 1.34745 17.0107 1.09253 16.9451C0.837605 16.8868 0.615457 16.7665 0.426086 16.5843C0.236714 16.3948 0.109253 16.1725 0.0437011 15.9174C-0.014567 15.6624 -0.014567 15.4109 0.0437011 15.1631C0.109253 14.908 0.233073 14.6894 0.415161 14.5072L14.5088 0.404769ZM16.5955 14.5072C16.865 14.7841 16.9997 15.1267 16.9997 15.5348C16.9997 15.9429 16.8577 16.2891 16.5736 16.5734C16.2896 16.8576 15.94 16.9997 15.5248 16.9997C15.1169 17.007 14.7783 16.8722 14.5088 16.5952L0.415161 2.4928C0.240356 2.31789 0.120178 2.10289 0.0546264 1.84781C-0.00364176 1.59273 -0.00364176 1.34129 0.0546264 1.09349C0.120178 0.838409 0.243998 0.612479 0.426086 0.415701C0.615457 0.226211 0.837605 0.102313 1.09253 0.0440088C1.34745 -0.0142958 1.59873 -0.0106518 1.84637 0.0549409C2.1013 0.113246 2.3198 0.229855 2.50189 0.404769L16.5955 14.5072Z" fill="white" fill-opacity="0.6"/>
</svg>
