<svg width="18" height="17" viewBox="0 0 18 17" fill="none" xmlns="http://www.w3.org/2000/svg">
<path d="M15.0088 0.404769C15.2855 0.127822 15.6279 -0.00700777 16.0357 0.000280311C16.4436 0.000280311 16.7896 0.142398 17.0736 0.426633C17.365 0.70358 17.507 1.04976 17.4997 1.46518C17.4997 1.8806 17.365 2.22314 17.0955 2.4928L3.00189 16.5952C2.8198 16.7701 2.6013 16.8868 2.34637 16.9451C2.09873 17.0107 1.84745 17.0107 1.59253 16.9451C1.3376 16.8868 1.11546 16.7665 0.926086 16.5843C0.736714 16.3948 0.609253 16.1725 0.543701 15.9174C0.485433 15.6624 0.485433 15.4109 0.543701 15.1631C0.609253 14.908 0.733073 14.6894 0.915161 14.5072L15.0088 0.404769ZM17.0955 14.5072C17.365 14.7841 17.4997 15.1267 17.4997 15.5348C17.4997 15.9429 17.3577 16.2891 17.0736 16.5734C16.7896 16.8576 16.44 16.9997 16.0248 16.9997C15.6169 17.007 15.2783 16.8722 15.0088 16.5952L0.915161 2.4928C0.740356 2.31789 0.620178 2.10289 0.554626 1.84781C0.496358 1.59273 0.496358 1.34129 0.554626 1.09349C0.620178 0.838409 0.743998 0.612479 0.926086 0.415701C1.11546 0.226211 1.3376 0.102313 1.59253 0.0440088C1.84745 -0.0142958 2.09873 -0.0106518 2.34637 0.0549409C2.6013 0.113246 2.8198 0.229855 3.00189 0.404769L17.0955 14.5072Z" fill="white" fill-opacity="0.8" style="fill:white;fill-opacity:0.8;"/>
<path d="M15.0088 0.404769C15.2855 0.127822 15.6279 -0.00700777 16.0357 0.000280311C16.4436 0.000280311 16.7896 0.142398 17.0736 0.426633C17.365 0.70358 17.507 1.04976 17.4997 1.46518C17.4997 1.8806 17.365 2.22314 17.0955 2.4928L3.00189 16.5952C2.8198 16.7701 2.6013 16.8868 2.34637 16.9451C2.09873 17.0107 1.84745 17.0107 1.59253 16.9451C1.3376 16.8868 1.11546 16.7665 0.926086 16.5843C0.736714 16.3948 0.609253 16.1725 0.543701 15.9174C0.485433 15.6624 0.485433 15.4109 0.543701 15.1631C0.609253 14.908 0.733073 14.6894 0.915161 14.5072L15.0088 0.404769ZM17.0955 14.5072C17.365 14.7841 17.4997 15.1267 17.4997 15.5348C17.4997 15.9429 17.3577 16.2891 17.0736 16.5734C16.7896 16.8576 16.44 16.9997 16.0248 16.9997C15.6169 17.007 15.2783 16.8722 15.0088 16.5952L0.915161 2.4928C0.740356 2.31789 0.620178 2.10289 0.554626 1.84781C0.496358 1.59273 0.496358 1.34129 0.554626 1.09349C0.620178 0.838409 0.743998 0.612479 0.926086 0.415701C1.11546 0.226211 1.3376 0.102313 1.59253 0.0440088C1.84745 -0.0142958 2.09873 -0.0106518 2.34637 0.0549409C2.6013 0.113246 2.8198 0.229855 3.00189 0.404769L17.0955 14.5072Z" fill="white" fill-opacity="0.2" style="fill:white;fill-opacity:0.2;"/>
</svg>
