<svg width="310" height="51" viewBox="0 0 310 51" fill="none" xmlns="http://www.w3.org/2000/svg">
<path fill-rule="evenodd" clip-rule="evenodd" d="M15.45 47.8685C15.5732 47.8196 15.7061 47.8465 15.8354 47.8465C16.0134 47.8514 16.1927 47.8281 16.3695 47.8538C16.2902 47.9162 16.1049 47.9052 16.1061 48.0434C16.0659 48.436 16.0988 48.8335 16.0878 49.2285C16.0988 49.6053 16.0573 49.9869 16.128 50.3599C16.189 50.4639 16.328 50.4345 16.4293 50.4639V50.5103C16.1317 50.5103 15.8341 50.5103 15.5378 50.5103C15.5378 50.4993 15.5402 50.4773 15.5415 50.4663C15.7976 50.47 15.7646 50.1801 15.7756 50.0028C15.7707 49.3276 15.7902 48.6525 15.7634 47.9786C15.661 47.9358 15.5537 47.9027 15.45 47.8673V47.8685ZM39.5756 47.7939C39.6183 47.7364 39.6439 47.822 39.6707 47.8465C39.7646 47.8404 39.8683 47.8293 39.9573 47.8685C39.8854 47.9186 39.7378 47.8991 39.711 47.9994C39.5915 48.6623 39.7976 49.3643 39.5646 50.0089C39.2427 50.7904 37.8817 50.755 37.6549 49.9159C37.5171 49.3007 37.6207 48.6647 37.5744 48.0422C37.5488 47.8929 37.3646 47.9235 37.2585 47.8722C37.3878 47.811 37.5317 47.8489 37.6695 47.8465C37.8439 47.8514 38.0183 47.8281 38.1915 47.8563C38.1061 47.8868 38.0244 47.9247 37.9463 47.97C37.8744 48.3247 37.9256 48.6916 37.9098 49.0512C37.9159 49.423 37.8695 49.845 38.1134 50.1581C38.3829 50.5079 38.9695 50.4993 39.2439 50.1581C39.4061 49.9465 39.439 49.6676 39.439 49.4083C39.4378 49.0108 39.439 48.6133 39.439 48.2171C39.4305 48.1266 39.4512 48.0177 39.378 47.9492C39.2902 47.9199 39.2012 47.8942 39.1122 47.8709C39.2585 47.7914 39.4488 47.904 39.5756 47.7939ZM14.9159 43.1156C15.1622 43.0838 15.411 43.1266 15.6573 43.1107C15.7878 43.1107 15.928 43.0765 16.0476 43.1474C15.9402 43.1988 15.7402 43.1719 15.7232 43.3321C15.6768 43.7663 15.7134 44.2066 15.7049 44.642C16.1256 44.1821 16.5915 43.765 16.9854 43.2819C16.9415 43.2208 16.8988 43.1621 16.8549 43.1034C17.1634 43.1266 17.4744 43.0985 17.7829 43.1119C17.6524 43.2085 17.4805 43.211 17.3476 43.3027C17.1146 43.4642 16.9329 43.6868 16.728 43.8788C16.4866 44.1038 16.2488 44.3338 16.028 44.5784C16.528 45.0872 17 45.6217 17.5378 46.0926C17.7207 46.2675 17.961 46.3629 18.2098 46.3886V46.446C17.9415 46.4424 17.6659 46.4766 17.4037 46.4057C17.1805 46.3127 17.0061 46.1354 16.8341 45.9703C16.4488 45.5691 16.0695 45.1618 15.7049 44.7435C15.7171 45.2279 15.672 45.7159 15.7341 46.1978C15.7622 46.391 16.0049 46.3531 16.1415 46.4081C15.9488 46.4803 15.7415 46.4363 15.5415 46.4375C15.3561 46.4314 15.1659 46.4766 14.9854 46.4155C15.0756 46.3519 15.2585 46.3812 15.2841 46.243C15.3293 46.0522 15.3268 45.8528 15.3329 45.6584C15.3329 44.9649 15.3329 44.2714 15.3329 43.5779C15.3207 43.4691 15.339 43.3419 15.2683 43.2514C15.1573 43.1914 15.0268 43.178 14.9171 43.1144L14.9159 43.1156ZM18.4793 36.7666C18.0427 37.0711 17.689 37.5518 17.6768 38.101C17.6268 38.951 18.2512 39.7998 19.1 39.9417C19.9219 40.0322 20.7537 39.8414 21.5061 39.5136C22.4549 39.0892 23.2817 38.4349 24.0146 37.7047C23.1049 36.9928 22.0451 36.4217 20.889 36.2676C20.0646 36.1538 19.1719 36.2786 18.4805 36.7654L18.4793 36.7666ZM20.1695 26.0365C20.8256 26.0377 21.4805 26.0304 22.1366 26.0402C22.6537 26.9367 23.1793 27.8307 23.7037 28.7236C24.778 30.5815 25.9122 32.4038 26.9963 34.2556C27.4207 33.6636 27.8317 33.0619 28.2195 32.4442C27.7293 31.6137 27.2476 30.7771 26.7549 29.9467C26.1488 28.9413 25.5037 27.9616 24.8232 27.0052C24.2195 26.171 23.5976 25.3467 22.9 24.5896C22.5415 24.2178 22.1768 23.8349 21.7159 23.5891C21.1817 24.3914 20.6646 25.2072 20.1695 26.0353V26.0365ZM15.9146 9.97498C13.7073 10.9877 11.6793 12.4762 10.2256 14.4417C9.07195 15.9987 8.29512 17.881 8.23171 19.8355C8.21585 20.7014 8.37805 21.5918 8.82805 22.3416C9.29634 23.1427 10.0878 23.7395 10.9805 23.9842C12.078 24.2936 13.3085 24.1236 14.2659 23.4974C15.039 23.0032 15.6024 22.2021 15.8305 21.3142C15.8598 21.2078 15.8768 21.0952 15.9451 21.006C15.989 20.9644 15.9939 20.9069 15.9439 20.8702C15.9488 20.743 15.961 20.617 15.9695 20.491C15.561 21.6224 14.8902 22.7342 13.8171 23.3396C13.0549 23.7799 12.1134 23.9022 11.2695 23.6454C10.2463 23.353 9.39634 22.5532 9.00122 21.5661C8.66219 20.7564 8.63659 19.8489 8.78902 18.994C9.1061 17.0737 10.072 15.3003 11.3841 13.8803C12.7 12.4529 14.3512 11.3595 16.1268 10.5951C18.1354 9.72914 20.3049 9.27416 22.4829 9.14696C24.089 9.05645 25.7098 9.12005 27.2951 9.4087C29.1524 9.75483 31.0037 10.4336 32.4512 11.6861C33.228 12.3575 33.8707 13.2002 34.25 14.1604C34.7354 15.3504 34.7854 16.708 34.4012 17.9323C34.2244 18.5231 33.928 19.0649 33.639 19.6055C33.2061 20.3895 32.7195 21.1515 32.1146 21.8144C31.4366 22.5715 30.5976 23.1855 29.6598 23.5769C28.4683 24.082 27.1549 24.2361 25.8695 24.2043C24.4707 24.1603 23.0866 23.9095 21.7317 23.5695C22.9878 21.6921 24.3451 19.8306 26.1305 18.4216C27.1524 17.6156 28.3268 17.0053 29.5732 16.6334C30.2585 16.4182 30.9695 16.302 31.6732 16.1687C30.7659 16.1332 29.8512 16.1613 28.9549 16.3191C27.0634 16.6261 25.2854 17.4627 23.7549 18.6075C22.9463 19.2141 22.1646 19.8673 21.5049 20.6378C20.5939 21.6884 19.8122 22.8442 19.05 24.0062C17.8634 25.8457 16.7049 27.7035 15.5951 29.5908C14.3329 31.7091 13.1012 33.8556 11.6073 35.8224C10.8524 36.7996 10.028 37.7365 9.0439 38.4874C8.20488 39.132 7.22805 39.6261 6.17683 39.7888C5.32683 39.9185 4.45244 39.8549 3.61829 39.653C2.71829 39.4256 1.83293 38.9388 1.33659 38.1279C0.862195 37.3549 0.751219 36.3165 1.20732 35.5105C1.69146 34.6482 2.75 34.0844 3.73171 34.3204C4.46707 34.4916 5.06219 35.1448 5.14634 35.9006C5.2 36.2541 5.0878 36.5978 4.97805 36.928C5.2061 36.5525 5.32561 36.1 5.25488 35.6609C5.17195 35.0799 4.78415 34.5711 4.28049 34.2849C3.81341 34.0146 3.24268 33.951 2.71951 34.0697C1.71829 34.2764 0.836585 35.0653 0.606097 36.078C0.442683 36.8546 0.57561 37.6912 0.969512 38.3798C1.42805 39.1883 2.23049 39.7423 3.08781 40.0567C4.08659 40.4175 5.16707 40.5055 6.22195 40.4334C7.48536 40.3502 8.72317 39.9637 9.82439 39.3399C10.778 38.8055 11.6329 38.1095 12.4159 37.35C14.078 35.7111 15.4427 33.8018 16.7415 31.8669C17.9634 29.9821 18.9829 27.9738 20.1549 26.0573C20.6073 26.867 21.0585 27.6754 21.5195 28.479C20.3073 30.5533 19.0439 32.6008 17.6244 34.5418C16.4695 36.0951 15.25 37.6484 13.6585 38.7785C12.711 39.4684 11.6439 39.9772 10.5317 40.3368C12.6305 40.0616 14.5695 38.9779 16.0768 37.5139C16.8134 36.7617 17.5268 35.9838 18.1939 35.1668C19.6598 33.3737 20.872 31.3924 22.0585 29.4085C22.7768 30.5643 23.4573 31.7422 24.1646 32.9053C24.7305 33.8385 25.2585 34.7999 25.9244 35.6683C25.3829 36.3348 24.8012 36.9708 24.1756 37.5591C23.0573 36.7115 21.7268 35.9973 20.289 36.0217C19.3695 36.0376 18.3744 36.3177 17.7768 37.0626C17.0902 37.904 17.2866 39.3032 18.1829 39.9185C18.6561 40.2707 19.2671 40.3135 19.8354 40.3172C20.4634 40.2438 21.0927 40.1386 21.6854 39.9099C22.7488 39.5185 23.6829 38.8507 24.5561 38.1389C25.2756 38.7345 25.8866 39.4488 26.4476 40.1936C27.1171 41.0963 27.711 42.0613 28.1366 43.1046C27.8756 42.0576 27.3146 41.1159 26.7122 40.2316C26.1341 39.417 25.4817 38.644 24.7024 38.0153C25.328 37.5029 25.9183 36.9464 26.4573 36.3434C27.5951 37.7145 28.978 38.9168 30.611 39.6543C31.8512 40.2157 33.2354 40.4786 34.5939 40.3551C33.7268 40.3527 32.8573 40.1667 32.0768 39.7839C31.0402 39.2873 30.1598 38.5144 29.4037 37.6558C28.6963 36.8595 28.0841 35.9838 27.5049 35.091C27.9439 34.5283 28.3512 33.9413 28.7488 33.3481C29.05 33.8446 29.3341 34.351 29.6537 34.8366C30.7805 36.4938 32.2256 37.9505 33.939 38.995C35.5561 39.9747 37.4695 40.5276 39.3646 40.3514C38.7707 40.3465 38.1768 40.2487 37.6171 40.0457C36.6695 39.7056 35.8305 39.1149 35.1012 38.4275C33.478 36.8767 32.3085 34.9332 31.1841 33.008C30.8415 32.4075 30.4659 31.8253 30.1305 31.2199C30.4963 30.6328 30.8561 30.0433 31.2085 29.4477C32.1549 31.0572 33.0988 32.6693 34.0817 34.2568C34.6646 35.1986 35.3085 36.1061 36.0598 36.9207C37.339 38.3174 38.9293 39.4769 40.7561 40.0212C41.8463 40.3612 43.0049 40.4468 44.1378 40.3343C45.0646 40.2291 45.9951 39.9613 46.7683 39.4231C47.4073 38.9816 47.9073 38.3236 48.1049 37.5665C48.2585 36.9635 48.3012 36.303 48.0707 35.7135C47.7805 34.9466 47.1061 34.351 46.3244 34.1259C45.7902 33.9743 45.1963 33.9462 44.6793 34.1724C44.1488 34.3962 43.7085 34.8573 43.5561 35.4187C43.4439 35.9067 43.5146 36.451 43.8037 36.8669C43.7256 36.6394 43.6341 36.4119 43.6159 36.1709C43.5207 35.0983 44.5549 34.0819 45.6232 34.2091C46.4451 34.2739 47.2463 34.7607 47.6049 35.519C48.1183 36.5953 47.7756 37.9897 46.861 38.7419C46.1671 39.3338 45.2659 39.6213 44.3744 39.7313C43.139 39.8818 41.8488 39.7044 40.7366 39.1308C39.8695 38.7052 39.1524 38.0361 38.4902 37.3426C37.5524 36.3189 36.7037 35.2059 36.0207 33.9939C35.6 33.282 35.178 32.5739 34.7512 31.8657C33.5793 29.9357 32.45 27.98 31.3073 26.0328C30.6061 26.0328 29.9049 26.0291 29.2049 26.0353C29.689 26.8547 30.1768 27.673 30.6488 28.501C30.2866 29.0893 29.9293 29.6813 29.5744 30.2745C29.228 29.6862 28.9341 29.0685 28.55 28.5034C27.3488 26.6541 25.6854 25.0519 23.6451 24.1774C24.0159 24.2263 24.3732 24.3462 24.7415 24.4122C26.1622 24.7082 27.6244 24.8574 29.0732 24.7192C30.3207 24.5994 31.5561 24.2349 32.6317 23.583C34.2085 22.6461 35.3744 21.1442 36.178 19.515C36.7671 18.3127 37.0415 16.938 36.8439 15.6048C36.6988 14.5982 36.2927 13.6369 35.7085 12.8076C35.0524 11.8708 34.1854 11.0965 33.2305 10.4764C31.1098 9.10904 28.6 8.46081 26.1049 8.26511C22.6415 8.02417 19.0878 8.52441 15.9159 9.97254L15.9146 9.97498ZM23.1427 3.10738C23.5159 2.70743 24.0756 2.46771 24.6244 2.54843C25.028 2.60225 25.3951 2.81873 25.6817 3.10493C24.9 3.79353 24.5268 4.8356 24.4098 5.85075C24.2939 4.83682 23.9183 3.80209 23.1427 3.10738ZM41.1 48.2501C41.1256 48.085 41.1061 47.9027 41.2049 47.7584C41.5878 48.5094 41.928 49.2811 42.3232 50.0248C42.6183 49.4047 42.9049 48.7809 43.1951 48.1596C43.2634 48.0201 43.3061 47.8587 43.4329 47.7572C43.5341 48.5461 43.6037 49.3399 43.6988 50.1287C43.7122 50.2229 43.7415 50.3208 43.8146 50.3868C43.922 50.4418 44.0463 50.4467 44.1622 50.4785C43.9024 50.5434 43.6341 50.4969 43.3719 50.4859C43.4183 50.2841 43.3756 50.0786 43.3598 49.8768C43.3134 49.4145 43.278 48.9509 43.228 48.4898C42.9073 49.176 42.6098 49.8756 42.2488 50.5409C41.8915 49.8866 41.6024 49.1968 41.2622 48.5338C41.2171 49.1442 41.1354 49.7533 41.1183 50.366C41.1976 50.4321 41.3049 50.4529 41.3976 50.4993C41.1232 50.5152 40.8488 50.5152 40.5756 50.4993C40.678 50.4443 40.8537 50.4467 40.8659 50.3012C40.961 49.6199 41.0195 48.9326 41.1012 48.2489L41.1 48.2501ZM33 47.9309C33.2829 47.7229 33.6573 47.789 33.978 47.8477C33.978 48.0214 33.9707 48.195 33.95 48.3675C33.9085 48.2733 33.8793 48.173 33.8317 48.0825C33.5927 47.7951 32.9793 47.9125 32.9988 48.3394C33.0415 48.7014 33.4171 48.8702 33.6573 49.0952C33.9915 49.3362 34.161 49.8217 33.9476 50.1948C33.7012 50.6094 33.1073 50.6547 32.7085 50.4602C32.6232 50.2963 32.7012 50.0823 32.6951 49.9H32.75C32.7598 50.0761 32.8134 50.2828 32.9951 50.3562C33.2878 50.5238 33.7427 50.3709 33.7732 50.004C33.8134 49.6909 33.5512 49.4768 33.3354 49.3007C33.1024 49.1075 32.8305 48.8995 32.7719 48.5828C32.7281 48.3467 32.7866 48.0666 33 47.9296V47.9309ZM25.7561 47.756C25.8866 47.8893 25.9524 48.0678 26.0305 48.2342C26.3232 48.8372 26.6183 49.4389 26.9073 50.0443C27.2659 49.2909 27.5988 48.5253 27.9744 47.7816C27.9878 47.7914 28.0134 47.811 28.0256 47.822C28.1476 48.6231 28.1817 49.4389 28.3146 50.2376C28.3451 50.4308 28.5598 50.4406 28.7134 50.4651C28.7134 50.4761 28.711 50.4993 28.7098 50.5103C28.4598 50.5128 28.211 50.5067 27.9622 50.4859C28.0049 50.2877 27.9683 50.0872 27.95 49.889C27.9049 49.4291 27.8671 48.9693 27.8195 48.5094C27.5915 48.9766 27.3756 49.4512 27.1524 49.922C27.05 50.13 26.9744 50.3538 26.8293 50.5373C26.4793 49.8915 26.2085 49.2041 25.85 48.5632C25.8 49.0806 25.7585 49.6004 25.7146 50.1177C25.7146 50.2058 25.6902 50.3 25.7256 50.3868C25.8037 50.4321 25.8915 50.4614 25.9732 50.5006C25.7073 50.5116 25.439 50.5152 25.1732 50.4969C25.2598 50.4602 25.3463 50.4272 25.4341 50.3941C25.5841 49.5209 25.622 48.6305 25.7561 47.7547V47.756ZM18.2073 48.3296C18.0902 48.6623 17.9878 48.9998 17.878 49.335C18.1061 49.335 18.3341 49.335 18.5622 49.335C18.4439 48.9998 18.3293 48.6635 18.2073 48.3296ZM18.2317 47.8061C18.2488 47.8061 18.2829 47.8073 18.3 47.8086C18.628 48.5913 18.8951 49.3998 19.2305 50.1801C19.2976 50.3672 19.4756 50.4565 19.6659 50.4736C19.6549 50.4822 19.6341 50.5018 19.6232 50.5116C19.3951 50.5116 19.1671 50.5103 18.9402 50.514C18.9341 50.1483 18.7195 49.8279 18.6183 49.483C18.3524 49.483 18.0866 49.483 17.8207 49.4854C17.739 49.7581 17.6256 50.0211 17.5622 50.3C17.5146 50.4492 17.711 50.4406 17.7976 50.4908C17.522 50.525 17.2439 50.5042 16.9659 50.5116C16.9659 50.5006 16.9659 50.4785 16.9646 50.4675C17.0744 50.437 17.2207 50.4418 17.2805 50.3244C17.4134 50.0994 17.4756 49.8401 17.5707 49.5979C17.7951 49.0011 17.9988 48.3969 18.2317 47.8049V47.8061ZM13.5085 47.9076C13.7927 47.7242 14.1476 47.7902 14.4585 47.8477C14.4561 48.0189 14.4463 48.1902 14.4268 48.3614C14.3866 48.2684 14.3573 48.1706 14.311 48.0813C14.072 47.7927 13.4561 47.9113 13.4768 48.3369C13.5183 48.7149 13.922 48.8824 14.1659 49.1221C14.4963 49.3704 14.6366 49.8731 14.4012 50.2315C14.1256 50.6241 13.5427 50.6461 13.1451 50.4418C13.1537 50.2425 13.1378 50.0382 13.2085 49.8474C13.2463 50.0064 13.2476 50.2021 13.3939 50.3098C13.5988 50.4577 13.9146 50.4663 14.1061 50.2914C14.2902 50.1214 14.2951 49.8132 14.1439 49.6212C13.8988 49.3105 13.5098 49.1344 13.3146 48.7797C13.1671 48.4972 13.2122 48.0776 13.5073 47.9076H13.5085ZM7.27317 47.8697C7.43171 47.8134 7.60122 47.8514 7.76463 47.8465C7.91341 47.8465 8.06585 47.8232 8.21098 47.8624C8.12561 47.9199 7.95488 47.9015 7.94756 48.036C7.9061 48.4115 7.94146 48.7907 7.92927 49.1674C7.92927 49.5172 7.90732 49.922 8.16707 50.1948C8.46829 50.5409 9.10244 50.4724 9.32195 50.0688C9.5 49.7398 9.45244 49.3545 9.45732 48.9962C9.45 48.6782 9.47439 48.3577 9.44634 48.0409C9.41463 47.8954 9.23658 47.9199 9.12927 47.8746C9.38293 47.7902 9.65854 47.8856 9.91951 47.8281C9.92927 47.8697 9.93902 47.9125 9.94878 47.9565C9.86829 47.9247 9.77683 47.8819 9.72805 47.9871C9.63171 48.5852 9.76219 49.2004 9.65 49.7973C9.58902 50.1324 9.33659 50.4186 9.00976 50.5152C8.58415 50.6412 8.04268 50.5556 7.78293 50.1618C7.5878 49.8499 7.60366 49.4646 7.60122 49.1111C7.5939 48.7564 7.61585 48.4005 7.59146 48.0458C7.56463 47.8954 7.37805 47.9211 7.27073 47.8709L7.27317 47.8697ZM34.4537 43.1144C34.8659 43.1046 35.2817 43.1009 35.6939 43.118C35.6024 43.1608 35.5049 43.1853 35.4122 43.2208C35.3524 43.337 35.4451 43.4642 35.4805 43.5767C35.811 44.2726 36.1293 44.9747 36.4695 45.6669C36.528 45.5936 36.5573 45.503 36.5927 45.4187C36.8415 44.7655 37.0988 44.1148 37.3305 43.4544C37.3476 43.381 37.3915 43.3039 37.3671 43.2281C37.2744 43.1878 37.1768 43.1572 37.089 43.1107C37.4317 43.1083 37.7756 43.1021 38.1183 43.1193C37.9854 43.1878 37.8073 43.1902 37.7159 43.3247C37.6037 43.485 37.5402 43.6733 37.4659 43.8531C37.1317 44.6726 36.7976 45.4908 36.4634 46.3103C36.3744 46.5133 36.2598 46.7273 36.0622 46.8423C35.8902 46.9377 35.6841 46.8815 35.5207 46.7971C35.4707 46.5549 35.4707 46.2834 35.5671 46.051C35.6037 46.2626 35.6183 46.5891 35.8939 46.6197C36.1451 46.583 36.2244 46.3017 36.3098 46.0999C35.8451 45.2071 35.4012 44.3044 34.939 43.4104C34.861 43.2049 34.6232 43.2012 34.4549 43.1144H34.4537ZM2.8061 43.1462C2.94878 43.0789 3.10854 43.1034 3.25976 43.107C3.5061 43.1242 3.75366 43.0985 4.00122 43.0972L4.0061 43.1596C3.91829 43.1804 3.82073 43.1804 3.7439 43.2342C3.7439 43.3712 3.80244 43.4984 3.8561 43.6219C4.18049 44.3142 4.50976 45.004 4.82927 45.6987C5.09512 45.0432 5.34512 44.3815 5.59024 43.7173C5.64268 43.5608 5.7122 43.4067 5.73293 43.2416C5.67683 43.1621 5.55488 43.1926 5.47439 43.1633V43.1009C5.80488 43.1156 6.13658 43.1046 6.46707 43.1131C6.33049 43.1878 6.1439 43.1988 6.05488 43.3419C6.00366 43.4152 5.96585 43.4984 5.92927 43.5828C5.56341 44.4818 5.19634 45.3795 4.82805 46.2785C4.72317 46.5182 4.59024 46.7934 4.32195 46.8802C4.16829 46.9084 3.98902 46.8802 3.86585 46.7787C3.85366 46.5476 3.7939 46.2711 3.93049 46.0681C3.95488 46.2675 3.97073 46.5524 4.20732 46.6136C4.46951 46.6332 4.57317 46.325 4.64878 46.1268C4.60488 45.9617 4.50854 45.8174 4.4378 45.6645C4.04634 44.905 3.67195 44.1356 3.27317 43.3798C3.19268 43.1963 2.97073 43.1939 2.8061 43.1474V43.1462ZM38.8512 43.1083C39.2512 43.1058 39.6817 42.9395 40.0573 43.1498C40.4232 43.3382 40.4537 43.8629 40.228 44.1723C40.1305 44.3154 39.9902 44.4194 39.8476 44.5124C40.1512 44.6249 40.4256 44.856 40.5329 45.1691C40.65 45.5777 40.4512 46.0388 40.0951 46.2577C39.639 46.5463 39.0561 46.5304 38.561 46.358C38.5366 46.1109 38.5598 45.8626 38.5866 45.6168C38.6037 45.6168 38.639 45.6168 38.6561 45.618C38.672 45.7477 38.6719 45.8908 38.7524 46.0008C39.0658 46.4485 39.8585 46.3776 40.1012 45.8932C40.2756 45.4994 40.1134 44.9881 39.7305 44.7863C39.5329 44.6603 39.2927 44.6995 39.0719 44.6787C39.0951 44.4463 39.3622 44.5894 39.511 44.5283C39.8585 44.4059 40.0585 43.995 40.0085 43.6403C39.9476 43.2452 39.3915 43.0789 39.1061 43.337C38.9207 43.4703 38.8732 43.6978 38.7695 43.8861C38.7427 43.6219 38.811 43.3639 38.8524 43.107L38.8512 43.1083ZM32.9622 43.4507C33.0366 43.2978 33.0866 43.1229 33.2207 43.008C33.3439 43.7846 33.3988 44.5735 33.4939 45.3551C33.5378 45.6376 33.5195 45.936 33.6329 46.2026C33.7329 46.391 33.9793 46.3457 34.1524 46.4057C33.8158 46.495 33.4573 46.4387 33.1134 46.4363C33.1354 46.4094 33.1768 46.3555 33.1988 46.3286C33.1366 45.5226 33.0573 44.7178 32.9781 43.913C32.589 44.7655 32.1866 45.6119 31.7854 46.4583C31.728 46.4142 31.6707 46.3665 31.6415 46.298C31.2402 45.53 30.8683 44.7472 30.5159 43.9546C30.4488 44.7264 30.3744 45.4969 30.3232 46.2699C30.4305 46.3482 30.5622 46.3751 30.6866 46.4155C30.5085 46.4717 30.3219 46.435 30.139 46.4375C29.9817 46.4375 29.8195 46.4681 29.6683 46.4142C29.7915 46.3555 30.0159 46.3775 30.0256 46.1904C30.1341 45.3612 30.2146 44.5282 30.3073 43.6966C30.3402 43.4617 30.3268 43.2159 30.428 42.997C30.9293 43.9338 31.3622 44.9074 31.8366 45.859C32.2171 45.0578 32.5878 44.2518 32.9634 43.4483L32.9622 43.4507ZM26.2293 43.1633C26.2756 43.0997 26.3378 43.0508 26.4024 43.0092C26.4073 44.0977 26.3659 45.1899 26.4427 46.276C26.5707 46.3617 26.7256 46.3702 26.8707 46.4057C26.7037 46.4815 26.5183 46.4412 26.3427 46.4399C26.1183 46.4216 25.8902 46.4791 25.6683 46.4204C25.7756 46.3604 25.9768 46.3678 25.9841 46.2014C26.0585 45.4138 26.0195 44.62 26.0244 43.8299C25.261 44.6652 24.572 45.5654 23.8817 46.4595C23.8402 46.5035 23.7927 46.5414 23.7402 46.572C23.7512 45.5116 23.7415 44.4524 23.7232 43.3945C23.7305 43.1804 23.4707 43.189 23.3293 43.1449C23.4524 43.0728 23.5976 43.1034 23.7317 43.1058C23.978 43.1266 24.2268 43.0862 24.4732 43.1131C24.3524 43.1951 24.1207 43.1963 24.1341 43.3932C24.1183 44.1772 24.1061 44.9637 24.1171 45.7477C24.8512 44.9111 25.55 44.0451 26.2293 43.1621V43.1633ZM7.44512 43.436C7.79756 43.1462 8.26341 43.0361 8.7122 43.0398C9.1 43.0349 9.47927 43.1229 9.86098 43.1719C9.84146 43.4397 9.84146 43.7112 9.81463 43.9791C9.8 43.9925 9.77195 44.0195 9.75732 44.0317C9.75488 43.765 9.65 43.4862 9.39512 43.3688C8.97683 43.1743 8.47805 43.1804 8.04512 43.3235C7.67317 43.4446 7.41463 43.7883 7.3378 44.165C7.25366 44.5845 7.25854 45.0468 7.46707 45.4309C7.70854 45.925 8.22927 46.2724 8.78049 46.2883C9.05366 46.2944 9.36098 46.2944 9.58415 46.1097C9.72927 45.98 9.7561 45.7733 9.83049 45.6033C9.91707 45.8455 9.81098 46.1121 9.75244 46.3531C9.58902 46.4693 9.37683 46.4766 9.18537 46.4986C8.6439 46.5402 8.06341 46.4925 7.59634 46.1892C6.69024 45.6095 6.62439 44.1197 7.44634 43.4373L7.44512 43.436ZM25.3439 6.65432C25.4646 5.7896 25.7085 4.91265 26.239 4.20448C26.5915 3.72871 27.1037 3.37034 27.6854 3.24559C27.4854 3.06824 27.2695 2.91047 27.0378 2.7796C25.8988 3.70302 25.3451 5.21353 25.3439 6.65554V6.65432ZM21.1354 3.24437C21.6293 3.35322 22.0805 3.62597 22.4159 4.0039C23.0585 4.72919 23.3305 5.69542 23.4768 6.63475C23.4646 5.19885 22.9146 3.70058 21.7829 2.77715C21.5488 2.9068 21.3354 3.06824 21.1354 3.24437ZM22.2561 7.62544C23.1756 7.51904 24.1 7.38694 25.0268 7.46277C25.5366 7.48601 26.039 7.58141 26.5463 7.62055C25.2024 7.0188 23.6012 7.02858 22.2573 7.62544H22.2561ZM22.1659 2.72945C22.872 3.05112 23.3866 3.6859 23.7 4.38305C24.0122 5.0851 24.1841 5.84953 24.2085 6.61762C24.339 6.61885 24.4695 6.62007 24.6 6.62252C24.6585 5.62448 24.9012 4.61055 25.4598 3.77029C25.7573 3.32754 26.1646 2.94716 26.6561 2.73067C25.5207 3.6859 25.0402 5.20863 24.9634 6.65187C25.4659 6.7277 25.9415 6.94908 26.4549 6.94786C26.9719 6.96253 27.511 6.74116 27.811 6.30696C28.439 5.42023 28.2488 4.02714 27.3439 3.39847C27.8085 3.58071 28.1573 3.98922 28.3134 4.45766C28.5634 5.19763 28.4695 6.0599 28.0293 6.71058C27.7805 7.08362 27.4085 7.36126 26.9902 7.51414C26.9305 7.69638 26.872 7.87984 26.8122 8.06331C25.2171 7.86394 23.5963 7.86639 22.0012 8.06331C21.9451 7.87984 21.8878 7.69638 21.8268 7.51414C21.3829 7.3527 20.9915 7.0457 20.7427 6.64086C20.3354 5.98651 20.2585 5.14137 20.5183 4.41852C20.6793 3.96721 21.022 3.58438 21.4659 3.39847C20.6 4.00635 20.4012 5.31137 20.9329 6.20178C21.2122 6.67756 21.761 6.94908 22.3037 6.94786C22.8378 6.96498 23.3317 6.73137 23.8524 6.65309C23.7841 5.20741 23.2902 3.69201 22.1646 2.72823L22.1659 2.72945ZM23.9988 0.432502C24.2719 0.432502 24.5439 0.430056 24.8159 0.432502C24.7415 0.667334 24.661 0.899719 24.5963 1.137C24.7756 1.05383 24.9402 0.94375 25.0915 0.81655C25.0939 1.16513 25.0915 1.51371 25.0927 1.86228C24.9415 1.74609 24.7805 1.64458 24.6085 1.56508C24.6622 1.84149 24.7585 2.1069 24.8585 2.36864C24.5622 2.28669 24.2537 2.28914 23.9585 2.37109C24.061 2.1069 24.1561 1.83905 24.211 1.56018C24.039 1.64213 23.8756 1.73998 23.7256 1.85862C23.7268 1.51126 23.7256 1.16513 23.728 0.817773C23.878 0.94375 24.0415 1.05016 24.2171 1.13455C24.1561 0.894827 24.0829 0.659995 23.9963 0.428833L23.9988 0.432502ZM11.1122 47.9382C11.3988 47.7205 11.7829 47.7841 12.1098 47.8501C12.0988 48.0226 12.0988 48.195 12.0854 48.3675C12.0232 48.2599 12.0037 48.1278 11.9207 48.036C11.7415 47.9064 11.4756 47.8819 11.2878 48.0055C11.1037 48.1253 11.0817 48.4066 11.2049 48.5791C11.4415 48.8983 11.8451 49.0512 12.0512 49.3973C12.2427 49.7104 12.2 50.1777 11.8902 50.4003C11.5744 50.6265 11.1488 50.5984 10.8037 50.4602C10.7963 50.2608 10.7817 50.0541 10.8512 49.8633C10.8939 50.0419 10.9159 50.2633 11.1061 50.3501C11.4207 50.5421 11.9098 50.3452 11.9037 49.9477C11.872 49.4793 11.3671 49.3019 11.1037 48.9815C10.8268 48.7112 10.7793 48.1853 11.111 47.9394L11.1122 47.9382ZM5.11341 47.9847C5.11341 48.3932 5.10732 48.8029 5.11707 49.2127C5.3378 49.2555 5.60854 49.3264 5.79756 49.1637C6.03902 48.8775 6.02073 48.4091 5.78293 48.1253C5.60854 47.948 5.34146 47.9504 5.11341 47.9847ZM4.48049 47.8722C4.61951 47.8147 4.76951 47.8465 4.91585 47.8465C5.23658 47.8538 5.56951 47.7951 5.87927 47.9076C6.1439 48.0042 6.31951 48.2978 6.27195 48.5779C6.25122 48.8665 6.0561 49.1001 5.86098 49.297C6.12561 49.6261 6.36585 49.9771 6.67073 50.2706C6.81341 50.4198 7.02561 50.4272 7.20976 50.4944C6.90976 50.5054 6.5378 50.5886 6.30976 50.3367C6.04146 50.0456 5.82927 49.708 5.5878 49.3961C5.43049 49.3851 5.27439 49.379 5.11707 49.3778C5.11707 49.6774 5.09634 49.9795 5.13415 50.2792C5.14146 50.4614 5.35976 50.4345 5.48415 50.4981C5.16707 50.5189 4.84756 50.5189 4.53049 50.4981C4.60244 50.4626 4.68049 50.4382 4.75732 50.4174C4.83415 50.1459 4.81585 49.8621 4.81707 49.5832C4.81585 49.1295 4.81707 48.6745 4.81707 48.2207C4.80732 48.1339 4.82195 48.0299 4.76341 47.959C4.67805 47.9076 4.57439 47.9027 4.48171 47.8709L4.48049 47.8722ZM41.6902 43.1266C42.3232 43.0654 42.9671 43.1767 43.5988 43.0679C43.5585 43.277 43.5646 43.496 43.4976 43.7002C43.4402 43.5804 43.4476 43.3932 43.2927 43.3504C43.039 43.277 42.7683 43.3052 42.5073 43.2942C42.5073 43.7186 42.5073 44.1442 42.5073 44.5698C42.8415 44.5393 43.2341 44.6726 43.5195 44.439C43.4915 44.6738 43.4988 44.9147 43.4329 45.1447C43.3744 45.0334 43.4061 44.8426 43.261 44.801C43.0549 44.7411 42.8354 44.7655 42.6232 44.7472C42.628 44.757 42.6378 44.7765 42.6427 44.7875C42.6098 44.7741 42.5439 44.7484 42.511 44.7362C42.5122 45.1814 42.4939 45.629 42.5195 46.0742C42.5524 46.2516 42.7537 46.2614 42.8963 46.2699C43.078 46.2711 43.2707 46.2858 43.4415 46.2137C43.6012 46.1403 43.578 45.925 43.6902 45.8113C43.6622 46.0155 43.7341 46.3139 43.5549 46.4558C43.0561 46.495 42.5573 46.4118 42.0585 46.4448C41.9573 46.4522 41.8561 46.4436 41.7598 46.413C41.8512 46.3837 41.9439 46.358 42.0378 46.3335C42.1256 46.0999 42.1037 45.8467 42.1183 45.6033C42.1268 45.0872 42.1183 44.5698 42.1219 44.0537C42.1195 43.7809 42.1354 43.5033 42.0646 43.2367C41.9378 43.2049 41.811 43.1719 41.689 43.1266H41.6902ZM47.7159 43.1853C47.7634 43.1156 47.8268 43.0593 47.9037 43.0226C47.9183 43.9412 47.9037 44.8597 47.9122 45.777C47.9244 45.947 47.911 46.128 47.9768 46.2883C48.0854 46.3861 48.2537 46.3555 48.3866 46.4069C48.1646 46.4864 47.9268 46.4301 47.6988 46.4363C47.5232 46.4363 47.3427 46.4729 47.1732 46.4142C47.2732 46.358 47.4622 46.3763 47.4841 46.2283C47.528 46.0424 47.5232 45.8492 47.5256 45.6596C47.5219 45.0481 47.528 44.4377 47.5219 43.8262C47.0463 44.3607 46.5939 44.9172 46.1488 45.4774C45.8415 45.8382 45.5927 46.2491 45.2585 46.5843C45.2159 45.8602 45.2512 45.1337 45.2402 44.4084C45.228 44.0549 45.2659 43.6978 45.2207 43.3468C45.1927 43.1645 44.9561 43.1988 44.828 43.1437C44.9671 43.0728 45.1268 43.107 45.2756 43.1083C45.5073 43.1242 45.739 43.0875 45.9707 43.1107C45.8756 43.167 45.7634 43.1939 45.678 43.2648C45.6159 43.3993 45.6317 43.5522 45.6244 43.6978C45.6293 44.3827 45.6183 45.0689 45.6305 45.7538C46.3427 44.9111 47.05 44.0635 47.7171 43.1841L47.7159 43.1853ZM11.389 43.4654C11.7439 43.1535 12.2293 43.0349 12.6915 43.041C13.0805 43.0349 13.461 43.1205 13.8439 43.1743C13.8232 43.4091 13.8159 43.6464 13.8024 43.8825C13.8134 43.9461 13.7695 43.9974 13.7415 44.05C13.7122 43.8286 13.6854 43.5742 13.4817 43.4397C13.0963 43.1804 12.5902 43.1841 12.1524 43.2844C11.7805 43.3688 11.4646 43.6525 11.3549 44.0207C11.1951 44.5429 11.2244 45.1508 11.5463 45.6082C11.8305 46.0412 12.3451 46.3078 12.8622 46.2919C13.1122 46.2895 13.3939 46.2724 13.5829 46.0877C13.7232 45.9568 13.7122 45.7379 13.8439 45.6033C13.8451 45.8577 13.8085 46.1146 13.7256 46.3555C13.6159 46.4546 13.4549 46.4558 13.3171 46.4852C12.7146 46.55 12.0524 46.5194 11.5354 46.166C10.6744 45.574 10.6146 44.1552 11.3878 43.4678L11.389 43.4654ZM24.511 42.4943C24.5866 42.4025 24.6646 42.312 24.7427 42.224C24.8354 42.4062 24.9793 42.6153 25.2134 42.5848C25.4988 42.6166 25.7012 42.3891 25.9488 42.2974C25.8402 42.5383 25.6073 42.6936 25.3744 42.7964C25.0671 42.9236 24.6268 42.8477 24.511 42.4955V42.4943ZM21.5805 43.1498C21.6207 43.0875 21.6805 43.0483 21.7524 43.0361C21.728 43.8898 21.7427 44.7447 21.7439 45.5997C21.7585 45.8149 21.7415 46.0351 21.7927 46.2455C21.8634 46.4069 22.0866 46.3445 22.222 46.4081C22.0195 46.4791 21.8024 46.435 21.5927 46.435C21.3988 46.4265 21.1976 46.4791 21.0098 46.413C21.1012 46.358 21.2573 46.3788 21.3061 46.2626C21.3512 46.1256 21.3488 45.9776 21.3537 45.8357C21.3524 45.1655 21.3537 44.494 21.3537 43.8238C20.6598 44.6175 19.9976 45.4394 19.3598 46.2797C19.278 46.3886 19.1927 46.4937 19.0915 46.583C19.0598 46.3555 19.0719 46.1256 19.0695 45.8969C19.0695 45.1031 19.0695 44.3093 19.0695 43.5168C19.0659 43.414 19.0671 43.2893 18.9768 43.2232C18.889 43.189 18.7939 43.1804 18.7024 43.1621V43.0985C19.0695 43.1156 19.4378 43.1034 19.8061 43.1083C19.7098 43.167 19.5963 43.1951 19.5073 43.2648C19.4707 43.3419 19.4732 43.4299 19.4695 43.5143C19.4427 44.2592 19.4585 45.004 19.4561 45.7489C20.1963 44.9086 20.8951 44.0341 21.5805 43.1486V43.1498ZM46.0378 42.5102C46.0549 42.3854 46.1817 42.3145 46.261 42.2289C46.3329 42.3646 46.4061 42.5273 46.5695 42.5701C46.7744 42.6092 46.9988 42.5725 47.1707 42.4502C47.2634 42.394 47.3439 42.29 47.4646 42.312C47.2439 42.6386 46.8585 42.9064 46.4488 42.8404C46.2659 42.8172 46.0768 42.6997 46.0366 42.5089L46.0378 42.5102ZM0 43.1144C0.292683 43.0826 0.587805 43.1339 0.880488 43.107C1.25732 43.0899 1.69024 43.0838 1.98659 43.3553C2.30732 43.6794 2.24512 44.2286 1.97683 44.5662C1.72927 44.8658 1.30122 45.0028 0.92561 44.9147C1.11707 44.8096 1.36463 44.8609 1.54146 44.7142C2.02927 44.3864 1.89878 43.5571 1.39146 43.3186C1.20488 43.2306 0.993903 43.2403 0.795122 43.2734C0.792683 44.1307 0.795122 44.9869 0.795122 45.8431C0.80122 45.9935 0.795122 46.1537 0.859756 46.2919C0.968293 46.3824 1.12805 46.3604 1.25732 46.4057C1.0439 46.4901 0.812195 46.4277 0.590244 46.4363C0.415854 46.4338 0.234146 46.4791 0.0658538 46.4118C0.168293 46.3616 0.347561 46.3751 0.369512 46.2283C0.447561 45.7856 0.395122 45.333 0.410976 44.8854C0.396342 44.3423 0.443903 43.7956 0.379269 43.2562C0.252439 43.2122 0.123171 43.1719 0.00121954 43.1131L0 43.1144ZM31.1024 47.767C31.3232 47.9321 31.611 47.7878 31.8585 47.8636C31.761 47.915 31.5829 47.9088 31.5866 48.0593C31.5439 48.6256 31.6256 49.1992 31.5305 49.763C31.4768 50.1006 31.2402 50.4052 30.9098 50.5067C30.5439 50.618 30.1061 50.5837 29.8049 50.3305C29.6122 50.1605 29.5195 49.9074 29.4963 49.6566C29.4524 49.1185 29.5171 48.5754 29.4634 48.0385C29.4451 47.8905 29.2488 47.9223 29.15 47.8709C29.2719 47.8134 29.4085 47.8465 29.5378 47.8452C29.7219 47.8526 29.9073 47.8257 30.0902 47.8575C30.0146 47.8881 29.9378 47.9137 29.8646 47.948C29.7927 48.0177 29.8159 48.129 29.8085 48.2195C29.8122 48.6562 29.8085 49.0928 29.8098 49.5282C29.8195 49.7802 29.8817 50.0578 30.0768 50.2339C30.3744 50.5165 30.9134 50.4651 31.1524 50.1312C31.3 49.9233 31.3244 49.6579 31.3354 49.4108C31.339 49.0524 31.3341 48.6941 31.3378 48.3357C31.3341 48.2097 31.3415 48.0764 31.289 47.959C31.2134 47.9076 31.1159 47.9125 31.0317 47.8917C31.0537 47.8489 31.0768 47.8073 31.1 47.7657L31.1024 47.767ZM20.3817 47.8061C20.3963 47.8037 20.4244 47.7963 20.439 47.7927C21.1293 48.5265 21.8122 49.2689 22.4927 50.015C22.4744 49.456 22.4707 48.8971 22.4537 48.3369C22.45 48.2073 22.4598 48.0703 22.3963 47.9517C22.2939 47.9137 22.1841 47.9003 22.0793 47.8746C22.2085 47.8171 22.3488 47.8452 22.4854 47.844C22.6427 47.8501 22.8037 47.8208 22.9573 47.8648C22.8598 47.9174 22.6756 47.9088 22.6829 48.0581C22.6488 48.8934 22.7085 49.7325 22.6512 50.5666C21.8927 49.8976 21.2378 49.1172 20.5524 48.3748C20.5659 48.9962 20.5695 49.6187 20.6085 50.2388C20.5963 50.4259 20.8378 50.5152 20.9768 50.4125C20.9634 50.4553 20.9488 50.5262 20.8841 50.5067C20.6268 50.5177 20.3683 50.5067 20.111 50.5103C20.111 50.4993 20.1098 50.4785 20.1085 50.4675C20.2 50.4296 20.3549 50.4418 20.3488 50.3036C20.3854 49.4719 20.3683 48.6378 20.3817 47.8049V47.8061ZM34.9707 47.8697C35.1329 47.8061 35.3085 47.855 35.4781 47.8477C35.8146 47.844 36.1549 47.8673 36.4902 47.8134C36.4671 47.9835 36.4476 48.1559 36.411 48.3259C36.3561 48.2342 36.3683 48.0801 36.2476 48.0434C36.0427 47.981 35.8256 48.0018 35.6146 47.9969C35.611 48.3381 35.6122 48.6806 35.6146 49.0231C35.8878 49.0096 36.1915 49.0744 36.4341 48.913C36.4085 49.1038 36.3902 49.2958 36.3646 49.4878C36.3073 49.3912 36.328 49.2053 36.1829 49.1894C35.9939 49.1625 35.8037 49.165 35.6134 49.1564C35.628 49.5233 35.5768 49.8988 35.6415 50.2621C35.789 50.4308 36.061 50.3697 36.261 50.3562C36.45 50.3452 36.4878 50.1349 36.5451 49.9954C36.5561 50.1667 36.5854 50.3721 36.478 50.5177C35.9951 50.547 35.5122 50.503 35.0293 50.5079C35.1415 50.4516 35.2951 50.4064 35.2841 50.251C35.3195 49.5355 35.3 48.8151 35.2963 48.0996C35.3098 47.9162 35.0939 47.9162 34.9732 47.8734L34.9707 47.8697Z" fill="white" style="fill:white;fill-opacity:1;"/>
<path d="M81.2899 26.4428L82.2327 25.5L87.4182 30.6854L86.4754 31.6283L81.2899 26.4428Z" fill="white" style="fill:white;fill-opacity:1;"/>
<path d="M75.1616 20.3146L76.1045 19.3717L81.2899 24.5572L80.3471 25.5L75.1616 20.3146Z" fill="white" style="fill:white;fill-opacity:1;"/>
<path d="M80.3471 25.5L81.2899 26.4428L76.1044 31.6282L75.1616 30.6854L80.3471 25.5Z" fill="white" style="fill:white;fill-opacity:1;"/>
<path d="M86.4753 19.3717L87.4181 20.3145L82.2327 25.5L81.2899 24.5572L86.4753 19.3717Z" fill="white" style="fill:white;fill-opacity:1;"/>
<g clip-path="url(#clip0_225_339)">
<path d="M115.372 16.9141H119.91V18.4935H121.053V15.8709H120.282V10.4263H115.981L115.499 14.419C115.439 14.9335 115.359 15.3037 115.259 15.5307C115.16 15.7576 115.025 15.8709 114.855 15.8709H114.22V18.4935H115.372V16.9141ZM116.398 15.5627C116.518 15.2963 116.607 14.9635 116.661 14.5642L117.044 11.47H119.066V15.8709H116.207C116.279 15.7793 116.345 15.68 116.398 15.5627ZM122.75 16.7511C123.149 16.9564 123.611 17.0598 124.138 17.0598C124.573 17.0598 124.971 16.985 125.331 16.8373C125.691 16.6891 125.986 16.4853 126.216 16.2248L125.581 15.4898C125.205 15.9132 124.746 16.1249 124.201 16.1249C123.905 16.1249 123.644 16.0663 123.416 15.9482C123.19 15.83 123.012 15.6577 122.882 15.4307C122.808 15.3034 122.761 15.1572 122.729 14.9999H126.28V14.5913C126.28 14.1197 126.18 13.7051 125.98 13.3482C125.78 12.9913 125.504 12.7116 125.15 12.5088C124.796 12.3064 124.392 12.205 123.938 12.205C123.472 12.205 123.054 12.3079 122.682 12.5132C122.31 12.719 122.016 13.0051 121.802 13.3708C121.587 13.7371 121.48 14.1591 121.48 14.6371C121.48 15.1147 121.591 15.5351 121.815 15.8984C122.039 16.2613 122.35 16.5458 122.75 16.7511ZM122.845 13.8248C122.951 13.6037 123.097 13.4344 123.285 13.3167C123.472 13.1985 123.69 13.1395 123.938 13.1395C124.175 13.1395 124.378 13.1971 124.551 13.3118C124.723 13.427 124.86 13.5875 124.959 13.7928C125.023 13.9245 125.059 14.0764 125.082 14.2378H122.721C122.747 14.0885 122.786 13.9487 122.845 13.8248ZM128.437 13.3118H130.352V16.9141H131.551V12.3503H127.24V16.9141H128.437V13.3118ZM133.539 14.2467C133.203 14.3678 132.945 14.5386 132.763 14.7592C132.582 14.9802 132.491 15.2481 132.491 15.5627C132.491 15.859 132.565 16.119 132.714 16.343C132.862 16.567 133.069 16.7423 133.335 16.8693C133.601 16.9958 133.91 17.0598 134.261 17.0598C134.648 17.0598 134.988 16.9791 135.282 16.8191C135.498 16.7012 135.667 16.5377 135.812 16.3522V16.9141H136.902V14.1108C136.902 13.7051 136.808 13.362 136.62 13.0804C136.433 12.7993 136.169 12.5831 135.83 12.432C135.491 12.2808 135.102 12.205 134.66 12.205C134.255 12.205 133.88 12.273 133.535 12.4093C133.19 12.5452 132.897 12.7343 132.655 12.9765L133.281 13.7022C133.45 13.5205 133.648 13.3802 133.875 13.2803C134.102 13.1803 134.345 13.1306 134.605 13.1306C134.963 13.1306 135.243 13.2182 135.449 13.3935C135.637 13.5542 135.729 13.7832 135.745 14.065H134.706C134.264 14.065 133.875 14.1256 133.539 14.2467ZM135.758 14.8458V15.4014C135.728 15.4689 135.7 15.5371 135.658 15.5986C135.537 15.7744 135.38 15.9117 135.186 16.0117C134.992 16.1116 134.778 16.1613 134.542 16.1613C134.294 16.1613 134.093 16.1042 133.939 15.989C133.784 15.8743 133.707 15.7168 133.707 15.5169C133.707 15.2993 133.807 15.1329 134.007 15.0182C134.207 14.903 134.469 14.8458 134.796 14.8458H135.758ZM139.155 16.3023C139.291 16.501 139.455 16.6762 139.673 16.8058C139.956 16.9751 140.295 17.0598 140.689 17.0598C141.118 17.0598 141.505 16.9564 141.851 16.7511C142.195 16.5458 142.47 16.2613 142.676 15.8984C142.882 15.5351 142.985 15.1147 142.985 14.6371C142.985 14.1531 142.884 13.7293 142.681 13.3664C142.478 13.0036 142.204 12.719 141.86 12.5132C141.515 12.3079 141.134 12.205 140.716 12.205C140.384 12.205 140.086 12.273 139.826 12.4093C139.566 12.5452 139.357 12.7313 139.196 12.9671C139.176 12.9973 139.165 13.0323 139.146 13.0634V12.3503H137.957V18.6746H139.155V16.3023ZM139.155 14.6642C139.155 14.3619 139.211 14.1029 139.323 13.8883C139.435 13.6736 139.589 13.5057 139.786 13.3846C139.983 13.2635 140.207 13.203 140.462 13.203C140.722 13.203 140.948 13.2635 141.138 13.3846C141.329 13.5057 141.477 13.6736 141.583 13.8883C141.688 14.1029 141.741 14.3525 141.741 14.6371C141.741 14.9094 141.685 15.154 141.573 15.3721C141.462 15.5897 141.306 15.7591 141.106 15.8802C140.906 16.0013 140.674 16.0614 140.407 16.0614C140.184 16.0614 139.976 16.0176 139.786 15.9299C139.595 15.8423 139.439 15.7182 139.318 15.5577C139.245 15.4614 139.195 15.3538 139.155 15.2407V14.6642ZM145.028 16.9141H146.226V13.3118H147.768V12.3503H143.485V13.3118H145.028V16.9141ZM149.472 14.2467C149.136 14.3678 148.878 14.5386 148.696 14.7592C148.515 14.9802 148.424 15.2481 148.424 15.5627C148.424 15.859 148.498 16.119 148.647 16.343C148.794 16.567 149.002 16.7423 149.268 16.8693C149.534 16.9958 149.843 17.0598 150.193 17.0598C150.58 17.0598 150.921 16.9791 151.214 16.8191C151.431 16.7012 151.6 16.5377 151.745 16.3522V16.9141H152.834V14.1108C152.834 13.7051 152.741 13.362 152.553 13.0804C152.366 12.7993 152.102 12.5831 151.763 12.432C151.424 12.2808 151.034 12.205 150.593 12.205C150.188 12.205 149.812 12.273 149.468 12.4093C149.123 12.5452 148.83 12.7343 148.587 12.9765L149.214 13.7022C149.383 13.5205 149.581 13.3802 149.807 13.2803C150.035 13.1803 150.278 13.1306 150.538 13.1306C150.895 13.1306 151.176 13.2182 151.382 13.3935C151.57 13.5542 151.662 13.7832 151.678 14.065H150.638C150.196 14.065 149.807 14.1256 149.472 14.2467ZM151.691 14.8458V15.4014C151.661 15.4689 151.633 15.5371 151.591 15.5986C151.47 15.7744 151.313 15.9117 151.119 16.0117C150.925 16.1116 150.71 16.1613 150.475 16.1613C150.227 16.1613 150.026 16.1042 149.871 15.989C149.717 15.8743 149.64 15.7168 149.64 15.5169C149.64 15.2993 149.739 15.1329 149.939 15.0182C150.139 14.903 150.402 14.8458 150.729 14.8458H151.691ZM154.887 13.945L156.194 16.4429H156.965L158.299 13.8923V16.9141H159.369V12.3503H158.099L156.606 15.2422L155.077 12.3503H153.852V16.9141H154.887V13.945ZM161.468 16.7511C161.866 16.9564 162.329 17.0598 162.856 17.0598C163.291 17.0598 163.689 16.985 164.049 16.8373C164.409 16.6891 164.704 16.4853 164.934 16.2248L164.298 15.4898C163.923 15.9132 163.463 16.1249 162.919 16.1249C162.623 16.1249 162.362 16.0663 162.134 15.9482C161.908 15.83 161.729 15.6577 161.6 15.4307C161.526 15.3034 161.478 15.1572 161.446 14.9999H164.998V14.5913C164.998 14.1197 164.898 13.7051 164.698 13.3482C164.498 12.9913 164.222 12.7116 163.868 12.5088C163.514 12.3064 163.11 12.205 162.656 12.205C162.19 12.205 161.772 12.3079 161.4 12.5132C161.027 12.719 160.734 13.0051 160.519 13.3708C160.305 13.7371 160.197 14.1591 160.197 14.6371C160.197 15.1147 160.309 15.5351 160.533 15.8984C160.757 16.2613 161.068 16.5458 161.468 16.7511ZM161.563 13.8248C161.668 13.6037 161.815 13.4344 162.003 13.3167C162.19 13.1985 162.408 13.1395 162.656 13.1395C162.892 13.1395 163.096 13.1971 163.268 13.3118C163.441 13.427 163.578 13.5875 163.677 13.7928C163.741 13.9245 163.777 14.0764 163.8 14.2378H161.439C161.465 14.0885 161.504 13.9487 161.563 13.8248ZM169.087 16.9141H170.284V12.3503H169.087V14.0379H167.054V12.3503H165.856V16.9141H167.054V14.9999H169.087V16.9141ZM173.918 16.9141V13.3118H175.461V12.3503H171.178V13.3118H172.721V16.9141H173.918ZM114.22 23.4403V28.0051H115.418V25.9251L117.315 28.0051H119.092L116.641 25.6644L118.639 23.4403H117.206L115.418 25.435V23.4403H114.22ZM120.841 28.6629C120.717 28.7446 120.565 28.7859 120.384 28.7859H119.857V29.7657H120.447C120.889 29.7657 121.242 29.6613 121.509 29.4526C121.775 29.2438 121.995 28.9366 122.171 28.5319L124.34 23.4403H123.133L121.823 26.8255L120.528 23.4403H119.286L121.236 28.014L121.137 28.2769C121.064 28.4531 120.965 28.5811 120.841 28.6629ZM128.952 28.0051V23.4403H125.367L125.077 26.5439C125.059 26.7192 125.012 26.8432 124.936 26.9161C124.861 26.989 124.738 27.0254 124.569 27.0254H124.261V28.0051H124.786C125.234 28.0051 125.565 27.9175 125.781 27.7422C125.995 27.567 126.126 27.2489 126.175 26.7891L126.414 24.4023H127.754V28.0051H128.952ZM130.073 23.4403V28.0051H132.351C132.72 28.0051 133.042 27.9382 133.318 27.8052C133.592 27.6723 133.807 27.4852 133.962 27.243C134.116 27.0008 134.193 26.7133 134.193 26.3805C134.193 25.9275 134.027 25.5553 133.694 25.2649C133.361 24.9744 132.914 24.8287 132.351 24.8287H131.225V23.4403H130.073ZM132.242 25.8005C132.478 25.8005 132.658 25.8527 132.782 25.959C132.906 26.0644 132.968 26.217 132.968 26.4169C132.968 26.6168 132.906 26.7714 132.782 26.8797C132.658 26.989 132.478 27.0431 132.242 27.0431H131.225V25.8005H132.242ZM136.992 28.0051V24.4023H138.535V23.4403H134.252V24.4023H135.795V28.0051H136.992ZM144.172 23.4403H142.965L141.655 26.8255L140.36 23.4403H139.118L141.068 28.014L140.969 28.2769C140.896 28.4531 140.798 28.5811 140.673 28.6629C140.549 28.7446 140.397 28.7859 140.216 28.7859H139.689V29.7657H140.279C140.721 29.7657 141.074 29.6613 141.341 29.4526C141.607 29.2438 141.827 28.9366 142.003 28.5319L144.172 23.4403ZM149.506 26.989C149.712 26.6256 149.815 26.2052 149.815 25.7276C149.815 25.2432 149.713 24.8198 149.511 24.4575C149.308 24.0941 149.034 23.8096 148.689 23.6038C148.345 23.398 147.964 23.2956 147.546 23.2956C147.213 23.2956 146.916 23.3635 146.656 23.4994C146.396 23.6353 146.186 23.8214 146.026 24.0577C146.005 24.0879 145.994 24.1229 145.976 24.154V23.4403H144.787V29.7657H145.985V27.3929C146.121 27.5912 146.285 27.7662 146.503 27.8958C146.786 28.0652 147.125 28.1499 147.519 28.1499C147.948 28.1499 148.335 28.0475 148.681 27.8417C149.025 27.6359 149.3 27.3513 149.506 26.989ZM148.403 26.4622C148.292 26.6798 148.136 26.8501 147.936 26.9703C147.736 27.0914 147.504 27.1524 147.237 27.1524C147.014 27.1524 146.806 27.1081 146.616 27.0205C146.425 26.9328 146.269 26.8088 146.148 26.6483C146.075 26.5516 146.024 26.4442 145.985 26.3314V25.7542C145.985 25.4519 146.041 25.194 146.153 24.9783C146.265 24.7637 146.419 24.5963 146.616 24.4752C146.813 24.3541 147.037 24.294 147.292 24.294C147.552 24.294 147.778 24.3541 147.968 24.4752C148.159 24.5963 148.306 24.7637 148.413 24.9783C148.518 25.194 148.571 25.4431 148.571 25.7276C148.571 25.9994 148.515 26.2446 148.403 26.4622ZM155.364 28.0051H156.562V23.4403H155.364V28.0051ZM151.934 23.4403H150.782V28.0051H153.032C153.395 28.0051 153.716 27.9382 153.994 27.8052C154.272 27.6723 154.487 27.4852 154.639 27.243C154.789 27.0008 154.865 26.7133 154.865 26.3805C154.865 25.9275 154.699 25.5553 154.366 25.2649C154.033 24.9744 153.589 24.8287 153.032 24.8287H151.934V23.4403ZM152.915 25.8005C153.15 25.8005 153.332 25.8527 153.459 25.959C153.586 26.0644 153.649 26.217 153.649 26.4169C153.649 26.6168 153.586 26.7714 153.459 26.8797C153.332 26.989 153.15 27.0431 152.915 27.0431H151.934V25.8005H152.915ZM114.22 39.0962H115.418V35.4933H117.578V34.5314H114.22V39.0962ZM121.767 34.6997C121.386 34.491 120.947 34.3866 120.452 34.3866C119.956 34.3866 119.517 34.491 119.135 34.6997C118.754 34.9085 118.458 35.194 118.246 35.5573C118.035 35.9197 117.929 36.3411 117.929 36.8187C117.929 37.2903 118.035 37.7078 118.246 38.0711C118.458 38.4335 118.754 38.72 119.135 38.9288C119.517 39.1365 119.956 39.2409 120.452 39.2409C120.947 39.2409 121.386 39.1365 121.767 38.9288C122.148 38.72 122.445 38.4325 122.657 38.0662C122.868 37.6999 122.975 37.2815 122.975 36.8098C122.975 36.3372 122.868 35.9197 122.657 35.5573C122.445 35.194 122.148 34.9085 121.767 34.6997ZM121.576 37.5581C121.468 37.7728 121.316 37.9412 121.123 38.0613C120.929 38.1824 120.706 38.2435 120.452 38.2435C120.198 38.2435 119.973 38.1824 119.78 38.0613C119.586 37.9412 119.435 37.7728 119.326 37.5581C119.217 37.3435 119.163 37.0963 119.163 36.8187C119.163 36.5341 119.217 36.285 119.326 36.0694C119.435 35.8547 119.586 35.6873 119.78 35.5662C119.973 35.4451 120.198 35.385 120.452 35.385C120.706 35.385 120.929 35.4451 121.123 35.5662C121.316 35.6873 121.468 35.8547 121.576 36.0694C121.686 36.285 121.74 36.5312 121.74 36.8098C121.74 37.0934 121.686 37.3435 121.576 37.5581ZM127.531 34.6948C127.186 34.489 126.805 34.3866 126.387 34.3866C126.055 34.3866 125.757 34.4545 125.497 34.5904C125.237 34.7263 125.028 34.9124 124.867 35.1487C124.847 35.1789 124.835 35.2139 124.817 35.245V34.5314H123.628V40.8567H124.826V38.4839C124.962 38.6822 125.126 38.8573 125.344 38.9869C125.627 39.1562 125.966 39.2409 126.36 39.2409C126.789 39.2409 127.176 39.1385 127.522 38.9327C127.866 38.7269 128.141 38.4424 128.347 38.08C128.553 37.7167 128.656 37.2962 128.656 36.8187C128.656 36.3342 128.555 35.9108 128.352 35.5485C128.149 35.1852 127.875 34.9006 127.531 34.6948ZM127.244 37.5532C127.133 37.7708 126.977 37.9412 126.777 38.0613C126.577 38.1824 126.345 38.2435 126.078 38.2435C125.855 38.2435 125.647 38.1992 125.457 38.1115C125.266 38.0239 125.11 37.8998 124.989 37.7393C124.916 37.6426 124.865 37.5353 124.826 37.4224V36.8453C124.826 36.543 124.882 36.285 124.994 36.0694C125.106 35.8547 125.26 35.6873 125.457 35.5662C125.654 35.4451 125.878 35.385 126.133 35.385C126.393 35.385 126.619 35.4451 126.809 35.5662C127 35.6873 127.147 35.8547 127.254 36.0694C127.359 36.285 127.412 36.5341 127.412 36.8187C127.412 37.0904 127.356 37.3356 127.244 37.5532ZM133.136 34.6997C132.755 34.491 132.316 34.3866 131.82 34.3866C131.324 34.3866 130.885 34.491 130.504 34.6997C130.123 34.9085 129.826 35.194 129.615 35.5573C129.403 35.9197 129.298 36.3411 129.298 36.8187C129.298 37.2903 129.403 37.7078 129.615 38.0711C129.826 38.4335 130.123 38.72 130.504 38.9288C130.885 39.1365 131.324 39.2409 131.82 39.2409C132.316 39.2409 132.755 39.1365 133.136 38.9288C133.517 38.72 133.813 38.4325 134.025 38.0662C134.237 37.6999 134.343 37.2815 134.343 36.8098C134.343 36.3372 134.237 35.9197 134.025 35.5573C133.813 35.194 133.517 34.9085 133.136 34.6997ZM132.945 37.5581C132.836 37.7728 132.685 37.9412 132.492 38.0613C132.298 38.1824 132.074 38.2435 131.82 38.2435C131.566 38.2435 131.342 38.1824 131.149 38.0613C130.955 37.9412 130.803 37.7728 130.695 37.5581C130.586 37.3435 130.531 37.0963 130.531 36.8187C130.531 36.5341 130.586 36.285 130.695 36.0694C130.803 35.8547 130.955 35.6873 131.149 35.5662C131.342 35.4451 131.566 35.385 131.82 35.385C132.074 35.385 132.298 35.4451 132.492 35.5662C132.685 35.6873 132.836 35.8547 132.945 36.0694C133.054 36.285 133.108 36.5312 133.108 36.8098C133.108 37.0934 133.054 37.3435 132.945 37.5581ZM139.548 34.5314H136.009L135.719 37.245C135.694 37.4873 135.661 37.6714 135.618 37.7984C135.576 37.9254 135.517 38.0131 135.442 38.0613C135.366 38.1105 135.265 38.1342 135.138 38.1342H134.766V40.3398H135.891V39.0962H139.167V40.3398H140.292V38.1342H139.548V34.5314ZM138.377 38.1342H136.585C136.605 38.1057 136.631 38.0843 136.648 38.0524C136.742 37.8772 136.808 37.6409 136.843 37.3445L137.047 35.4933H138.377V38.1342ZM144.139 34.6131C143.8 34.4624 143.41 34.3866 142.969 34.3866C142.564 34.3866 142.189 34.4545 141.844 34.5904C141.499 34.7263 141.206 34.9163 140.964 35.1576L141.59 35.8843C141.759 35.7021 141.957 35.5613 142.184 35.4618C142.411 35.3624 142.654 35.3122 142.914 35.3122C143.272 35.3122 143.552 35.3998 143.758 35.5751C143.946 35.7354 144.038 35.9644 144.054 36.2466H143.015C142.573 36.2466 142.184 36.3076 141.848 36.4278C141.512 36.5489 141.254 36.7202 141.072 36.9408C140.891 37.1623 140.8 37.4292 140.8 37.7442C140.8 38.0406 140.874 38.3006 141.023 38.5241C141.17 38.7486 141.378 38.9238 141.644 39.0509C141.91 39.1779 142.219 39.2409 142.57 39.2409C142.957 39.2409 143.297 39.1611 143.591 39.0007C143.807 38.8831 143.976 38.7197 144.121 38.534V39.0962H145.21V36.2919C145.21 35.8872 145.117 35.5436 144.929 35.262C144.742 34.9813 144.478 34.7647 144.139 34.6131ZM144.067 37.5833C144.037 37.6508 144.009 37.7192 143.967 37.7807C143.846 37.9559 143.689 38.0938 143.495 38.1932C143.301 38.2927 143.086 38.3429 142.851 38.3429C142.603 38.3429 142.402 38.2858 142.248 38.1706C142.093 38.0554 142.016 37.8978 142.016 37.6989C142.016 37.4813 142.116 37.3149 142.316 37.1997C142.515 37.0845 142.778 37.0274 143.105 37.0274H144.067V37.5833ZM153.249 37.0568L151.13 32.6083H149.715V39.0962H150.894V34.4338L152.791 38.3971H153.698L155.567 34.4909V39.0962H156.765V32.6083H155.368L153.249 37.0568ZM161.38 34.6997C160.999 34.491 160.56 34.3866 160.065 34.3866C159.569 34.3866 159.13 34.491 158.749 34.6997C158.367 34.9085 158.071 35.194 157.859 35.5573C157.648 35.9197 157.542 36.3411 157.542 36.8187C157.542 37.2903 157.648 37.7078 157.859 38.0711C158.071 38.4335 158.367 38.72 158.749 38.9288C159.13 39.1365 159.569 39.2409 160.065 39.2409C160.56 39.2409 160.999 39.1365 161.38 38.9288C161.762 38.72 162.058 38.4325 162.27 38.0662C162.481 37.6999 162.588 37.2815 162.588 36.8098C162.588 36.3372 162.481 35.9197 162.27 35.5573C162.058 35.194 161.762 34.9085 161.38 34.6997ZM161.189 37.5581C161.081 37.7728 160.93 37.9412 160.737 38.0613C160.543 38.1824 160.319 38.2435 160.065 38.2435C159.811 38.2435 159.586 38.1824 159.393 38.0613C159.2 37.9412 159.048 37.7728 158.94 37.5581C158.83 37.3435 158.776 37.0963 158.776 36.8187C158.776 36.5341 158.83 36.285 158.94 36.0694C159.048 35.8547 159.2 35.6873 159.393 35.5662C159.586 35.4451 159.811 35.385 160.065 35.385C160.319 35.385 160.543 35.4451 160.737 35.5662C160.93 35.6873 161.081 35.8547 161.189 36.0694C161.299 36.285 161.353 36.5312 161.353 36.8098C161.353 37.0934 161.299 37.3435 161.189 37.5581ZM165.041 35.5662C165.241 35.4451 165.471 35.385 165.731 35.385C165.991 35.385 166.219 35.4451 166.416 35.5662C166.612 35.6873 166.775 35.8449 166.902 36.0379L167.645 35.3033C167.41 35.0128 167.125 34.7874 166.792 34.6269C166.46 34.4664 166.084 34.3866 165.667 34.3866C165.189 34.3866 164.761 34.491 164.383 34.6997C164.005 34.9085 163.708 35.196 163.489 35.5613C163.271 35.9276 163.163 36.347 163.163 36.8187C163.163 37.2844 163.27 37.6999 163.485 38.0662C163.7 38.4325 163.994 38.72 164.369 38.9288C164.744 39.1365 165.168 39.2409 165.64 39.2409C166.07 39.2409 166.452 39.1611 166.787 39.0007C167.123 38.8411 167.41 38.6127 167.645 38.3153L166.902 37.5897C166.775 37.7836 166.614 37.9412 166.42 38.0613C166.226 38.1824 165.997 38.2435 165.731 38.2435C165.471 38.2435 165.241 38.1824 165.041 38.0613C164.842 37.9412 164.684 37.7708 164.569 37.5532C164.454 37.3356 164.397 37.0904 164.397 36.8187C164.397 36.54 164.454 36.2919 164.569 36.0743C164.684 35.8567 164.842 35.6873 165.041 35.5662ZM172.806 34.5314H171.373L169.585 36.5261V34.5314H168.387V39.0962H169.585V37.0162L171.482 39.0962H172.988L170.808 36.7555L172.806 34.5314ZM176.978 36.7109C177.17 36.6233 177.333 36.5117 177.452 36.3648C177.588 36.1954 177.656 35.9926 177.656 35.7572C177.656 35.3821 177.509 35.0837 177.216 34.8632C176.923 34.6426 176.522 34.5314 176.014 34.5314H173.663V39.0962H176.104C176.443 39.0962 176.745 39.043 177.012 38.9376C177.278 38.8313 177.488 38.6787 177.642 38.4788C177.797 38.2799 177.874 38.0524 177.874 37.7984C177.874 37.5207 177.781 37.2824 177.597 37.0865C177.434 36.9126 177.223 36.7926 176.978 36.7109ZM174.743 35.3939H175.823C176.065 35.3939 176.236 35.4313 176.336 35.5071C176.435 35.5829 176.485 35.7021 176.485 35.8655C176.485 36.029 176.435 36.1531 176.336 36.2377C176.236 36.3224 176.065 36.3648 175.823 36.3648H174.743V35.3939ZM176.508 38.0977C176.378 38.1883 176.183 38.2336 175.923 38.2336H174.743V37.1456H175.923C176.183 37.1456 176.378 37.1909 176.508 37.2815C176.638 37.372 176.703 37.5079 176.703 37.6901C176.703 37.8713 176.638 38.0071 176.508 38.0977ZM180.98 35.9197H179.882V34.5314H178.73V39.0962H180.98C181.343 39.0962 181.664 39.0292 181.942 38.8963C182.22 38.7634 182.435 38.5763 182.587 38.334C182.737 38.0918 182.813 37.8043 182.813 37.4715C182.813 37.0186 182.647 36.6464 182.314 36.3559C181.981 36.0654 181.537 35.9197 180.98 35.9197ZM181.407 37.9707C181.28 38.08 181.098 38.1342 180.863 38.1342H179.882V36.8915H180.863C181.098 36.8915 181.28 36.9437 181.407 37.0501C181.534 37.1554 181.597 37.308 181.597 37.5079C181.597 37.7078 181.534 37.8624 181.407 37.9707ZM183.312 34.5314V39.0962H184.51V34.5314H183.312Z" fill="white" style="fill:white;fill-opacity:1;"/>
</g>
<path d="M217.097 26.4428L218.039 25.5L223.225 30.6854L222.282 31.6283L217.097 26.4428Z" fill="white" style="fill:white;fill-opacity:1;"/>
<path d="M210.968 20.3146L211.911 19.3717L217.097 24.5572L216.154 25.5L210.968 20.3146Z" fill="white" style="fill:white;fill-opacity:1;"/>
<path d="M216.154 25.5L217.097 26.4428L211.911 31.6282L210.968 30.6854L216.154 25.5Z" fill="white" style="fill:white;fill-opacity:1;"/>
<path d="M222.282 19.3717L223.225 20.3145L218.039 25.5L217.097 24.5572L222.282 19.3717Z" fill="white" style="fill:white;fill-opacity:1;"/>
<path fill-rule="evenodd" clip-rule="evenodd" d="M258.448 25.2434C259.535 25.7362 260.467 26.9268 260.467 28.6502C260.467 30.8665 259.321 32.2817 257.865 32.7127C256.971 33 256.04 33 255.186 33H250V18.0006H255.496C256.176 18.0006 256.934 18.0205 257.691 18.2262C258.992 18.5951 260.195 19.7446 260.195 21.8584C260.195 23.8074 259.147 24.7512 258.448 25.1413V25.2434ZM255.592 24.505C256.099 24.505 256.564 24.4431 256.952 24.1975C257.515 23.869 257.904 23.1714 257.904 22.125C257.904 21.0988 257.438 20.4215 256.758 20.1759C256.429 20.032 256.021 19.9902 255.496 19.9902H252.253V24.505H255.592ZM258.118 28.6502C258.118 27.5624 257.613 26.9468 257.011 26.6802C256.622 26.5157 256.176 26.4748 255.787 26.4748H252.253V31.0301H255.749C256.176 31.0301 256.584 30.9893 256.915 30.8665C257.672 30.558 258.118 29.8398 258.118 28.6502Z" fill="white" style="fill:white;fill-opacity:1;"/>
<path fill-rule="evenodd" clip-rule="evenodd" d="M278.447 30.8042L276.932 32.9994H262.678L270.406 18.0001H275.145V30.866L278.447 30.8042ZM272.931 30.9678V19.8261H271.456L265.843 30.9678H272.931Z" fill="white" style="fill:white;fill-opacity:1;"/>
<path fill-rule="evenodd" clip-rule="evenodd" d="M293.386 18.0001V32.9999H291.133V26.0435H283.929V32.9999H281.695V18.0001H283.929V23.9917H291.133V18.0001H293.386Z" fill="white" style="fill:white;fill-opacity:1;"/>
<path fill-rule="evenodd" clip-rule="evenodd" d="M303.242 26.8844L299.34 32.9994H297.087L302.175 25.2638L297.321 18H300.02L303.554 23.2941L306.912 18H309.088L304.602 24.8944L310 32.9994H307.32L303.242 26.8844Z" fill="white" style="fill:white;fill-opacity:1;"/>
<defs>
<clipPath id="clip0_225_339">
<rect width="70" height="51" fill="white" style="fill:white;fill-opacity:1;" transform="translate(114.193)"/>
</clipPath>
</defs>
</svg>
