<svg width="11" height="17" viewBox="0 0 11 17" fill="none" xmlns="http://www.w3.org/2000/svg">
<path d="M0.977051 16.687C0.63265 16.687 0.381836 16.6121 0.224609 16.4624C0.0748698 16.3127 0 16.0656 0 15.7212V1.27881C0 0.934408 0.0748698 0.687337 0.224609 0.537598C0.381836 0.387858 0.63265 0.312988 0.977051 0.312988H3.21191C3.55632 0.312988 3.80339 0.387858 3.95312 0.537598C4.10286 0.687337 4.17773 0.934408 4.17773 1.27881V15.7212C4.17773 16.0656 4.10286 16.3127 3.95312 16.4624C3.80339 16.6121 3.55632 16.687 3.21191 16.687H0.977051ZM7.71533 16.687C7.36344 16.687 7.11263 16.6121 6.96289 16.4624C6.81315 16.3127 6.73828 16.0656 6.73828 15.7212V1.27881C6.73828 0.934408 6.81315 0.687337 6.96289 0.537598C7.11263 0.387858 7.36344 0.312988 7.71533 0.312988H9.93896C10.2834 0.312988 10.5304 0.387858 10.6802 0.537598C10.8374 0.687337 10.916 0.934408 10.916 1.27881V15.7212C10.916 16.0656 10.8374 16.3127 10.6802 16.4624C10.5304 16.6121 10.2834 16.687 9.93896 16.687H7.71533Z" fill="white" fill-opacity="0.8" style="fill:white;fill-opacity:0.8;"/>
<path d="M0.977051 16.687C0.63265 16.687 0.381836 16.6121 0.224609 16.4624C0.0748698 16.3127 0 16.0656 0 15.7212V1.27881C0 0.934408 0.0748698 0.687337 0.224609 0.537598C0.381836 0.387858 0.63265 0.312988 0.977051 0.312988H3.21191C3.55632 0.312988 3.80339 0.387858 3.95312 0.537598C4.10286 0.687337 4.17773 0.934408 4.17773 1.27881V15.7212C4.17773 16.0656 4.10286 16.3127 3.95312 16.4624C3.80339 16.6121 3.55632 16.687 3.21191 16.687H0.977051ZM7.71533 16.687C7.36344 16.687 7.11263 16.6121 6.96289 16.4624C6.81315 16.3127 6.73828 16.0656 6.73828 15.7212V1.27881C6.73828 0.934408 6.81315 0.687337 6.96289 0.537598C7.11263 0.387858 7.36344 0.312988 7.71533 0.312988H9.93896C10.2834 0.312988 10.5304 0.387858 10.6802 0.537598C10.8374 0.687337 10.916 0.934408 10.916 1.27881V15.7212C10.916 16.0656 10.8374 16.3127 10.6802 16.4624C10.5304 16.6121 10.2834 16.687 9.93896 16.687H7.71533Z" fill="white" fill-opacity="0.2" style="fill:white;fill-opacity:0.2;"/>
</svg>
