<svg width="32" height="25" viewBox="0 0 32 25" fill="none" xmlns="http://www.w3.org/2000/svg">
<path d="M20.8298 25C19.1557 25 17.4816 24.5604 15.8075 23.6812C14.1334 22.802 12.4689 21.3887 10.8141 19.4413L6.23919 14.1237C5.8351 13.6699 5.61381 13.2303 5.57532 12.8049C5.54646 12.3795 5.63786 12.0013 5.84953 11.6704C6.0612 11.3396 6.34502 11.0891 6.70101 10.9189C7.06661 10.7487 7.45146 10.692 7.85555 10.7487C8.26926 10.8054 8.6493 10.9992 8.99567 11.3301L11.7089 13.8968C12.4401 14.6058 13.152 15.1068 13.8448 15.3999C14.5375 15.6835 15.1869 15.8253 15.7931 15.8253C16.6109 15.8253 17.2795 15.6126 17.7991 15.1872C18.3282 14.7523 18.7227 14.2182 18.9825 13.5848C19.2423 12.942 19.3722 12.3086 19.3722 11.6846C19.3722 11.2309 19.2759 10.7298 19.0835 10.1815C18.8911 9.6332 18.6457 9.09435 18.3475 8.56495C18.0492 8.03555 17.7414 7.57232 17.4239 7.17527C17.1448 6.79713 16.7552 6.54188 16.2549 6.40953C15.7546 6.26773 15.1965 6.25827 14.5808 6.38117L10.3523 7.20363C9.71726 7.33598 9.17847 7.26508 8.73589 6.99092C8.29332 6.70732 7.99987 6.33863 7.85555 5.88486C7.71123 5.42163 7.75453 4.97258 7.98544 4.53772C8.22597 4.10285 8.69741 3.79089 9.39976 3.60181L13.7149 2.43902C14.677 2.18378 15.5958 2.07979 16.4714 2.12706C17.3565 2.17432 18.1695 2.37758 18.9103 2.73681C19.6512 3.09605 20.2814 3.60181 20.8009 4.25411C21.0222 4.50936 21.2387 4.82133 21.4503 5.19002C21.662 5.54925 21.8448 5.88958 21.9987 6.211C22.1527 6.49461 22.3451 6.64114 22.576 6.6506C22.8165 6.6506 23.009 6.56551 23.1533 6.39535C23.3072 6.21573 23.3217 5.99357 23.1966 5.72887C23.0234 5.34127 22.8358 4.95368 22.6337 4.56608C22.4413 4.16903 22.2297 3.76253 21.9987 3.34657C21.9314 3.24258 21.9122 3.12914 21.941 3.00624C21.9795 2.88334 22.0709 2.78408 22.2152 2.70845C22.552 2.53829 22.9416 2.46266 23.3842 2.48157C23.8364 2.50047 24.279 2.65173 24.7119 2.93534C25.1449 3.20949 25.5009 3.65854 25.7799 4.28247L26.3572 5.57289C26.463 5.80923 26.6121 5.94158 26.8045 5.96994C27.0066 5.9983 27.175 5.94158 27.3097 5.79977C27.4444 5.65797 27.4684 5.46417 27.3818 5.21838L27.0354 4.31083C26.9681 4.14067 26.997 3.99414 27.122 3.87124C27.2567 3.73889 27.4492 3.67272 27.6993 3.67272C28.19 3.67272 28.6518 3.93269 29.0848 4.45264C29.5177 4.97258 29.9122 5.65324 30.2682 6.49461C30.6242 7.33598 30.932 8.24825 31.1918 9.23142C31.4516 10.2146 31.6488 11.1789 31.7835 12.1242C31.9278 13.0696 32 13.892 32 14.5916C32 16.0285 31.7787 17.3095 31.3361 18.4345C30.9032 19.5595 30.3115 20.5332 29.561 21.3556C28.8106 22.1781 27.9543 22.854 26.9922 23.3834C26.0397 23.9223 25.0342 24.3241 23.9759 24.5888C22.9176 24.8629 21.8689 25 20.8298 25ZM3.54044 0.453772C3.81945 0.151257 4.1129 0 4.42078 0C4.73828 0 5.01248 0.0992626 5.24339 0.297788C5.4743 0.48686 5.609 0.737379 5.64748 1.04935C5.68597 1.35186 5.57051 1.64965 5.30112 1.94271C4.59877 2.72736 3.99263 3.564 3.48271 4.45264C2.97278 5.34127 2.57831 6.26773 2.2993 7.23199C2.17422 7.64795 1.96737 7.9221 1.67873 8.05445C1.39972 8.1868 1.11589 8.21044 0.827253 8.12535C0.538616 8.03082 0.312518 7.86065 0.148957 7.61486C-0.0146036 7.35961 -0.0434673 7.05237 0.0623661 6.69314C0.399109 5.56816 0.860927 4.47627 1.44782 3.41747C2.03472 2.34922 2.73225 1.36132 3.54044 0.453772ZM3.54044 20.2354C2.73225 19.3373 2.03472 18.3589 1.44782 17.3001C0.860927 16.2318 0.399109 15.1352 0.0623661 14.0102C-0.0434673 13.651 -0.0146036 13.3437 0.148957 13.0885C0.312518 12.8332 0.538616 12.6631 0.827253 12.578C1.12551 12.4835 1.41415 12.5071 1.69316 12.6489C1.97218 12.7812 2.17422 13.0507 2.2993 13.4572C2.57831 14.4214 2.97278 15.3479 3.48271 16.2365C3.99263 17.1252 4.59877 17.9571 5.30112 18.7323C5.57051 19.0442 5.68597 19.3515 5.64748 19.654C5.609 19.9565 5.4743 20.207 5.24339 20.4056C5.01248 20.6041 4.73828 20.7033 4.42078 20.7033C4.1129 20.6939 3.81945 20.5379 3.54044 20.2354Z" fill="white"/>
</svg>
