<svg width="15" height="18" viewBox="0 0 15 18" fill="none" xmlns="http://www.w3.org/2000/svg">
<path d="M0 15.7331V2.25646C0 1.67097 0.151515 1.23186 0.454545 0.939114C0.764463 0.646371 1.12948 0.5 1.54959 0.5C1.92149 0.5 2.2865 0.604551 2.64463 0.813653L13.75 7.369C14.1701 7.61296 14.4835 7.86039 14.6901 8.11132C14.8967 8.35527 15 8.6515 15 9C15 9.3485 14.8967 9.64822 14.6901 9.89914C14.4835 10.1431 14.1701 10.387 13.75 10.631L2.64463 17.1863C2.2865 17.3954 1.92149 17.5 1.54959 17.5C1.12948 17.5 0.764463 17.3536 0.454545 17.0609C0.151515 16.7681 0 16.3255 0 15.7331Z" fill="#EFF0E2" style="fill:#EFF0E2;fill:color(display-p3 0.9373 0.9412 0.8863);fill-opacity:1;"/>
</svg>
