<svg width="100" height="100" viewBox="0 0 141 140" fill="none" xmlns="http://www.w3.org/2000/svg">
<path d="M71 39L102.184 70.1838L71 101.368L39.8162 70.1838L71 39Z" fill="#27AE60" style="fill:#27AE60;fill:color(display-p3 0.1529 0.6824 0.3765);fill-opacity:1;"/>
<rect x="83.9325" y="13.125" width="61.8718" height="18.5616" transform="rotate(45 83.9325 13.125)" fill="#27AE60" style="fill:#27AE60;fill:color(display-p3 0.1529 0.6824 0.3765);fill-opacity:1;"/>
<rect x="27.0575" y="70" width="61.8718" height="18.5616" transform="rotate(45 27.0575 70)" fill="#27AE60" style="fill:#27AE60;fill:color(display-p3 0.1529 0.6824 0.3765);fill-opacity:1;"/>
<rect x="13.9325" y="56.875" width="61.8718" height="18.5616" transform="rotate(-45 13.9325 56.875)" fill="#27AE60" style="fill:#27AE60;fill:color(display-p3 0.1529 0.6824 0.3765);fill-opacity:1;"/>
<rect x="70.8075" y="113.75" width="61.8718" height="18.5616" transform="rotate(-45 70.8075 113.75)" fill="#27AE60" style="fill:#27AE60;fill:color(display-p3 0.1529 0.6824 0.3765);fill-opacity:1;"/>
<path d="M69.242 77.3564C69.0595 77.3564 68.8873 77.3176 68.7257 77.2399C68.564 77.1623 68.3944 77.038 68.2171 76.8672L64.884 73.7302C64.8318 73.6836 64.7666 73.6603 64.6884 73.6603H62.4429C61.916 73.6603 61.5118 73.518 61.2301 73.2332C60.9485 72.9485 60.8076 72.5241 60.8076 71.9598V69.0713C60.8076 68.5122 60.9485 68.0903 61.2301 67.8056C61.5118 67.5157 61.916 67.3707 62.4429 67.3707H64.6884C64.7666 67.3707 64.8318 67.3474 64.884 67.3009L68.2171 64.1949C68.4153 64.0034 68.5874 63.8662 68.7335 63.7834C68.8795 63.7005 69.0438 63.6591 69.2264 63.6591C69.4924 63.6591 69.7089 63.7497 69.8758 63.9309C70.0427 64.1069 70.1262 64.3217 70.1262 64.5754V76.4867C70.1262 76.7352 70.0427 76.9423 69.8758 77.1079C69.7141 77.2736 69.5028 77.3564 69.242 77.3564ZM72.9116 73.8078C72.7551 73.6991 72.6664 73.5594 72.6455 73.3885C72.6247 73.2177 72.6742 73.0495 72.7942 72.8838C73.0185 72.5681 73.1932 72.2057 73.3184 71.7967C73.4436 71.3826 73.5062 70.9504 73.5062 70.5C73.5062 70.0496 73.4436 69.6174 73.3184 69.2033C73.1985 68.7891 73.0237 68.4268 72.7942 68.1162C72.669 67.9557 72.6169 67.79 72.6377 67.6192C72.6638 67.4432 72.7551 67.3009 72.9116 67.1922C73.0472 67.099 73.1958 67.0679 73.3575 67.099C73.5192 67.13 73.6523 67.2206 73.7566 67.3707C74.0591 67.7642 74.2938 68.2352 74.4607 68.784C74.6329 69.3327 74.7189 69.9047 74.7189 70.5C74.7189 71.0953 74.6329 71.6673 74.4607 72.216C74.2938 72.7648 74.0591 73.2358 73.7566 73.6293C73.6523 73.7794 73.5192 73.87 73.3575 73.901C73.1958 73.9269 73.0472 73.8959 72.9116 73.8078ZM75.8221 75.8345C75.6813 75.7361 75.6005 75.6067 75.5796 75.4462C75.5587 75.2806 75.6031 75.1175 75.7126 74.9571C76.1351 74.3514 76.4637 73.6655 76.6985 72.8994C76.9384 72.128 77.0584 71.3283 77.0584 70.5C77.0584 69.6717 76.941 68.872 76.7063 68.1006C76.4716 67.3293 76.1403 66.6434 75.7126 66.0429C75.5979 65.8825 75.5509 65.722 75.5718 65.5615C75.5979 65.3959 75.6813 65.2639 75.8221 65.1655C75.9682 65.0672 76.1221 65.0335 76.2838 65.0646C76.4455 65.0956 76.5785 65.1862 76.6828 65.3363C77.1888 66.0093 77.58 66.7987 77.8564 67.7046C78.1329 68.6105 78.2711 69.5423 78.2711 70.5C78.2711 71.4577 78.1303 72.3869 77.8486 73.2876C77.5721 74.1883 77.1835 74.9803 76.6828 75.6637C76.5785 75.8138 76.4455 75.9044 76.2838 75.9354C76.1221 75.9613 75.9682 75.9277 75.8221 75.8345ZM78.7562 77.8922C78.6102 77.7938 78.5267 77.6592 78.5058 77.4884C78.485 77.3228 78.5293 77.1623 78.6388 77.007C79.0405 76.4169 79.3874 75.7775 79.6795 75.0891C79.9768 74.3954 80.2063 73.6655 80.368 72.8994C80.5297 72.128 80.6105 71.3283 80.6105 70.5C80.6105 69.6666 80.5297 68.8668 80.368 68.1006C80.2063 67.3293 79.9768 66.602 79.6795 65.9187C79.3874 65.2302 79.0405 64.5883 78.6388 63.993C78.5293 63.8325 78.485 63.6695 78.5058 63.5038C78.5267 63.3382 78.6102 63.2062 78.7562 63.1078C78.8918 63.0095 79.0431 62.9784 79.21 63.0146C79.3769 63.0457 79.5125 63.1415 79.6169 63.3019C80.0654 63.9594 80.454 64.6711 80.7827 65.4373C81.1113 66.1982 81.3643 67.0032 81.5416 67.8522C81.7189 68.7011 81.8076 69.5837 81.8076 70.5C81.8076 71.4163 81.7189 72.2989 81.5416 73.1478C81.3695 73.9968 81.1191 74.8043 80.7905 75.5705C80.4671 76.3314 80.0759 77.0406 79.6169 77.6981C79.5125 77.8534 79.3769 77.9491 79.21 77.9854C79.0431 78.0216 78.8918 77.9905 78.7562 77.8922Z" fill="white" fill-opacity="0.8" style="fill:white;fill-opacity:0.8;"/>
<path d="M69.242 77.3564C69.0595 77.3564 68.8873 77.3176 68.7257 77.2399C68.564 77.1623 68.3944 77.038 68.2171 76.8672L64.884 73.7302C64.8318 73.6836 64.7666 73.6603 64.6884 73.6603H62.4429C61.916 73.6603 61.5118 73.518 61.2301 73.2332C60.9485 72.9485 60.8076 72.5241 60.8076 71.9598V69.0713C60.8076 68.5122 60.9485 68.0903 61.2301 67.8056C61.5118 67.5157 61.916 67.3707 62.4429 67.3707H64.6884C64.7666 67.3707 64.8318 67.3474 64.884 67.3009L68.2171 64.1949C68.4153 64.0034 68.5874 63.8662 68.7335 63.7834C68.8795 63.7005 69.0438 63.6591 69.2264 63.6591C69.4924 63.6591 69.7089 63.7497 69.8758 63.9309C70.0427 64.1069 70.1262 64.3217 70.1262 64.5754V76.4867C70.1262 76.7352 70.0427 76.9423 69.8758 77.1079C69.7141 77.2736 69.5028 77.3564 69.242 77.3564ZM72.9116 73.8078C72.7551 73.6991 72.6664 73.5594 72.6455 73.3885C72.6247 73.2177 72.6742 73.0495 72.7942 72.8838C73.0185 72.5681 73.1932 72.2057 73.3184 71.7967C73.4436 71.3826 73.5062 70.9504 73.5062 70.5C73.5062 70.0496 73.4436 69.6174 73.3184 69.2033C73.1985 68.7891 73.0237 68.4268 72.7942 68.1162C72.669 67.9557 72.6169 67.79 72.6377 67.6192C72.6638 67.4432 72.7551 67.3009 72.9116 67.1922C73.0472 67.099 73.1958 67.0679 73.3575 67.099C73.5192 67.13 73.6523 67.2206 73.7566 67.3707C74.0591 67.7642 74.2938 68.2352 74.4607 68.784C74.6329 69.3327 74.7189 69.9047 74.7189 70.5C74.7189 71.0953 74.6329 71.6673 74.4607 72.216C74.2938 72.7648 74.0591 73.2358 73.7566 73.6293C73.6523 73.7794 73.5192 73.87 73.3575 73.901C73.1958 73.9269 73.0472 73.8959 72.9116 73.8078ZM75.8221 75.8345C75.6813 75.7361 75.6005 75.6067 75.5796 75.4462C75.5587 75.2806 75.6031 75.1175 75.7126 74.9571C76.1351 74.3514 76.4637 73.6655 76.6985 72.8994C76.9384 72.128 77.0584 71.3283 77.0584 70.5C77.0584 69.6717 76.941 68.872 76.7063 68.1006C76.4716 67.3293 76.1403 66.6434 75.7126 66.0429C75.5979 65.8825 75.5509 65.722 75.5718 65.5615C75.5979 65.3959 75.6813 65.2639 75.8221 65.1655C75.9682 65.0672 76.1221 65.0335 76.2838 65.0646C76.4455 65.0956 76.5785 65.1862 76.6828 65.3363C77.1888 66.0093 77.58 66.7987 77.8564 67.7046C78.1329 68.6105 78.2711 69.5423 78.2711 70.5C78.2711 71.4577 78.1303 72.3869 77.8486 73.2876C77.5721 74.1883 77.1835 74.9803 76.6828 75.6637C76.5785 75.8138 76.4455 75.9044 76.2838 75.9354C76.1221 75.9613 75.9682 75.9277 75.8221 75.8345ZM78.7562 77.8922C78.6102 77.7938 78.5267 77.6592 78.5058 77.4884C78.485 77.3228 78.5293 77.1623 78.6388 77.007C79.0405 76.4169 79.3874 75.7775 79.6795 75.0891C79.9768 74.3954 80.2063 73.6655 80.368 72.8994C80.5297 72.128 80.6105 71.3283 80.6105 70.5C80.6105 69.6666 80.5297 68.8668 80.368 68.1006C80.2063 67.3293 79.9768 66.602 79.6795 65.9187C79.3874 65.2302 79.0405 64.5883 78.6388 63.993C78.5293 63.8325 78.485 63.6695 78.5058 63.5038C78.5267 63.3382 78.6102 63.2062 78.7562 63.1078C78.8918 63.0095 79.0431 62.9784 79.21 63.0146C79.3769 63.0457 79.5125 63.1415 79.6169 63.3019C80.0654 63.9594 80.454 64.6711 80.7827 65.4373C81.1113 66.1982 81.3643 67.0032 81.5416 67.8522C81.7189 68.7011 81.8076 69.5837 81.8076 70.5C81.8076 71.4163 81.7189 72.2989 81.5416 73.1478C81.3695 73.9968 81.1191 74.8043 80.7905 75.5705C80.4671 76.3314 80.0759 77.0406 79.6169 77.6981C79.5125 77.8534 79.3769 77.9491 79.21 77.9854C79.0431 78.0216 78.8918 77.9905 78.7562 77.8922Z" fill="white" fill-opacity="0.2" style="fill:white;fill-opacity:0.2;"/>
</svg>
