<svg width="24" height="28" viewBox="0 0 24 28" fill="none" xmlns="http://www.w3.org/2000/svg">
<path d="M14.0508 1.1875V6.49609C14.0508 6.91016 13.9141 7.17188 13.6406 7.28125C13.375 7.38281 13.0898 7.32031 12.7852 7.09375L9.17578 4.46875C8.92578 4.29687 8.80078 4.08984 8.80078 3.84766C8.80078 3.59766 8.92578 3.38672 9.17578 3.21484L12.7734 0.589844C13.0859 0.363281 13.375 0.300781 13.6406 0.402344C13.9141 0.503906 14.0508 0.765625 14.0508 1.1875ZM21.0938 13.9961C21.0938 12.7383 20.8594 11.5625 20.3906 10.4688C19.9219 9.36719 19.2695 8.40234 18.4336 7.57422C17.5977 6.73828 16.6289 6.08594 15.5273 5.61719C14.4336 5.14062 13.2539 4.90234 11.9883 4.90234C11.668 4.90234 11.3867 4.78516 11.1445 4.55078C10.9023 4.30859 10.7812 4.01953 10.7812 3.68359C10.7812 3.35547 10.8984 3.07422 11.1328 2.83984C11.375 2.60547 11.6562 2.48438 11.9766 2.47656C13.5781 2.47656 15.0742 2.77734 16.4648 3.37891C17.8633 3.97266 19.0898 4.80078 20.1445 5.86328C21.1992 6.91797 22.0234 8.14062 22.6172 9.53125C23.2188 10.9141 23.5195 12.4023 23.5195 13.9961C23.5195 15.543 23.2227 17 22.6289 18.3672C22.043 19.7344 21.2422 20.9258 20.2266 21.9414C19.9375 22.2539 19.6172 22.3984 19.2656 22.375C18.9141 22.3516 18.6289 22.2266 18.4102 22C18.2148 21.7969 18.1016 21.5469 18.0703 21.25C18.0469 20.9453 18.1758 20.625 18.457 20.2891C19.2773 19.4922 19.9219 18.5547 20.3906 17.4766C20.8594 16.3906 21.0938 15.2305 21.0938 13.9961ZM9.94922 26.793V21.4961C9.94922 21.082 10.082 20.8242 10.3477 20.7227C10.6211 20.6133 10.9102 20.6719 11.2148 20.8984L14.8359 23.5117C15.0781 23.6914 15.1992 23.9023 15.1992 24.1445C15.1992 24.3945 15.0781 24.6055 14.8359 24.7773L11.2266 27.4023C10.9141 27.6289 10.6211 27.6875 10.3477 27.5781C10.082 27.4766 9.94922 27.2148 9.94922 26.793ZM2.90625 13.9961C2.90625 15.2539 3.14062 16.4336 3.60938 17.5352C4.07812 18.6289 4.73047 19.5938 5.56641 20.4297C6.40234 21.2578 7.36719 21.9062 8.46094 22.375C9.5625 22.8516 10.7422 23.0898 12 23.0898C12.3359 23.0898 12.6211 23.207 12.8555 23.4414C13.0898 23.6836 13.207 23.9727 13.207 24.3086C13.207 24.6367 13.0898 24.918 12.8555 25.1523C12.6289 25.3867 12.3477 25.5078 12.0117 25.5156C10.418 25.5078 8.92188 25.2031 7.52344 24.6016C6.13281 24.0078 4.91016 23.1836 3.85547 22.1289C2.80078 21.0742 1.97266 19.8555 1.37109 18.4727C0.777344 17.082 0.480469 15.5898 0.480469 13.9961C0.480469 12.4414 0.773438 10.9844 1.35938 9.625C1.95312 8.25781 2.76172 7.06641 3.78516 6.05078C4.05859 5.73828 4.37109 5.59375 4.72266 5.61719C5.08203 5.64062 5.37109 5.76563 5.58984 5.99219C5.77734 6.19531 5.88281 6.44922 5.90625 6.75391C5.9375 7.05078 5.81641 7.36328 5.54297 7.69141C4.73047 8.49609 4.08594 9.44141 3.60938 10.5273C3.14062 11.6055 2.90625 12.7617 2.90625 13.9961Z" fill="white" fill-opacity="0.8" style="fill:white;fill-opacity:0.8;"/>
<path d="M14.0508 1.1875V6.49609C14.0508 6.91016 13.9141 7.17188 13.6406 7.28125C13.375 7.38281 13.0898 7.32031 12.7852 7.09375L9.17578 4.46875C8.92578 4.29687 8.80078 4.08984 8.80078 3.84766C8.80078 3.59766 8.92578 3.38672 9.17578 3.21484L12.7734 0.589844C13.0859 0.363281 13.375 0.300781 13.6406 0.402344C13.9141 0.503906 14.0508 0.765625 14.0508 1.1875ZM21.0938 13.9961C21.0938 12.7383 20.8594 11.5625 20.3906 10.4688C19.9219 9.36719 19.2695 8.40234 18.4336 7.57422C17.5977 6.73828 16.6289 6.08594 15.5273 5.61719C14.4336 5.14062 13.2539 4.90234 11.9883 4.90234C11.668 4.90234 11.3867 4.78516 11.1445 4.55078C10.9023 4.30859 10.7812 4.01953 10.7812 3.68359C10.7812 3.35547 10.8984 3.07422 11.1328 2.83984C11.375 2.60547 11.6562 2.48438 11.9766 2.47656C13.5781 2.47656 15.0742 2.77734 16.4648 3.37891C17.8633 3.97266 19.0898 4.80078 20.1445 5.86328C21.1992 6.91797 22.0234 8.14062 22.6172 9.53125C23.2188 10.9141 23.5195 12.4023 23.5195 13.9961C23.5195 15.543 23.2227 17 22.6289 18.3672C22.043 19.7344 21.2422 20.9258 20.2266 21.9414C19.9375 22.2539 19.6172 22.3984 19.2656 22.375C18.9141 22.3516 18.6289 22.2266 18.4102 22C18.2148 21.7969 18.1016 21.5469 18.0703 21.25C18.0469 20.9453 18.1758 20.625 18.457 20.2891C19.2773 19.4922 19.9219 18.5547 20.3906 17.4766C20.8594 16.3906 21.0938 15.2305 21.0938 13.9961ZM9.94922 26.793V21.4961C9.94922 21.082 10.082 20.8242 10.3477 20.7227C10.6211 20.6133 10.9102 20.6719 11.2148 20.8984L14.8359 23.5117C15.0781 23.6914 15.1992 23.9023 15.1992 24.1445C15.1992 24.3945 15.0781 24.6055 14.8359 24.7773L11.2266 27.4023C10.9141 27.6289 10.6211 27.6875 10.3477 27.5781C10.082 27.4766 9.94922 27.2148 9.94922 26.793ZM2.90625 13.9961C2.90625 15.2539 3.14062 16.4336 3.60938 17.5352C4.07812 18.6289 4.73047 19.5938 5.56641 20.4297C6.40234 21.2578 7.36719 21.9062 8.46094 22.375C9.5625 22.8516 10.7422 23.0898 12 23.0898C12.3359 23.0898 12.6211 23.207 12.8555 23.4414C13.0898 23.6836 13.207 23.9727 13.207 24.3086C13.207 24.6367 13.0898 24.918 12.8555 25.1523C12.6289 25.3867 12.3477 25.5078 12.0117 25.5156C10.418 25.5078 8.92188 25.2031 7.52344 24.6016C6.13281 24.0078 4.91016 23.1836 3.85547 22.1289C2.80078 21.0742 1.97266 19.8555 1.37109 18.4727C0.777344 17.082 0.480469 15.5898 0.480469 13.9961C0.480469 12.4414 0.773438 10.9844 1.35938 9.625C1.95312 8.25781 2.76172 7.06641 3.78516 6.05078C4.05859 5.73828 4.37109 5.59375 4.72266 5.61719C5.08203 5.64062 5.37109 5.76563 5.58984 5.99219C5.77734 6.19531 5.88281 6.44922 5.90625 6.75391C5.9375 7.05078 5.81641 7.36328 5.54297 7.69141C4.73047 8.49609 4.08594 9.44141 3.60938 10.5273C3.14062 11.6055 2.90625 12.7617 2.90625 13.9961Z" fill="white" fill-opacity="0.6" style="fill:white;fill-opacity:0.6;"/>
</svg>
