<svg width="27" height="28" viewBox="0 0 27 28" fill="none" xmlns="http://www.w3.org/2000/svg">
<path d="M21.0977 5.43555C21.0977 5.78711 20.9707 6.01172 20.7168 6.10938C20.4629 6.20052 20.1992 6.14193 19.9258 5.93359L17.4551 4.08789C17.2663 3.94466 17.1719 3.77865 17.1719 3.58984C17.1784 3.39453 17.2728 3.22526 17.4551 3.08203L19.9258 1.22656C20.1992 1.01823 20.4629 0.962891 20.7168 1.06055C20.9707 1.15169 21.0977 1.38281 21.0977 1.75391V5.43555ZM19.7402 2.84766H21.5371C22.416 2.84766 23.194 3.03971 23.8711 3.42383C24.5547 3.80794 25.0918 4.3418 25.4824 5.02539C25.873 5.70898 26.0684 6.49674 26.0684 7.38867V8.53125C26.0684 8.7526 25.9902 8.94141 25.834 9.09766C25.6842 9.2474 25.5052 9.32227 25.2969 9.32227C25.0755 9.32227 24.8867 9.2474 24.7305 9.09766C24.5742 8.94141 24.4961 8.7526 24.4961 8.53125V7.39844C24.4961 6.79297 24.3724 6.25911 24.125 5.79688C23.8776 5.33464 23.5326 4.97331 23.0898 4.71289C22.6471 4.45247 22.1393 4.32227 21.5664 4.32227H19.7402C19.5384 4.32227 19.3626 4.25065 19.2129 4.10742C19.0697 3.96419 18.998 3.79167 18.998 3.58984C18.998 3.38151 19.0697 3.20573 19.2129 3.0625C19.3626 2.91927 19.5384 2.84766 19.7402 2.84766ZM5.90234 23.4531C5.90234 23.1016 6.0293 22.877 6.2832 22.7793C6.53711 22.6882 6.80404 22.7467 7.08398 22.9551L9.54492 24.8008C9.73372 24.944 9.82812 25.11 9.82812 25.2988C9.82812 25.4876 9.73372 25.6536 9.54492 25.7969L7.08398 27.6621C6.80404 27.8639 6.53711 27.9193 6.2832 27.8281C6.0293 27.737 5.90234 27.5059 5.90234 27.1348V23.4531ZM7.25977 26.041H5.46289C4.58398 26.041 3.80273 25.849 3.11914 25.4648C2.44206 25.0807 1.9082 24.5469 1.51758 23.8633C1.12695 23.1797 0.931641 22.3887 0.931641 21.4902V20.3477C0.931641 20.1328 1.00651 19.9473 1.15625 19.791C1.3125 19.6348 1.49805 19.5566 1.71289 19.5566C1.92773 19.5566 2.11328 19.6348 2.26953 19.791C2.42578 19.9473 2.50391 20.1328 2.50391 20.3477V21.4902C2.50391 22.0957 2.6276 22.6296 2.875 23.0918C3.1224 23.554 3.46745 23.9154 3.91016 24.1758C4.35286 24.4362 4.86393 24.5664 5.44336 24.5664H7.25977C7.4681 24.5664 7.64388 24.638 7.78711 24.7812C7.93034 24.9245 8.00195 25.097 8.00195 25.2988C8.00195 25.5007 7.93034 25.6732 7.78711 25.8164C7.64388 25.9661 7.4681 26.041 7.25977 26.041ZM7.58203 21.1777C6.79427 21.1777 6.16276 20.9368 5.6875 20.4551C5.21875 19.9733 4.98438 19.3288 4.98438 18.5215V10.3672C4.98438 9.5599 5.21875 8.91536 5.6875 8.43359C6.16276 7.95182 6.79427 7.71094 7.58203 7.71094H19.418C20.2122 7.71094 20.8438 7.95182 21.3125 8.43359C21.7812 8.91536 22.0156 9.5599 22.0156 10.3672V18.5215C22.0156 19.3288 21.7812 19.9733 21.3125 20.4551C20.8438 20.9368 20.2122 21.1777 19.418 21.1777H7.58203ZM7.9043 18.9512H19.0957C19.3105 18.9512 19.4766 18.8893 19.5938 18.7656C19.7174 18.6419 19.7793 18.4596 19.7793 18.2188V10.6699C19.7793 10.4355 19.7174 10.2565 19.5938 10.1328C19.4766 10.0091 19.3105 9.94727 19.0957 9.94727H7.9043C7.69596 9.94727 7.52995 10.0091 7.40625 10.1328C7.28906 10.2565 7.23047 10.4355 7.23047 10.6699V18.2188C7.23047 18.4596 7.28906 18.6419 7.40625 18.7656C7.52995 18.8893 7.69596 18.9512 7.9043 18.9512Z" fill="white" style="fill:white;fill-opacity:1;"/>
</svg>
