<svg width="27" height="22" viewBox="0 0 27 22" fill="none" xmlns="http://www.w3.org/2000/svg">
<path d="M17.4219 21.3301C16.0625 21.3301 14.7031 20.9668 13.3437 20.2402C11.9844 19.5137 10.6328 18.3457 9.28905 16.7363L5.5742 12.3418C5.24608 11.9668 5.06639 11.6035 5.03514 11.252C5.0117 10.9004 5.08592 10.5879 5.25779 10.3145C5.42967 10.041 5.66014 9.83398 5.9492 9.69336C6.24608 9.55273 6.55858 9.50586 6.8867 9.55273C7.22264 9.59961 7.53123 9.75977 7.81248 10.0332L10.0156 12.1543C10.6094 12.7402 11.1875 13.1543 11.75 13.3965C12.3125 13.6309 12.8398 13.748 13.332 13.748C13.9961 13.748 14.539 13.5723 14.9609 13.2207C15.3906 12.8613 15.7109 12.4199 15.9219 11.8965C16.1328 11.3652 16.2383 10.8418 16.2383 10.3262C16.2383 9.95117 16.1601 9.53711 16.0039 9.08398C15.8476 8.63086 15.6484 8.18555 15.4062 7.74805C15.164 7.31055 14.914 6.92773 14.6562 6.59961C14.4297 6.28711 14.1133 6.07617 13.707 5.9668C13.3008 5.84961 12.8476 5.8418 12.3476 5.94336L8.91405 6.62305C8.39842 6.73242 7.96092 6.67383 7.60154 6.44727C7.24217 6.21289 7.00389 5.9082 6.8867 5.5332C6.76951 5.15039 6.80467 4.7793 6.99217 4.41992C7.18748 4.06055 7.57029 3.80273 8.14061 3.64648L11.6445 2.68555C12.4258 2.47461 13.1719 2.38867 13.8828 2.42773C14.6015 2.4668 15.2617 2.63477 15.8633 2.93164C16.4648 3.22852 16.9765 3.64648 17.3984 4.18555C17.5781 4.39648 17.7539 4.6543 17.9258 4.95898C18.0976 5.25586 18.2461 5.53711 18.3711 5.80273C18.4961 6.03711 18.6523 6.1582 18.8398 6.16602C19.0351 6.16602 19.1914 6.0957 19.3086 5.95508C19.4336 5.80664 19.4453 5.62305 19.3437 5.4043C19.2031 5.08398 19.0508 4.76367 18.8867 4.44336C18.7305 4.11523 18.5586 3.7793 18.3711 3.43555C18.3164 3.34961 18.3008 3.25586 18.3242 3.1543C18.3555 3.05273 18.4297 2.9707 18.5469 2.9082C18.8203 2.76758 19.1367 2.70508 19.4961 2.7207C19.8633 2.73633 20.2226 2.86133 20.5742 3.0957C20.9258 3.32227 21.2148 3.69336 21.4414 4.20898L21.9101 5.27539C21.9961 5.4707 22.1172 5.58008 22.2734 5.60352C22.4375 5.62695 22.5742 5.58008 22.6836 5.46289C22.793 5.3457 22.8125 5.18555 22.7422 4.98242L22.4609 4.23242C22.4062 4.0918 22.4297 3.9707 22.5312 3.86914C22.6406 3.75977 22.7969 3.70508 23 3.70508C23.3984 3.70508 23.7734 3.91992 24.125 4.34961C24.4765 4.7793 24.7969 5.3418 25.0859 6.03711C25.375 6.73242 25.625 7.48633 25.8359 8.29883C26.0469 9.11133 26.207 9.9082 26.3164 10.6895C26.4336 11.4707 26.4922 12.1504 26.4922 12.7285C26.4922 13.916 26.3125 14.9746 25.9531 15.9043C25.6015 16.834 25.1211 17.6387 24.5117 18.3184C23.9023 18.998 23.207 19.5566 22.4258 19.9941C21.6523 20.4395 20.8359 20.7715 19.9765 20.9902C19.1172 21.2168 18.2656 21.3301 17.4219 21.3301ZM3.3828 1.04492C3.60936 0.794922 3.84764 0.669922 4.09764 0.669922C4.35545 0.669922 4.57811 0.751953 4.76561 0.916016C4.95311 1.07227 5.06248 1.2793 5.09373 1.53711C5.12498 1.78711 5.03123 2.0332 4.81248 2.27539C4.24217 2.92383 3.74998 3.61523 3.33592 4.34961C2.92186 5.08398 2.60155 5.84961 2.37498 6.64648C2.27342 6.99023 2.10545 7.2168 1.87108 7.32617C1.64451 7.43555 1.41405 7.45508 1.17967 7.38477C0.945295 7.30664 0.761701 7.16602 0.628889 6.96289C0.496076 6.75195 0.472639 6.49805 0.558576 6.20117C0.832014 5.27148 1.20701 4.36914 1.68358 3.49414C2.16014 2.61133 2.72655 1.79492 3.3828 1.04492ZM3.3828 17.3926C2.72655 16.6504 2.16014 15.8418 1.68358 14.9668C1.20701 14.084 0.832014 13.1777 0.558576 12.248C0.472639 11.9512 0.496076 11.6973 0.628889 11.4863C0.761701 11.2754 0.945295 11.1348 1.17967 11.0645C1.42186 10.9863 1.65623 11.0059 1.8828 11.123C2.10936 11.2324 2.27342 11.4551 2.37498 11.791C2.60155 12.5879 2.92186 13.3535 3.33592 14.0879C3.74998 14.8223 4.24217 15.5098 4.81248 16.1504C5.03123 16.4082 5.12498 16.6621 5.09373 16.9121C5.06248 17.1621 4.95311 17.3691 4.76561 17.5332C4.57811 17.6973 4.35545 17.7793 4.09764 17.7793C3.84764 17.7715 3.60936 17.6426 3.3828 17.3926Z" fill="white" style="fill:white;fill-opacity:1;"/>
</svg>
