<svg width="22" height="15" viewBox="0 0 22 15" fill="none" xmlns="http://www.w3.org/2000/svg">
<path d="M8.93443 14.3564C8.75186 14.3564 8.57973 14.3176 8.41803 14.2399C8.25633 14.1623 8.08681 14.038 7.90946 13.8672L4.57638 10.7302C4.52422 10.6836 4.45902 10.6603 4.38078 10.6603H2.13525C1.60842 10.6603 1.20417 10.518 0.922504 10.2332C0.640835 9.94853 0.5 9.52405 0.5 8.9598V6.07126C0.5 5.51219 0.640835 5.09029 0.922504 4.80558C1.20417 4.51569 1.60842 4.37074 2.13525 4.37074H4.38078C4.45902 4.37074 4.52422 4.34745 4.57638 4.30086L7.90946 1.1949C8.10768 1.00336 8.27981 0.866185 8.42586 0.783359C8.57191 0.700534 8.73621 0.659121 8.91878 0.659121C9.1848 0.659121 9.40127 0.749711 9.56818 0.930892C9.7351 1.1069 9.81855 1.32173 9.81855 1.57538V13.4867C9.81855 13.7352 9.7351 13.9423 9.56818 14.1079C9.40648 14.2736 9.19523 14.3564 8.93443 14.3564ZM12.6039 10.8078C12.4475 10.6991 12.3588 10.5594 12.3379 10.3885C12.3171 10.2177 12.3666 10.0495 12.4866 9.88383C12.7109 9.56805 12.8856 9.20569 13.0108 8.79674C13.136 8.38261 13.1986 7.95036 13.1986 7.5C13.1986 7.04964 13.136 6.61739 13.0108 6.20326C12.8908 5.78913 12.7161 5.42677 12.4866 5.11618C12.3614 4.9557 12.3092 4.79005 12.3301 4.61922C12.3562 4.44322 12.4475 4.30086 12.6039 4.19215C12.7396 4.09897 12.8882 4.06791 13.0499 4.09897C13.2116 4.13003 13.3446 4.22062 13.449 4.37074C13.7515 4.76417 13.9862 5.23524 14.1531 5.78396C14.3253 6.33268 14.4113 6.90469 14.4113 7.5C14.4113 8.09531 14.3253 8.66732 14.1531 9.21604C13.9862 9.76476 13.7515 10.2358 13.449 10.6293C13.3446 10.7794 13.2116 10.87 13.0499 10.901C12.8882 10.9269 12.7396 10.8959 12.6039 10.8078ZM15.5145 12.8345C15.3737 12.7361 15.2928 12.6067 15.272 12.4462C15.2511 12.2806 15.2955 12.1175 15.405 11.9571C15.8275 11.3514 16.1561 10.6655 16.3908 9.89935C16.6308 9.12804 16.7507 8.32826 16.7507 7.5C16.7507 6.67174 16.6334 5.87196 16.3987 5.10065C16.1639 4.32933 15.8327 3.64343 15.405 3.04295C15.2902 2.88247 15.2433 2.722 15.2642 2.56152C15.2902 2.39587 15.3737 2.26387 15.5145 2.16551C15.6606 2.06716 15.8145 2.03351 15.9762 2.06457C16.1379 2.09563 16.2709 2.18622 16.3752 2.33634C16.8811 3.0093 17.2724 3.79873 17.5488 4.70464C17.8253 5.61054 17.9635 6.54233 17.9635 7.5C17.9635 8.45767 17.8227 9.38687 17.541 10.2876C17.2645 11.1883 16.8759 11.9803 16.3752 12.6637C16.2709 12.8138 16.1379 12.9044 15.9762 12.9354C15.8145 12.9613 15.6606 12.9277 15.5145 12.8345ZM18.4486 14.8922C18.3025 14.7938 18.2191 14.6592 18.1982 14.4884C18.1773 14.3228 18.2217 14.1623 18.3312 14.007C18.7329 13.4169 19.0797 12.7775 19.3718 12.0891C19.6692 11.3954 19.8987 10.6655 20.0604 9.89935C20.2221 9.12804 20.3029 8.32826 20.3029 7.5C20.3029 6.66657 20.2221 5.86678 20.0604 5.10065C19.8987 4.32933 19.6692 3.60202 19.3718 2.91871C19.0797 2.23022 18.7329 1.58832 18.3312 0.993012C18.2217 0.832537 18.1773 0.669474 18.1982 0.503823C18.2191 0.338171 18.3025 0.206168 18.4486 0.107813C18.5842 0.00945725 18.7355 -0.0216024 18.9024 0.0146339C19.0693 0.0456935 19.2049 0.141461 19.3092 0.301935C19.7578 0.959364 20.1464 1.67115 20.475 2.43728C20.8037 3.19824 21.0566 4.00321 21.234 4.85217C21.4113 5.70113 21.5 6.58374 21.5 7.5C21.5 8.41626 21.4113 9.29887 21.234 10.1478C21.0618 10.9968 20.8115 11.8043 20.4829 12.5705C20.1595 13.3314 19.7683 14.0406 19.3092 14.6981C19.2049 14.8534 19.0693 14.9491 18.9024 14.9854C18.7355 15.0216 18.5842 14.9905 18.4486 14.8922Z" fill="white" style="fill:white;fill-opacity:1;"/>
</svg>
