<svg width="14" height="15" viewBox="0 0 14 15" fill="none" xmlns="http://www.w3.org/2000/svg">
<path d="M3.02196 10.2114C2.51205 10.2114 2.12962 10.074 1.87467 9.79915C1.61971 9.51903 1.49223 9.09355 1.49223 8.52273V5.48626C1.49223 4.95772 1.60221 4.56131 1.82217 4.29704L10.3706 13.3272C10.3107 13.5544 10.2107 13.7209 10.0707 13.8266C9.93073 13.9323 9.76326 13.9852 9.56829 13.9852C9.39832 13.9852 9.23585 13.9456 9.08088 13.8663C8.92591 13.787 8.76094 13.6601 8.58597 13.4857L5.34655 10.2828C5.29655 10.2352 5.23407 10.2114 5.15908 10.2114H3.02196ZM10.4231 9.05391L5.21907 3.56765H5.44403C5.48902 3.56765 5.53151 3.54651 5.57151 3.50423L8.58597 0.54704C8.78093 0.356765 8.9484 0.219345 9.08838 0.134778C9.22835 0.044926 9.38582 0 9.56079 0C9.81575 0 10.0232 0.0924947 10.1832 0.277484C10.3432 0.457188 10.4231 0.676533 10.4231 0.935518V9.05391ZM13.0177 14.8177L0.164971 1.24471C0.0549902 1.12844 0 0.985729 0 0.816596C0 0.642178 0.0549902 0.496829 0.164971 0.38055C0.27995 0.258985 0.417425 0.200846 0.577397 0.206131C0.737368 0.206131 0.874844 0.264271 0.989823 0.38055L13.8275 13.9535C13.9425 14.0751 14 14.2178 14 14.3816C14 14.5507 13.9425 14.6961 13.8275 14.8177C13.7225 14.9392 13.5876 15 13.4226 15C13.2626 15 13.1277 14.9392 13.0177 14.8177Z" fill="#D7494A" style="fill:#D7494A;fill:color(display-p3 0.8431 0.2863 0.2902);fill-opacity:1;"/>
</svg>
