<svg width="42" height="42" viewBox="0 0 42 42" fill="none" xmlns="http://www.w3.org/2000/svg">
<path d="M13.0859 3C14.5742 3 15.9277 3.36328 17.1465 4.08984C18.3652 4.81641 19.3379 5.78906 20.0645 7.00781C20.791 8.22656 21.1543 9.57422 21.1543 11.0508C21.1543 11.168 21.1484 11.2617 21.1367 11.332C21.1367 11.4023 21.1367 11.4609 21.1367 11.5078C21.125 11.7773 21.0137 11.9941 20.8027 12.1582C20.5918 12.3105 20.3633 12.3867 20.1172 12.3867C19.8828 12.3867 19.666 12.3105 19.4668 12.1582C19.2676 12.0059 19.168 11.7539 19.168 11.4023C19.168 11.332 19.168 11.2734 19.168 11.2266C19.168 11.168 19.168 11.1094 19.168 11.0508C19.168 9.9375 18.8926 8.92383 18.3418 8.00977C17.791 7.0957 17.0586 6.36328 16.1445 5.8125C15.2305 5.26172 14.2109 4.98633 13.0859 4.98633C11.9609 4.98633 10.9355 5.26172 10.0098 5.8125C9.0957 6.36328 8.36328 7.0957 7.8125 8.00977C7.26172 8.92383 6.98633 9.9375 6.98633 11.0508C6.98633 11.8008 7.10938 12.5098 7.35547 13.1777C7.61328 13.834 7.96484 14.4258 8.41016 14.9531C8.62109 15.2109 8.70898 15.4688 8.67383 15.7266C8.63867 15.9727 8.52148 16.1836 8.32227 16.3594C8.13477 16.5234 7.91797 16.6055 7.67188 16.6055C7.51953 16.6055 7.36719 16.5703 7.21484 16.5C7.0625 16.4297 6.92188 16.3125 6.79297 16.1484C6.23047 15.457 5.79102 14.6777 5.47461 13.8105C5.1582 12.9434 5 12.0234 5 11.0508C5 9.94922 5.21094 8.91211 5.63281 7.93945C6.05469 6.9668 6.63477 6.11133 7.37305 5.37305C8.11133 4.63477 8.9668 4.05469 9.93945 3.63281C10.9238 3.21094 11.9727 3 13.0859 3ZM29.0117 38.3496C26.5508 39.252 24.084 39.3574 21.6113 38.666C19.1504 37.9746 16.8418 36.2754 14.6855 33.5684L9.37695 26.8887C9.2832 26.7715 9.18945 26.6484 9.0957 26.5195C9.01367 26.3789 8.94336 26.2266 8.88477 26.0625C8.7207 25.6172 8.73828 25.1777 8.9375 24.7441C9.13672 24.3105 9.5 23.9941 10.0273 23.7949C10.3672 23.666 10.7012 23.6484 11.0293 23.7422C11.3574 23.8242 11.6797 24.0352 11.9961 24.375L16.2676 28.9102C16.5605 29.2266 16.8418 29.3379 17.1113 29.2441C17.2402 29.1973 17.3398 29.1035 17.4102 28.9629C17.4922 28.8105 17.4922 28.6289 17.4102 28.418L11.2227 11.4023C11.0117 10.8164 11.0059 10.2949 11.2051 9.83789C11.4043 9.36914 11.7676 9.04102 12.2949 8.85352C12.7871 8.67773 13.2559 8.70117 13.7012 8.92383C14.1582 9.14648 14.4922 9.54492 14.7031 10.1191L18.9746 21.8438C19.0801 22.1484 19.2266 22.3535 19.4141 22.459C19.6016 22.5527 19.7891 22.5645 19.9766 22.4941C20.1523 22.4238 20.2754 22.2949 20.3457 22.1074C20.4277 21.9082 20.4219 21.6621 20.3281 21.3691L19.0098 17.7832C18.8223 17.2559 19.0332 16.8809 19.6426 16.6582C20.3223 16.4121 20.9727 16.4238 21.5938 16.6934C22.2148 16.9629 22.6953 17.5488 23.0352 18.4512L23.6328 20.1562C23.75 20.4492 23.8965 20.6484 24.0723 20.7539C24.2598 20.8477 24.4531 20.8652 24.6523 20.8066C24.8281 20.7363 24.9512 20.6074 25.0215 20.4199C25.0918 20.2207 25.0742 19.9746 24.9688 19.6816L24.3008 17.8359C24.1133 17.2969 24.3242 16.916 24.9336 16.6934C25.6367 16.4473 26.3047 16.4824 26.9375 16.7988C27.582 17.1152 28.0508 17.6777 28.3438 18.4863L28.6602 19.4004C28.7773 19.6934 28.9238 19.8867 29.0996 19.9805C29.2871 20.0742 29.4805 20.0918 29.6797 20.0332C29.8555 19.9629 29.9785 19.834 30.0488 19.6465C30.1309 19.4473 30.1191 19.2012 30.0137 18.9082L29.5039 17.5547C29.3867 17.2148 29.498 16.9805 29.8379 16.8516C30.5879 16.582 31.3848 16.7402 32.2285 17.3262C33.084 17.9004 33.7578 18.8672 34.25 20.2266L35.3223 23.1445C36.2012 25.5703 36.5469 27.7793 36.3594 29.7715C36.1719 31.7637 35.457 33.4922 34.2148 34.957C32.9844 36.4102 31.25 37.541 29.0117 38.3496Z" fill="white"/>
</svg>
